<svg xmlns="http://www.w3.org/2000/svg" viewBox="0 0 119.438 158.724"><defs><style>.cls-1{fill:#9a8c98}</style></defs><g id="_051-balloons" data-name="051-balloons" transform="translate(-63.363)"><g id="Group_106" data-name="Group 106" transform="translate(84.473 32.894)"><g id="Group_105" data-name="Group 105"><path id="Path_67" data-name="Path 67" class="cls-1" d="M157.544 106.107a10.962 10.962 0 0 0-7.614 3.061 10.9 10.9 0 0 0-18.473 7.928 11.392 11.392 0 0 0 1.392 5.573l.035.07c2.337 4.734 14.177 14.626 15.52 15.739l1.523 1.262 1.526-1.258c1.355-1.117 13.3-11.049 15.541-15.777l.059-.124a11.9 11.9 0 0 0 1.369-5.485 10.945 10.945 0 0 0-10.878-10.989zm5.186 14.42l-.061.129c-1.211 2.556-7.909 8.756-12.734 12.856-4.8-4.095-11.479-10.3-12.759-12.89l-.036-.073a6.829 6.829 0 0 1-.9-3.453 6.074 6.074 0 0 1 6.073-6.2 6.193 6.193 0 0 1 5.5 3.324l2.118 4.031 2.118-4.031a6.194 6.194 0 0 1 5.5-3.324 6.083 6.083 0 0 1 6.091 6.2 7.268 7.268 0 0 1-.91 3.431z" transform="translate(-131.457 -106.107)"/></g></g><g id="Group_108" data-name="Group 108" transform="translate(135.648 69.823)"><g id="Group_107" data-name="Group 107"><path id="Path_68" data-name="Path 68" class="cls-1" d="M316.452 225.229a8.73 8.73 0 0 0-5.631 2.049 8.683 8.683 0 0 0-14.285 6.7 9.093 9.093 0 0 0 1.094 4.4l.025.051c1.748 3.542 10 10.487 11.639 11.844l1.523 1.262 1.526-1.258c1.653-1.362 9.981-8.338 11.66-11.882l.043-.091a9.356 9.356 0 0 0 1.073-4.325 8.718 8.718 0 0 0-8.667-8.75zm3.272 11.02l-.046.1c-.786 1.658-5.231 5.849-8.854 8.954-3.605-3.1-8.045-7.3-8.878-8.989l-.026-.053a4.419 4.419 0 0 1-.6-2.278 3.876 3.876 0 0 1 3.868-3.965 3.959 3.959 0 0 1 3.513 2.125l2.118 4.03 2.118-4.03a3.959 3.959 0 0 1 3.513-2.125 3.882 3.882 0 0 1 3.882 3.965 4.732 4.732 0 0 1-.608 2.266z" transform="translate(-296.536 -225.229)"/></g></g><g id="Group_110" data-name="Group 110" transform="translate(63.363)"><g id="Group_109" data-name="Group 109"><path id="Path_69" data-name="Path 69" class="cls-1" d="M174.513 51.48c-5.868-6.407-14.365-9.794-24.574-9.794a36.234 36.234 0 0 0-7.444.764c.032-.883.05-1.762.05-2.63 0-11.051-3.544-21.006-9.98-28.034C125.506 4.075 115.266 0 102.955 0c-11.269 0-21.47 4.172-28.724 11.747A40.239 40.239 0 0 0 63.363 39.82a78.331 78.331 0 0 0 13.106 43.536c5.4 7.97 11.737 13.741 17.991 16.591-2.611 2.839-2.971 6.674-.767 8.878a5.073 5.073 0 0 0 3.657 1.449 6.564 6.564 0 0 0 1.353-.146c-.035.4-.055.82-.055 1.266a11.881 11.881 0 0 0 2.3 7.216 7.727 7.727 0 0 1 0 9.232 12.477 12.477 0 0 0 0 14.432 7.729 7.729 0 0 1 0 9.234 11.884 11.884 0 0 0-2.3 7.216h4.786a7.2 7.2 0 0 1 1.531-4.617 12.479 12.479 0 0 0 0-14.432 7.728 7.728 0 0 1 0-9.233 12.476 12.476 0 0 0 0-14.432 7.2 7.2 0 0 1-1.53-4.616 6.884 6.884 0 0 1 .508-2.82 7.659 7.659 0 0 0 4.619 1.7 5.071 5.071 0 0 0 3.657-1.45c2.228-2.228 1.836-6.123-.854-8.971a36.585 36.585 0 0 0 8.612-5.935c4.334 14.077 13.124 25.743 22.247 30.2-.022.022-.046.041-.068.063a8.02 8.02 0 0 0-2.266 4.169 5.123 5.123 0 0 0 1.3 4.613 4.891 4.891 0 0 0 3.524 1.4 6.361 6.361 0 0 0 1.6-.211c-.023.377-.035.777-.035 1.2a14.876 14.876 0 0 0 1.476 6.8 11.628 11.628 0 0 1 0 9.77 14.88 14.88 0 0 0-1.476 6.8h4.786a10.245 10.245 0 0 1 1.076-4.885 16.4 16.4 0 0 0 0-13.6 10.245 10.245 0 0 1-1.076-4.885 12.113 12.113 0 0 1 .186-2.265 7.139 7.139 0 0 0 3.927 1.274 4.894 4.894 0 0 0 3.524-1.4 5.122 5.122 0 0 0 1.3-4.613 8.018 8.018 0 0 0-2.266-4.169c-.051-.051-.1-.1-.156-.144 4.881-2.477 9.851-7.134 14.176-13.452A64.068 64.068 0 0 0 182.8 74.734c0-9.16-2.942-17.418-8.287-23.254zm-73.954 50.9a3.434 3.434 0 0 1-1.08 2.027c-1.1 1.1-2.219 1.168-2.4 1.041-.132-.187-.066-1.3 1.037-2.4a3.312 3.312 0 0 1 2.15-1.088.494.494 0 0 1 .251.047.444.444 0 0 1 .048.216c-.001.045-.006.098-.005.152zm8.275 3.063c-.187.131-1.3.066-2.405-1.037-.029-.029-.055-.059-.083-.088a10.73 10.73 0 0 0 .621-1.925 4.284 4.284 0 0 1 .827.649c1.106 1.099 1.169 2.214 1.041 2.397zm10.636-17.72c-5.678 6-11.7 9.447-16.515 9.447-7 0-15.633-6.321-22.523-16.5a73.5 73.5 0 0 1-12.283-40.851c0-20.3 14.638-35.034 34.806-35.034 21.144 0 34.806 13.752 34.806 35.034 0 1.83-.076 3.709-.225 5.583-1.187 14.884-7.2 29.719-16.221 40.269q-.903 1.055-1.845 2.052zm28.079 39.045a3 3 0 0 1-.965 1.841 2.709 2.709 0 0 1-2 .956 3.328 3.328 0 0 1 2.958-2.957.642.642 0 0 1 .01.113.36.36 0 0 0-.003.047zm7.748 2.8a2.71 2.71 0 0 1-2-.956 4.055 4.055 0 0 1-.31-.349 13.146 13.146 0 0 0 .35-1.421 3.694 3.694 0 0 1 1.005.724 2.713 2.713 0 0 1 .958 1.999zm-5.358-8.291c-4.446 0-9.8-3.24-14.7-8.89a56.272 56.272 0 0 1-11.4-22.343l.056-.064c.115-.128.228-.259.342-.387.2-.23.407-.46.609-.693.127-.148.251-.3.377-.447.185-.219.37-.439.552-.662.132-.161.261-.324.392-.486.173-.216.347-.432.517-.65.133-.17.264-.343.4-.515.165-.215.33-.431.492-.649.133-.178.264-.358.4-.537.158-.216.316-.433.472-.652q.2-.277.391-.556.228-.327.454-.658.194-.286.386-.574.22-.331.438-.666.19-.292.377-.586.214-.337.424-.677l.368-.6q.207-.342.411-.688c.12-.2.24-.4.357-.608.135-.233.267-.467.4-.7.115-.2.231-.408.345-.614.132-.239.261-.48.391-.721.11-.2.221-.408.329-.614.131-.249.258-.5.386-.75.1-.2.207-.4.309-.6.135-.271.267-.545.4-.817.09-.185.182-.368.27-.554q.316-.664.62-1.335c.072-.158.14-.318.211-.476.142-.319.285-.639.423-.961.087-.2.17-.407.256-.611.113-.27.227-.538.337-.81.088-.218.174-.437.26-.656.1-.259.206-.518.306-.778.087-.226.171-.453.255-.68.1-.256.191-.512.285-.769.084-.231.164-.463.246-.694.09-.255.18-.511.267-.767l.234-.7q.127-.385.251-.771.113-.354.221-.709c.08-.259.159-.517.236-.777q.106-.356.208-.712.113-.392.221-.784.1-.356.194-.713.106-.4.207-.8.091-.355.179-.71c.066-.269.13-.538.193-.807.055-.235.111-.47.164-.706.062-.275.121-.55.18-.825.049-.231.1-.461.147-.692.058-.284.113-.569.168-.854.043-.224.088-.447.129-.671.055-.3.106-.593.157-.89.037-.213.075-.427.11-.64.053-.324.1-.648.15-.972.028-.187.059-.374.086-.56.061-.426.117-.853.171-1.28l.034-.256q.093-.753.17-1.507a31 31 0 0 1 7.784-.965c17.055 0 28.075 11.093 28.075 28.262-.004 25.232-17.248 46.531-28.079 46.531z" transform="translate(-63.363)"/></g></g><g id="Group_112" data-name="Group 112" transform="translate(116.56 10.63)"><g id="Group_111" data-name="Group 111"><path id="Path_70" data-name="Path 70" class="cls-1" d="M236.959 34.289l-2 4.349a25.106 25.106 0 0 1 3.5 1.952l2.664-3.976a29.971 29.971 0 0 0-4.164-2.325z" transform="translate(-234.963 -34.289)"/></g></g><g id="Group_114" data-name="Group 114" transform="translate(121.458 14.171)"><g id="Group_113" data-name="Group 113"><path id="Path_71" data-name="Path 71" class="cls-1" d="M253.7 45.711l-2.942 3.775a25.18 25.18 0 0 1 8.385 12.121l4.536-1.525a30.291 30.291 0 0 0-9.979-14.371z" transform="translate(-250.763 -45.711)"/></g></g><g id="Group_116" data-name="Group 116" transform="translate(128.714 97.42)"><g id="Group_115" data-name="Group 115"><path id="Path_72" data-name="Path 72" class="cls-1" d="M278.576 314.25l-4.408 1.864a38.71 38.71 0 0 0 8.574 12.853l3.31-3.456a34.4 34.4 0 0 1-7.476-11.261z" transform="translate(-274.168 -314.25)"/></g></g></g></svg>