<svg xmlns="http://www.w3.org/2000/svg" viewBox="0 0 394.831 394.831"><path fill="#fff" d="M212.838 326.969h-30.846c-1.697 0-3.085 1.388-3.085 3.085s1.388 3.085 3.085 3.085h30.846c1.697 0 3.085-1.388 3.085-3.085s-1.388-3.085-3.085-3.085m-27.78-83.581c-.173-1.882-4.646-46.238-34.313-66.011-10.753-7.169-24.362-10.809-40.433-10.809-17.996 0-32.537 4.602-33.147 4.8-2.011.648-3.307 2.622-3.115 4.744.173 1.876 4.627 46.251 34.301 66.017 10.728 7.169 24.319 10.809 40.396 10.809 18.014 0 32.58-4.608 33.197-4.806a4.54 4.54 0 0 0 3.114-4.744m132.608-72.019c-.611-.197-15.152-4.8-33.147-4.8-16.071 0-29.68 3.64-40.433 10.809-29.668 19.772-34.141 64.129-34.313 66.011a4.542 4.542 0 0 0 3.116 4.744c.617.197 15.182 4.806 33.197 4.806 16.077 0 29.668-3.64 40.396-10.809 29.674-19.766 34.128-64.141 34.301-66.017.19-2.122-1.106-4.096-3.117-4.744M197.434 388.662c-58.472 0-160.418-142.713-160.418-224.56C37.016 77.017 108.98 6.17 197.434 6.17c88.436 0 160.382 70.848 160.382 157.932-.001 81.847-101.929 224.56-160.382 224.56m0-388.662C105.58 0 30.846 73.611 30.846 164.102c0 86.252 104.309 230.729 166.588 230.729 62.266 0 166.551-144.477 166.551-230.729C363.985 73.611 289.269 0 197.434 0"/></svg>