<svg xmlns="http://www.w3.org/2000/svg" width="800" height="500" viewBox="0 0 800 500"><path fill="#29323B" d="M-10.488-21.23H837v701.61H-10.488z"/><path fill="#FAF096" d="M151.626 102.355l4.51 1.03-4.51 1.03-1.284 4.762-1.284-4.763-4.51-1.03 4.51-1.03 1.284-4.762m101.193 240.954l4.508 1.03-4.508 1.028-1.284 4.763-1.282-4.763-4.51-1.03 4.51-1.028 1.284-4.764m215.018-23.527l3.514.803-3.514.802-1 3.71-1.002-3.71-3.513-.802 3.513-.803 1.002-3.712m124.96-121.26l3.513.802-3.514.802-1 3.712-1.003-3.714-3.513-.802 3.513-.802 1-3.713m-41.662 363.793l4.51 1.032-4.51 1.03-1.283 4.763-1.285-4.764-4.508-1.03 4.506-1.03 1.285-4.762M426.258 180.54l4.51 1.03-4.51 1.03-1.283 4.763-1.286-4.763-4.506-1.03 4.506-1.03 1.286-4.762M140.04 232.21l4.51 1.03-4.51 1.03-1.283 4.763-1.284-4.764-4.51-1.03 4.51-1.03 1.284-4.763m-22.452 405.938l4.507 1.03-4.507 1.028-1.284 4.764-1.283-4.764-4.508-1.03 4.507-1.028 1.285-4.764m245.42-49.01l3.515.8-3.515.803-1 3.71-1-3.71-3.513-.803 3.51-.8 1-3.714m385.074-448.5l3.515.803-3.517.8-.998 3.712-1.002-3.713-3.512-.8 3.513-.805 1.002-3.712m-36.8-103.678l3.514.803-3.517.8-1 3.713-1-3.71-3.514-.8 3.512-.804 1.002-3.712M32.668 482.527l3.515.803-3.515.803-1 3.71-1-3.71-3.514-.803 3.513-.803 1-3.71M341.11 232.03l5.308 1.21-5.307 1.21-1.507 5.608-1.512-5.607-5.305-1.21 5.306-1.21 1.513-5.606m254.65 94.753l5.308 1.212-5.305 1.21-1.51 5.605-1.513-5.606-5.304-1.21 5.305-1.214 1.513-5.606M368.53 475.303l5.306 1.21-5.307 1.212-1.51 5.605-1.513-5.605-5.306-1.21 5.307-1.212 1.512-5.606M197.9 20.005l3.514.803-3.515.8-1.003 3.712-1-3.71-3.512-.802 3.51-.803 1.002-3.712M167.54 435.227l3.515.8-3.515.803-1 3.71-1-3.71-3.515-.803 3.514-.8 1-3.713M740 435.227l3.516.802-3.515.8-1 3.71-1-3.71-3.512-.8 3.513-.804 1-3.713M521.23 56.463l3.514.802-3.514.802-1 3.71-1-3.71-3.514-.802 3.513-.802 1-3.713M339.86 51.72l4.51 1.03-4.51 1.03-1.284 4.763-1.285-4.764-4.505-1.03 4.507-1.03 1.286-4.764m302.58 358.404l5.306 1.21-5.307 1.21-1.51 5.606-1.51-5.605-5.308-1.21 5.305-1.21 1.51-5.606m1.512-320.652l5.307 1.21-5.307 1.212-1.51 5.606-1.51-5.606-5.308-1.21 5.305-1.212 1.51-5.605M327.99 390.414l3.515.802-3.514.802-1 3.71-1-3.71-3.512-.802 3.513-.802 1-3.713M86.257 363.12l3.515.803-3.513.802-1 3.712-1-3.712-3.513-.802 3.512-.802 1-3.71m582.566-90.798l3.515.802-3.515.802-1 3.712-1-3.712-3.513-.802 3.51-.802 1-3.714M32.67 24.52l3.515.8-3.515.803-1 3.71-1-3.71-3.514-.803 3.513-.8 1-3.713M44.51 155.972l5.308 1.21-5.307 1.212L43 164l-1.51-5.606-5.307-1.21 5.306-1.212 1.51-5.607m458.228 266.733l3.514.803-3.514.804-1 3.71-1.002-3.71-3.513-.802 3.513-.802 1.002-3.712M257.043 185.283l3.515.802-3.515.803-1 3.71-1.002-3.71-3.51-.803 3.512-.802 1.003-3.712M754 232.44l3.515.802-3.515.8-1 3.712-1-3.71-3.515-.802 3.514-.803 1-3.714"/></svg>