<?xml version="1.0" encoding="utf-8"?>
<!-- Generator: Adobe Illustrator 18.0.0, SVG Export Plug-In . SVG Version: 6.00 Build 0)  -->
<!DOCTYPE svg PUBLIC "-//W3C//DTD SVG 1.1//EN" "http://www.w3.org/Graphics/SVG/1.1/DTD/svg11.dtd">
<svg version="1.1" id="Layer_1" xmlns="http://www.w3.org/2000/svg" xmlns:xlink="http://www.w3.org/1999/xlink" x="0px" y="0px"
	 viewBox="0 0 1400 1700" enable-background="new 0 0 1400 1700" xml:space="preserve">
<g>
	<rect fill="#F3C283" width="1400" height="1700"/>
	<circle fill="#FFD7AB" cx="700" cy="634.8" r="575.5"/>
	<g>
		<g>
			<path fill="#B14A32" d="M1026,1083.8H919.5c-39.3,0-71.1-31.8-71.1-71.1v-51.7l-91.3,69.9c-33.7,25.8-80.4,25.8-114.1,0
				l-91.3-69.9v51.7c0,39.3-31.8,71.1-71.1,71.1H374c-75,0-135.7,60.8-135.7,135.7V1700h923.5v-480.4
				C1161.7,1144.6,1101,1083.8,1026,1083.8z"/>
			<path fill="#291E18" d="M757.1,1030.9l91.3-69.9V781.9H551.6v179.1l91.3,69.9C676.6,1056.7,723.4,1056.7,757.1,1030.9z"/>
		</g>
		<g>
			<path fill="#933B2A" d="M445.1,519.7h15v227h0c-43.9,0-81.3-26.5-88.2-62.6l-15-78.7C348.3,560.4,390.2,519.7,445.1,519.7z"/>
			<path fill="#7C281D" d="M426.1,675.9c0,12.6-18.2,14.5-20.7,2.2c0-0.1,0-0.2-0.1-0.3l-15-78.7c-2.1-11.2,2.8-20,7.3-25.5
				c3.5-4.2,7.8-7.8,12.7-10.7c6.9-4.2,15.8,0.9,15.8,9V675.9z"/>
		</g>
		<g>
			<path fill="#933B2A" d="M954.9,519.7h-15v227h0c43.9,0,81.3-26.5,88.2-62.6l15-78.7C1051.7,560.4,1009.8,519.7,954.9,519.7z"/>
			<path fill="#7C281D" d="M973.9,675.9c0,12.6,18.2,14.5,20.7,2.2c0-0.1,0-0.2,0.1-0.3l15-78.7c2.1-11.2-2.8-20-7.3-25.5
				c-3.5-4.2-7.8-7.8-12.7-10.7c-6.9-4.2-15.8,0.9-15.8,9V675.9z"/>
		</g>
		<path fill="#B14A32" d="M915.3,844.8L757.1,965.9c-33.7,25.8-80.4,25.8-114.1,0L484.7,844.8c-26.6-20.4-42.2-52-42.2-85.5v-309
			c0-142.2,115.3-257.6,257.6-257.6h0c142.2,0,257.6,115.3,257.6,257.6v309C957.6,792.8,941.9,824.4,915.3,844.8z"/>
		<g>
			<linearGradient id="SVGID_1_" gradientUnits="userSpaceOnUse" x1="854.4322" y1="1133.4038" x2="864.191" y2="1188.7489">
				<stop  offset="0" style="stop-color:#291E18"/>
				<stop  offset="0.6486" style="stop-color:#291E18;stop-opacity:0"/>
			</linearGradient>
			<path opacity="0.8" fill="url(#SVGID_1_)" d="M986.9,1147H781.1c-23.8,0-43.1,19.3-43.1,43.1v20.9L986.9,1147z"/>
			
				<linearGradient id="SVGID_2_" gradientUnits="userSpaceOnUse" x1="3004.4321" y1="1133.4038" x2="3014.1909" y2="1188.7489" gradientTransform="matrix(-1 0 0 1 3550 0)">
				<stop  offset="0" style="stop-color:#291E18"/>
				<stop  offset="0.6486" style="stop-color:#291E18;stop-opacity:0"/>
			</linearGradient>
			<path opacity="0.8" fill="url(#SVGID_2_)" d="M413.1,1147h205.8c23.8,0,43.1,19.3,43.1,43.1v20.9L413.1,1147z"/>
		</g>
		<g>
			<g>
				<path fill="#A4B82B" d="M700,1267.1c-62.2,0-120.9-21.1-165.1-59.4c-39.2-33.9-63.1-77.8-68.6-125.2c-1.3-11.4,7.5-21.5,19-21.5
					h0.7c9.8,0,17.9,7.4,19,17.1c10.1,84.1,93.6,150,195,150s184.9-65.9,195-150c1.2-9.7,9.3-17.1,19-17.1h0.7
					c11.5,0,20.3,10,19,21.5c-5.5,47.4-29.4,91.3-68.6,125.2C820.9,1246,762.2,1267.1,700,1267.1z"/>
			</g>
			<g>
				<g>
					<g>
						<path fill="#DD341F" d="M913,1128.1c0,0-0.3-0.4-0.8-1.1c-0.5-0.7-1.3-1.6-2.3-2.8c-1.9-2.3-4.5-5.3-7.1-8.1
							c-1.3-1.4-2.7-2.8-4-4.1c-1.3-1.3-2.5-2.4-3.6-3.4c-2.1-2-3.5-3.2-3.5-3.2s1.9-0.4,4.6-1.2c2.7-0.8,6.4-1.9,10.1-3.2
							c3.7-1.3,7.3-2.8,10-4c2.7-1.2,4.6-2,4.6-2s-0.3,2.1-0.8,5.3c-0.1,0.8-0.3,1.6-0.4,2.6c-0.2,0.9-0.4,1.8-0.6,2.8
							c-0.4,2-0.8,4.1-1.3,6.1c-0.5,2.1-1.1,4.1-1.6,6.1c-0.5,1.9-1.1,3.7-1.6,5.2c-0.5,1.5-0.9,2.8-1.2,3.7
							C913.2,1127.6,913,1128.1,913,1128.1z"/>
						<path fill="#FEB500" d="M913.1,1105.3c0,0-0.1,0.6-0.3,1.6c-0.2,1-0.4,2.3-0.8,3.5c-0.7,2.5-1.3,5.1-1.3,5.1s-1.7-1.8-3.5-3.6
							c-1.8-1.8-3.5-3.5-3.5-3.5s0.6-0.2,1.5-0.4c0.9-0.3,2.1-0.7,3.2-1C910.7,1106.1,913.1,1105.3,913.1,1105.3z"/>
					</g>
					<g>
						<path fill="#DD341F" d="M898.2,1158.6c0,0-0.9-1.8-2.2-4.4c-1.4-2.6-3.3-6.1-5.3-9.4c-1-1.7-2-3.3-3-4.8c-1-1.5-2-2.9-2.8-4.1
							c-1.6-2.4-2.8-3.9-2.8-3.9s1.9,0,4.8-0.2c2.8-0.2,6.7-0.5,10.5-1c3.9-0.5,7.7-1.1,10.6-1.7c2.9-0.6,4.9-1,4.9-1s-0.7,2-1.9,5
							c-0.6,1.5-1.3,3.2-2.1,5c-0.4,0.9-0.8,1.9-1.2,2.8c-0.4,1-0.9,1.9-1.4,2.8c-1,1.9-1.9,3.8-2.8,5.6c-1,1.7-1.9,3.3-2.6,4.7
							c-0.4,0.7-0.7,1.3-1.1,1.9c-0.3,0.5-0.6,1-0.9,1.4C898.5,1158.1,898.2,1158.6,898.2,1158.6z"/>
						<path fill="#FEB500" d="M903.1,1136.4c0,0-0.3,0.6-0.7,1.5c-0.4,0.9-1,2.1-1.5,3.2c-1.2,2.3-2.3,4.7-2.3,4.7s-1.3-2.2-2.7-4.3
							c-1.4-2.1-2.8-4.2-2.8-4.2s2.5-0.2,5-0.4C900.6,1136.7,903.1,1136.4,903.1,1136.4z"/>
					</g>
					<g>
						<path fill="#DD341F" d="M878,1185.4c0,0-0.5-1.9-1.4-4.7c-0.8-2.8-2.1-6.6-3.5-10.2c-0.7-1.8-1.4-3.6-2-5.3
							c-0.7-1.7-1.3-3.2-1.9-4.6c-1.2-2.7-2-4.4-2-4.4s1.9,0.3,4.8,0.7c2.9,0.4,6.6,0.8,10.5,1.1c1.9,0.2,3.9,0.3,5.8,0.4
							c1.8,0.1,3.5,0.1,5,0.2c2.9,0.1,4.9,0,4.9,0s-1.1,1.8-2.8,4.5c-0.9,1.3-1.9,2.8-3.1,4.4c-0.6,0.8-1.1,1.7-1.8,2.5
							c-0.6,0.8-1.3,1.7-1.9,2.5C883.7,1179.2,878,1185.4,878,1185.4z"/>
						<path fill="#FEB500" d="M886.9,1164.6c0,0-0.4,0.5-0.9,1.3c-0.6,0.8-1.4,1.8-2.2,2.8c-0.8,1-1.6,2.1-2.2,2.8
							c-0.6,0.8-1,1.3-1,1.3s-0.2-0.6-0.5-1.5c-0.3-0.9-0.8-2.1-1.3-3.2c-0.9-2.3-1.9-4.6-1.9-4.6s2.5,0.3,5,0.6
							c1.3,0.1,2.5,0.3,3.4,0.3C886.3,1164.6,886.9,1164.6,886.9,1164.6z"/>
					</g>
					<g>
						<path fill="#DD341F" d="M853.5,1208c0,0-0.1-0.5-0.2-1.3c-0.1-0.9-0.2-2-0.4-3.5c-0.4-2.9-1-6.8-1.7-10.6
							c-0.4-1.9-0.7-3.8-1.1-5.6c-0.4-1.8-0.8-3.4-1.1-4.8c-0.7-2.8-1.1-4.7-1.1-4.7s1.8,0.6,4.6,1.5c2.7,0.9,6.4,2,10.2,3
							c1.9,0.5,3.8,1,5.6,1.4c1.8,0.4,3.4,0.8,4.9,1.1c2.9,0.6,4.8,1,4.8,1s-1.4,1.5-3.6,3.8c-1.1,1.1-2.4,2.4-3.8,3.8
							c-0.7,0.7-1.4,1.4-2.1,2.1c-0.8,0.7-1.5,1.4-2.3,2.1c-1.5,1.4-3.1,2.8-4.5,4.1c-1.5,1.2-2.9,2.4-4.1,3.4
							C855.2,1206.7,853.5,1208,853.5,1208z"/>
						<path fill="#FEB500" d="M865.8,1189.1c0,0-0.5,0.5-1.1,1.1c-0.7,0.7-1.7,1.5-2.6,2.4c-1.9,1.7-3.8,3.5-3.8,3.5s-0.5-2.5-1-4.9
							c-0.5-2.5-1.1-4.9-1.1-4.9s2.4,0.8,4.8,1.5C863.4,1188.5,865.8,1189.1,865.8,1189.1z"/>
					</g>
					<g>
						<path fill="#DD341F" d="M826,1226.4c0,0,0.1-2,0.1-4.9c0-1.5,0.1-3.2,0-5c0-1.9-0.1-3.8-0.1-5.8c-0.1-3.9-0.3-7.7-0.5-10.6
							c-0.1-1.4-0.2-2.6-0.3-3.5c-0.1-0.8-0.1-1.3-0.1-1.3s6.7,3.5,13.9,6.8c7,3.1,14.5,5.9,14.5,5.9s-1.6,1.3-4.1,3.1
							c-0.6,0.5-1.3,1-2,1.5c-0.7,0.5-1.5,1-2.3,1.6c-1.6,1.1-3.3,2.3-5,3.5l-1.3,0.9c-0.4,0.3-0.9,0.5-1.3,0.8
							c-0.9,0.5-1.7,1.1-2.5,1.6c-1.6,1-3.2,2-4.5,2.8C827.8,1225.3,826,1226.4,826,1226.4z"/>
						<path fill="#FEB500" d="M840.9,1209.7c0,0-2.1,1.5-4.2,2.9c-1,0.8-2.1,1.4-3,1.9c-0.8,0.5-1.4,0.9-1.4,0.9s-0.1-2.5-0.2-5
							c-0.1-1.2-0.1-2.5-0.2-3.4c-0.1-0.9-0.1-1.6-0.1-1.6s2.2,1.1,4.5,2.1C838.6,1208.7,840.9,1209.7,840.9,1209.7z"/>
					</g>
					<g>
						<path fill="#DD341F" d="M796.2,1240.6c0,0,0.3-1.9,0.8-4.9c0.5-2.9,1-6.7,1.5-10.6c0.9-7.8,1.3-15.4,1.3-15.4s1.6,1.2,3.9,2.8
							c2.4,1.6,5.6,3.8,8.8,5.9c1.6,1.1,3.3,2.1,4.9,3.1c1.6,0.9,3,1.8,4.3,2.5c2.6,1.4,4.3,2.4,4.3,2.4s-1.8,1-4.5,2.5
							c-2.8,1.4-6.4,3.3-10.1,5.1c-1.9,0.9-3.8,1.7-5.5,2.5c-1.8,0.8-3.4,1.6-4.8,2.1C798.1,1239.8,796.2,1240.6,796.2,1240.6z"/>
						<path fill="#FEB500" d="M813.3,1226.2c0,0-0.6,0.3-1.4,0.7c-0.9,0.4-2,1.1-3.2,1.6c-2.3,1.1-4.7,2.1-4.7,2.1s0.3-2.5,0.5-5
							c0.2-2.5,0.4-4.9,0.4-4.9s0.5,0.4,1.3,0.9c0.8,0.5,1.8,1.2,2.8,1.9C811.2,1224.9,813.3,1226.2,813.3,1226.2z"/>
					</g>
					<g>
						<path fill="#DD341F" d="M764.9,1250.6c0,0,2.4-7.6,4.3-15.1c1-3.8,1.8-7.6,2.4-10.4c0.6-2.8,1-4.7,1-4.7s1.4,1.3,3.5,3.3
							c2.1,2,5,4.5,8,7c3,2.5,6,5,8.3,6.8c2.3,1.8,3.9,3,3.9,3s-0.5,0.2-1.3,0.5c-0.4,0.2-0.9,0.4-1.5,0.6c-0.6,0.2-1.3,0.4-2,0.7
							c-1.5,0.5-3.1,1.1-5,1.8c-0.9,0.3-1.8,0.7-2.8,1c-1,0.3-1.9,0.6-2.9,0.9c-2,0.6-3.9,1.2-5.8,1.8c-1.8,0.6-3.6,1-5.1,1.4
							C766.9,1250.1,764.9,1250.6,764.9,1250.6z"/>
						<path fill="#FEB500" d="M783.7,1238.7c0,0-0.6,0.2-1.5,0.5c-0.9,0.3-2.1,0.7-3.4,1.1c-2.5,0.8-4.9,1.5-4.9,1.5
							s0.6-2.4,1.2-4.9c0.5-2.4,1.1-4.9,1.1-4.9s1.9,1.7,3.7,3.4C781.8,1237.1,783.7,1238.7,783.7,1238.7z"/>
					</g>
					<g>
						<path fill="#DD341F" d="M732.7,1256.5c0,0,3.3-7.3,6.1-14.5c1.4-3.6,2.7-7.3,3.7-10c0.9-2.7,1.5-4.6,1.5-4.6s1.2,1.5,3.1,3.7
							c1.9,2.3,4.4,5.1,7,8c2.6,2.9,5.3,5.7,7.4,7.9c1,1.1,1.9,1.9,2.5,2.5c0.6,0.6,1,0.9,1,0.9s-0.5,0.1-1.4,0.4
							c-0.9,0.2-2.1,0.5-3.6,0.8c-3,0.7-7,1.6-11,2.3c-2,0.4-4,0.7-5.9,1.1c-1.9,0.3-3.7,0.5-5.2,0.7
							C734.7,1256.2,732.7,1256.5,732.7,1256.5z"/>
						<path fill="#FEB500" d="M752.8,1247.1c0,0-0.6,0.2-1.6,0.3c-0.9,0.2-2.2,0.4-3.5,0.6c-2.5,0.5-5,0.9-5,0.9s0.9-2.4,1.8-4.7
							c0.9-2.3,1.7-4.7,1.7-4.7s1.6,1.9,3.3,3.8c0.8,0.9,1.7,1.9,2.3,2.6C752.4,1246.6,752.8,1247.1,752.8,1247.1z"/>
					</g>
					<g>
						<path fill="#DD341F" d="M700,1258.5c0,0,4.1-6.8,7.8-13.6c0.9-1.7,1.8-3.4,2.7-5c0.8-1.6,1.6-3.2,2.2-4.5
							c1.3-2.6,2.1-4.3,2.1-4.3s1,1.6,2.6,4.1c0.8,1.2,1.7,2.6,2.7,4.2c1,1.5,2.1,3.1,3.2,4.7c2.2,3.2,4.6,6.3,6.3,8.7
							c0.9,1.2,1.6,2.2,2.2,2.9c0.5,0.7,0.8,1.1,0.8,1.1s-0.5,0.1-1.4,0.2c-0.9,0.1-2.2,0.2-3.7,0.4c-1.5,0.2-3.3,0.3-5.2,0.5
							c-1.9,0.2-4,0.3-6,0.4c-2,0.1-4.1,0.3-6,0.3c-1.9,0-3.7,0.1-5.2,0.1C702,1258.4,700,1258.5,700,1258.5z"/>
						<path fill="#FEB500" d="M721.1,1251.5l-10.2,0.6c0,0,1.2-2.2,2.3-4.5c1.1-2.2,2.3-4.5,2.3-4.5s1.4,2.1,2.8,4.2
							C719.7,1249.5,721.1,1251.5,721.1,1251.5z"/>
					</g>
					<g>
						<path fill="#DD341F" d="M667.3,1256.5c0,0,0.3-0.4,0.8-1.1c0.5-0.7,1.3-1.7,2.2-2.9c1.8-2.4,4.1-5.5,6.3-8.7
							c1.1-1.6,2.2-3.2,3.2-4.7c1-1.5,1.9-2.9,2.7-4.2c1.6-2.4,2.6-4.1,2.6-4.1s0.8,1.7,2.1,4.3c0.7,1.3,1.4,2.8,2.2,4.5
							c0.8,1.6,1.7,3.3,2.7,5c3.7,6.8,7.8,13.6,7.8,13.6s-2,0-5.1-0.1c-1.5,0-3.3-0.1-5.2-0.1c-1.9-0.1-4-0.2-6-0.3
							c-2-0.1-4.1-0.2-6-0.4c-1.9-0.2-3.7-0.4-5.2-0.5c-1.5-0.2-2.8-0.3-3.7-0.4C667.8,1256.6,667.3,1256.5,667.3,1256.5z"/>
						<path fill="#FEB500" d="M689.1,1252.1l-10.2-0.6c0,0,1.4-2.1,2.9-4.2c1.4-2.1,2.8-4.2,2.8-4.2s1.1,2.2,2.3,4.5
							C688,1249.9,689.1,1252.1,689.1,1252.1z"/>
					</g>
					<g>
						<path fill="#DD341F" d="M635.1,1250.6c0,0,0.3-0.3,1-0.9c0.6-0.6,1.5-1.5,2.5-2.5c2.1-2.1,4.8-5,7.4-7.9c2.6-2.9,5.1-5.7,7-8
							c1.8-2.2,3.1-3.7,3.1-3.7s0.6,1.8,1.5,4.6c1,2.7,2.3,6.4,3.7,10c2.8,7.2,6.1,14.5,6.1,14.5s-2-0.3-5.1-0.7
							c-1.5-0.2-3.3-0.5-5.2-0.7c-1.9-0.3-3.9-0.7-5.9-1.1c-4-0.7-8-1.6-11-2.3c-1.5-0.3-2.8-0.6-3.6-0.8
							C635.6,1250.7,635.1,1250.6,635.1,1250.6z"/>
						<path fill="#FEB500" d="M657.3,1248.9c0,0-2.5-0.5-5-0.9c-1.3-0.2-2.5-0.5-3.5-0.6c-0.9-0.2-1.6-0.3-1.6-0.3s0.4-0.5,1-1.2
							c0.6-0.7,1.5-1.7,2.3-2.6c1.6-1.9,3.3-3.8,3.3-3.8s0.9,2.3,1.7,4.7C656.4,1246.6,657.3,1248.9,657.3,1248.9z"/>
					</g>
					<g>
						<path fill="#DD341F" d="M603.8,1240.6c0,0,1.6-1.2,3.9-3c2.3-1.8,5.4-4.3,8.3-6.8c3-2.5,5.8-5.1,8-7c2.1-2,3.5-3.3,3.5-3.3
							s0.4,1.9,1,4.7c0.6,2.8,1.4,6.7,2.4,10.4c1.9,7.5,4.3,15.1,4.3,15.1s-2-0.5-5-1.3c-1.5-0.4-3.2-0.8-5.1-1.4
							c-1.8-0.6-3.8-1.2-5.8-1.8c-1-0.3-2-0.6-2.9-0.9c-1-0.3-1.9-0.7-2.8-1c-1.8-0.6-3.5-1.3-5-1.8c-0.7-0.3-1.4-0.5-2-0.7
							c-0.6-0.2-1.1-0.4-1.5-0.6C604.3,1240.8,603.8,1240.6,603.8,1240.6z"/>
						<path fill="#FEB500" d="M626.1,1241.8c0,0-2.5-0.8-4.9-1.5c-1.2-0.4-2.5-0.7-3.4-1.1c-0.9-0.3-1.5-0.5-1.5-0.5
							s1.9-1.6,3.8-3.2c1.9-1.7,3.7-3.4,3.7-3.4s0.5,2.4,1.1,4.9C625.5,1239.3,626.1,1241.8,626.1,1241.8z"/>
					</g>
					<g>
						<path fill="#DD341F" d="M574,1226.4c0,0,1.7-1,4.3-2.4c1.3-0.7,2.7-1.6,4.3-2.5c1.6-1,3.2-2,4.9-3.1c3.3-2.1,6.5-4.3,8.8-5.9
							c2.3-1.6,3.9-2.8,3.9-2.8s0.4,7.6,1.3,15.4c0.4,3.9,1,7.7,1.5,10.6c0.5,2.9,0.8,4.9,0.8,4.9s-1.9-0.8-4.8-1.9
							c-1.4-0.6-3.1-1.3-4.8-2.1c-1.8-0.8-3.6-1.7-5.5-2.5c-3.7-1.8-7.4-3.7-10.1-5.1C575.8,1227.4,574,1226.4,574,1226.4z"/>
						<path fill="#FEB500" d="M596,1230.6c0,0-2.3-1.1-4.7-2.1c-1.2-0.5-2.3-1.1-3.2-1.6c-0.9-0.4-1.4-0.7-1.4-0.7s2.1-1.4,4.2-2.7
							c1-0.7,2.1-1.4,2.8-1.9c0.8-0.5,1.3-0.9,1.3-0.9s0.2,2.5,0.4,4.9C595.7,1228.1,596,1230.6,596,1230.6z"/>
					</g>
					<g>
						<path fill="#DD341F" d="M546.5,1208c0,0,7.5-2.8,14.5-5.9c7.2-3.2,13.9-6.8,13.9-6.8s0,0.5-0.1,1.3c-0.1,0.8-0.2,2-0.3,3.5
							c-0.2,2.9-0.4,6.7-0.5,10.6c-0.1,2-0.1,3.9-0.1,5.8c0,1.8,0,3.5,0,5c0.1,2.9,0.1,4.9,0.1,4.9s-1.8-1-4.5-2.6
							c-1.3-0.8-2.9-1.8-4.5-2.8c-0.8-0.5-1.7-1-2.5-1.6c-0.4-0.3-0.9-0.5-1.3-0.8l-1.3-0.9c-1.7-1.2-3.4-2.4-5-3.5
							c-0.8-0.6-1.6-1.1-2.3-1.6c-0.7-0.5-1.4-1.1-2-1.5C548.1,1209.2,546.5,1208,546.5,1208z"/>
						<path fill="#FEB500" d="M567.7,1215.4c0,0-0.5-0.3-1.4-0.9c-0.8-0.5-1.9-1.2-3-1.9c-2.1-1.5-4.2-2.9-4.2-2.9s2.3-1,4.6-2.1
							c2.2-1.1,4.5-2.1,4.5-2.1s0,0.6-0.1,1.6c-0.1,0.9-0.1,2.2-0.2,3.4C567.7,1212.9,567.7,1215.4,567.7,1215.4z"/>
					</g>
					<g>
						<path fill="#DD341F" d="M522,1185.4c0,0,2-0.4,4.8-1c1.4-0.3,3.1-0.7,4.9-1.1c1.8-0.4,3.7-0.9,5.6-1.4c3.8-1,7.4-2.1,10.2-3
							c2.8-0.9,4.6-1.5,4.6-1.5s-0.5,1.8-1.1,4.7c-0.3,1.4-0.7,3.1-1.1,4.8c-0.4,1.8-0.7,3.7-1.1,5.6c-0.7,3.8-1.3,7.7-1.7,10.6
							c-0.2,1.5-0.3,2.7-0.4,3.5c-0.1,0.9-0.2,1.3-0.2,1.3s-1.7-1.2-4-3.3c-1.2-1-2.6-2.2-4.1-3.4c-1.5-1.3-3-2.7-4.5-4.1
							c-0.8-0.7-1.5-1.4-2.3-2.1c-0.7-0.7-1.4-1.4-2.1-2.1c-1.4-1.4-2.7-2.7-3.8-3.8C523.5,1186.9,522,1185.4,522,1185.4z"/>
						<path fill="#FEB500" d="M541.8,1196.2c0,0-1.9-1.7-3.8-3.5c-0.9-0.9-1.9-1.7-2.6-2.4c-0.7-0.7-1.1-1.1-1.1-1.1
							s2.4-0.6,4.8-1.3c2.4-0.7,4.8-1.5,4.8-1.5s-0.6,2.4-1.1,4.9C542.3,1193.7,541.8,1196.2,541.8,1196.2z"/>
					</g>
					<g>
						<path fill="#DD341F" d="M501.8,1158.6c0,0,2,0,4.9,0c1.5,0,3.2-0.1,5-0.2c1.9-0.1,3.8-0.2,5.8-0.4c3.9-0.3,7.7-0.7,10.5-1.1
							c2.9-0.4,4.8-0.7,4.8-0.7s-0.8,1.7-2,4.4c-0.6,1.3-1.3,2.9-1.9,4.6c-0.7,1.7-1.3,3.5-2,5.3c-1.3,3.6-2.6,7.4-3.5,10.2
							c-0.8,2.8-1.4,4.7-1.4,4.7s-5.7-6.1-10.8-12.9c-0.6-0.8-1.3-1.7-1.9-2.5c-0.6-0.8-1.2-1.7-1.8-2.5c-1.1-1.6-2.2-3.1-3.1-4.4
							C502.9,1160.4,501.8,1158.6,501.8,1158.6z"/>
						<path fill="#FEB500" d="M519.3,1172.9c0,0-0.4-0.5-1-1.3c-0.6-0.8-1.4-1.8-2.2-2.8c-0.8-1-1.6-2.1-2.2-2.8
							c-0.6-0.8-0.9-1.3-0.9-1.3s0.6,0,1.6-0.1c0.9-0.1,2.2-0.2,3.4-0.3c2.5-0.3,5-0.6,5-0.6s-1,2.3-1.9,4.6
							c-0.5,1.2-0.9,2.4-1.3,3.2C519.6,1172.3,519.3,1172.9,519.3,1172.9z"/>
					</g>
					<g>
						<path fill="#DD341F" d="M487,1128.1c0,0,2,0.4,4.9,1c2.9,0.6,6.7,1.2,10.6,1.7c3.9,0.5,7.7,0.8,10.5,1
							c2.9,0.2,4.8,0.2,4.8,0.2s-1.1,1.5-2.8,3.9c-0.8,1.2-1.8,2.6-2.8,4.1c-1,1.5-2,3.1-3,4.8c-2,3.3-4,6.8-5.3,9.4
							c-1.4,2.6-2.2,4.4-2.2,4.4s-0.3-0.4-0.8-1.2c-0.2-0.4-0.5-0.9-0.9-1.4c-0.3-0.6-0.7-1.2-1.1-1.9c-0.8-1.4-1.7-3-2.6-4.7
							c-0.9-1.7-1.8-3.7-2.8-5.6c-0.5-1-1-1.9-1.4-2.8c-0.4-1-0.8-1.9-1.2-2.8c-0.8-1.8-1.6-3.5-2.1-5
							C487.7,1130.1,487,1128.1,487,1128.1z"/>
						<path fill="#FEB500" d="M501.4,1145.8c0,0-1.2-2.3-2.3-4.7c-0.6-1.2-1.2-2.3-1.5-3.2c-0.4-0.9-0.7-1.5-0.7-1.5s2.5,0.3,5,0.6
							c2.5,0.2,5,0.4,5,0.4s-1.4,2-2.8,4.2C502.7,1143.6,501.4,1145.8,501.4,1145.8z"/>
					</g>
					<g>
						<path fill="#DD341F" d="M479,1095.1c0,0,1.8,0.9,4.6,2c2.7,1.2,6.4,2.7,10,4c3.7,1.3,7.4,2.4,10.1,3.2
							c2.7,0.8,4.6,1.2,4.6,1.2s-1.4,1.2-3.5,3.2c-1,1-2.3,2.1-3.6,3.4c-1.3,1.3-2.7,2.7-4,4.1c-2.6,2.8-5.2,5.8-7.1,8.1
							c-1,1.2-1.7,2.1-2.3,2.8c-0.5,0.7-0.8,1.1-0.8,1.1s-0.2-0.5-0.5-1.4c-0.3-0.9-0.7-2.2-1.2-3.7c-0.5-1.5-1.1-3.3-1.6-5.2
							c-0.5-1.9-1-4-1.6-6.1c-0.5-2.1-0.9-4.2-1.3-6.1c-0.2-1-0.4-1.9-0.6-2.8c-0.1-0.9-0.3-1.8-0.4-2.6
							C479.3,1097.2,479,1095.1,479,1095.1z"/>
						<path fill="#FEB500" d="M489.3,1115.5c0,0-0.7-2.5-1.3-5.1c-0.4-1.3-0.6-2.6-0.8-3.5c-0.2-1-0.3-1.6-0.3-1.6s2.4,0.9,4.7,1.6
							c1.2,0.4,2.4,0.8,3.2,1c0.9,0.3,1.5,0.4,1.5,0.4s-1.8,1.7-3.5,3.5C491.1,1113.6,489.3,1115.5,489.3,1115.5z"/>
					</g>
				</g>
			</g>
			<g>
				<g>
					<path fill="#FEB500" d="M965.5,1101.7c5.1,0,10.2-2.1,13.8-5.7s5.7-8.7,5.7-13.8s-2.1-10.2-5.7-13.8s-8.7-5.7-13.8-5.7
						c-5.1,0-10.2,2.1-13.8,5.7s-5.7,8.7-5.7,13.8s2.1,10.2,5.7,13.8S960.3,1101.7,965.5,1101.7z"/>
					<path fill="#FEB500" d="M571.1,1261.4c-9.5-5-21.3-1.4-26.4,8.1c-5,9.5-1.4,21.3,8.1,26.3c2.9,1.5,6,2.2,9.1,2.2
						c7,0,13.8-3.8,17.3-10.4C584.3,1278.2,580.6,1266.4,571.1,1261.4z"/>
					<path fill="#FEB500" d="M642.9,1286.9c-10.6-2.1-20.9,4.7-23,15.2c-2.1,10.6,4.7,20.8,15.2,23c1.3,0.3,2.6,0.4,3.9,0.4
						c9.1,0,17.2-6.4,19.1-15.6C660.3,1299.3,653.4,1289,642.9,1286.9z"/>
					<path fill="#FEB500" d="M680.9,1291.9c-10.8-0.7-20,7.4-20.7,18.2s7.4,20,18.2,20.7c0.4,0,0.9,0,1.3,0
						c10.2,0,18.8-7.9,19.4-18.2C699.8,1301.9,691.6,1292.6,680.9,1291.9z"/>
					<path fill="#FEB500" d="M538.9,1241.1c-8.6-6.4-20.9-4.6-27.3,4c-6.4,8.6-4.6,20.9,4,27.3c3.5,2.6,7.6,3.8,11.6,3.8
						c6,0,11.8-2.7,15.7-7.9C549.4,1259.8,547.6,1247.6,538.9,1241.1z"/>
					<path fill="#FEB500" d="M606,1276.6c-10.2-3.6-21.3,1.7-24.9,11.9c-3.6,10.1,1.7,21.3,11.9,24.9c2.1,0.8,4.3,1.1,6.5,1.1
						c8,0,15.5-5,18.4-13C621.5,1291.4,616.2,1280.2,606,1276.6z"/>
					<path fill="#FEB500" d="M442.7,1142.2c10.5-2.2,17.3-12.5,15.1-23c-2.2-10.5-12.5-17.3-23-15.1c-10.6,2.2-17.3,12.5-15.1,23
						c1.9,9.2,10,15.5,19.1,15.5C440,1142.6,441.3,1142.5,442.7,1142.2z"/>
					<path fill="#FEB500" d="M468.9,1154.5c-4.2-9.9-15.7-14.5-25.6-10.2c-9.9,4.2-14.5,15.7-10.2,25.6c3.2,7.4,10.4,11.8,17.9,11.8
						c2.6,0,5.2-0.5,7.7-1.6C468.6,1175.8,473.2,1164.4,468.9,1154.5z"/>
					<path fill="#FEB500" d="M510.5,1216.3c-7.5-7.7-19.8-7.9-27.6-0.4c-7.7,7.5-7.9,19.8-0.4,27.6c0,0,0,0,0,0
						c3.8,3.9,8.9,5.9,14,5.9c4.9,0,9.8-1.8,13.6-5.5C517.8,1236.3,518,1224,510.5,1216.3z"/>
					<path fill="#FEB500" d="M486.8,1187.1c-6-8.9-18.1-11.3-27.1-5.2c-8.9,6-11.3,18.1-5.2,27.1c3.8,5.6,9.9,8.6,16.2,8.6
						c3.8,0,7.5-1.1,10.9-3.3C490.5,1208.2,492.8,1196.1,486.8,1187.1z"/>
					<path fill="#FEB500" d="M940.3,1181.7c-8.9-6-21-3.7-27.1,5.3c-6,8.9-3.7,21,5.3,27.1c3.3,2.2,7.1,3.3,10.9,3.3
						c6.3,0,12.4-3,16.2-8.6C951.6,1199.9,949.3,1187.8,940.3,1181.7z"/>
					<path fill="#FEB500" d="M956.7,1144c-9.9-4.2-21.4,0.4-25.6,10.3c-4.2,9.9,0.4,21.4,10.3,25.6c2.5,1.1,5.1,1.6,7.7,1.6
						c7.6,0,14.8-4.4,17.9-11.8C971.2,1159.7,966.6,1148.3,956.7,1144z"/>
					<path fill="#FEB500" d="M889.6,1216.1c-7.5,7.7-7.3,20.1,0.5,27.6c3.8,3.7,8.7,5.5,13.6,5.5c5.1,0,10.2-2,14-5.9
						c7.5-7.7,7.3-20.1-0.5-27.6C909.4,1208.2,897.1,1208.4,889.6,1216.1z"/>
					<path fill="#FEB500" d="M719.3,1291.9c-10.8,0.7-18.9,10-18.2,20.8c0.7,10.3,9.3,18.2,19.4,18.2c0.4,0,0.9,0,1.3,0
						c10.7-0.7,18.9-10,18.2-20.8C739.3,1299.3,730,1291.2,719.3,1291.9z"/>
					<path fill="#FEB500" d="M965.3,1103.8c-10.5-2.2-20.9,4.6-23,15.2c-2.2,10.5,4.6,20.9,15.2,23c1.3,0.3,2.7,0.4,4,0.4
						c9.1,0,17.2-6.4,19.1-15.6c0,0,0,0,0,0C982.6,1116.3,975.8,1106,965.3,1103.8z"/>
					<path fill="#FEB500" d="M794.1,1276.6c-10.2,3.6-15.5,14.8-11.8,24.9c2.8,8,10.4,13,18.4,13c2.2,0,4.4-0.4,6.5-1.1
						c10.2-3.6,15.5-14.8,11.9-24.9C815.4,1278.3,804.3,1273,794.1,1276.6z"/>
					<path fill="#FEB500" d="M757.3,1286.8c-10.6,2.1-17.4,12.5-15.2,23c1.9,9.2,10,15.6,19.1,15.6c1.3,0,2.6-0.1,3.9-0.4
						c10.5-2.2,17.4-12.5,15.2-23C778.1,1291.5,767.8,1284.7,757.3,1286.8z"/>
					<path fill="#FEB500" d="M861.2,1241c-8.7,6.4-10.4,18.6-4,27.3c3.8,5.2,9.7,7.9,15.7,7.9c4,0,8.1-1.2,11.6-3.8
						c8.6-6.4,10.4-18.6,4-27.3C882.1,1236.4,869.8,1234.6,861.2,1241z"/>
					<path fill="#FEB500" d="M829.1,1261.3c-9.5,5-13.2,16.8-8.1,26.3c3.5,6.6,10.3,10.4,17.2,10.4c3.1,0,6.2-0.7,9.1-2.3
						c9.5-5,13.2-16.8,8.1-26.4C850.4,1259.9,838.6,1256.2,829.1,1261.3z"/>
					<path fill="#FEB500" d="M434.5,1101.7c5.1,0,10.2-2.1,13.8-5.7s5.7-8.7,5.7-13.8s-2.1-10.2-5.7-13.8s-8.6-5.7-13.8-5.7
						c-5.1,0-10.2,2.1-13.8,5.7s-5.7,8.7-5.7,13.8s2.1,10.2,5.7,13.8S429.4,1101.7,434.5,1101.7z"/>
				</g>
				<g>
					<linearGradient id="SVGID_3_" gradientUnits="userSpaceOnUse" x1="433.1687" y1="1068.8021" x2="444.2842" y2="1079.9176">
						<stop  offset="0" style="stop-color:#FFFFFF"/>
						<stop  offset="0.6486" style="stop-color:#FFFFFF;stop-opacity:0"/>
					</linearGradient>
					<circle fill="url(#SVGID_3_)" cx="438.7" cy="1074.4" r="7.9"/>
					<linearGradient id="SVGID_4_" gradientUnits="userSpaceOnUse" x1="436.8838" y1="1109.7213" x2="447.9993" y2="1120.8368">
						<stop  offset="0" style="stop-color:#FFFFFF"/>
						<stop  offset="0.6486" style="stop-color:#FFFFFF;stop-opacity:0"/>
					</linearGradient>
					<circle fill="url(#SVGID_4_)" cx="442.4" cy="1115.3" r="7.9"/>
					<linearGradient id="SVGID_5_" gradientUnits="userSpaceOnUse" x1="448.472" y1="1150.6259" x2="459.5876" y2="1161.7413">
						<stop  offset="0" style="stop-color:#FFFFFF"/>
						<stop  offset="0.6486" style="stop-color:#FFFFFF;stop-opacity:0"/>
					</linearGradient>
					<circle fill="url(#SVGID_5_)" cx="454" cy="1156.2" r="7.9"/>
					<linearGradient id="SVGID_6_" gradientUnits="userSpaceOnUse" x1="468.4488" y1="1184.65" x2="479.5643" y2="1195.7655">
						<stop  offset="0" style="stop-color:#FFFFFF"/>
						<stop  offset="0.6486" style="stop-color:#FFFFFF;stop-opacity:0"/>
					</linearGradient>
					<circle fill="url(#SVGID_6_)" cx="474" cy="1190.2" r="7.9"/>
					<linearGradient id="SVGID_7_" gradientUnits="userSpaceOnUse" x1="492.4707" y1="1216.4204" x2="503.5862" y2="1227.536">
						<stop  offset="0" style="stop-color:#FFFFFF"/>
						<stop  offset="0.6486" style="stop-color:#FFFFFF;stop-opacity:0"/>
					</linearGradient>
					<circle fill="url(#SVGID_7_)" cx="498" cy="1222" r="7.9"/>
					<linearGradient id="SVGID_8_" gradientUnits="userSpaceOnUse" x1="521.7721" y1="1243.7821" x2="532.8876" y2="1254.8976">
						<stop  offset="0" style="stop-color:#FFFFFF"/>
						<stop  offset="0.6486" style="stop-color:#FFFFFF;stop-opacity:0"/>
					</linearGradient>
					<circle fill="url(#SVGID_8_)" cx="527.3" cy="1249.3" r="7.9"/>
					<linearGradient id="SVGID_9_" gradientUnits="userSpaceOnUse" x1="558.7756" y1="1265.1912" x2="569.8911" y2="1276.3066">
						<stop  offset="0" style="stop-color:#FFFFFF"/>
						<stop  offset="0.6486" style="stop-color:#FFFFFF;stop-opacity:0"/>
					</linearGradient>
					<circle fill="url(#SVGID_9_)" cx="564.3" cy="1270.7" r="7.9"/>
					<linearGradient id="SVGID_10_" gradientUnits="userSpaceOnUse" x1="593.972" y1="1281.6162" x2="605.0875" y2="1292.7318">
						<stop  offset="0" style="stop-color:#FFFFFF"/>
						<stop  offset="0.6486" style="stop-color:#FFFFFF;stop-opacity:0"/>
					</linearGradient>
					<circle fill="url(#SVGID_10_)" cx="599.5" cy="1287.2" r="7.9"/>
					<linearGradient id="SVGID_11_" gradientUnits="userSpaceOnUse" x1="633.4521" y1="1292.5516" x2="644.5676" y2="1303.6671">
						<stop  offset="0" style="stop-color:#FFFFFF"/>
						<stop  offset="0.6486" style="stop-color:#FFFFFF;stop-opacity:0"/>
					</linearGradient>
					<circle fill="url(#SVGID_11_)" cx="639" cy="1298.1" r="7.9"/>
					<linearGradient id="SVGID_12_" gradientUnits="userSpaceOnUse" x1="674.057" y1="1297.3359" x2="685.1725" y2="1308.4515">
						<stop  offset="0" style="stop-color:#FFFFFF"/>
						<stop  offset="0.6486" style="stop-color:#FFFFFF;stop-opacity:0"/>
					</linearGradient>
					<circle fill="url(#SVGID_12_)" cx="679.6" cy="1302.9" r="7.9"/>
					<linearGradient id="SVGID_13_" gradientUnits="userSpaceOnUse" x1="713.7236" y1="1297.3359" x2="724.8392" y2="1308.4515">
						<stop  offset="0" style="stop-color:#FFFFFF"/>
						<stop  offset="0.6486" style="stop-color:#FFFFFF;stop-opacity:0"/>
					</linearGradient>
					<circle fill="url(#SVGID_13_)" cx="719.3" cy="1302.9" r="7.9"/>
					<linearGradient id="SVGID_14_" gradientUnits="userSpaceOnUse" x1="755.6273" y1="1292.4618" x2="766.7428" y2="1303.5773">
						<stop  offset="0" style="stop-color:#FFFFFF"/>
						<stop  offset="0.6486" style="stop-color:#FFFFFF;stop-opacity:0"/>
					</linearGradient>
					<circle fill="url(#SVGID_14_)" cx="761.2" cy="1298" r="7.9"/>
					<linearGradient id="SVGID_15_" gradientUnits="userSpaceOnUse" x1="793.1089" y1="1280.9086" x2="804.2244" y2="1292.024">
						<stop  offset="0" style="stop-color:#FFFFFF"/>
						<stop  offset="0.6486" style="stop-color:#FFFFFF;stop-opacity:0"/>
					</linearGradient>
					<circle fill="url(#SVGID_15_)" cx="798.7" cy="1286.5" r="7.9"/>
					<linearGradient id="SVGID_16_" gradientUnits="userSpaceOnUse" x1="831.1089" y1="1265.0979" x2="842.2244" y2="1276.2134">
						<stop  offset="0" style="stop-color:#FFFFFF"/>
						<stop  offset="0.6486" style="stop-color:#FFFFFF;stop-opacity:0"/>
					</linearGradient>
					<circle fill="url(#SVGID_16_)" cx="836.7" cy="1270.7" r="7.9"/>
					<linearGradient id="SVGID_17_" gradientUnits="userSpaceOnUse" x1="864.7741" y1="1243.6317" x2="875.8896" y2="1254.7472">
						<stop  offset="0" style="stop-color:#FFFFFF"/>
						<stop  offset="0.6486" style="stop-color:#FFFFFF;stop-opacity:0"/>
					</linearGradient>
					<circle fill="url(#SVGID_17_)" cx="870.3" cy="1249.2" r="7.9"/>
					<linearGradient id="SVGID_18_" gradientUnits="userSpaceOnUse" x1="894.6316" y1="1216.2731" x2="905.7471" y2="1227.3885">
						<stop  offset="0" style="stop-color:#FFFFFF"/>
						<stop  offset="0.6486" style="stop-color:#FFFFFF;stop-opacity:0"/>
					</linearGradient>
					<circle fill="url(#SVGID_18_)" cx="900.2" cy="1221.8" r="7.9"/>
					<linearGradient id="SVGID_19_" gradientUnits="userSpaceOnUse" x1="920.4362" y1="1186.1089" x2="931.5517" y2="1197.2245">
						<stop  offset="0" style="stop-color:#FFFFFF"/>
						<stop  offset="0.6486" style="stop-color:#FFFFFF;stop-opacity:0"/>
					</linearGradient>
					<circle fill="url(#SVGID_19_)" cx="926" cy="1191.7" r="7.9"/>
					<linearGradient id="SVGID_20_" gradientUnits="userSpaceOnUse" x1="938.4423" y1="1150.6259" x2="949.5577" y2="1161.7413">
						<stop  offset="0" style="stop-color:#FFFFFF"/>
						<stop  offset="0.6486" style="stop-color:#FFFFFF;stop-opacity:0"/>
					</linearGradient>
					<circle fill="url(#SVGID_20_)" cx="944" cy="1156.2" r="7.9"/>
					<linearGradient id="SVGID_21_" gradientUnits="userSpaceOnUse" x1="951.349" y1="1111.4423" x2="962.4645" y2="1122.5577">
						<stop  offset="0" style="stop-color:#FFFFFF"/>
						<stop  offset="0.6486" style="stop-color:#FFFFFF;stop-opacity:0"/>
					</linearGradient>
					<circle fill="url(#SVGID_21_)" cx="956.9" cy="1117" r="7.9"/>
					<linearGradient id="SVGID_22_" gradientUnits="userSpaceOnUse" x1="955.757" y1="1068.8021" x2="966.8725" y2="1079.9176">
						<stop  offset="0" style="stop-color:#FFFFFF"/>
						<stop  offset="0.6486" style="stop-color:#FFFFFF;stop-opacity:0"/>
					</linearGradient>
					<circle fill="url(#SVGID_22_)" cx="961.3" cy="1074.4" r="7.9"/>
				</g>
			</g>
		</g>
		<g opacity="0.3">
			<linearGradient id="SVGID_23_" gradientUnits="userSpaceOnUse" x1="700" y1="227.7534" x2="700" y2="623.8408">
				<stop  offset="0" style="stop-color:#FFFFFF"/>
				<stop  offset="0.2235" style="stop-color:#FFFFFF;stop-opacity:0"/>
			</linearGradient>
			<path opacity="0.8" fill="url(#SVGID_23_)" d="M922.6,450.3c0-59.4-23.2-115.3-65.2-157.4c-42-42-97.9-65.2-157.4-65.2
				c-59.4,0-115.3,23.1-157.4,65.2c-42,42-65.2,97.9-65.2,157.4v173.5h445.1V450.3z"/>
		</g>
		<g>
			<linearGradient id="SVGID_24_" gradientUnits="userSpaceOnUse" x1="528.9595" y1="632.5929" x2="465.0798" y2="808.101">
				<stop  offset="0" style="stop-color:#291E18"/>
				<stop  offset="0.6486" style="stop-color:#291E18;stop-opacity:0"/>
			</linearGradient>
			<path opacity="0.8" fill="url(#SVGID_24_)" d="M551.6,839.6l-109.2-79.5v-159l81,59c17.7,12.9,28.2,33.5,28.2,55.4V839.6z"/>
			
				<linearGradient id="SVGID_25_" gradientUnits="userSpaceOnUse" x1="2678.9595" y1="632.5929" x2="2615.0798" y2="808.101" gradientTransform="matrix(-1 0 0 1 3550.0005 0)">
				<stop  offset="0" style="stop-color:#291E18"/>
				<stop  offset="0.6486" style="stop-color:#291E18;stop-opacity:0"/>
			</linearGradient>
			<path opacity="0.8" fill="url(#SVGID_25_)" d="M848.4,839.6l109.2-79.5v-159l-81,59c-17.7,12.9-28.2,33.5-28.2,55.4V839.6z"/>
			<linearGradient id="SVGID_26_" gradientUnits="userSpaceOnUse" x1="700" y1="865" x2="700" y2="985.1944">
				<stop  offset="0" style="stop-color:#291E18"/>
				<stop  offset="0.6486" style="stop-color:#291E18;stop-opacity:0"/>
			</linearGradient>
			<path opacity="0.8" fill="url(#SVGID_26_)" d="M747.7,985.2h-95.3v-72.5c0-26.3,21.3-47.7,47.7-47.7h0
				c26.3,0,47.7,21.3,47.7,47.7V985.2z"/>
			<g>
				<path fill="#291E18" d="M641.9,654.6c-5-2-10.4,1.8-10.4,7.1l0,0c0,4.2,3.4,7.7,7.7,7.7H680L641.9,654.6z"/>
				<path fill="#291E18" d="M758.1,654.6c5-2,10.4,1.8,10.4,7.1l0,0c0,4.2-3.4,7.7-7.7,7.7H720L758.1,654.6z"/>
				<linearGradient id="SVGID_27_" gradientUnits="userSpaceOnUse" x1="700" y1="664.0493" x2="700" y2="605.5493">
					<stop  offset="0" style="stop-color:#FFFFFF"/>
					<stop  offset="0.6486" style="stop-color:#FFFFFF;stop-opacity:0"/>
				</linearGradient>
				<circle opacity="0.4" fill="url(#SVGID_27_)" cx="700" cy="634.8" r="29.2"/>
			</g>
			<polygon fill="#291E18" points="662,488.5 496.4,488.5 472.1,461.9 637.8,461.9 			"/>
			<polygon fill="#291E18" points="738,488.5 903.6,488.5 927.9,461.9 762.2,461.9 			"/>
			<path fill="#291E18" d="M613,519.7h-72.7c-3.3,0-6,2.7-6,6l0,0c0,3.3,2.7,6,6,6h17.8c-1.4,3-2,6.4-1.7,9.9
				c0.8,10.1,9.2,18.3,19.4,18.7c11.6,0.5,21.2-8.8,21.2-20.3c0-3-0.7-5.8-1.8-8.3H613c3.3,0,6-2.7,6-6l0,0
				C619,522.4,616.3,519.7,613,519.7z"/>
			<path fill="#291E18" d="M787,519.7h72.7c3.3,0,6,2.7,6,6l0,0c0,3.3-2.7,6-6,6h-17.8c1.4,3,2,6.4,1.7,9.9
				c-0.8,10.1-9.2,18.3-19.4,18.7c-11.6,0.5-21.2-8.8-21.2-20.3c0-3,0.7-5.8,1.8-8.3H787c-3.3,0-6-2.7-6-6l0,0
				C781,522.4,783.7,519.7,787,519.7z"/>
			<rect x="475.8" y="386.6" fill="#FEB500" width="448.5" height="39"/>
			<rect x="475.8" y="369.8" fill="#DD341F" width="448.5" height="16.8"/>
			<rect x="475.8" y="353" fill="#A4B82B" width="448.5" height="16.8"/>
			<g>
				<path fill="#DD341F" d="M957.6,592.8H741c-10.1,0-19.9-3.7-27.5-10.4c-7.7-6.8-19.3-6.8-27,0c-7.6,6.7-17.3,10.4-27.5,10.4
					H442.4v-21H659c5,0,9.8-1.8,13.5-5.1c15.7-13.9,39.3-13.9,54.9,0c3.7,3.3,8.5,5.1,13.5,5.1h216.6V592.8z"/>
			</g>
			<g>
				<path fill="#FEB500" d="M957.6,574.5H741c-10.1,0-19.9-3.7-27.5-10.4c-7.7-6.8-19.3-6.8-27,0c-7.6,6.7-17.3,10.4-27.5,10.4
					H442.4v-8.7H659c5,0,9.8-1.8,13.5-5.1c15.7-13.9,39.3-13.9,54.9,0c3.7,3.3,8.5,5.1,13.5,5.1h216.6V574.5z"/>
			</g>
			<path fill="#291E18" d="M738.2,801.9h-76.3c-21.9,0-41.3-10.8-48.3-26.9l-5.7-13h184.3l-5.7,13C779.5,791,760,801.9,738.2,801.9z
				"/>
			<path fill="#442E25" d="M708.5,737.7L708.5,737.7c-5.2,3.3-11.8,3.3-16.9,0h0c-12.7-8.2-29-8.5-42-0.7l-41.7,25H700h92.2
				l-41.7-25C737.5,729.3,721.2,729.5,708.5,737.7z"/>
			<g>
				<polygon fill="#A4B82B" points="700,213.4 684.5,272.2 700,331 715.5,272.2 				"/>
				<polygon fill="#FEB500" points="690.7,272.2 700,236.9 709.3,272.2 700,307.5 				"/>
				<polygon fill="#A4B82B" points="656.3,245.7 645.1,288.3 656.3,331 667.6,288.3 				"/>
				<polygon fill="#FEB500" points="651.3,288.3 656.3,269.2 661.4,288.3 656.3,307.5 				"/>
				<polygon fill="#A4B82B" points="743.7,245.7 754.9,288.3 743.7,331 732.4,288.3 				"/>
				<polygon fill="#FEB500" points="738.6,288.3 743.7,269.2 748.7,288.3 743.7,307.5 				"/>
			</g>
		</g>
		<path fill="#291E18" d="M1011.2,1424c-7.1,38.8-40.9,67-80.4,67H781.7c-35.6,0-66.1-25.7-72.1-60.8l-9.6-55.9l-9.6,55.9
			c-6,35.1-36.5,60.8-72.1,60.8H469.1c-39.5,0-73.3-28.2-80.4-67L356,1244.8V1700h26l13.6-134.7c3-30.1,28.4-53,58.6-53h178.3
			c37.2,0,67.4-30.2,67.4-67.4c0,37.2,30.2,67.4,67.4,67.4h178.3c30.2,0,55.5,22.9,58.6,53L1018,1700h26v-455.2L1011.2,1424z"/>
		<g>
			<linearGradient id="SVGID_28_" gradientUnits="userSpaceOnUse" x1="458.2313" y1="1428" x2="458.2313" y2="1462">
				<stop  offset="0" style="stop-color:#291E18"/>
				<stop  offset="1" style="stop-color:#291E18;stop-opacity:0"/>
			</linearGradient>
			<circle opacity="0.8" fill="url(#SVGID_28_)" cx="458.2" cy="1445" r="17"/>
			
				<linearGradient id="SVGID_29_" gradientUnits="userSpaceOnUse" x1="2608.2312" y1="3887.3333" x2="2608.2312" y2="3902.6667" gradientTransform="matrix(-1 0 0 -1 3066.4624 5340)">
				<stop  offset="0" style="stop-color:#291E18"/>
				<stop  offset="1" style="stop-color:#291E18;stop-opacity:0"/>
			</linearGradient>
			<circle opacity="0.8" fill="url(#SVGID_29_)" cx="458.2" cy="1445" r="7.7"/>
		</g>
		<g>
			
				<linearGradient id="SVGID_30_" gradientUnits="userSpaceOnUse" x1="2608.2312" y1="1428" x2="2608.2312" y2="1462" gradientTransform="matrix(-1 0 0 1 3550.0005 0)">
				<stop  offset="0" style="stop-color:#291E18"/>
				<stop  offset="1" style="stop-color:#291E18;stop-opacity:0"/>
			</linearGradient>
			<circle opacity="0.8" fill="url(#SVGID_30_)" cx="941.8" cy="1445" r="17"/>
			
				<linearGradient id="SVGID_31_" gradientUnits="userSpaceOnUse" x1="458.2313" y1="3887.3333" x2="458.2313" y2="3902.6667" gradientTransform="matrix(1 0 0 -1 483.538 5340)">
				<stop  offset="0" style="stop-color:#291E18"/>
				<stop  offset="1" style="stop-color:#291E18;stop-opacity:0"/>
			</linearGradient>
			<circle opacity="0.8" fill="url(#SVGID_31_)" cx="941.8" cy="1445" r="7.7"/>
		</g>
		<g>
			<g>
				<rect x="221.6" y="1314.5" fill="#FFFFFF" stroke="#231F20" stroke-miterlimit="10" width="134.4" height="0.1"/>
				<rect x="221.6" y="1412.8" fill="#FEB500" width="134.4" height="49.2"/>
				<rect x="221.6" y="1314.5" fill="#A4B82B" width="134.4" height="49.2"/>
				<rect x="221.6" y="1363.7" fill="#DD341F" width="134.4" height="49.2"/>
			</g>
			<g>
				<polygon fill="#FFFFFF" points="356,1462 221.6,1462 208,1484 356,1484 				"/>
				<polygon fill="#DD341F" points="208,1484 200,1497 356,1497 356,1484 				"/>
			</g>
		</g>
		<g>
			<g>
				<rect x="1044" y="1314.5" fill="#FFFFFF" stroke="#231F20" stroke-miterlimit="10" width="134.4" height="0.1"/>
				<rect x="1044" y="1412.8" fill="#FEB500" width="134.4" height="49.2"/>
				<rect x="1044" y="1314.5" fill="#A4B82B" width="134.4" height="49.2"/>
				<rect x="1044" y="1363.7" fill="#DD341F" width="134.4" height="49.2"/>
			</g>
			<g>
				<polygon fill="#FFFFFF" points="1044,1462 1178.4,1462 1192,1484 1044,1484 				"/>
				<polygon fill="#DD341F" points="1192,1484 1200,1497 1044,1497 1044,1484 				"/>
			</g>
		</g>
	</g>
	<g>
		<g>
			<g>
				<polygon fill="#DD341F" points="90.8,143.4 115.4,192.8 140.1,143.4 115.4,94 				"/>
				<polygon fill="#DD341F" points="140.1,143.4 164.8,192.8 189.5,143.4 164.8,94 				"/>
				<polygon fill="#DD341F" points="189.5,143.4 214.2,192.8 238.9,143.4 214.2,94 				"/>
				<polygon fill="#DD341F" points="238.9,143.4 263.6,192.8 288.3,143.4 263.6,94 				"/>
				<polygon fill="#DD341F" points="288.3,143.4 313,192.8 337.7,143.4 313,94 				"/>
				<polygon fill="#DD341F" points="337.7,143.4 362.4,192.8 387,143.4 362.4,94 				"/>
				<polygon fill="#DD341F" points="387,143.4 411.7,192.8 436.4,143.4 411.7,94 				"/>
				<polygon fill="#DD341F" points="436.4,143.4 461.1,192.8 485.8,143.4 461.1,94 				"/>
				<polygon fill="#DD341F" points="510.5,94 485.8,143.4 510.5,192.8 535.2,143.4 				"/>
			</g>
			<g>
				<polygon fill="#FFFFFF" points="148.1,798.6 98.7,773.9 98.7,823.3 				"/>
				<polygon fill="#FFFFFF" points="148.1,749.2 98.7,724.6 98.7,773.9 				"/>
				<polygon fill="#FFFFFF" points="148.1,699.9 98.7,675.2 98.7,724.6 				"/>
				<polygon fill="#FFFFFF" points="148.1,650.5 98.7,625.8 98.7,675.2 				"/>
				<polygon fill="#FFFFFF" points="148.1,601.1 98.7,576.4 98.7,625.8 				"/>
				<polygon fill="#FFFFFF" points="148.1,551.7 98.7,527 98.7,576.4 				"/>
				<polygon fill="#FFFFFF" points="148.1,502.3 98.7,477.6 98.7,527 				"/>
				<polygon fill="#FFFFFF" points="98.7,428.3 98.7,477.6 148.1,453 				"/>
				<polygon fill="#FFFFFF" points="98.7,378.9 98.7,428.3 148.1,403.6 				"/>
			</g>
			<g>
				<polygon fill="#A4B82B" points="372.4,407 253.6,407 253.6,305 337,305 337,370.7 291.7,370.7 291.7,350.7 317,350.7 317,325 
					273.6,325 273.6,387 352.4,387 352.4,287 237,287 237,407 217,407 217,267 372.4,267 				"/>
			</g>
			<g>
				<circle fill="#DD341F" cx="157.7" cy="904" r="19"/>
				<circle fill="#DD341F" cx="217" cy="904" r="19"/>
				<circle fill="#DD341F" cx="276.3" cy="904" r="19"/>
				<circle fill="#DD341F" cx="335.5" cy="904" r="19"/>
				<circle fill="#DD341F" cx="394.8" cy="904" r="19"/>
			</g>
			<g>
				<circle fill="#A4B82B" cx="157.7" cy="961.1" r="19"/>
				<circle fill="#A4B82B" cx="217" cy="961.1" r="19"/>
				<circle fill="#A4B82B" cx="276.3" cy="961.1" r="19"/>
				<circle fill="#A4B82B" cx="335.5" cy="961.1" r="19"/>
				<circle fill="#A4B82B" cx="394.8" cy="961.1" r="19"/>
			</g>
			<g>
				<circle fill="#DD341F" cx="157.7" cy="1018.1" r="19"/>
				<circle fill="#DD341F" cx="217" cy="1018.1" r="19"/>
				<circle fill="#DD341F" cx="276.3" cy="1018.1" r="19"/>
				<circle fill="#DD341F" cx="335.5" cy="1018.1" r="19"/>
				<circle fill="#DD341F" cx="394.8" cy="1018.1" r="19"/>
			</g>
			<g>
				<g>
					<rect x="217" y="444" fill="#DD341F" width="30.1" height="30.1"/>
					<rect x="275" y="444" fill="#FFFFFF" width="30.1" height="30.1"/>
				</g>
				<g>
					<rect x="217" y="517.2" fill="#DD341F" width="30.1" height="30.1"/>
					<rect x="275" y="517.2" fill="#FFFFFF" width="30.1" height="30.1"/>
				</g>
				<g>
					<rect x="217" y="590.5" fill="#DD341F" width="30.1" height="30.1"/>
					<rect x="275" y="590.5" fill="#FFFFFF" width="30.1" height="30.1"/>
				</g>
				<g>
					<rect x="217" y="663.8" fill="#DD341F" width="30.1" height="30.1"/>
					<rect x="275" y="663.8" fill="#FFFFFF" width="30.1" height="30.1"/>
				</g>
				<g>
					<rect x="217" y="737" fill="#DD341F" width="30.1" height="30.1"/>
					<rect x="275" y="737" fill="#FFFFFF" width="30.1" height="30.1"/>
				</g>
			</g>
			<g>
				<g>
					<polygon fill="#DD341F" points="105.6,1198.1 62.7,1155.2 77.2,1140.7 105.6,1169.1 133.9,1140.7 148.4,1155.2 					"/>
				</g>
				<g>
					<polygon fill="#FFFFFF" points="105.6,1246.2 62.7,1203.4 77.2,1188.9 105.6,1217.2 133.9,1188.9 148.4,1203.4 					"/>
				</g>
				<g>
					<polygon fill="#DD341F" points="105.6,1294.4 62.7,1251.6 77.2,1237.1 105.6,1265.4 133.9,1237.1 148.4,1251.6 					"/>
				</g>
				<g>
					<polygon fill="#FFFFFF" points="105.6,1342.6 62.7,1299.7 77.2,1285.2 105.6,1313.6 133.9,1285.2 148.4,1299.7 					"/>
				</g>
				<g>
					<polygon fill="#DD341F" points="105.6,1390.7 62.7,1347.9 77.2,1333.4 105.6,1361.7 133.9,1333.4 148.4,1347.9 					"/>
				</g>
				<g>
					<polygon fill="#FFFFFF" points="105.6,1438.9 62.7,1396.1 77.2,1381.6 105.6,1409.9 133.9,1381.6 148.4,1396.1 					"/>
				</g>
				<g>
					<polygon fill="#DD341F" points="105.6,1487.1 62.7,1444.2 77.2,1429.7 105.6,1458.1 133.9,1429.7 148.4,1444.2 					"/>
				</g>
				<g>
					<polygon fill="#FFFFFF" points="105.6,1535.2 62.7,1492.4 77.2,1477.9 105.6,1506.2 133.9,1477.9 148.4,1492.4 					"/>
				</g>
				<g>
					<polygon fill="#DD341F" points="105.6,1583.4 62.7,1540.6 77.2,1526.1 105.6,1554.4 133.9,1526.1 148.4,1540.6 					"/>
				</g>
			</g>
		</g>
		<g>
			<g>
				<polygon fill="#DD341F" points="1309.2,143.4 1284.6,192.8 1259.9,143.4 1284.6,94 				"/>
				<polygon fill="#DD341F" points="1259.9,143.4 1235.2,192.8 1210.5,143.4 1235.2,94 				"/>
				<polygon fill="#DD341F" points="1210.5,143.4 1185.8,192.8 1161.1,143.4 1185.8,94 				"/>
				<polygon fill="#DD341F" points="1161.1,143.4 1136.4,192.8 1111.7,143.4 1136.4,94 				"/>
				<polygon fill="#DD341F" points="1111.7,143.4 1087,192.8 1062.3,143.4 1087,94 				"/>
				<polygon fill="#DD341F" points="1062.3,143.4 1037.6,192.8 1013,143.4 1037.6,94 				"/>
				<polygon fill="#DD341F" points="1013,143.4 988.3,192.8 963.6,143.4 988.3,94 				"/>
				<polygon fill="#DD341F" points="963.6,143.4 938.9,192.8 914.2,143.4 938.9,94 				"/>
				<polygon fill="#DD341F" points="889.5,94 914.2,143.4 889.5,192.8 864.8,143.4 				"/>
			</g>
			<g>
				<polygon fill="#FFFFFF" points="1251.9,798.6 1301.3,773.9 1301.3,823.3 				"/>
				<polygon fill="#FFFFFF" points="1251.9,749.2 1301.3,724.6 1301.3,773.9 				"/>
				<polygon fill="#FFFFFF" points="1251.9,699.9 1301.3,675.2 1301.3,724.6 				"/>
				<polygon fill="#FFFFFF" points="1251.9,650.5 1301.3,625.8 1301.3,675.2 				"/>
				<polygon fill="#FFFFFF" points="1251.9,601.1 1301.3,576.4 1301.3,625.8 				"/>
				<polygon fill="#FFFFFF" points="1251.9,551.7 1301.3,527 1301.3,576.4 				"/>
				<polygon fill="#FFFFFF" points="1251.9,502.3 1301.3,477.6 1301.3,527 				"/>
				<polygon fill="#FFFFFF" points="1301.3,428.3 1301.3,477.6 1251.9,453 				"/>
				<polygon fill="#FFFFFF" points="1301.3,378.9 1301.3,428.3 1251.9,403.6 				"/>
			</g>
			<g>
				<polygon fill="#A4B82B" points="1027.6,407 1146.4,407 1146.4,305 1063,305 1063,370.7 1108.3,370.7 1108.3,350.7 1083,350.7 
					1083,325 1126.4,325 1126.4,387 1047.6,387 1047.6,287 1163,287 1163,407 1183,407 1183,267 1027.6,267 				"/>
			</g>
			<g>
				<circle fill="#DD341F" cx="1242.3" cy="904" r="19"/>
				<circle fill="#DD341F" cx="1183" cy="904" r="19"/>
				<circle fill="#DD341F" cx="1123.7" cy="904" r="19"/>
				<circle fill="#DD341F" cx="1064.5" cy="904" r="19"/>
				<circle fill="#DD341F" cx="1005.2" cy="904" r="19"/>
			</g>
			<g>
				<circle fill="#A4B82B" cx="1242.3" cy="961.1" r="19"/>
				<circle fill="#A4B82B" cx="1183" cy="961.1" r="19"/>
				<circle fill="#A4B82B" cx="1123.7" cy="961.1" r="19"/>
				<circle fill="#A4B82B" cx="1064.5" cy="961.1" r="19"/>
				<circle fill="#A4B82B" cx="1005.2" cy="961.1" r="19"/>
			</g>
			<g>
				<circle fill="#DD341F" cx="1242.3" cy="1018.1" r="19"/>
				<circle fill="#DD341F" cx="1183" cy="1018.1" r="19"/>
				<circle fill="#DD341F" cx="1123.7" cy="1018.1" r="19"/>
				<circle fill="#DD341F" cx="1064.5" cy="1018.1" r="19"/>
				<circle fill="#DD341F" cx="1005.2" cy="1018.1" r="19"/>
			</g>
			<g>
				<g>
					<rect x="1152.9" y="444" fill="#DD341F" width="30.1" height="30.1"/>
					<rect x="1094.9" y="444" fill="#FFFFFF" width="30.1" height="30.1"/>
				</g>
				<g>
					<rect x="1152.9" y="517.2" fill="#DD341F" width="30.1" height="30.1"/>
					<rect x="1094.9" y="517.2" fill="#FFFFFF" width="30.1" height="30.1"/>
				</g>
				<g>
					<rect x="1152.9" y="590.5" fill="#DD341F" width="30.1" height="30.1"/>
					<rect x="1094.9" y="590.5" fill="#FFFFFF" width="30.1" height="30.1"/>
				</g>
				<g>
					<rect x="1152.9" y="663.8" fill="#DD341F" width="30.1" height="30.1"/>
					<rect x="1094.9" y="663.8" fill="#FFFFFF" width="30.1" height="30.1"/>
				</g>
				<g>
					<rect x="1152.9" y="737" fill="#DD341F" width="30.1" height="30.1"/>
					<rect x="1094.9" y="737" fill="#FFFFFF" width="30.1" height="30.1"/>
				</g>
			</g>
			<g>
				<g>
					<polygon fill="#DD341F" points="1294.5,1198.1 1337.3,1155.2 1322.8,1140.7 1294.5,1169.1 1266.1,1140.7 1251.6,1155.2 					
						"/>
				</g>
				<g>
					<polygon fill="#FFFFFF" points="1294.5,1246.2 1337.3,1203.4 1322.8,1188.9 1294.5,1217.2 1266.1,1188.9 1251.6,1203.4 					
						"/>
				</g>
				<g>
					<polygon fill="#DD341F" points="1294.5,1294.4 1337.3,1251.6 1322.8,1237.1 1294.5,1265.4 1266.1,1237.1 1251.6,1251.6 					
						"/>
				</g>
				<g>
					<polygon fill="#FFFFFF" points="1294.5,1342.6 1337.3,1299.7 1322.8,1285.2 1294.5,1313.6 1266.1,1285.2 1251.6,1299.7 					
						"/>
				</g>
				<g>
					<polygon fill="#DD341F" points="1294.5,1390.7 1337.3,1347.9 1322.8,1333.4 1294.5,1361.7 1266.1,1333.4 1251.6,1347.9 					
						"/>
				</g>
				<g>
					<polygon fill="#FFFFFF" points="1294.5,1438.9 1337.3,1396.1 1322.8,1381.6 1294.5,1409.9 1266.1,1381.6 1251.6,1396.1 					
						"/>
				</g>
				<g>
					<polygon fill="#DD341F" points="1294.5,1487.1 1337.3,1444.2 1322.8,1429.7 1294.5,1458.1 1266.1,1429.7 1251.6,1444.2 					
						"/>
				</g>
				<g>
					<polygon fill="#FFFFFF" points="1294.5,1535.2 1337.3,1492.4 1322.8,1477.9 1294.5,1506.2 1266.1,1477.9 1251.6,1492.4 					
						"/>
				</g>
				<g>
					<polygon fill="#DD341F" points="1294.5,1583.4 1337.3,1540.6 1322.8,1526.1 1294.5,1554.4 1266.1,1526.1 1251.6,1540.6 					
						"/>
				</g>
			</g>
		</g>
	</g>
</g>
</svg>
