<svg viewBox="1 -74 511.99999 511" xmlns="http://www.w3.org/2000/svg"><path d="m491.3125.5h-470.625c-11.410156 0-20.6875 9.277344-20.6875 20.6875v329.449219c0 7.035156 5.726562 12.761719 12.757812 12.761719h66.867188c4.234375 0 7.65625-3.429688 7.65625-7.65625 0-4.226563-3.421875-7.65625-7.65625-7.65625h-64.316406v-54.105469h119.6875c-10.347656 64.894531-2.96875 18.621093-8.632813 54.105469h-16.117187c-4.226563 0-7.65625 3.429687-7.65625 7.65625 0 4.226562 3.429687 7.65625 7.65625 7.65625h388.996094c7.03125 0 12.757812-5.726563 12.757812-12.761719 0-13.816407 0-314.160157 0-329.449219 0-11.410156-9.277344-20.6875-20.6875-20.6875zm-349.445312 347.585938c2.453124-15.347657 6.898437-43.179688 8.644531-54.105469h210.976562c7.058594 44.191406 8.117188 50.804687 8.644531 54.105469zm354.824218-23.054688v23.054688h-111.054687c-2.464844-15.40625-7.351563-46.058594-8.632813-54.105469h119.6875zm0-46.363281c-4.027344 0-464.171875 0-481.382812 0v-257.480469c0-2.96875 2.410156-5.378906 5.378906-5.378906h470.625c2.96875 0 5.378906 2.410156 5.378906 5.378906zm0 0"/><path d="m52.523438 325.03125c5.261718 8.699219 18.476562 4.785156 18.476562-5.136719 0-5.492187-4.460938-9.949219-9.953125-9.949219-7.78125 0-12.488281 8.53125-8.523437 15.085938zm0 0"/><path d="m460.902344 319.894531c0-5.492187-4.457032-9.949219-9.949219-9.949219-7.78125 0-12.488281 8.53125-8.523437 15.085938 5.257812 8.699219 18.472656 4.785156 18.472656-5.136719zm0 0"/><path d="m464.609375 30.375h-417.21875c-9.316406 0-16.898437 7.578125-16.898437 16.894531v198.929688c0 9.316406 7.582031 16.894531 16.898437 16.894531h368.339844c4.230469 0 7.65625-3.425781 7.65625-7.652344 0-4.230468-3.425781-7.65625-7.65625-7.65625h-368.339844c-.875 0-1.585937-.710937-1.585937-1.585937v-198.929688c0-.871093.710937-1.582031 1.585937-1.582031h417.222656c.871094 0 1.585938.710938 1.585938 1.582031v198.929688c0 .875-.714844 1.585937-1.585938 1.585937h-18.261719c-4.226562 0-7.65625 3.425782-7.65625 7.65625 0 4.226563 3.429688 7.652344 7.65625 7.652344h18.261719c9.316407 0 16.894531-7.578125 16.894531-16.894531v-198.929688c0-9.316406-7.582031-16.894531-16.898437-16.894531zm0 0"/><path d="m83.003906 145.714844c0 25.324218 20.605469 45.929687 45.929688 45.929687h254.132812c12.097656 0 23.660156-4.699219 32.453125-13.492187 28.824219-28.863282 8.359375-78.371094-32.453125-78.371094h-96.566406c-4.226562 0-7.65625 3.429688-7.65625 7.65625s3.429688 7.65625 7.65625 7.65625h25.371094c-9.980469 19.203125-9.988282 42.019531 0 61.242188h-111.742188c9.984375-19.207032 9.992188-42.023438 0-61.242188h55.75c4.226563 0 7.65625-3.429688 7.65625-7.65625s-3.429687-7.65625-7.65625-7.65625h-126.945312c-24.988282 0-45.929688 20.351562-45.929688 45.933594zm246.882813-30.621094h53.179687c27.148438 0 40.886719 32.945312 21.625 52.234375-5.808594 5.808594-13.488281 9.007813-21.625 9.007813h-53.179687c-13.59375-18.125-13.589844-43.128907 0-61.242188zm-200.953125 0h53.179687c13.59375 18.121094 13.589844 43.125 0 61.242188h-53.179687c-16.882813 0-30.621094-13.738282-30.621094-30.621094 0-16.835938 13.78125-30.621094 30.621094-30.621094zm0 0"/><path d="m147.804688 168.679688c12.664062 0 22.96875-10.300782 22.96875-22.964844 0-12.664063-10.304688-22.964844-22.96875-22.964844-12.660157 0-22.964844 10.300781-22.964844 22.964844 0 12.664062 10.304687 22.964844 22.964844 22.964844zm0-30.621094c4.222656 0 7.65625 3.433594 7.65625 7.65625s-3.433594 7.65625-7.65625 7.65625c-4.21875 0-7.652344-3.433594-7.652344-7.65625s3.433594-7.65625 7.652344-7.65625zm0 0"/><path d="m364.195312 168.679688c12.660157 0 22.964844-10.300782 22.964844-22.964844 0-12.664063-10.304687-22.964844-22.964844-22.964844-12.664062 0-22.96875 10.300781-22.96875 22.964844 0 12.664062 10.304688 22.964844 22.96875 22.964844zm0-30.621094c4.21875 0 7.652344 3.433594 7.652344 7.65625s-3.433594 7.65625-7.652344 7.65625c-4.222656 0-7.65625-3.433594-7.65625-7.65625s3.433594-7.65625 7.65625-7.65625zm0 0"/><path d="m404.511719 80.390625c4.226562 0 7.65625-3.429687 7.65625-7.65625s-3.429688-7.65625-7.65625-7.65625h-297.023438c-4.226562 0-7.65625 3.429687-7.65625 7.65625s3.429688 7.65625 7.65625 7.65625zm0 0"/></svg>