<svg xmlns="http://www.w3.org/2000/svg" viewBox="0 0 138.629 141.293"><defs><style>.cls-1{fill:#9a8c98}</style></defs><g id="_051-hearts" data-name="051-hearts" transform="translate(-4.827)"><g id="Group_76" data-name="Group 76" transform="translate(4.827 18.959)"><g id="Group_75" data-name="Group 75"><path id="Path_57" data-name="Path 57" class="cls-1" d="M143.456 106.72a38.086 38.086 0 0 0-10.888-26.87A37.074 37.074 0 0 0 105.9 68.7a37.926 37.926 0 0 0-31.758 17.114A37.927 37.927 0 0 0 42.38 68.7a37.076 37.076 0 0 0-26.665 11.15 38.087 38.087 0 0 0-10.888 26.871c0 9.539 2.76 15.114 4.979 19.594l.241.488c9.184 18.606 60.535 61.284 62.716 63.092l1.375 1.14 1.378-1.136c.051-.042 4.895-4.039 11.792-10.022 6.427 5.733 11.537 9.973 11.592 10.019l1.375 1.14 1.378-1.136c1.349-1.112 33.108-27.376 38.542-38.845l.151-.318a26.484 26.484 0 0 0 3.109-12.288 24.109 24.109 0 0 0-4.225-13.749 40.447 40.447 0 0 0 4.226-17.98zm-7.012 42.159l-.154.323c-4.423 9.336-29.784 30.983-36.008 36.211a498.21 498.21 0 0 1-11.508-10.026c-7.556-6.8-13.617-12.716-17.9-17.453q-1.784-1.974-3.149-3.667-.545-.676-1.021-1.3a24.822 24.822 0 0 1-2.454-3.791l-.09-.182a21.212 21.212 0 0 1-2.693-10.543 19.369 19.369 0 0 1 19.413-19.745 19.706 19.706 0 0 1 17.486 10.573l1.913 3.64 1.913-3.64a19.7 19.7 0 0 1 17.486-10.573 19.22 19.22 0 0 1 15.341 7.546 19.812 19.812 0 0 1 4.114 12.2 22.1 22.1 0 0 1-2.689 10.427zm-.3-27.849l-.028-.026q-.358-.346-.73-.675l-.129-.115q-.372-.326-.756-.635l-.152-.121a22.73 22.73 0 0 0-.8-.608l-.072-.051q-.393-.283-.8-.548l-.124-.083q-.414-.269-.838-.519l-.168-.1a22.215 22.215 0 0 0-.868-.48l-.105-.054q-.425-.22-.859-.423l-.11-.052c-.3-.138-.6-.269-.91-.394l-.179-.073a24.369 24.369 0 0 0-.924-.349l-.136-.046q-.455-.157-.918-.3l-.091-.028q-.48-.142-.968-.262l-.188-.047q-.481-.116-.968-.212l-.165-.031a22.76 22.76 0 0 0-.98-.166l-.055-.009a24.583 24.583 0 0 0-1.018-.123l-.193-.019q-.5-.046-1-.072l-.185-.008c-.349-.015-.7-.025-1.053-.025a24 24 0 0 0-19.4 9.82 24.1 24.1 0 0 0-22.956-9.558 23.34 23.34 0 0 0-13.309 6.8 24.131 24.131 0 0 0-6.866 17 25.243 25.243 0 0 0 3.14 12.458l.089.18q.124.251.264.512l.094.17.2.363.127.215.2.34c.049.079.1.161.152.241.07.111.138.221.211.334.055.086.115.174.172.261l.224.336c.061.091.126.183.19.275l.239.343c.067.1.138.192.208.289.084.116.167.232.254.35.073.1.15.2.226.3.089.118.177.237.269.357.079.1.161.21.243.315l.283.365.262.33c.088.111.2.247.3.372l.277.34.315.382.294.352.332.393.308.361.348.4.326.374.363.411.342.384.381.422.359.395.4.431.375.406.411.439.393.419c.139.148.282.3.424.447s.272.286.411.431l.451.469.425.44.466.476.433.442.5.5.432.434c.174.175.354.352.532.529q.426.423.865.855l.545.536.5.487.527.512.533.514.525.5.554.528.539.513.562.531.563.53.583.545.568.531.613.569.573.53.627.577.594.545.636.58.381.347c-4.5 3.9-8.079 6.911-9.927 8.455-8.368-7.032-52.249-44.371-60.224-60.526l-.243-.492c-2.124-4.288-4.53-9.149-4.53-17.677 0-18.9 14.6-33.7 33.231-33.7a33.637 33.637 0 0 1 29.846 18.057l1.913 3.64 1.913-3.64A33.637 33.637 0 0 1 105.9 73.021c18.634 0 33.231 14.8 33.231 33.7a34.974 34.974 0 0 1-2.988 14.309z" transform="translate(-4.827 -68.7)"/></g></g><g id="Group_78" data-name="Group 78" transform="translate(39.995)"><g id="Group_77" data-name="Group 77"><path id="Rectangle_624" data-name="Rectangle 624" class="cls-1" d="M0 0h4.322v13.455H0z"/></g></g><g id="Group_80" data-name="Group 80" transform="translate(55.175 3.925)"><g id="Group_79" data-name="Group 79"><path id="Rectangle_625" data-name="Rectangle 625" class="cls-1" transform="rotate(-65.178 9.55 6.106)" d="M0 0h13.454v4.322H0z"/></g></g><g id="Group_82" data-name="Group 82" transform="translate(19.563 3.923)"><g id="Group_81" data-name="Group 81"><path id="Rectangle_626" data-name="Rectangle 626" class="cls-1" transform="rotate(-24.822 4.121 .907)" d="M0 0h4.322v13.454H0z"/></g></g><g id="Group_84" data-name="Group 84" transform="translate(14.051 58.64)"><g id="Group_83" data-name="Group 83"><path id="Path_58" data-name="Path 58" class="cls-1" d="M42.572 213.192q0-.3.006-.608l-4.321-.09q-.007.349-.007.7a34.3 34.3 0 0 0 .9 8.074l4.2-1.006a30.04 30.04 0 0 1-.778-7.07z" transform="translate(-38.25 -212.494)"/></g></g><g id="Group_86" data-name="Group 86" transform="translate(14.461 35.585)"><g id="Group_85" data-name="Group 85"><path id="Path_59" data-name="Path 59" class="cls-1" d="M49.5 128.949a32.517 32.517 0 0 0-9.768 18.522l4.269.677a28.174 28.174 0 0 1 8.459-16.05z" transform="translate(-39.736 -128.949)"/></g></g><g id="Group_88" data-name="Group 88" transform="translate(65.229 73.637)"><g id="Group_87" data-name="Group 87"><path id="Path_60" data-name="Path 60" class="cls-1" d="M233.846 266.837a17.632 17.632 0 0 0-10.141 15.263l4.317.2a13.322 13.322 0 0 1 7.643-11.549z" transform="translate(-223.705 -266.837)"/></g></g></g></svg>