<svg xmlns="http://www.w3.org/2000/svg" viewBox="0 0 101.922 158.517"><defs><style>.cls-1{fill:#f2e9e4}</style></defs><g id="_051-engagement-ring" data-name="051-engagement-ring" transform="translate(-91.399)"><g id="Group_126" data-name="Group 126" transform="translate(139.97)"><g id="Group_125" data-name="Group 125"><path id="Rectangle_634" data-name="Rectangle 634" class="cls-1" d="M0 0h4.779v17.228H0z"/></g></g><g id="Group_128" data-name="Group 128" transform="translate(159.374 5.181)"><g id="Group_127" data-name="Group 127"><path id="Rectangle_635" data-name="Rectangle 635" class="cls-1" transform="rotate(-65.178 12.23 7.818)" d="M0 0h17.228v4.779H0z"/></g></g><g id="Group_130" data-name="Group 130" transform="translate(172.153 25.673)"><g id="Group_129" data-name="Group 129"><path id="Rectangle_636" data-name="Rectangle 636" class="cls-1" transform="rotate(-25.18 16.41 3.668)" d="M0 0h17.228v4.779H0z"/></g></g><g id="Group_132" data-name="Group 132" transform="translate(94.934 25.675)"><g id="Group_131" data-name="Group 131"><path id="Rectangle_637" data-name="Rectangle 637" class="cls-1" transform="rotate(-64.837 3.406 2.163)" d="M0 0h4.779v17.228H0z"/></g></g><g id="Group_134" data-name="Group 134" transform="translate(113.772 5.18)"><g id="Group_133" data-name="Group 133"><path id="Rectangle_638" data-name="Rectangle 638" class="cls-1" transform="rotate(-24.822 4.558 1.003)" d="M0 0h4.779v17.228H0z"/></g></g><g id="Group_136" data-name="Group 136" transform="translate(91.399 28.089)"><g id="Group_135" data-name="Group 135"><path id="Path_75" data-name="Path 75" class="cls-1" d="M153.176 120.391V118.5h.522l10.851-15.206a2.749 2.749 0 0 0 .483-1.473v-1l-10.183-10.1h-24.978l-10.183 10.1v1a2.742 2.742 0 0 0 .48 1.468l10.854 15.211h.522v1.894a50.961 50.961 0 1 0 21.632 0zm-.708-8.4l-5.534-7.755H158zm-4.071 6.5v.735h-12.074v-.726zm-11.5-4.78l5.467-7.66 5.467 7.66zm-5.054-18.212h21.042l3.988 3.954h-29.021zm-5.121 8.733h11.067l-5.534 7.755zm15.638 112.142a46.181 46.181 0 1 1 46.181-46.181 46.234 46.234 0 0 1-46.181 46.181z" transform="translate(-91.399 -90.726)"/></g></g><g id="Group_138" data-name="Group 138" transform="translate(103.498 68.694)"><g id="Group_137" data-name="Group 137"><path id="Path_76" data-name="Path 76" class="cls-1" d="M169.34 221.877a38.862 38.862 0 1 0 38.86 38.862 38.906 38.906 0 0 0-38.86-38.862zm0 72.945a34.083 34.083 0 1 1 34.083-34.083 34.122 34.122 0 0 1-34.083 34.083z" transform="translate(-130.478 -221.877)"/></g></g></g></svg>