<svg id="Layer_1" xmlns="http://www.w3.org/2000/svg" viewBox="0 0 300 300"><style>.st10{fill:#f2e9e4}</style><g id="LOGO"><linearGradient id="SVGID_1_" gradientUnits="userSpaceOnUse" x1="66.438" y1="121.95" x2="220.155" y2="160.276"><stop offset="0" stop-color="#af7634"/><stop offset=".274" stop-color="#c48c3d"/><stop offset=".57" stop-color="#f2e375"/><stop offset=".729" stop-color="#dcb961"/><stop offset=".877" stop-color="#e9de90"/><stop offset="1" stop-color="#c89a4d"/></linearGradient><path d="M231.5 114.7h-60.1c-1.8-4.1-3.9-7.9-6.2-11.4-.9-1.3-1.8-2.6-2.8-3.8-8.2-10.2-19.1-16.7-31.1-17.4-.8 0-1.5-.1-2.3-.1-26.5 0-48.1 27.9-48.8 62.8v1.8c0 22.4 8.7 42.2 21.8 53.8 9.5 10.1 21.6 16.9 34.9 18.8-2.6.4-5.3.6-8 .6-35.8 0-64.7-34.5-64.7-77.1s29-77.1 64.7-77.1c2.7 0 5.4.2 8 .6 4.6.7 9 1.9 13.2 3.6 13.3 5.5 24.6 16 32.4 29.6h26.4c-10.2-17.9-26.6-30.4-45.6-33.2 2.6-.4 5.3-.6 8-.6 22.3 0 41.9 13.4 53.6 33.8.2.3.4.6.5.9.2.3.3.6.5.8.1.2.3.5.4.7.1.2.2.5.4.7.3.6.6 1.2.9 1.9l.3.6c.4.9.9 1.9 1.3 2.8.1.2.2.5.3.7.2.5.4 1.1.6 1.6.1.2.2.4.3.7.1.2.2.4.2.7.1.3.2.6.4 1v.1c.2.6.4 1.2.6 1.7-.1.3-.1.3-.1.4z" fill="url(#SVGID_1_)"/><linearGradient id="SVGID_2_" gradientUnits="userSpaceOnUse" x1="103.351" y1="143.965" x2="230.553" y2="175.68"><stop offset="0" stop-color="#af7634"/><stop offset=".274" stop-color="#c48c3d"/><stop offset=".57" stop-color="#f2e375"/><stop offset=".729" stop-color="#dcb961"/><stop offset=".877" stop-color="#e9de90"/><stop offset="1" stop-color="#c89a4d"/></linearGradient><path d="M235.9 142.8c0 1.3 0 2.7-.1 4-.2 4.9-.8 9.7-1.8 14.3-.9 4.6-2.2 9-3.8 13.2-10.1 26.9-32.8 45.6-59.1 45.6-2.7 0-5.4-.2-8-.6-32-4.7-56.7-37.1-56.7-76.5v-2.3c.2-9.3 1.8-18.2 4.6-26.4 3.8-9.1 9.6-16.1 16.5-19.5 3-1.5 6.2-2.3 9.5-2.3 2.1 0 4.2.3 6.2 1-12.3 11-20.3 29-20.3 49.3 0 16.3 5.1 31.1 13.5 42 2.4 3.2 5.1 6 8.1 8.5 7.7 6.4 16.9 10.2 26.8 10.2 17.5 0 32.8-11.6 41.3-28.9 2-4.1 3.6-8.5 4.8-13.2 1.2-4.6 1.9-9.4 2.2-14.3H165v14.3h25.7c-1 4.8-2.6 9.2-4.5 13.2-5.7 11.5-14.9 18.9-25.2 18.9-2.1 0-4.1-.3-6-.9 5.7-2.7 10.8-9.1 14.7-18h-20.1l-.3-42.7h85.8c.6 3.6.8 7.3.8 11.1z" fill="url(#SVGID_2_)"/><linearGradient id="SVGID_3_" gradientUnits="userSpaceOnUse" x1="120.451" y1="21.718" x2="134.777" y2="29.659"><stop offset="0" stop-color="#afb0af"/><stop offset=".696" stop-color="#c7c6c6"/><stop offset="1" stop-color="#e8e7e7"/></linearGradient><path fill="url(#SVGID_3_)" d="M125.4 12.9l8.8 17.7h-18.6z"/><linearGradient id="SVGID_4_" gradientUnits="userSpaceOnUse" x1="171.16" y1="21.718" x2="185.486" y2="29.659"><stop offset="0" stop-color="#afb0af"/><stop offset=".696" stop-color="#c7c6c6"/><stop offset="1" stop-color="#e8e7e7"/></linearGradient><path fill="url(#SVGID_4_)" d="M166.3 30.6l9.8-17.7 8.9 17.7z"/><linearGradient id="SVGID_5_" gradientUnits="userSpaceOnUse" x1="145.949" y1="21.718" x2="160.274" y2="29.659"><stop offset="0" stop-color="#afb0af"/><stop offset=".696" stop-color="#c7c6c6"/><stop offset="1" stop-color="#e8e7e7"/></linearGradient><path fill="url(#SVGID_5_)" d="M141.1 30.6l9.8-17.7 8.8 17.7z"/><linearGradient id="SVGID_6_" gradientUnits="userSpaceOnUse" x1="128.266" y1="12.963" x2="142.591" y2="20.904"><stop offset="0" stop-color="#afb0af"/><stop offset=".696" stop-color="#c7c6c6"/><stop offset="1" stop-color="#e8e7e7"/></linearGradient><path fill="url(#SVGID_6_)" d="M147.4 12l-9.7 17.8-8.9-17.8z"/><linearGradient id="SVGID_7_" gradientUnits="userSpaceOnUse" x1="153.764" y1="12.963" x2="168.089" y2="20.904"><stop offset="0" stop-color="#afb0af"/><stop offset=".696" stop-color="#c7c6c6"/><stop offset="1" stop-color="#e8e7e7"/></linearGradient><path fill="url(#SVGID_7_)" d="M172.9 12l-9.7 17.8-8.9-17.8z"/><linearGradient id="SVGID_8_" gradientUnits="userSpaceOnUse" x1="114.803" y1="34.501" x2="145.355" y2="51.436"><stop offset="0" stop-color="#afb0af"/><stop offset=".696" stop-color="#c7c6c6"/><stop offset="1" stop-color="#e8e7e7"/></linearGradient><path d="M142.8 56c-3.2.2-6.1.6-8.6 1.1l-19.2-23h20.3l7.5 21.9z" fill="url(#SVGID_8_)"/><linearGradient id="SVGID_9_" gradientUnits="userSpaceOnUse" x1="161.439" y1="39.783" x2="176.999" y2="48.409"><stop offset="0" stop-color="#afb0af"/><stop offset=".696" stop-color="#c7c6c6"/><stop offset="1" stop-color="#e8e7e7"/></linearGradient><path d="M185 34.1l-19.4 23.4c-2.3-.6-5.2-1-8.4-1.3l7.5-22.1H185z" fill="url(#SVGID_9_)"/><linearGradient id="SVGID_10_" gradientUnits="userSpaceOnUse" x1="138.134" y1="36.343" x2="158.202" y2="47.466"><stop offset="0" stop-color="#afb0af"/><stop offset=".696" stop-color="#c7c6c6"/><stop offset="1" stop-color="#e8e7e7"/></linearGradient><path d="M160.9 34.1L153.5 56c-1.4-.1-2.9-.1-4.4-.1h-2.6l-7.1-21.8h21.5z" fill="url(#SVGID_10_)"/></g><path class="st10" d="M46.4 260.4c0-1.9-.1-2.2-1.1-2.5-.2 0-.6-.1-.8-.1-.1 0-.2 0-.2-.1s.1-.2.4-.2c1.1 0 2.6.1 2.7.1.1 0 1.6-.1 2.3-.1.3 0 .4 0 .4.2 0 .1-.1.1-.2.1-.2 0-.3 0-.6.1-.6.1-.8.5-.9 1.4v5.2c0 1.1 0 1.1-.3 1.3-1.5.8-3.7 1.1-5.1 1.1-1.8 0-5.2-.2-7.9-2.6-1.5-1.3-2.9-3.8-2.9-6.8 0-3.8 1.9-6.5 4-7.9 2.2-1.3 4.5-1.5 6.4-1.5 1.5 0 3.2.3 3.7.4.5.1 1.3.2 1.9.2.2 0 .3.1.3.2 0 .3-.2 1-.2 3.4 0 .4 0 .5-.2.5-.1 0-.1-.1-.2-.4 0-.3-.1-1-.5-1.6-.6-.9-2.5-1.9-5.6-1.9-1.5 0-3.3.1-5.1 1.6-1.4 1.1-2.4 3.3-2.4 6.1 0 3.4 1.7 5.8 2.5 6.6 1.9 1.8 4.1 2.6 6.3 2.6.9 0 2.1-.1 2.7-.5.3-.2.5-.4.5-.8v-4.1zm8.7-3.4v-4.4c0-.7-.2-1-.9-1.1h-.7c-.1 0-.2-.1-.2-.2s.1-.2.3-.2H61c.4 0 .8-.1 1-.1.1 0 .2-.1.3-.1.1 0 .1.1.1.2s-.1.4-.2 1c0 .2-.1 1.1-.1 1.3 0 .1-.1.2-.2.2s-.2-.1-.2-.3c0-.1 0-.5-.1-.7-.1-.3-.4-.5-1.5-.6-.4 0-2.8-.1-3-.1-.1 0-.1.1-.1.2v5.5c0 .1 0 .2.1.2h3.5c.5 0 .8-.1 1-.3.1-.1.2-.3.3-.3.1 0 .1 0 .1.2v1.3c0 .4-.1 1.2-.1 1.3 0 .2 0 .4-.2.4-.1 0-.1-.1-.1-.2 0-.2 0-.4-.1-.7-.1-.3-.3-.5-1.1-.6-.6-.1-2.8-.1-3.2-.1-.1 0-.1.1-.1.1v5.2c0 1.4.4 1.6 2.5 1.6.6 0 1.6 0 2.1-.2.6-.2.8-.6 1-1.4 0-.2.1-.3.2-.3s.1.2.1.3-.2 1.5-.3 2c-.1.5-.4.5-1.2.5-1.6 0-2.8 0-3.7-.1H53.9c-.2 0-.3 0-.3-.2 0-.1 0-.2.2-.2s.5-.1.6-.1c.4-.1.5-.5.6-1.1.1-.8.1-2.4.1-4.4V257zm19.2-6.2c4.7 0 8.3 2.9 8.3 7.6 0 4.6-3.4 8.3-8.5 8.3-5.8 0-8.2-4.3-8.2-8 0-3.2 2.6-7.9 8.4-7.9zm.5 15.2c1.9 0 5.7-1 5.7-6.9 0-4.9-3-7.5-6.3-7.5-3.5 0-6.1 2.2-6.1 6.6 0 4.8 2.9 7.8 6.7 7.8zm17.3-2.1c1.2-2.7 4-9.7 4.4-11.1.1-.3.2-.6.2-.8s-.1-.4-.3-.4c-.2-.1-.5-.1-.7-.1-.1 0-.2-.1-.2-.2s.1-.2.5-.2h3.8c.2 0 .3 0 .3.1s-.1.2-.2.2-.6 0-1 .2c-.3.2-.6.5-1.2 1.9-.2.6-1.3 3-2.3 5.5-1.3 3-2.2 5.2-2.7 6.2-.6 1.2-.7 1.5-.9 1.5-.2 0-.4-.3-.8-1.2L85.8 253c-.5-1.2-.8-1.4-1.5-1.5-.3-.1-.7-.1-.8-.1-.1 0-.2-.1-.2-.2s.2-.1.6-.1h4.5c.4 0 .6 0 .6.1s-.1.2-.2.2c-.2 0-.6 0-.8.1-.2.1-.2.2-.2.4 0 .3.3.9.6 1.7l3.7 10.3zm12.6-12.4c.3-.7.4-.8.5-.8.2 0 .3.3.5.7.4.9 3.8 9.3 5.1 12.4.8 1.8 1.3 2.1 1.8 2.2.3.1.6.1.8.1.1 0 .3 0 .3.2s-.2.2-.5.2h-3.3c-.4 0-.7 0-.7-.1s0-.1.1-.1.3-.2.2-.6l-1.9-4.7c0-.1-.1-.1-.2-.1h-4.9c-.1 0-.2 0-.2.2l-1.2 3.3c-.2.5-.3 1-.3 1.4 0 .4.4.6.7.6h.2c.2 0 .2.1.2.2s-.1.2-.3.2c-.5 0-1.7-.1-1.9-.1-.2 0-1.3.1-2.1.1-.3 0-.4 0-.4-.2 0-.1.1-.2.2-.2h.6c1-.1 1.4-.8 1.8-1.9l4.9-13zm2.4 8.5c.1 0 .1 0 .1-.1l-2.1-5.6c-.1-.3-.2-.3-.4 0l-2 5.6c0 .1 0 .1.1.1h4.3zm10.3 3.8c0 1.7.2 2.2.8 2.3.4.1.9.1 1.1.1.1 0 .2.1.2.2s-.1.2-.4.2c-1.2 0-2-.1-2.2-.1-.2 0-1.1.1-2 .1-.2 0-.3 0-.3-.2 0-.1.1-.2.2-.2.2 0 .6 0 .9-.1.5-.1.6-.7.6-2.5v-11.7c0-.8.1-1 .3-1 .2 0 .6.4.8.6.3.3 3.4 3.6 6.7 7 2.1 2.2 4.3 4.6 5 5.2l-.2-10.2c0-1.3-.1-1.8-.8-1.9-.4-.1-.9-.1-1-.1-.1 0-.2-.1-.2-.2s.2-.1.4-.1h4c.2 0 .4 0 .4.1s-.1.2-.2.2h-.5c-.7.1-.7.6-.7 1.8v11.9c0 1.3 0 1.5-.2 1.5s-.4-.2-1.6-1.2c-.2-.2-3.3-3.2-5.5-5.5-2.4-2.6-4.8-5.1-5.5-5.8l-.1 9.6zm19.5 0c0 1.7.2 2.2.8 2.3.4.1.9.1 1.1.1.1 0 .2.1.2.2s-.1.2-.4.2c-1.2 0-2-.1-2.2-.1-.2 0-1.1.1-2 .1-.2 0-.3 0-.3-.2 0-.1.1-.2.2-.2.2 0 .6 0 .9-.1.5-.1.6-.7.6-2.5v-11.7c0-.8.1-1 .3-1 .2 0 .6.4.8.6.3.3 3.4 3.6 6.7 7 2.1 2.2 4.3 4.6 5 5.2l-.2-10.2c0-1.3-.1-1.8-.8-1.9-.4-.1-.9-.1-1-.1-.1 0-.2-.1-.2-.2s.2-.1.4-.1h4c.2 0 .4 0 .4.1s-.1.2-.2.2h-.5c-.7.1-.7.6-.7 1.8v11.9c0 1.3 0 1.5-.2 1.5s-.4-.2-1.6-1.2c-.2-.2-3.3-3.2-5.5-5.5-2.4-2.6-4.8-5.1-5.5-5.8l-.1 9.6zm22.3-12.3c.3-.7.4-.8.5-.8.2 0 .3.3.5.7.4.9 3.8 9.3 5.1 12.4.8 1.8 1.3 2.1 1.8 2.2.3.1.6.1.8.1.1 0 .3 0 .3.2s-.2.2-.5.2h-3.3c-.4 0-.7 0-.7-.1s0-.1.1-.1.3-.2.2-.6l-2-4.7c0-.1-.1-.1-.2-.1H157c-.1 0-.2 0-.2.2l-1.2 3.3c-.2.5-.3 1-.3 1.4 0 .4.4.6.7.6h.2c.2 0 .2.1.2.2s-.1.2-.3.2c-.5 0-1.7-.1-1.9-.1-.2 0-1.3.1-2.1.1-.3 0-.4 0-.4-.2 0-.1.1-.2.2-.2h.6c1-.1 1.4-.8 1.8-1.9l4.9-13zm2.3 8.5c.1 0 .1 0 .1-.1l-2.1-5.6c-.1-.3-.2-.3-.4 0l-2 5.6c0 .1 0 .1.1.1h4.3zm29.1.4c0-1.9-.1-2.2-1.1-2.5-.2 0-.6-.1-.8-.1-.1 0-.2 0-.2-.1s.1-.2.4-.2c1.1 0 2.6.1 2.7.1.1 0 1.6-.1 2.3-.1.3 0 .4 0 .4.2 0 .1-.1.1-.2.1-.2 0-.3 0-.6.1-.6.1-.8.5-.9 1.4v5.2c0 1.1 0 1.1-.3 1.3-1.5.8-3.7 1.1-5.1 1.1-1.8 0-5.2-.2-7.9-2.6-1.5-1.3-2.9-3.8-2.9-6.8 0-3.8 1.9-6.5 4-7.9 2.2-1.3 4.5-1.5 6.4-1.5 1.5 0 3.2.3 3.7.4.5.1 1.3.2 1.9.2.2 0 .3.1.3.2 0 .3-.2 1-.2 3.4 0 .4 0 .5-.2.5-.1 0-.1-.1-.2-.4 0-.3-.1-1-.5-1.6-.6-.9-2.5-1.9-5.6-1.9-1.5 0-3.3.1-5.1 1.6-1.4 1.1-2.4 3.3-2.4 6.1 0 3.4 1.7 5.8 2.5 6.6 1.9 1.8 4.1 2.6 6.3 2.6.9 0 2.1-.1 2.7-.5.3-.2.5-.4.5-.8v-4.1zm12-8.9c.3-.7.4-.8.5-.8.2 0 .3.3.5.7.4.9 3.8 9.3 5.1 12.4.8 1.8 1.3 2.1 1.8 2.2.3.1.6.1.8.1.1 0 .3 0 .3.2s-.2.2-.5.2h-3.3c-.4 0-.7 0-.7-.1s0-.1.1-.1.3-.2.2-.6l-1.9-4.7c0-.1-.1-.1-.2-.1h-4.9c-.1 0-.2 0-.2.2l-1.2 3.3c-.2.5-.3 1-.3 1.4 0 .4.4.6.7.6h.2c.2 0 .2.1.2.2s-.1.2-.3.2c-.5 0-1.7-.1-1.9-.1-.2 0-1.3.1-2.1.1-.3 0-.4 0-.4-.2 0-.1.1-.2.2-.2h.6c1-.1 1.4-.8 1.8-1.9l4.9-13zm2.3 8.5c.1 0 .1 0 .1-.1l-2.1-5.6c-.1-.3-.2-.3-.4 0l-2 5.6c0 .1 0 .1.1.1h4.3zm9.4-3v-4.4c0-.7-.2-1-.9-1.1h-.7c-.1 0-.2-.1-.2-.2s.1-.2.3-.2h5.1c1.3 0 2.8.1 3.9.9.5.4 1.5 1.4 1.5 2.8 0 1.5-.6 3-2.6 4.7 1.7 2.2 3.2 4 4.4 5.3 1.1 1.2 1.8 1.3 2.3 1.4.4.1.6.1.7.1s.2.1.2.2-.1.2-.5.2h-1.3c-1.2 0-1.7-.1-2.3-.4-.9-.5-1.7-1.5-2.9-3-.9-1.1-1.8-2.4-2.3-3-.1-.1-.1-.1-.3-.1H216c-.1 0-.1 0-.1.2v.5c0 2 0 3.5.1 4.4.1.6.2 1 .8 1.1.3 0 .7.1.9.1.1 0 .2.1.2.2s-.1.2-.3.2c-1.2 0-2.5-.1-2.6-.1 0 0-1.4.1-2.1.1-.2 0-.3 0-.3-.2 0-.1 0-.2.2-.2s.5 0 .6-.1c.4-.1.5-.5.6-1.1.1-.8.1-2.4.1-4.4V257zm1.8 1.8c0 .1 0 .2.1.3.3.2 1.4.3 2.3.3.5 0 1.1 0 1.6-.4.7-.5 1.3-1.6 1.3-3.1 0-2.5-1.4-4-3.6-4-.6 0-1.3.1-1.5.1-.1 0-.2.1-.2.2v6.6zm14.8 5.8c-2.1-1.8-2.6-4.1-2.6-6 0-1.4.5-3.7 2.4-5.6 1.3-1.2 3.2-2.2 6.4-2.2.8 0 2 .1 3.1.2.8.1 1.5.3 2.2.3.2 0 .3.1.3.2 0 .2 0 .4-.1 1.2v2.1c0 .3-.1.4-.2.4s-.2-.1-.2-.4c0-.8-.3-1.6-.9-2-.7-.6-2.3-1.1-4.1-1.1-2.7 0-4 .7-4.7 1.4-1.6 1.4-1.9 3.3-1.9 5.3 0 3.9 3.1 7.4 7.6 7.4 1.6 0 2.6-.1 3.5-1 .5-.5.7-1.3.8-1.7 0-.2.1-.3.2-.3s.2.1.2.3-.3 1.9-.5 2.6c-.1.4-.2.5-.5.6-.9.3-2.4.5-3.8.5-3.4 0-5.5-.7-7.2-2.2zm18.8-4c0 2 0 3.6.1 4.4.1.6.1 1 .8 1.1.3 0 .8.1 1 .1.1 0 .2.1.2.2s-.1.2-.3.2c-1.2 0-2.5-.1-2.6-.1-.1 0-1.4.1-2.1.1-.2 0-.3 0-.3-.2 0-.1 0-.2.2-.2s.5 0 .6-.1c.4-.1.5-.5.6-1.1.1-.8.1-2.4.1-4.4v-8c0-.7-.2-1-.7-1.1-.2 0-.5-.1-.6-.1-.1 0-.2-.1-.2-.2s.1-.2.3-.2h4.2c.2 0 .3 0 .3.2 0 .1-.1.2-.2.2h-.5c-.6.1-.7.4-.7 1.1v8.1zm10.6-9.1c.3-.7.4-.8.5-.8.2 0 .3.3.5.7.4.9 3.8 9.3 5.1 12.4.8 1.8 1.3 2.1 1.8 2.2.3.1.6.1.8.1.1 0 .3 0 .3.2s-.2.2-.5.2h-3.3c-.4 0-.7 0-.7-.1s0-.1.1-.1.3-.2.2-.6l-1.9-4.7c0-.1-.1-.1-.2-.1h-4.9c-.1 0-.2 0-.2.2l-1.2 3.3c-.2.5-.3 1-.3 1.4 0 .4.4.6.7.6h.2c.2 0 .2.1.2.2s-.1.2-.3.2c-.5 0-1.7-.1-1.9-.1-.2 0-1.3.1-2.1.1-.3 0-.4 0-.4-.2 0-.1.1-.2.2-.2h.6c1-.1 1.4-.8 1.8-1.9l4.9-13zm2.3 8.5c.1 0 .1 0 .1-.1l-2.1-5.6c-.1-.3-.2-.3-.4 0l-2 5.6c0 .1 0 .1.1.1h4.3zM85 284.5h-4.1l-.8 1.9h-.9l3.4-7.6h.9l3.4 7.6H86l-1-1.9zm-.3-.8l-1.7-3.9-1.7 3.9h3.4zm5.5-4.1c-1 0-1.6.4-1.6 1 0 2 4.3.9 4.3 3.7 0 1.3-1.1 2.1-2.8 2.1-1.1 0-2.2-.5-2.9-1.2l.4-.8c.7.7 1.7 1.1 2.5 1.1 1.1 0 1.8-.4 1.8-1.2 0-2-4.3-1-4.3-3.7 0-1.2 1.1-2 2.6-2 .9 0 1.8.3 2.4.7l-.4.8c-.6-.3-1.4-.5-2-.5zm6.6 0c-1 0-1.6.4-1.6 1 0 2 4.3.9 4.3 3.7 0 1.3-1.1 2.1-2.8 2.1-1.1 0-2.2-.5-2.9-1.2l.4-.8c.7.7 1.7 1.1 2.5 1.1 1.1 0 1.8-.4 1.8-1.2 0-2-4.3-1-4.3-3.7 0-1.2 1.1-2 2.6-2 .9 0 1.8.3 2.4.7l-.4.8c-.6-.3-1.4-.5-2-.5zm9.6-.8v.8h-4.3v2.6h3.8v.8h-3.8v2.7h4.4v.8h-5.3v-7.6h5.2zm4.1.8c-1 0-1.6.4-1.6 1 0 2 4.3.9 4.3 3.7 0 1.3-1.1 2.1-2.8 2.1-1.1 0-2.2-.5-2.9-1.2l.4-.8c.7.7 1.7 1.1 2.5 1.1 1.1 0 1.8-.4 1.8-1.2 0-2-4.3-1-4.3-3.7 0-1.2 1.1-2 2.6-2 .9 0 1.8.3 2.4.7l-.4.8c-.5-.3-1.4-.5-2-.5zm6.7 0c-1 0-1.6.4-1.6 1 0 2 4.3.9 4.3 3.7 0 1.3-1.1 2.1-2.8 2.1-1.1 0-2.2-.5-2.9-1.2l.4-.8c.7.7 1.7 1.1 2.5 1.1 1.1 0 1.8-.4 1.8-1.2 0-2-4.3-1-4.3-3.7 0-1.2 1.1-2 2.6-2 .9 0 1.8.3 2.4.7l-.4.8c-.6-.3-1.4-.5-2-.5zm11.7 3c0 2.1-1.8 3.8-4 3.8s-4-1.7-4-3.8c0-2.1 1.8-3.8 4-3.8s4 1.7 4 3.8zm-7.1 0c0 1.7 1.4 3 3.1 3 1.7 0 3.1-1.4 3.1-3s-1.4-3-3.1-3c-1.7 0-3.1 1.3-3.1 3zm13.7 3.8l-1.6-2.4h-2.5v2.4h-.9v-7.6h2.9c1.9 0 3 .9 3 2.6 0 1.3-.6 2.1-1.7 2.5l1.8 2.6h-1zm-2.1-3.2c1.4 0 2.2-.6 2.2-1.8 0-1.2-.8-1.8-2.2-1.8h-2v3.6h2zm5.8-4.4v7.6h-.9v-7.6h.9zm7.1 5.7h-4.1l-.8 1.9h-.9l3.4-7.6h.9l3.4 7.6h-.9l-1-1.9zm-.3-.8l-1.7-3.9-1.7 3.9h3.4zm13.6-1.1c0 2.2-1.7 3.8-4 3.8h-3v-7.6h3.1c2.2 0 3.9 1.7 3.9 3.8zm-.9 0c0-1.7-1.4-3-3.1-3h-2.2v6h2.2c1.8 0 3.1-1.2 3.1-3zm7.7-3.8v.8h-4.3v2.6h3.8v.8h-3.8v2.7h4.4v.8h-5.3v-7.6h5.2zm10.3 0v.8h-4.3v2.6h3.8v.8h-3.8v2.7h4.4v.8h-5.3v-7.6h5.2zm1.8 0l2.6 6.6 2.6-6.6h.9l-3.1 7.6h-.9l-3.1-7.6h1zm12.5 0v.8h-4.3v2.6h3.8v.8h-3.8v2.7h4.4v.8h-5.3v-7.6h5.2zm2.8 0l4.6 6.2v-6.2h.9v7.6h-.9l-4.6-6.2v6.2h-.9v-7.6h.9zm12.6 0v.8h-2.5v6.8h-.9v-6.8h-2.5v-.8h5.9zm8 3.8c0 2.1-1.8 3.8-4 3.8s-4-1.7-4-3.8c0-2.1 1.8-3.8 4-3.8 2.3 0 4 1.7 4 3.8zm-7.1 0c0 1.7 1.4 3 3.1 3 1.7 0 3.1-1.4 3.1-3s-1.4-3-3.1-3c-1.6 0-3.1 1.3-3.1 3zm10.9-3c-1 0-1.6.4-1.6 1 0 2 4.3.9 4.3 3.7 0 1.3-1.1 2.1-2.8 2.1-1.1 0-2.2-.5-2.9-1.2l.4-.8c.7.7 1.7 1.1 2.5 1.1 1.1 0 1.8-.4 1.8-1.2 0-2-4.3-1-4.3-3.7 0-1.2 1.1-2 2.6-2 .9 0 1.8.3 2.4.7l-.4.8c-.5-.3-1.4-.5-2-.5z"/></svg>