<svg xmlns="http://www.w3.org/2000/svg" viewBox="0 0 134 122.824"><defs><style>.cls-1{fill:#f2e9e4}</style></defs><g id="_051-wedding-rings" data-name="051-wedding-rings" transform="translate(0 -21.351)"><g id="Group_118" data-name="Group 118" transform="translate(0 47.334)"><g id="Group_117" data-name="Group 117"><path id="Path_74" data-name="Path 74" class="cls-1" d="M97.3 135.216l7.975-7.975-5.682-6.612H85.9l-5.682 6.612 7.975 7.975A41.226 41.226 0 0 0 67 143.985a41.226 41.226 0 0 0-21.195-8.769l7.975-7.975-5.68-6.612H34.409l-5.682 6.612 7.975 7.975A41.253 41.253 0 1 0 67 208.448a41.253 41.253 0 1 0 30.3-73.232zm-11.655-8.18l2.086-2.427h10.032l2.086 2.427-7.1 7.1zm-51.493 0l2.086-2.427H46.27l2.086 2.427-7.1 7.1zm7.1 86.454a37.265 37.265 0 1 1 31.368-17.135c-.05-.05-.1-.1-.148-.153a29.313 29.313 0 0 1-.645-.674c-.093-.1-.185-.2-.276-.307a31.434 31.434 0 0 1-.512-.584q-.144-.17-.286-.342-.243-.295-.477-.6c-.088-.113-.177-.226-.263-.34q-.257-.34-.5-.69c-.051-.072-.1-.143-.154-.215a32.472 32.472 0 0 0-.017-32.5l.016-.025-.675-1.066a32.558 32.558 0 0 0-4.556-5.669q-.862-.857-1.79-1.65l-1.632-1.4-.042.058A32.453 32.453 0 1 0 60.7 202.2l.076.091c.141.173.286.343.429.514.111.131.22.264.332.393.153.177.31.351.466.526.107.12.213.241.321.359.172.187.347.371.522.555.1.1.192.206.29.307.213.22.431.436.649.651l.177.178a37.259 37.259 0 0 1-22.709 7.716zm34.4-60.039a28.473 28.473 0 1 1 0 45.53 41.255 41.255 0 0 0 0-45.53zM67 188.378a28.482 28.482 0 0 1 0-24.322 28.482 28.482 0 0 1 0 24.322zm-8.657-34.926a41.256 41.256 0 0 0 0 45.531 28.473 28.473 0 1 1 0-45.531zm34.4 60.039a37.278 37.278 0 0 1-31.368-57.411 29.179 29.179 0 0 1 .794.826c.093.1.183.2.275.305q.261.29.514.587.143.168.283.339.244.3.48.6c.087.112.175.224.261.337.171.227.338.457.5.69.051.072.1.143.155.216a32.472 32.472 0 0 0 .017 32.5l-.016.025.675 1.066a32.575 32.575 0 0 0 6.345 7.319l1.632 1.4.042-.058a32.453 32.453 0 1 0-.042-51.989l-.076-.091a35.276 35.276 0 0 0-.429-.513c-.111-.132-.221-.265-.333-.395-.152-.175-.307-.348-.462-.521-.109-.121-.216-.245-.326-.365-.168-.183-.34-.363-.511-.543l-.3-.32c-.2-.211-.413-.417-.621-.623-.069-.068-.135-.137-.2-.2a37.273 37.273 0 1 1 22.715 66.818z" transform="translate(0 -120.629)"/></g></g><g id="Group_120" data-name="Group 120" transform="translate(65.01 21.351)"><g id="Group_119" data-name="Group 119"><path id="Rectangle_631" data-name="Rectangle 631" class="cls-1" d="M0 0h3.98v12.391H0z"/></g></g><g id="Group_122" data-name="Group 122" transform="translate(78.99 24.962)"><g id="Group_121" data-name="Group 121"><path id="Rectangle_632" data-name="Rectangle 632" class="cls-1" transform="rotate(-65.178 8.796 5.623)" d="M0 0h12.391v3.98H0z"/></g></g><g id="Group_124" data-name="Group 124" transform="translate(46.193 24.963)"><g id="Group_123" data-name="Group 123"><path id="Rectangle_633" data-name="Rectangle 633" class="cls-1" transform="rotate(-24.822 3.797 .835)" d="M0 0h3.98v12.391H0z"/></g></g></g></svg>