<?xml version="1.0" encoding="utf-8"?>
<!-- Generator: Adobe Illustrator 14.0.0, SVG Export Plug-In . SVG Version: 6.00 Build 43363)  -->
<!DOCTYPE svg PUBLIC "-//W3C//DTD SVG 1.1//EN" "http://www.w3.org/Graphics/SVG/1.1/DTD/svg11.dtd">
<svg version="1.1" id="Layer_1" xmlns="http://www.w3.org/2000/svg" xmlns:xlink="http://www.w3.org/1999/xlink" x="0px" y="0px"
	 width="460px" height="440px" viewBox="0 0 460 440" enable-background="new 0 0 460 440" xml:space="preserve">
<path d="M367.205,256.942c-4.297-50.664-52.763-92.065-117.848-92.065c-65.086,0-114.569,41.325-117.849,92.065
	c-3.652,56.497,38.396,119.576,132.195,110.413C341.631,359.741,371.518,307.788,367.205,256.942z M303.795,220.43
	c0.354-0.544,1.232-1.365,2.275-0.31c1.664,1.687,3.164,3.974,4.51,6.688c0.25,0.325-0.064,0.575-0.204,0.643
	c-3.223,1.58-5.464,5.043-5.464,9.068c0,5.516,4.201,9.986,9.381,9.986c0.563,0,1.111-0.059,1.646-0.162
	c0.178-0.035,0.514-0.044,0.625,0.539c0.563,4.014,0.668,7.508,0.379,9.896c-2.12,0.775-4.754,1.239-7.633,1.331
	c-7.615,0.24-14.656-2.066-17.061-4.5C291.682,245.441,297.67,229.83,303.795,220.43z M238.697,263.267
	c0.684-2.187,1.878-5.247,3.674-8.706c1.77-3.406,3.528-6.02,5.014-7.796c0.396-0.474,1.756-0.611,2.111-0.21
	c1.473,1.664,3.383,4.348,5.37,8.271c2.513,4.958,3.694,9,4.044,11.256c0.04,0.263,0.03,0.799-0.547,0.839
	c-0.891,0.062-2.201,0.274-4.115,0.274c-5.406,0-11.145-0.963-14.595-1.894C238.469,264.926,238.506,263.877,238.697,263.267z
	 M185.465,238.562c1.887-7.099,4.413-13.104,7.699-16.651c1.008-1.088,1.914-0.296,2.285,0.236c1.646,2.361,3.294,5.137,4.832,8.088
	c0.076,0.403-0.026,0.535-0.151,0.586c-3.531,1.433-6.042,5.064-6.042,9.327c0,5.515,4.199,9.985,9.381,9.985
	c1.225,0,2.394-0.257,3.465-0.715c0.17-0.072,0.587-0.128,0.626,0.396c0.356,1.895,0.535,3.637,0.479,5.13
	c-2.326,2.507-9.289,5.037-16.909,5.037c-2.881,0-5.529-0.38-7.673-1.088C182.801,254.607,183.302,246.702,185.465,238.562z
	 M322.861,287.301c-10.566,27.039-26.349,54.001-54.944,58.521c-1.968,0.152-3.124-1.445-3.451-2.215
	c-6.21-14.684-27.608-19.979-37.568-5.83c-0.674,0.958-2.549,1.625-3.865,1.078c-8.644-3.589-16.777-8.367-23.99-14.21
	c-6.526-5.286-12.619-11.356-18.169-17.651c-1.6-1.814-3.418-3.879-5.141-6.115c-1.566-2.029-0.876-3.492,0.96-2.199
	c9.519,6.693,21.706,10.079,34.041,11.556c0.897,0.042,1.206,0.829,1.207,1.163c0.011,5.422,3.913,9.555,9.74,10.002
	c6.015,0.461,9.86-3.833,10.154-9.119c0.01-1.043,0.828-1.152,1.233-1.165c2.77-0.082,5.463-0.224,8.035-0.408
	c12.293-0.884,24.792-3.099,36.853-6.333c1.422-0.364,1.646,0.655,1.818,1.163c1.223,3.632,3.287,7.08,6.938,8.604
	c3.46,1.442,7.348,0.479,10.266-1.702c4.966-3.708,6.803-9.896,4.375-14.726c-0.553-1.049,0.012-1.469,0.355-1.633
	c5.016-2.41,9.789-5.289,14.244-8.735c1.365-1.056,2.619-2.218,3.799-3.45C322.73,280.783,324.646,282.734,322.861,287.301z"/>
<path fill="#EF5E2A" d="M249.355,162.928c-66.334,0-116.766,42.117-120.109,93.83c-3.722,57.58,39.132,121.869,134.73,112.529
	c79.422-7.76,109.881-60.709,105.486-112.529C365.084,205.122,315.688,162.928,249.355,162.928z M302.795,213.439
	c0.371-0.446,1.773-0.888,2.115-0.711c19.051,9.856,23.559,36.148,20.447,45.666c-3.223,2.957-11.531,4.518-15.892,4.656
	c-9.144,0.29-22.345-2.698-25.329-7.52C282.398,244.885,294.918,222.903,302.795,213.439z M248.264,239.633
	c7.564,2.006,18.324,25.607,15.111,30.292c-1.092,1.592-4.73,2.216-9.127,2.216c-8.541,0-19.938-2.357-21.021-4.55
	C231.585,264.271,240.699,243.051,248.264,239.633z M194.089,214.484c0.718-0.346,1.753,0.211,2.138,0.644
	c8.172,9.21,22.726,29.256,21.326,39.952c-2.83,4.912-17.273,9.846-26.422,9.846c-4.362,0-14.716-1.357-17.993-5.299
	C169.728,250.211,176.575,222.924,194.089,214.484z M328.088,287.677c-7.027,18.606-16.688,38.493-32.635,51.145
	c-15.04,11.93-32.412,14.228-50.961,10.997c-20.176-3.512-38.675-12.021-53.709-26.066c-6.224-5.816-12.39-11.76-17.538-18.579
	c-3.292-4.362-6.971-9.463-8.408-14.979c-0.436-1.668-1.913-7.811-1.888-8.219c0.132-2.133,3.243-3.379,4.438-0.995
	c6.225,12.415,19.159,18.874,32.146,22.04c13.816,3.369,28.365,3.898,42.503,2.723c15.926-1.324,32.453-4.756,47.526-10.016
	c1.249-0.438,2.515-0.896,3.786-1.379c0.826-0.3,2.1-0.777,3.334-1.326c6.879-2.867,13.652-6.582,18.711-11.816
	c6.137-6.351,10.307-14.318,16.883-20.273c1.738-1.572,4.784,0.139,4.023,2.496C333.68,271.547,331.104,279.693,328.088,287.677z"/>
<path d="M379.59,173.944c-6.666-10.385-22.895-15.777-31.524-4.898c-3.105,3.915-4.397,9.313-2.7,14.091
	c2.162,6.078,8.84,8.156,14.707,8.133c5.066-0.021,8.213-8.536,2.17-8.511c-3.282,0.014-7.139-0.401-8.395-3.933
	c-0.723-2.035,0.082-4.779,1.699-6.186c6.246-5.436,16.328,5.328,18.15,10.809c2.783,8.37-2.908,17.105-8.59,22.719
	c-6.477,6.396-16.418,10.27-25.452,8.154c-0.479-0.111-2.023-0.912-2.327-1.318c-1.279-1.709-2.683-3.318-4.202-4.81
	c-7.698-7.574-18.356-12.256-30.075-12.255c-11.718-0.001-22.377,4.681-30.076,12.255c-6.075,5.966-10.334,13.778-11.865,22.497
	c-0.076,0.439-1.078,1.055-1.517,0.937c-3.126-0.841-6.38-1.184-9.593-1.186c-4.537,0.004-8.991,0.685-12.901,1.836
	c-0.366,0.108-0.726,0.222-1.081,0.339c-0.463,0.153-1.567-0.525-1.682-1.023c-1.806-7.879-5.854-14.929-11.441-20.416
	c-1.997-1.965-4.197-3.729-6.56-5.273c38.43-6.156,75.061-19.761,88.663-31.251c16.086-13.589,1.795-22.179-32.795-15.827
	c-2.512,0.461-3.289-1.955-3.289-1.955l-16.677-70.402c-15.718-7.652-77.447,3.102-92.777,17.186l15.077,72.816
	c0,0,0.882,3.424-2.103,4.494c-5.997,2.152-19.954,7.563-26.326,13.455c-8.28,7.657-3.486,13.277,16.506,14.664
	c0.738,0.053,0.819,1.415,0.13,2.094c-5.258,5.164-9.156,11.708-11.103,19.026c-0.165,0.617-1.518,1.272-2.068,1.006
	c-12.953-6.269-32.019-1.267-41.157,7.486c-12.494,11.968-15.353,28.856-11.757,43.856c3.73,15.561,15.947,29.414,32.992,28.318
	c17.268-1.11,29.117-18.652,22.514-35.066c-4.216-10.479-22.699-20.559-31.749-9.764c-3.253,3.879-2.704,10.271-0.251,14.564
	c2.58,4.514,6.832,7.619,11.805,8.15c2.946,0.314,5.165-7.541,1.459-8.894c-1.706-0.622-3.15-1.626-4.406-3.06
	c-1.022-1.17-2.424-3.89-0.626-6.067c1.1-1.331,4.106-0.411,5.987,0.329c3.978,1.564,7.3,4.555,9.084,8.451
	c3.014,6.58,1.549,15.311-4.168,19.957c-5.979,4.858-15.398,3.422-21.394-0.541c-13.087-8.654-16.391-26.914-12.157-40.984
	c2.361-7.848,8.167-12.687,15.503-17.258c7.045-4.391,18.414-5.027,25.781-0.173c1.054,0.694,1.842,1.563,2.611,2.548
	c0.218,0.28,0.81,1.906,0.878,2.502c1.103,9.716,5.574,18.451,12.221,24.977c7.697,7.574,18.357,12.256,30.075,12.255
	c11.718,0.001,22.377-4.681,30.075-12.255c6.893-6.769,11.454-15.91,12.336-26.062c0.035-0.398,0.519-1.444,0.764-1.567
	c1.523-0.777,3.709-1.54,6.16-2.068c2.453-0.533,5.18-0.847,7.846-0.846c2.518-0.002,4.979,0.281,7.104,0.856
	c1.099,0.296,2.088,0.673,2.97,1.109c0.221,0.108,0.764,1.401,0.842,1.929c1.342,9.189,5.713,17.434,12.059,23.664
	c7.699,7.574,18.357,12.256,30.076,12.255c11.717,0.001,22.377-4.681,30.075-12.255c7.704-7.564,12.501-18.093,12.499-29.682
	c0.001-4.43-0.701-8.702-1.998-12.716c-0.574-1.593,0.426-1.857,0.959-1.88c10.785-0.455,20.863-5.933,28.51-13.874
	C382.066,200.091,387.059,185.582,379.59,173.944z M225.836,240.865c-0.004,8.931-3.667,16.979-9.642,22.862
	c-5.981,5.874-14.219,9.511-23.375,9.513c-9.156-0.002-17.394-3.639-23.375-9.513c-5.975-5.884-9.639-13.935-9.641-22.866
	c0.002-8.934,3.666-16.984,9.641-22.867c4.636-4.554,10.63-7.752,17.354-8.967c1.607-0.084,3.245-0.178,4.944-0.291
	c0.93-0.062,1.864-0.138,2.797-0.211c8.465,0.426,16.05,3.965,21.654,9.469c5.974,5.883,9.638,13.932,9.642,22.863
	C225.836,240.859,225.836,240.863,225.836,240.865z M326.426,260.744c-5.98,5.873-14.219,9.51-23.375,9.512
	c-9.156-0.002-17.395-3.639-23.375-9.512c-5.975-5.885-9.639-13.936-9.641-22.867c0.002-8.933,3.666-16.983,9.641-22.867
	c5.98-5.874,14.219-9.511,23.375-9.512c9.156,0.001,17.395,3.638,23.375,9.512c5.975,5.884,9.639,13.935,9.641,22.867
	C336.064,246.809,332.4,254.859,326.426,260.744z"/>
</svg>
