<svg id="Layer_1" xmlns="http://www.w3.org/2000/svg" viewBox="0 0 313.2 70.2"><style></style><g id="LOGO"><linearGradient id="SVGID_1_" gradientUnits="userSpaceOnUse" x1="4.625" y1="36.826" x2="51.216" y2="48.443"><stop offset="0" stop-color="#af7634"/><stop offset=".274" stop-color="#c48c3d"/><stop offset=".57" stop-color="#f2e375"/><stop offset=".729" stop-color="#dcb961"/><stop offset=".877" stop-color="#e9de90"/><stop offset="1" stop-color="#c89a4d"/></linearGradient><path d="M54.7 34.6H36.4c-.5-1.2-1.2-2.4-1.9-3.4l-.9-1.2c-2.5-3.1-5.8-5-9.4-5.3h-.7c-8 0-14.6 8.5-14.8 19v.6c0 6.8 2.6 12.8 6.6 16.3 2.9 3.1 6.6 5.1 10.6 5.7-.8.1-1.6.2-2.4.2C12.7 66.5 3.9 56 3.9 43.1s8.8-23.4 19.6-23.4c.8 0 1.6.1 2.4.2 1.4.2 2.7.6 4 1.1 4 1.7 7.5 4.8 9.8 9h8c-3.1-5.4-8.1-9.2-13.8-10.1.8-.1 1.6-.2 2.4-.2 6.8 0 12.7 4.1 16.2 10.2.1.1.1.2.2.3 0 .1.1.2.1.3 0 .1.1.1.1.2s.1.1.1.2l.3.6c0 .1.1.1.1.2.1.3.3.6.4.9 0 .1.1.1.1.2.1.2.1.3.2.5 0 .1.1.1.1.2s.1.1.1.2.1.2.1.3l.3.6c-.1 0 0 0 0 0z" fill="url(#SVGID_1_)"/><linearGradient id="SVGID_2_" gradientUnits="userSpaceOnUse" x1="15.813" y1="43.499" x2="54.368" y2="53.112"><stop offset="0" stop-color="#af7634"/><stop offset=".274" stop-color="#c48c3d"/><stop offset=".57" stop-color="#f2e375"/><stop offset=".729" stop-color="#dcb961"/><stop offset=".877" stop-color="#e9de90"/><stop offset="1" stop-color="#c89a4d"/></linearGradient><path d="M56 43.1v1.2c-.1 1.5-.2 2.9-.5 4.3s-.7 2.7-1.2 4c-3.1 8.1-9.9 13.8-17.9 13.8-.8 0-1.6-.1-2.4-.2-9.7-1.4-17.2-11.3-17.2-23.2v-.7c.1-2.8.6-5.5 1.4-8 1.1-2.8 2.9-4.9 5-5.9.9-.4 1.9-.7 2.9-.7.6 0 1.3.1 1.9.3-3.7 3.3-6.1 8.8-6.1 14.9 0 4.9 1.6 9.4 4.1 12.7.7 1 1.6 1.8 2.4 2.6 2.3 1.9 5.1 3.1 8.1 3.1 5.3 0 9.9-3.5 12.5-8.8.6-1.2 1.1-2.6 1.5-4 .4-1.4.6-2.8.7-4.3H34.6v4.3h7.8c-.3 1.4-.8 2.8-1.4 4-1.7 3.5-4.5 5.7-7.6 5.7-.6 0-1.2-.1-1.8-.3 1.7-.8 3.3-2.8 4.4-5.5h-6.1l-.1-12.9h26c.1 1.4.2 2.5.2 3.6z" fill="url(#SVGID_2_)"/><linearGradient id="SVGID_3_" gradientUnits="userSpaceOnUse" x1="20.996" y1="6.446" x2="25.338" y2="8.853"><stop offset="0" stop-color="#afb0af"/><stop offset=".696" stop-color="#c7c6c6"/><stop offset="1" stop-color="#e8e7e7"/></linearGradient><path fill="url(#SVGID_3_)" d="M22.5 3.8l2.7 5.3h-5.7z"/><linearGradient id="SVGID_4_" gradientUnits="userSpaceOnUse" x1="36.366" y1="6.446" x2="40.708" y2="8.853"><stop offset="0" stop-color="#afb0af"/><stop offset=".696" stop-color="#c7c6c6"/><stop offset="1" stop-color="#e8e7e7"/></linearGradient><path fill="url(#SVGID_4_)" d="M34.9 9.1l3-5.3 2.6 5.3z"/><linearGradient id="SVGID_5_" gradientUnits="userSpaceOnUse" x1="28.724" y1="6.446" x2="33.067" y2="8.853"><stop offset="0" stop-color="#afb0af"/><stop offset=".696" stop-color="#c7c6c6"/><stop offset="1" stop-color="#e8e7e7"/></linearGradient><path fill="url(#SVGID_5_)" d="M27.3 9.1l2.9-5.3 2.7 5.3z"/><linearGradient id="SVGID_6_" gradientUnits="userSpaceOnUse" x1="23.365" y1="3.792" x2="27.707" y2="6.199"><stop offset="0" stop-color="#afb0af"/><stop offset=".696" stop-color="#c7c6c6"/><stop offset="1" stop-color="#e8e7e7"/></linearGradient><path fill="url(#SVGID_6_)" d="M29.2 3.5l-3 5.4-2.7-5.4z"/><linearGradient id="SVGID_7_" gradientUnits="userSpaceOnUse" x1="31.093" y1="3.792" x2="35.435" y2="6.199"><stop offset="0" stop-color="#afb0af"/><stop offset=".696" stop-color="#c7c6c6"/><stop offset="1" stop-color="#e8e7e7"/></linearGradient><path fill="url(#SVGID_7_)" d="M36.9 3.5l-3 5.4-2.6-5.4z"/><linearGradient id="SVGID_8_" gradientUnits="userSpaceOnUse" x1="19.284" y1="10.32" x2="28.544" y2="15.453"><stop offset="0" stop-color="#afb0af"/><stop offset=".696" stop-color="#c7c6c6"/><stop offset="1" stop-color="#e8e7e7"/></linearGradient><path d="M27.8 16.8c-1 .1-1.9.2-2.6.3l-5.8-7h6.2l2.2 6.7z" fill="url(#SVGID_8_)"/><linearGradient id="SVGID_9_" gradientUnits="userSpaceOnUse" x1="33.419" y1="11.921" x2="38.136" y2="14.536"><stop offset="0" stop-color="#afb0af"/><stop offset=".696" stop-color="#c7c6c6"/><stop offset="1" stop-color="#e8e7e7"/></linearGradient><path d="M40.5 10.2l-5.9 7.1c-.7-.2-1.6-.3-2.5-.4l2.3-6.7h6.1z" fill="url(#SVGID_9_)"/><linearGradient id="SVGID_10_" gradientUnits="userSpaceOnUse" x1="26.356" y1="10.878" x2="32.438" y2="14.25"><stop offset="0" stop-color="#afb0af"/><stop offset=".696" stop-color="#c7c6c6"/><stop offset="1" stop-color="#e8e7e7"/></linearGradient><path d="M33.3 10.2L31 16.8h-2.1l-2.2-6.6h6.6z" fill="url(#SVGID_10_)"/></g></svg>