<?xml version="1.0" encoding="UTF-8" standalone="no"?>
<!-- Created with Inkscape (http://www.inkscape.org/) -->

<svg
   xmlns:dc="http://purl.org/dc/elements/1.1/"
   xmlns:cc="http://creativecommons.org/ns#"
   xmlns:rdf="http://www.w3.org/1999/02/22-rdf-syntax-ns#"
   xmlns:svg="http://www.w3.org/2000/svg"
   xmlns="http://www.w3.org/2000/svg"
   xmlns:sodipodi="http://sodipodi.sourceforge.net/DTD/sodipodi-0.dtd"
   xmlns:inkscape="http://www.inkscape.org/namespaces/inkscape"
   width="210mm"
   height="297mm"
   viewBox="0 0 210 297"
   version="1.1"
   id="svg8"
   inkscape:version="0.92.3 (2405546, 2018-03-11)"
   sodipodi:docname="img_ex2.svg">
  <defs
     id="defs2" />
  <sodipodi:namedview
     id="base"
     pagecolor="#ffffff"
     bordercolor="#666666"
     borderopacity="1.0"
     inkscape:pageopacity="0.0"
     inkscape:pageshadow="2"
     inkscape:zoom="0.49497475"
     inkscape:cx="75.497892"
     inkscape:cy="786.45032"
     inkscape:document-units="mm"
     inkscape:current-layer="layer1"
     showgrid="false"
     inkscape:window-width="1280"
     inkscape:window-height="697"
     inkscape:window-x="-8"
     inkscape:window-y="-8"
     inkscape:window-maximized="1" />
  <metadata
     id="metadata5">
    <rdf:RDF>
      <cc:Work
         rdf:about="">
        <dc:format>image/svg+xml</dc:format>
        <dc:type
           rdf:resource="http://purl.org/dc/dcmitype/StillImage" />
        <dc:title></dc:title>
      </cc:Work>
    </rdf:RDF>
  </metadata>
  <g
     inkscape:label="Camada 1"
     inkscape:groupmode="layer"
     id="layer1">
    <path
       style="fill:#000080;fill-opacity:1;stroke:#800000;stroke-width:1.58749998;stroke-miterlimit:4;stroke-dasharray:none"
       id="path4554"
       d="m 51.590376,25.649213 c -1.915451,-0.07171 -3.832873,-0.08679 -5.749348,-0.118585 -5.285269,-0.194479 -10.568588,-0.04616 -15.85192,0.120033 -4.51724,0.07303 -9.014031,0.535985 -13.521775,0.793025 -2.138401,0.294327 -4.425707,-0.174138 -6.4931034,0.528497 -2.5400794,1.860859 0.7864364,-0.602117 5.9691484,-3.33635 0.126314,-0.06664 -0.172167,0.240677 -0.19455,0.381728 -0.03601,0.226902 -0.0069,0.461223 0.02467,0.688782 0.03435,0.247413 0.409879,1.766606 0.446269,1.916799 0.592065,2.900254 0.978359,5.841336 1.389574,8.772133 0.656598,3.520369 0.901597,7.086698 1.069109,10.657308 0.162077,3.222493 0.09952,6.453066 0.277292,9.674207 0.137206,1.755997 0.392784,3.500146 0.489277,5.25925 0.07388,1.29137 0.07533,2.584449 0.0764,3.877304 -0.0064,1.524143 -0.0086,3.047953 -0.03813,4.571897 0.0068,1.723617 0.0034,3.44728 0.01042,5.1709 -0.0094,1.66198 -0.0022,3.323958 0.0067,4.985917 0.0059,1.733518 -0.25945,3.45295 -0.395741,5.179203 -0.111877,1.616323 -0.12423,3.236349 -0.122772,4.855728 -0.03683,1.934284 -0.06558,1.9118 1.83396,2.439697 4.990885,0.906965 10.078369,1.050612 15.136086,1.205629 5.350309,0.157274 10.702702,0.100804 16.053662,0.02566 3.054689,-0.06224 6.10992,-0.03077 9.164889,-0.02323 2.339276,-0.05413 4.694166,0.121161 7.02234,-0.152894 0,0 -6.222005,4.586343 -6.222005,4.586343 v 0 c -2.290762,0.04127 -4.583437,-0.06817 -6.874893,-0.01929 -3.040732,0.01217 -6.081845,0.05514 -9.12232,-0.01008 C 40.739217,97.582756 35.505182,97.466726 30.270692,97.374558 25.001174,97.226174 19.695908,97.169784 14.472664,96.402783 12.334491,95.740499 11.90539,95.3802 12.023271,93.164767 c 0.03068,-1.644838 0.07188,-3.290324 0.169656,-4.932669 0.105322,-1.705599 0.349188,-3.403042 0.378964,-5.10975 0.0088,-1.664269 0.01607,-3.328553 0.0068,-4.992841 0.0072,-1.727673 0.0042,-3.455376 0.01263,-5.183044 -0.02831,-1.511155 -0.02604,-3.022119 -0.03328,-4.533424 -0.0037,-1.283472 -0.0083,-2.567363 -0.04562,-3.850351 C 12.429801,62.777859 12.307717,60.99571 12.19719,59.212448 12.056102,55.96383 12.24652,52.707256 12.070328,49.457763 11.912575,45.917897 11.620945,42.385789 10.97071,38.897647 10.549764,36.016051 10.122817,33.126105 9.4662394,30.287886 9.2007033,29.368541 8.8409038,28.43635 8.7187703,27.48227 8.6858858,27.225387 8.4706824,26.859457 8.6795358,26.706316 c 5.2067172,-3.817773 4.4910632,-3.550174 7.5021232,-4.471034 2.096567,-0.30043 4.233797,-0.06331 6.341773,-0.238444 4.395953,-0.192543 8.789726,-0.455185 13.189909,-0.531335 5.407554,-0.154249 10.814126,-0.316495 16.224025,-0.3641 2.0253,-0.03214 4.051376,-0.04876 6.075783,-0.118585 0,0 -6.422774,4.666418 -6.422774,4.666418 z"
       inkscape:connector-curvature="0" />
    <path
       style="fill:#000080;fill-opacity:1;stroke:#800000;stroke-width:1.58749998;stroke-miterlimit:4;stroke-dasharray:none"
       id="path4556"
       d="m 21.106936,55.727832 c 1.943663,0.454962 3.966559,0.447889 5.947982,0.636429 4.9134,0.446802 9.831713,0.781672 14.761583,0.977408 3.094183,0.0631 6.185601,0.210727 9.277927,0.329292 0,0 -5.788819,4.164248 -5.788819,4.164248 v 0 c -3.059255,-0.172212 -6.119371,-0.333335 -9.183563,-0.388498 -5.07478,-0.175728 -10.15077,-0.356402 -15.218284,-0.685681 -2.072797,-0.124952 -4.149552,-0.229217 -6.2196,-0.366779 0,0 6.422774,-4.666419 6.422774,-4.666419 z"
       inkscape:connector-curvature="0" />
    <path
       style="fill:#000080;fill-opacity:1;stroke:#800000;stroke-width:1.58749998;stroke-miterlimit:4;stroke-dasharray:none"
       id="path4558"
       d="m 76.271635,23.57318 c 2.11264,2.743727 4.203319,5.505549 6.271387,8.284304 6.231866,8.183078 12.504862,16.335536 18.843048,24.436535 5.60758,7.350937 11.42481,14.538637 17.28673,21.687269 2.26294,2.637292 4.36967,5.405707 6.6519,8.025744 1.40712,1.694439 2.71083,3.467647 3.98376,5.264702 0.68313,1.004467 1.46448,1.933999 2.22268,2.88067 0.47951,0.598696 0.89136,1.205876 1.50639,1.669407 0,0 -6.72224,4.112575 -6.72224,4.112575 v 0 c -1.20057,-1.588535 -2.3716,-3.199045 -3.58791,-4.776108 -1.28357,-1.767792 -2.63946,-3.479061 -3.97831,-5.204481 -2.14837,-2.709688 -4.06903,-5.590844 -6.11997,-8.373761 C 107.20706,74.136937 101.70293,66.752826 96.087768,59.454099 89.700856,51.345149 83.20162,43.326986 76.53674,35.444141 c -2.250472,-2.662605 -4.528204,-5.294349 -7.030112,-7.725359 0,0 6.765007,-4.145602 6.765007,-4.145602 z"
       inkscape:connector-curvature="0" />
    <path
       style="fill:#000080;fill-opacity:1;stroke:#800000;stroke-width:1.58749998;stroke-miterlimit:4;stroke-dasharray:none"
       id="path4560"
       d="m 118.45393,33.59794 c -0.33995,2.666656 -1.46512,5.150842 -2.58347,7.566826 -2.25639,4.626994 -5.23202,8.850193 -8.23882,13.010581 -4.68973,6.242738 -9.471698,12.415284 -14.230388,18.605415 -3.915148,5.208577 -7.485354,10.683454 -10.6899,16.356452 -1.488561,2.681086 -2.841603,5.446929 -3.591991,8.429786 -0.04957,0.279736 -0.09913,0.559475 -0.148701,0.839211 0,0 -6.960933,3.394379 -6.960933,3.394379 v 0 c 0.05333,-0.30106 0.106653,-0.60213 0.159977,-0.9032 0.773819,-3.150307 2.358359,-6.019377 3.946621,-8.824346 3.381771,-5.722134 7.04751,-11.286937 11.032132,-16.607761 4.737936,-6.121175 9.483945,-12.236315 14.040453,-18.494891 2.86347,-4.077576 5.72186,-8.206308 7.89082,-12.705469 1.02075,-2.250971 2.13369,-4.570272 2.31813,-7.071738 0,0 7.05607,-3.595245 7.05607,-3.595245 z"
       inkscape:connector-curvature="0" />
    <path
       style="fill:#000080;fill-opacity:1;stroke:#800000;stroke-width:1.58749998;stroke-miterlimit:4;stroke-dasharray:none"
       id="path4564"
       d="m 162.39307,32.760089 c 3.25848,0.02879 6.49855,0.302929 9.74335,0.578403 3.3963,0.319307 6.77449,0.934048 10.02548,1.973778 1.81116,0.533718 3.56532,1.26143 5.28923,2.02824 1.35082,0.598596 2.138,1.637022 2.67439,2.971549 0.47674,1.789017 0.39327,3.673771 0.40518,5.510657 0.0259,2.14957 -0.84553,4.132133 -1.74729,6.037448 -0.59311,1.117102 -1.31702,2.151872 -2.12493,3.122099 -1.04265,1.337103 -2.23937,2.550427 -3.40137,3.783859 -1.65259,1.796926 -3.27597,3.620272 -4.89956,5.443461 -1.69644,1.992862 -3.52753,3.863258 -5.40633,5.683501 -1.73776,1.664978 -3.57073,3.22643 -5.3194,4.879036 -1.47984,1.507791 -3.06044,2.907323 -4.62454,4.325598 -1.23369,1.064102 -2.35727,2.237507 -3.37497,3.507925 -0.46779,0.833179 -1.37531,1.446081 -1.66761,2.375565 0.36036,0.707601 2.69709,1.187928 3.38229,1.37877 4.80169,1.204804 9.77098,1.601422 14.68946,2.04189 5.21081,0.431551 10.43964,0.574201 15.66653,0.577961 1.15075,-0.0024 2.30135,-0.02 3.45191,-0.03838 0,0 -6.26497,4.546372 -6.26497,4.546372 v 0 c -1.08674,-0.03091 -2.17335,-0.06615 -3.25937,-0.117136 -5.10529,-0.234646 -10.2094,-0.503608 -15.30543,-0.895003 -5.10141,-0.436359 -10.25209,-0.72924 -15.27099,-1.786277 -1.44708,-0.359097 -3.46845,-0.622413 -4.15925,-2.137425 -0.0955,-1.224048 0.92641,-1.938214 1.56958,-2.861305 0.97908,-1.364925 2.15134,-2.579442 3.41617,-3.682434 1.56512,-1.414282 3.17056,-2.786107 4.63327,-4.308631 1.76018,-1.684684 3.63704,-3.237852 5.40561,-4.915027 1.90233,-1.771597 3.71161,-3.641868 5.40483,-5.612746 1.61185,-1.820826 3.23177,-3.631803 4.85882,-5.438889 1.0802,-1.215998 2.19703,-2.395646 3.26699,-3.621101 0.65582,-1.08227 1.7007,-1.918022 2.27732,-3.073664 1.00129,-1.752251 1.86578,-3.678198 1.95704,-5.719509 -0.0196,-1.734626 0.0132,-3.502771 -0.39614,-5.199258 -0.43174,-1.173363 -1.15758,-1.975329 -2.33186,-2.46466 -1.67366,-0.749284 -3.33326,-1.54409 -5.10041,-2.055302 -3.14319,-1.024389 -6.39089,-1.715174 -9.68831,-1.997678 -3.37907,-0.259908 -6.76168,-0.432411 -10.1495,-0.210137 0,0 6.37478,-4.631547 6.37478,-4.631547 z"
       inkscape:connector-curvature="0" />
  </g>
</svg>
