<?xml version="1.0" encoding="UTF-8" standalone="no"?>
<!-- Created with Inkscape (http://www.inkscape.org/) -->

<svg
   xmlns:dc="http://purl.org/dc/elements/1.1/"
   xmlns:cc="http://creativecommons.org/ns#"
   xmlns:rdf="http://www.w3.org/1999/02/22-rdf-syntax-ns#"
   xmlns:svg="http://www.w3.org/2000/svg"
   xmlns="http://www.w3.org/2000/svg"
   xmlns:sodipodi="http://sodipodi.sourceforge.net/DTD/sodipodi-0.dtd"
   xmlns:inkscape="http://www.inkscape.org/namespaces/inkscape"
   width="210mm"
   height="297mm"
   viewBox="0 0 210 297"
   version="1.1"
   id="svg8"
   inkscape:version="0.92.3 (2405546, 2018-03-11)"
   sodipodi:docname="img_ex1.svg">
  <defs
     id="defs2" />
  <sodipodi:namedview
     id="base"
     pagecolor="#ffffff"
     bordercolor="#666666"
     borderopacity="1.0"
     inkscape:pageopacity="0.0"
     inkscape:pageshadow="2"
     inkscape:zoom="0.49497475"
     inkscape:cx="75.497892"
     inkscape:cy="786.45032"
     inkscape:document-units="mm"
     inkscape:current-layer="layer1"
     showgrid="false"
     inkscape:window-width="1280"
     inkscape:window-height="697"
     inkscape:window-x="-8"
     inkscape:window-y="-8"
     inkscape:window-maximized="1" />
  <metadata
     id="metadata5">
    <rdf:RDF>
      <cc:Work
         rdf:about="">
        <dc:format>image/svg+xml</dc:format>
        <dc:type
           rdf:resource="http://purl.org/dc/dcmitype/StillImage" />
        <dc:title></dc:title>
      </cc:Work>
    </rdf:RDF>
  </metadata>
  <g
     inkscape:label="Camada 1"
     inkscape:groupmode="layer"
     id="layer1">
    <path
       style="fill:#ff0000;fill-opacity:1;stroke:#800000;stroke-width:1.58749998;stroke-miterlimit:4;stroke-dasharray:none"
       id="path4542"
       d="m 51.534435,27.247019 c -1.891996,-0.07297 -3.786193,-0.07333 -5.679345,-0.0883 -3.216243,-0.0056 -6.432253,-0.04383 -9.648475,-0.05919 -4.04903,-0.02635 -8.0981,-0.01942 -12.147079,0.01093 -1.356874,0.09443 -2.743363,-0.09534 -4.091326,0.150826 -0.254246,0.04643 -0.508584,0.114533 -0.741541,0.22646 -0.168577,0.08099 -0.607913,0.433049 -0.443935,0.343109 2.152843,-1.180812 4.277382,-2.412512 6.416073,-3.618769 -0.03958,0.181353 -0.114949,0.358475 -0.118742,0.544057 -0.0089,0.437819 0.219207,1.640087 0.282079,1.995841 0.218619,1.237036 0.431156,2.469537 0.609294,3.713242 0.31059,2.429174 0.628921,4.85467 0.787142,7.299476 0.107664,2.613059 0.379383,5.215715 0.54384,7.825692 0.114445,1.716971 0.196276,3.435731 0.235281,5.156034 -0.07085,1.214516 0.153733,2.384176 0.424614,3.559071 0.44582,1.62093 0.508031,3.292523 0.539424,4.961967 -0.0011,2.636554 0.0071,5.272736 0.03053,7.909182 0.0223,1.86686 0.05433,3.733609 0.04763,5.600641 0.01225,1.691675 -0.01249,3.383079 -7.93e-4,5.074727 0.02302,1.375061 0.02506,2.750058 0.02498,4.125214 0.05918,1.224904 -0.01206,2.429936 -0.200691,3.639315 -0.01524,0.244461 -0.07887,0.533601 0.05964,0.766183 0.385773,0.647771 2.283168,1.096409 2.883146,1.294876 5.115626,1.463487 10.340662,2.48399 15.586805,3.344553 4.922906,0.748101 9.896054,1.054457 14.870056,1.149683 1.372767,-0.10128 2.808902,0.189238 4.167905,-0.114102 0.218768,-0.04883 0.426365,-0.138514 0.639551,-0.207772 -2.122607,1.179105 -4.245211,2.358213 -6.367815,3.537318 0.486971,-0.204928 0.205367,-0.437732 -0.03375,-0.813861 0,0 6.716247,-3.955216 6.716247,-3.955216 v 0 c 0.458531,0.618654 0.922999,1.124955 0.660151,1.934845 -2.394812,1.343078 -4.753073,2.753513 -7.184432,4.029233 -0.759656,0.398587 -3.799906,-0.08301 -4.69165,-0.02114 -4.857489,-0.311417 -9.710278,-0.754549 -14.52157,-1.505643 -5.40073,-0.883478 -10.786758,-1.879148 -16.122495,-3.099274 -1.515974,-0.449392 -3.807899,-0.873053 -3.706264,-2.890948 0.196011,-1.17874 0.373975,-2.338509 0.283404,-3.540837 -1.1e-4,-1.383649 0.002,-2.767142 0.02495,-4.150699 0.01184,-1.691976 -0.01267,-3.383719 0.0015,-5.075716 -0.0042,-1.885032 0.03365,-3.769667 0.05876,-5.654484 0.02454,-2.62073 0.04735,-5.242317 -0.06582,-7.861671 -0.07945,-1.600223 -0.165399,-3.209626 -0.562607,-4.769405 -0.316495,-1.222034 -0.646322,-2.43336 -0.525005,-3.710974 0.01152,-1.736135 0.01736,-3.472924 -0.05262,-5.208096 -0.128365,-2.610786 -0.390164,-5.209717 -0.541614,-7.818382 -0.163333,-2.428266 -0.463779,-4.83667 -0.760901,-7.251094 -0.16518,-1.228748 -0.352623,-2.444371 -0.616047,-3.656647 -0.151479,-0.697103 -0.363708,-1.381466 -0.484772,-2.084491 -0.04774,-0.27722 -0.05749,-0.559657 -0.08623,-0.839486 2.293574,-1.506166 4.558884,-3.056277 6.88072,-4.518497 0.946444,-0.596041 4.086182,-0.03533 5.177655,-0.196025 4.038946,0.03093 8.07798,0.03685 12.116977,0.01094 3.270528,-0.01541 6.540855,-0.05333 9.811403,-0.05919 1.974197,-0.01528 3.949243,-0.01756 5.922407,-0.0883 0,0 -6.406774,4.654796 -6.406774,4.654796 z"
       inkscape:connector-curvature="0" />
    <path
       style="fill:#ff0000;fill-opacity:1;stroke:#800000;stroke-width:1.58749998;stroke-miterlimit:4;stroke-dasharray:none"
       id="path4544"
       d="m 30.840521,55.739455 c 3.491177,0.15698 6.986675,0.178425 10.480627,0.217271 6.331151,0.08441 12.662683,0.05945 18.993908,0.0036 0.81793,-0.01244 1.635861,-0.0249 2.453791,-0.03734 0,0 -5.885661,4.276186 -5.885661,4.276186 v 0 c -0.783665,-0.01246 -1.567329,-0.0249 -2.350993,-0.03734 -6.334503,-0.0573 -12.669287,-0.07924 -19.003732,0.0036 -3.693329,0.03984 -7.38782,0.06615 -11.078717,0.217271 0,0 6.390777,-4.643173 6.390777,-4.643173 z"
       inkscape:connector-curvature="0" />
    <path
       style="fill:#ff0000;fill-opacity:1;stroke:#800000;stroke-width:1.58749998;stroke-miterlimit:4;stroke-dasharray:none"
       id="path4546"
       d="m 79.501499,19.947372 c 1.421876,2.585984 2.997626,5.092769 4.562567,7.595255 4.925373,7.987803 10.506186,15.536661 16.055084,23.095238 6.48365,8.747411 13.10414,17.392224 19.63854,26.101482 3.43864,4.493001 6.90096,8.972137 9.9567,13.738264 0.41973,0.453946 0.7827,1.598965 1.48749,1.798863 0,0 -6.75817,4.164708 -6.75817,4.164708 v 0 c -0.38832,-0.745712 -0.83723,-1.45791 -1.18521,-2.2254 -2.70642,-4.933071 -6.01819,-9.481841 -9.23326,-14.089686 C 107.85032,71.177969 101.40316,62.4202 94.750151,53.82161 89.076494,46.309891 83.318979,38.8601 77.869337,31.182717 76.101751,28.814014 74.403724,26.397503 72.69123,23.988922 c 0,0 6.810269,-4.04155 6.810269,-4.04155 z"
       inkscape:connector-curvature="0" />
    <path
       style="fill:#ff0000;fill-opacity:1;stroke:#800000;stroke-width:1.58749998;stroke-miterlimit:4;stroke-dasharray:none"
       id="path4548"
       d="m 108.83223,28.252549 c -0.49321,3.486621 -2.07608,6.717319 -3.55935,9.870213 -3.82164,7.730413 -8.431066,15.022742 -13.304357,22.123225 -4.409147,6.121781 -8.93939,12.156527 -13.466765,18.191411 -0.376418,0.517228 -0.752833,1.034454 -1.12925,1.551683 0,0 -6.798508,2.925762 -6.798508,2.925762 v 0 c 0.426471,-0.542377 0.852942,-1.084751 1.279414,-1.627129 4.866999,-6.023409 9.604893,-12.156426 14.136758,-18.436127 4.771186,-6.92981 9.263708,-14.07283 12.755462,-21.747815 1.305706,-2.953523 2.771036,-5.990019 3.030526,-9.255977 0,0 7.05607,-3.595246 7.05607,-3.595246 z"
       inkscape:connector-curvature="0" />
    <path
       style="fill:#ff0000;fill-opacity:1;stroke:#800000;stroke-width:1.58749998;stroke-miterlimit:4;stroke-dasharray:none"
       id="path4550"
       d="m 147.45662,42.13484 c 2.37175,-1.60591 4.52406,-3.506166 6.65324,-5.414394 2.4588,-2.097143 4.59407,-4.518424 6.75058,-6.913091 2.21902,-2.112251 6.73843,-7.32828 8.6208,-3.957734 0.83318,1.491881 0.87203,4.107422 1.05337,5.728331 0.71776,7.602384 1.14696,15.229562 1.70834,22.844979 0.44427,5.677807 0.822,11.359639 0.98137,17.052978 0.0657,3.591001 -0.19727,7.159797 -0.67706,10.714315 -0.10207,1.090641 -0.31008,2.154449 -0.60541,3.206237 0,0 -7.0248,3.282002 -7.0248,3.282002 v 0 c 0.44296,-1.016447 0.74179,-2.053809 0.85859,-3.16535 0.59553,-3.538683 0.86569,-7.104425 0.91434,-10.693723 -0.036,-5.763487 -0.11312,-11.528777 -0.45422,-17.283829 -0.47486,-7.539691 -0.97015,-15.096977 -2.12081,-22.568969 -0.21316,-1.178973 -0.46497,-2.86711 -0.85069,-4.060708 -0.10443,-0.323139 -0.23558,-0.643877 -0.42424,-0.926241 -0.0476,-0.07129 -0.31792,-0.03022 -0.24564,-0.07635 1.99577,-1.273841 4.0372,-2.47596 6.09074,-3.654409 0.29486,-0.169212 -0.5385,0.415131 -0.80775,0.622697 -2.26634,2.356236 -4.3423,4.903679 -6.84692,7.024317 -2.03497,1.843794 -4.07509,3.676669 -6.23976,5.369325 0,0 -7.33407,2.869615 -7.33407,2.869615 z"
       inkscape:connector-curvature="0" />
    <path
       style="fill:#ff0000;fill-opacity:1;stroke:#800000;stroke-width:1.58749998;stroke-miterlimit:4;stroke-dasharray:none"
       id="path4552"
       d="m 156.9358,86.202371 c 2.70544,0.114675 5.41461,0.134408 8.12214,0.158234 5.43231,0.137718 10.84525,-0.449159 16.24695,-0.941472 5.53489,-0.519631 11.08275,-0.877692 16.62142,-1.347886 0,0 -5.66152,4.181285 -5.66152,4.181285 v 0 c -5.54303,0.396433 -11.08498,0.795689 -16.61451,1.357153 -5.50612,0.542079 -11.02269,1.142196 -16.56353,1.089245 -2.85276,0.0245 -5.70679,0.04775 -8.55773,0.158234 0,0 6.40678,-4.654793 6.40678,-4.654793 z"
       inkscape:connector-curvature="0" />
  </g>
</svg>
