<svg id="Capa_1" xmlns="http://www.w3.org/2000/svg" viewBox="0 0 48 48"><style>.st0{fill:#f2e9e4}</style><path class="st0" d="M40.4 5.5h-4.8c-1.4 0-2.6 1.2-2.6 2.6v4.8c0 1.4 1.2 2.6 2.6 2.6h4.8c1.4 0 2.6-1.2 2.6-2.6V8.1c0-1.4-1.2-2.6-2.6-2.6zm.6 7.4c0 .3-.3.6-.6.6h-4.8c-.3 0-.6-.3-.6-.6V8.1c0-.3.3-.6.6-.6h4.8c.3 0 .6.3.6.6v4.8z"/><path class="st0" d="M37.8.5H10.2C4.6.5 0 5.1 0 10.7v26.6c0 5.6 4.6 10.2 10.2 10.2h27.6c5.6 0 10.2-4.6 10.2-10.2V10.7C48 5.1 43.4.5 37.8.5zM46 37.3c0 4.5-3.7 8.2-8.2 8.2H10.2c-4.5 0-8.2-3.7-8.2-8.2V19.5h12.2c-2.6 2.5-4.2 6.1-4.2 10 0 7.7 6.3 14 14 14s14-6.3 14-14c0-3.9-1.6-7.5-4.2-10H46v17.8zm-10-7.8c0 6.6-5.4 12-12 12s-12-5.4-12-12 5.4-12 12-12 12 5.4 12 12zm-4.8-12c-2.1-1.3-4.5-2-7.2-2s-5.1.7-7.2 2H2v-6.8c0-4.5 3.7-8.2 8.2-8.2h27.6c4.5 0 8.2 3.7 8.2 8.2v6.8H31.2z"/><path class="st0" d="M15 29.5c0 5 4 9 9 9s9-4 9-9-4-9-9-9-9 4-9 9zm16 0c0 3.9-3.1 7-7 7s-7-3.1-7-7 3.1-7 7-7 7 3.1 7 7z"/></svg>