<svg id="vector" xmlns="http://www.w3.org/2000/svg" viewBox="0 0 551 551">
  <defs>
    <style>
      .cls-1 {
        fill: #dcdcdc;
      }

      .cls-2 {
        fill: #a2a2a2;
      }
    </style>
  </defs>
  <path id="path" class="cls-1" d="M275.5,0C427.654,0,551,123.346,551,275.5S427.654,551,275.5,551,0,427.654,0,275.5,123.346,0,275.5,0Z"/>
  <g id="group">
    <path id="path_1" class="cls-2" d="M328.312,344.627H209.326a66.3,66.3,0,0,1-12.447-131.434L162,178.315,173.314,167l205.06,205.061L367.06,383.376Zm-52.66-22.109,15.276-15.276-40-40H220.38Zm95.8,18.961L314.07,284.1l16.853-16.853H297.76V223.03H253.544v.544L219.6,189.631a82.8,82.8,0,0,1,137.3,44.9,55.27,55.27,0,0,1,36.48,17.217,54.6,54.6,0,0,1,14.92,37.608,55.356,55.356,0,0,1-36.853,52.124Z"/>
  </g>
</svg>
