<?xml version="1.0"?><svg width="468.00000000000006" height="468.00000000000006" xmlns="http://www.w3.org/2000/svg">
 <!-- Created with SVG-edit - http://svg-edit.googlecode.com/ -->
 <defs>
  <pattern height="100" width="100" y="0" x="0" patternUnits="userSpaceOnUse" id="gridpattern">
   <image height="100" width="100" y="0" x="0"/>
  </pattern>
 </defs>
 <g>
  <title>Layer 1</title>
  <path fill="#ffaaaa" stroke="#ffaaaa" stroke-width="2.928799" d="m45,390c109,97 179,21 179,21c0,0 -45,-41 -45,-41c0,0 55,-31 55,-31c0,0 -24,-28 -64,-21c-40,7 -125,72 -125,72z" id="svg_4"/>
  <path fill="#ffaaaa" stroke="#ffaaaa" stroke-width="2.928799" d="m52,185c101,157 235,101 202,35c-33,-66 -202,-35 -202,-35z" id="svg_6"/>
  <path fill="#ffaaaa" stroke="#ffaaaa" stroke-width="2.928799" d="m212,64c73,141 199,80 219,41c20,-39 -31,-53 -61,-53c-30,0 -158,12 -158,12z" id="svg_7"/>
  <path fill="#ffaaaa" stroke="#ffaaaa" stroke-width="2.928799" d="m327,238c-56,118 32,142 35,150c3,8 17,-34 19,-51c2,-17 8,74 8,74c0,0 78,-39 37,-96c-41,-57 -99,-77 -99,-77z" id="svg_8"/>
 </g>
</svg>