<?xml version="1.0" encoding="utf-8"?>
<!-- Generator: Adobe Illustrator 19.0.0, SVG Export Plug-In . SVG Version: 6.00 Build 0)  -->
<svg version="1.1" id="Layer_1" xmlns="http://www.w3.org/2000/svg" xmlns:xlink="http://www.w3.org/1999/xlink" x="0px" y="0px"
	 viewBox="0 0 124.1985 48.1023" enable-background="new 0 0 124.1985 48.1023" xml:space="preserve">
<g id="change1">
<path fill="#AF56EF" d="M31.8139,15.897c-4.9791-2.5444-11.9076,0.2642-13.7096,5.5574c-0.3023,0.8876-0.4877,1.8414-1.0395,2.5994
	c-1.3605,1.8695-4.1984,1.7022-6.3999,0.9952C6.4867,23.7071,2.7241,21.1001,0,17.6596c0.5898,7.7281,5.1736,15.043,11.8709,18.9439
	c6.7363,3.9236,15.6314,4.5928,22.2338,0.3008c3.6747,5.7724,11.3345,8.6671,17.9084,6.7678
	c-3.3979-3.2427-5.2796-8.2099-4.2331-12.7887c1.0468-4.5789,5.3152-8.4009,10.0117-8.3401
	c4.6966,0.0609,9.0476,4.5241,8.4538,9.1834c0.0957-3.6455-3.7088-6.6821-7.3345-6.289c-3.6256,0.3931-6.5582,3.6526-7.1571,7.2499
	s0.8555,7.3335,3.2757,10.0614c3.2271,3.6372,8.1907,5.6603,13.0409,5.3152c4.8501-0.3451,9.4773-3.0505,12.1568-7.108
	c2.8957,3.0037,7.3216,4.4482,11.4318,3.7311c4.1101-0.7171,7.7853-3.5751,9.4923-7.3809
	c-0.4284,0.9763,7.3806,3.0291,8.2222,3.0934c4.9703,0.3793,10.5571-1.2296,14.8249-3.7034
	c-5.951,1.3684-12.6176-1.2729-16.0166-6.3457c-1.3332-1.9897-2.1861-4.2796-3.61-6.2061
	c-3.3705-4.5601-13.3738-6.4654-15.1631,0.708c-0.7071,2.8347,1.9015,6.2212,4.749,5.5681c-2.5346,1.0618-5.7161-0.28-7.0117-2.7034
	c-1.2958-2.4234-0.7923-5.5873,0.9354-7.7242c1.7279-2.137,4.5063-3.2777,7.2535-3.3477
	c-2.3729-6.5859-10.0007-10.7933-16.837-9.287c2.6852,3.5574,1.3754,9.4018-2.5712,11.4729
	c-3.9465,2.071-9.5001-0.1713-10.9021-4.4021c2.3031,3.5114,8.3123,3.5522,10.6629,0.0722c1.394-2.0639,1.4555-4.8559,0.4908-7.1521
	c-0.9648-2.2962-2.8478-4.1214-4.9956-5.3827c-3.2639-1.9169-7.3632-2.6058-10.9101-1.2843
	c-3.5471,1.3215-6.3165,4.8552-6.2077,8.6387c-3.1399-2.4854-7.4069-3.4852-11.3242-2.6533
	c-3.9172,0.8318-7.4097,3.4794-9.2686,7.0265c3.6282,0.978,6.045,5.1604,5.0807,8.7924c-0.9644,3.6319-5.1375,6.0644-8.773,5.1138
	c2.3721,0.6203,5.1915-3.0157,5.6834-4.8885C36.2299,19.7925,34.3888,17.213,31.8139,15.897z"/>
</g>
</svg>
