<?xml version="1.0" encoding="utf-8"?>
<!-- Generator: Adobe Illustrator 19.0.0, SVG Export Plug-In . SVG Version: 6.00 Build 0)  -->
<svg version="1.1" id="Layer_1" xmlns="http://www.w3.org/2000/svg" xmlns:xlink="http://www.w3.org/1999/xlink" x="0px" y="0px"
	 viewBox="0 0 159.4893 154.1728" enable-background="new 0 0 159.4893 154.1728" xml:space="preserve">
<g>
	<circle fill="#F43A49" cx="80.7959" cy="79.6846" r="21.6663"/>
	<g>
		<g>
			<path fill="#FB7F7E" d="M112.8554,34.3579l-10.8776,16.2685l-5.3065,7.9343c-1.2533,1.873-3.0813,3.239-5.1655,3.9291
				c-0.9971,0.3295-2.0533,0.5041-3.1321,0.5041H72.6432c-1.1576,0-2.2899-0.2028-3.3517-0.5802
				c-1.9942-0.7098-3.7376-2.0476-4.9459-3.853l-6.0585-9.0609L48.1644,34.3579c-1.7153-2.5631-2.149-5.7768-1.1745-8.706
				l4.9515-14.8518c1.1041-3.3095,3.8531-5.8021,7.2527-6.5767L75.0035,0.621c1.5519-0.3548,3.1292-0.5576,4.7121-0.6083
				c2.1096-0.0676,4.2277,0.1351,6.3007,0.6083l15.8066,3.6024c3.3995,0.7746,6.1513,3.2672,7.2526,6.5767l4.9515,14.8518
				C115.0016,28.5811,114.5706,31.7948,112.8554,34.3579z"/>
			<path fill="#F43A49" d="M105.6928,33.7242l-3.715,16.9022l-5.3065,7.9343c-1.2533,1.873-3.0813,3.239-5.1655,3.9291
				c-0.9971,0.3295-2.0533,0.5041-3.1321,0.5041H72.6432c-1.1576,0-2.2899-0.2028-3.3517-0.5802
				c-1.9942-0.7098-3.7376-2.0476-4.9459-3.853l-6.0585-9.0609L54.82,33.7242c-0.4563-2.0702-0.1155-4.1714,0.859-5.9374
				c0.752-1.3632,1.8843-2.5236,3.3151-3.3151c9.351-5.1543,33.1736-5.1543,42.5246,0c1.4308,0.7915,2.563,1.9519,3.3151,3.3151
				C105.8083,29.5528,106.1491,31.654,105.6928,33.7242z"/>
			<path fill="#FD5658" d="M96.2489,39.8615l-2.335,16.9022l-2.4081,5.7261c-0.9971,0.3295-2.0533,0.5041-3.1321,0.5041H72.6432
				c-1.1576,0-2.2899-0.2028-3.3517-0.5802l-2.8476-6.7766l-2.18-15.7756c-0.2873-2.0702-0.0732-4.1714,0.538-5.9374
				c0.4732-1.3632,1.1858-2.5236,2.0842-3.3151c5.881-5.1543,20.8595-5.1543,26.7405,0c0.8985,0.7915,1.6111,1.9519,2.0843,3.3151
				C96.3221,35.6901,96.5362,37.7913,96.2489,39.8615z"/>
		</g>
		<g>
			<path fill="#FB7F7E" d="M144.4496,93.9427l-19.1951,3.812l-9.3626,1.8582c-2.2107,0.4381-4.4692,0.1115-6.4309-0.8744
				c-0.9381-0.472-1.8084-1.0954-2.5712-1.8581L95.7666,85.7572c-0.8185-0.8186-1.4758-1.7626-1.9597-2.7803
				c-0.9082-1.912-1.195-4.0908-0.7728-6.2218l2.1231-10.691l3.549-17.8648c0.5995-3.0252,2.5652-5.6044,5.3256-6.9866
				l14.003-7.0005c3.1209-1.5594,6.8273-1.3782,9.7789,0.478l13.7262,8.6317c1.3483,0.8464,2.607,1.8183,3.7621,2.9017
				c1.5396,1.444,2.8939,3.0851,4.0251,4.8855l8.6297,13.7242c1.8561,2.9516,2.0394,6.66,0.478,9.7788l-7.0006,14.0031
				C150.0521,91.3755,147.4749,93.3433,144.4496,93.9427z"/>
			<path fill="#F43A49" d="M139.8331,88.43l-14.5786,9.3247l-9.3626,1.8582c-2.2107,0.4381-4.4692,0.1115-6.4309-0.8744
				c-0.9381-0.472-1.8084-1.0954-2.5712-1.8581L95.7666,85.7572c-0.8185-0.8186-1.4758-1.7626-1.9597-2.7803
				c-0.9082-1.912-1.195-4.0908-0.7728-6.2218l2.1231-10.691l8.7033-13.6067c1.1412-1.7865,2.868-3.0312,4.8058-3.5909
				c1.4957-0.4322,3.1169-0.4521,4.6883,0c10.2568,2.9675,27.1019,19.8126,30.0694,30.0694c0.4521,1.5714,0.4321,3.1926,0,4.6883
				C142.8643,85.562,141.6196,87.2888,139.8331,88.43z"/>
			<path fill="#FD5658" d="M128.8155,86.0918l-13.6028,10.3006l-5.7517,2.3461c-0.9381-0.472-1.8084-1.0954-2.5712-1.8581
				L95.7666,85.7572c-0.8185-0.8186-1.4758-1.7626-1.9597-2.7803l2.7783-6.8054l9.6135-12.6965
				c1.2607-1.667,2.8978-3.0014,4.5787-3.8179c1.2986-0.6294,2.623-0.946,3.8179-0.8703
				c7.8032,0.5138,18.3946,11.1052,18.9084,18.9083c0.0757,1.195-0.241,2.5194-0.8703,3.818
				C131.8168,83.194,130.4824,84.8311,128.8155,86.0918z"/>
		</g>
		<g>
			<path fill="#FB7F7E" d="M15.0398,93.9427l19.1951,3.812l9.3626,1.8582c2.2107,0.4381,4.4692,0.1115,6.4309-0.8744
				c0.9381-0.472,1.8084-1.0954,2.5712-1.8581l11.1232-11.1232c0.8185-0.8186,1.4758-1.7626,1.9597-2.7803
				c0.9082-1.912,1.195-4.0908,0.7728-6.2218l-2.1231-10.691l-3.5491-17.8648c-0.5994-3.0252-2.5652-5.6044-5.3255-6.9866
				l-14.0031-7.0005c-3.1208-1.5594-6.8272-1.3782-9.7788,0.478l-13.7262,8.6317c-1.3483,0.8464-2.607,1.8183-3.7622,2.9017
				c-1.5395,1.444-2.8938,3.0851-4.025,4.8855L1.5326,64.8333c-1.8562,2.9516-2.0394,6.66-0.478,9.7788l7.0006,14.0031
				C9.4373,91.3755,12.0145,93.3433,15.0398,93.9427z"/>
			<path fill="#F43A49" d="M19.6563,88.43l14.5786,9.3247l9.3626,1.8582c2.2107,0.4381,4.4692,0.1115,6.4309-0.8744
				c0.9381-0.472,1.8084-1.0954,2.5712-1.8581l11.1232-11.1232c0.8185-0.8186,1.4758-1.7626,1.9597-2.7803
				c0.9082-1.912,1.195-4.0908,0.7728-6.2218l-2.1231-10.691l-8.7033-13.6067c-1.1412-1.7865-2.868-3.0312-4.8058-3.5909
				c-1.4957-0.4322-3.1169-0.4521-4.6883,0C35.878,51.834,19.0329,68.6791,16.0654,78.9359c-0.4521,1.5714-0.4321,3.1926,0,4.6883
				C16.6251,85.562,17.8698,87.2888,19.6563,88.43z"/>
			<path fill="#FD5658" d="M30.6739,86.0918l13.6027,10.3006l5.7518,2.3461c0.9381-0.472,1.8084-1.0954,2.5712-1.8581
				l11.1232-11.1232c0.8185-0.8186,1.4758-1.7626,1.9597-2.7803l-2.7783-6.8054L53.2907,63.475
				c-1.2607-1.667-2.8978-3.0014-4.5787-3.8179c-1.2986-0.6294-2.623-0.946-3.8179-0.8703
				c-7.8032,0.5138-18.3946,11.1052-18.9084,18.9083c-0.0757,1.195,0.2409,2.5194,0.8703,3.818
				C27.6726,83.194,29.0069,84.8311,30.6739,86.0918z"/>
		</g>
		<g>
			<path fill="#FB7F7E" d="M124.1761,93.3885l-19.1952-3.8119l-9.3626-1.8582c-2.2106-0.4381-4.4691-0.1115-6.4309,0.8743
				c-0.938,0.4721-1.8084,1.0954-2.5711,1.8582l-11.1232,11.1232c-0.8186,0.8185-1.4758,1.7626-1.9598,2.7803
				c-0.9081,1.9119-1.1949,4.0908-0.7727,6.2218l2.123,10.691l3.5491,17.8647c0.5995,3.0253,2.5652,5.6044,5.3256,6.9866
				l14.003,7.0006c3.1209,1.5594,6.8273,1.3781,9.7788-0.478l13.7263-8.6317c1.3483-0.8464,2.607-1.8183,3.7621-2.9018
				c1.5395-1.4439,2.8938-3.085,4.0251-4.8854l8.6296-13.7242c1.8562-2.9516,2.0394-6.66,0.478-9.7788l-7.0005-14.0031
				C129.7785,95.9557,127.2014,93.988,124.1761,93.3885z"/>
			<path fill="#F43A49" d="M119.5595,98.9013l-14.5786-9.3247l-9.3626-1.8582c-2.2106-0.4381-4.4691-0.1115-6.4309,0.8743
				c-0.938,0.4721-1.8084,1.0954-2.5711,1.8582l-11.1232,11.1232c-0.8186,0.8185-1.4758,1.7626-1.9598,2.7803
				c-0.9081,1.9119-1.1949,4.0908-0.7727,6.2218l2.123,10.691l8.7034,13.6067c1.1412,1.7864,2.8679,3.0312,4.8058,3.5909
				c1.4957,0.4321,3.1168,0.452,4.6882,0c10.2568-2.9675,27.1019-19.8126,30.0694-30.0694c0.4521-1.5714,0.4322-3.1926,0-4.6883
				C122.5908,101.7693,121.346,100.0425,119.5595,98.9013z"/>
			<path fill="#FD5658" d="M108.5419,101.2395L94.9392,90.9389l-5.7518-2.3462c-0.938,0.4721-1.8084,1.0954-2.5711,1.8582
				l-11.1232,11.1232c-0.8186,0.8185-1.4758,1.7626-1.9598,2.7803l2.7783,6.8053l9.6136,12.6966
				c1.2607,1.6669,2.8977,3.0013,4.5787,3.8179c1.2985,0.6293,2.6229,0.946,3.8179,0.8703
				c7.8031-0.5138,18.3946-11.1052,18.9084-18.9084c0.0757-1.1949-0.241-2.5194-0.8703-3.8179
				C111.5433,104.1373,110.2089,102.5002,108.5419,101.2395z"/>
		</g>
		<g>
			<path fill="#FB7F7E" d="M30.7735,93.3885l19.1952-3.8119l9.3626-1.8582c2.2106-0.4381,4.4691-0.1115,6.4309,0.8743
				c0.938,0.4721,1.8084,1.0954,2.5711,1.8582l11.1232,11.1232c0.8186,0.8185,1.4758,1.7626,1.9598,2.7803
				c0.9082,1.9119,1.1949,4.0908,0.7727,6.2218l-2.123,10.691l-3.5491,17.8647c-0.5995,3.0253-2.5652,5.6044-5.3256,6.9866
				l-14.003,7.0006c-3.1209,1.5594-6.8273,1.3781-9.7788-0.478l-13.7263-8.6317c-1.3483-0.8464-2.607-1.8183-3.7621-2.9018
				c-1.5395-1.4439-2.8938-3.085-4.0251-4.8854l-8.6296-13.7242c-1.8562-2.9516-2.0394-6.66-0.478-9.7788l7.0005-14.0031
				C25.1711,95.9557,27.7482,93.988,30.7735,93.3885z"/>
			<path fill="#F43A49" d="M35.3901,98.9013l14.5786-9.3247l9.3626-1.8582c2.2106-0.4381,4.4691-0.1115,6.4309,0.8743
				c0.938,0.4721,1.8084,1.0954,2.5711,1.8582l11.1232,11.1232c0.8186,0.8185,1.4758,1.7626,1.9598,2.7803
				c0.9082,1.9119,1.1949,4.0908,0.7727,6.2218l-2.123,10.691l-8.7034,13.6067c-1.1412,1.7864-2.8679,3.0312-4.8058,3.5909
				c-1.4957,0.4321-3.1168,0.452-4.6882,0c-10.2568-2.9675-27.1019-19.8126-30.0694-30.0694c-0.4521-1.5714-0.4322-3.1926,0-4.6883
				C32.3588,101.7693,33.6036,100.0425,35.3901,98.9013z"/>
			<path fill="#FD5658" d="M46.4077,101.2395l13.6027-10.3006l5.7518-2.3462c0.938,0.4721,1.8084,1.0954,2.5711,1.8582
				l11.1232,11.1232c0.8186,0.8185,1.4758,1.7626,1.9598,2.7803l-2.7783,6.8053l-9.6135,12.6966
				c-1.2608,1.6669-2.8978,3.0013-4.5788,3.8179c-1.2985,0.6293-2.6229,0.946-3.8179,0.8703
				c-7.8031-0.5138-18.3945-11.1052-18.9084-18.9084c-0.0757-1.1949,0.241-2.5194,0.8704-3.8179
				C43.4063,104.1373,44.7407,102.5002,46.4077,101.2395z"/>
		</g>
	</g>
	<path opacity="0.3" fill="#F43A49" d="M126.1429,94.1116l-0.5538-9.6185c-0.1189-2.0686-1.367-3.9301-3.2938-4.9069l-8.6459-4.3887
		c-1.7055-0.8644-3.7351-0.9341-5.4987-0.1865l-1.1914,0.5045l8.2245-4.8685c1.6393-0.9694,2.7127-2.605,2.9103-4.4297l0.9961-9.254
		c0.2231-2.0617-0.7065-4.0839-2.4483-5.3337l-8.0982-5.8115c-1.0618-0.7626-2.219-1.3897-3.441-1.8683
		c-0.9169-0.3591-1.8698-0.6344-2.8473-0.8212l-9.9546-1.9096c-2.1406-0.4106-4.3519,0.2682-5.8344,1.7912l-5.6851,5.8432
		c-0.3693-1.2751-1.1812-2.4119-2.3287-3.2118l-7.9053-5.5037c-1.7605-1.2272-4.0694-1.4916-6.0877-0.7004l-9.3849,3.6784
		c-1.2311,0.482-2.3873,1.1107-3.4415,1.8676c-0.7909,0.5679-1.524,1.2077-2.189,1.9125l-6.7794,7.1737
		c-1.4579,1.5426-1.9614,3.6951-1.3285,5.6792l2.8423,8.9029c0.5616,1.7552,1.9462,3.165,3.7506,3.8194l3.3911,1.2316
		l-6.8744,1.0009c-2.1598,0.3149-3.9893,1.675-4.8267,3.5883l-3.8946,8.898c-0.3831,0.8733-0.675,1.7767-0.8735,2.6987
		c-0.2647,1.2288-0.3633,2.4896-0.2902,3.7511l0.5537,9.6185c0.119,2.0687,1.3671,3.9302,3.2939,4.9069l8.6459,4.3887
		c1.7054,0.8644,3.735,0.9342,5.4987,0.1865l6.2287-2.6375c-0.1206,0.6365-0.1339,1.2945-0.0284,1.9496l1.4876,9.1945
		c0.3302,2.0487,1.7656,3.7844,3.7826,4.5788l9.3779,3.6943c1.2298,0.4849,2.516,0.816,3.8256,0.9879
		c0.9826,0.129,1.9778,0.1683,2.9734,0.1161l10.141-0.5251c2.1807-0.1128,4.1412-1.2971,5.1726-3.1247l4.6263-8.2018
		c0.9112-1.6179,0.983-3.5435,0.1949-5.2166l-1.2549-2.6674l2.2344,2.0098c1.4011,1.2616,3.3393,1.8377,5.2508,1.5606l9.6923-1.4111
		c2.1598-0.3149,3.9892-1.675,4.8266-3.5884l3.8947-8.8979c0.383-0.8734,0.6749-1.7768,0.8735-2.6988
		C126.1173,96.634,126.216,95.3732,126.1429,94.1116z M64.9594,78.6557c1.271,0.4609,2.6465,0.5113,3.9228,0.1711
		c0.6795-0.1814,1.3318-0.4717,1.9236-0.8691l8.0426-5.3994c0.5515-0.3703,1.0283-0.8175,1.4188-1.3196
		c0.2675-0.3442,0.4901-0.7162,0.6733-1.1052l0.3134,1.7768c0.2252,1.273,0.8763,2.4235,1.8322,3.295
		c0.5092,0.4637,1.1035,0.8501,1.7645,1.1328l8.9822,3.8416c0.3946,0.1688,0.8032,0.292,1.2174,0.379l-3.5518,1.5046
		c-1.2888,0.5463-2.3254,1.4799-2.9716,2.6314c-0.3088,0.5509-0.5283,1.152-0.6423,1.7838L86.5184,94.05l-7.9814-1.296
		c-0.6659-0.1081-1.3365-0.1117-1.9869-0.0187c-0.8276,0.1189-1.622,0.396-2.337,0.8121l0.2684-1.4873
		c0.1223-0.678,0.1167-1.3614-0.0041-2.0211c-0.2274-1.2391-0.8692-2.3943-1.8561-3.283l-4.9538-4.4565l-4.9601-4.4615
		L64.9594,78.6557z"/>
	<g>
		<g>
			<path fill="#FD8E8D" d="M80.9702,44.7079l0.3084,11.6241l0.1497,5.6697c0.035,1.3386-0.3827,2.6286-1.1567,3.6787
				c-0.3705,0.5021-0.8228,0.9493-1.346,1.3196l-7.6295,5.3994c-0.5615,0.3974-1.1802,0.6877-1.8248,0.8691
				c-1.2108,0.3402-2.5156,0.2898-3.7214-0.1711l-6.0485-2.3151l-10.107-3.8694c-1.7117-0.6544-3.0252-2.0642-3.558-3.8194
				l-2.6963-8.9029c-0.6004-1.9841-0.1227-4.1366,1.2602-5.6792l6.4313-7.1737c0.6309-0.7048,1.3263-1.3446,2.0766-1.9125
				c1-0.7569,2.0969-1.3856,3.2647-1.8676l8.9029-3.6784c1.9147-0.7912,4.1049-0.5268,5.775,0.7004l7.4994,5.5036
				C80.0283,41.1695,80.9224,42.8761,80.9702,44.7079z"/>
			<path fill="#F44956" d="M77.2788,46.8591l3.9998,9.4729l0.1497,5.6697c0.035,1.3386-0.3827,2.6286-1.1567,3.6787
				c-0.3705,0.5021-0.8228,0.9493-1.346,1.3196l-7.6295,5.3994c-0.5615,0.3974-1.1802,0.6877-1.8248,0.8691
				c-1.2108,0.3402-2.5156,0.2898-3.7214-0.1711l-6.0485-2.3151l-7.0965-6.4613c-0.9319-0.8474-1.4879-1.9835-1.6214-3.1745
				c-0.1031-0.9193,0.0477-1.8708,0.47-2.7458c2.7661-5.7096,14.3204-13.8866,20.6249-14.5964
				c0.9656-0.1072,1.9131,0.0669,2.7458,0.47C75.903,44.7963,76.7895,45.6984,77.2788,46.8591z"/>
			<path fill="#FD6466" d="M74.805,53.0774l4.6691,8.9992l0.7975,3.6038c-0.3705,0.5021-0.8228,0.9493-1.346,1.3196l-7.6295,5.3994
				c-0.5615,0.3974-1.1802,0.6877-1.8248,0.8691l-3.7072-2.3094l-6.4722-6.903c-0.8499-0.9055-1.4673-1.998-1.777-3.0644
				c-0.2385-0.8236-0.2912-1.631-0.1271-2.3232c1.0832-4.5186,8.3479-9.6599,12.9695-9.1786
				c0.7074,0.0755,1.4514,0.3937,2.1488,0.8924C73.4087,51.0291,74.2337,51.9747,74.805,53.0774z"/>
		</g>
		<g>
			<path fill="#FD8E8D" d="M113.3949,65.0887l-9.8652,6.1558l-4.812,3.0019c-1.1364,0.7085-2.4601,1.002-3.7576,0.8668
				c-0.6206-0.065-1.2354-0.2283-1.8197-0.4918l-8.5209-3.8416c-0.627-0.2827-1.1908-0.6691-1.6738-1.1328
				c-0.9068-0.8715-1.5245-2.022-1.7381-3.295l-1.0689-6.3877l-1.7854-10.6741c-0.3032-1.8072,0.2467-3.654,1.49-5.0027
				l6.3091-6.8356c1.4063-1.523,3.5041-2.2019,5.5347-1.7912l9.4434,1.9096c0.9273,0.1868,1.8312,0.4621,2.701,0.8212
				c1.1592,0.4786,2.257,1.1057,3.2643,1.8683l7.6823,5.8115c1.6523,1.2498,2.5342,3.272,2.3225,5.3336l-0.9449,9.2541
				C115.9682,62.4837,114.9499,64.1193,113.3949,65.0887z"/>
			<path fill="#F44956" d="M109.6699,62.9963l-6.1402,8.2482l-4.812,3.0019c-1.1364,0.7085-2.4601,1.002-3.7576,0.8668
				c-0.6206-0.065-1.2354-0.2283-1.8197-0.4918l-8.5209-3.8416c-0.627-0.2827-1.1908-0.6691-1.6738-1.1328
				c-0.9068-0.8715-1.5245-2.022-1.7381-3.295l-1.0689-6.3877l1.9745-9.392c0.2585-1.2328,0.9562-2.2877,1.9153-3.0063
				c0.7403-0.5548,1.637-0.9068,2.6054-0.9861c6.3239-0.5083,19.228,5.3095,23.0345,10.3851
				c0.5818,0.7782,0.9117,1.6833,0.9861,2.6054C110.7511,60.7649,110.4226,61.9863,109.6699,62.9963z"/>
			<path fill="#FD6466" d="M103.0555,64.0143l-5.3926,8.5853l-2.7028,2.5136c-0.6206-0.065-1.2354-0.2283-1.8197-0.4918
				l-8.5209-3.8416c-0.627-0.2827-1.1908-0.6691-1.6738-1.1328l0.1125-4.3662l2.6718-9.0777
				c0.3499-1.1915,0.979-2.2774,1.7414-3.0847c0.5892-0.6229,1.2586-1.0774,1.9386-1.2867
				c4.4443-1.3558,12.5578,2.3022,14.4847,6.5304c0.2934,0.6482,0.396,1.4508,0.3194,2.3047
				C104.1138,61.7727,103.7167,62.9631,103.0555,64.0143z"/>
		</g>
		<g>
			<path fill="#FD8E8D" d="M53.9808,107.1821l10.6183-4.7398l5.1788-2.3124c1.2226-0.5463,2.2059-1.48,2.819-2.6315
				c0.2929-0.5509,0.5011-1.152,0.6092-1.7838l1.5769-9.2128c0.116-0.678,0.1107-1.3614-0.0039-2.0212
				c-0.2158-1.239-0.8245-2.3942-1.7608-3.2829l-4.6993-4.4565l-7.8534-7.4464c-1.3291-1.2615-3.1678-1.8377-4.9811-1.5606
				L46.29,69.1453c-2.0489,0.3149-3.7844,1.675-4.5788,3.5884l-3.6946,8.898c-0.3634,0.8733-0.6403,1.7767-0.8286,2.6987
				c-0.2511,1.2288-0.3447,2.4896-0.2753,3.7511L37.438,97.7c0.1128,2.0687,1.2968,3.9302,3.1247,4.9069l8.2018,4.3887
				C50.3824,107.86,52.3077,107.9298,53.9808,107.1821z"/>
			<path fill="#F44956" d="M54.3276,102.9237l10.2715-0.4814l5.1788-2.3124c1.2226-0.5463,2.2059-1.48,2.819-2.6315
				c0.2929-0.5509,0.5011-1.152,0.6092-1.7838l1.5769-9.2128c0.116-0.678,0.1107-1.3614-0.0039-2.0212
				c-0.2158-1.239-0.8245-2.3942-1.7608-3.2829l-4.6993-4.4565l-8.8917-3.612c-1.1667-0.4747-2.4314-0.4858-3.5634-0.0921
				c-0.8738,0.3038-1.6669,0.8506-2.2739,1.6093c-3.9561,4.9598-6.3441,18.9119-4.2628,24.9052
				c0.3201,0.9173,0.8862,1.6968,1.6092,2.2739C51.873,102.5732,53.0695,102.9835,54.3276,102.9237z"/>
			<path fill="#FD6466" d="M58.8687,98.008l10.1332,0.3268l3.595-0.8364c0.2929-0.5509,0.5011-1.152,0.6092-1.7838l1.5769-9.2128
				c0.116-0.678,0.1107-1.3614-0.0039-2.0212l-3.6834-2.347l-9.0207-2.8582c-1.1836-0.3757-2.4357-0.461-3.5312-0.2801
				c-0.8458,0.1405-1.5969,0.4415-2.1505,0.8884c-3.6082,2.9276-5.1097,11.7-2.6805,15.661
				c0.3734,0.6056,0.9816,1.1392,1.7326,1.553C56.4184,97.6327,57.6275,97.9687,58.8687,98.008z"/>
		</g>
		<g>
			<path fill="#FD8E8D" d="M106.723,69.4527l-10.6184,4.7398l-5.1787,2.3125c-1.2226,0.5463-2.2059,1.4799-2.819,2.6314
				c-0.2929,0.5509-0.5011,1.152-0.6092,1.7838l-1.5769,9.2128c-0.116,0.678-0.1108,1.3615,0.0038,2.0212
				c0.2158,1.239,0.8246,2.3942,1.7608,3.2829l4.6994,4.4565l7.8533,7.4464c1.3292,1.2616,3.1679,1.8377,4.9811,1.5606
				l9.1946-1.4111c2.0489-0.3149,3.7843-1.675,4.5787-3.5884l3.6946-8.8979c0.3634-0.8734,0.6403-1.7768,0.8287-2.6988
				c0.2511-1.2287,0.3446-2.4895,0.2753-3.7511l-0.5253-9.6185c-0.1129-2.0686-1.2969-3.9301-3.1247-4.9069l-8.2018-4.3887
				C110.3214,68.7748,108.396,68.705,106.723,69.4527z"/>
			<path fill="#F44956" d="M106.3761,73.7111l-10.2715,0.4814l-5.1787,2.3125c-1.2226,0.5463-2.2059,1.4799-2.819,2.6314
				c-0.2929,0.5509-0.5011,1.152-0.6092,1.7838l-1.5769,9.2128c-0.116,0.678-0.1108,1.3615,0.0038,2.0212
				c0.2158,1.239,0.8246,2.3942,1.7608,3.2829l4.6994,4.4565l8.8917,3.612c1.1667,0.4748,2.4314,0.4858,3.5634,0.0921
				c0.8738-0.3038,1.6669-0.8506,2.2738-1.6092c3.9561-4.9599,6.3442-18.912,4.2628-24.9053
				c-0.3201-0.9173-0.8862-1.6967-1.6092-2.2738C108.8307,74.0616,107.6343,73.6514,106.3761,73.7111z"/>
			<path fill="#FD6466" d="M101.835,78.6269L91.7019,78.3l-3.595,0.8364c-0.2929,0.5509-0.5011,1.152-0.6092,1.7838l-1.5769,9.2128
				c-0.116,0.678-0.1108,1.3615,0.0038,2.0212l3.6834,2.347l9.0207,2.8582c1.1837,0.3758,2.4357,0.461,3.5313,0.2801
				c0.8458-0.1405,1.5969-0.4415,2.1504-0.8884c3.6083-2.9276,5.1098-11.7,2.6806-15.661c-0.3735-0.6055-0.9816-1.1392-1.7326-1.553
				C104.2854,79.0021,103.0763,78.6661,101.835,78.6269z"/>
		</g>
		<g>
			<path fill="#FD8E8D" d="M61.4216,101.5128l8.0015-8.4375l3.9031-4.1149c0.9218-0.9713,2.1293-1.5882,3.4192-1.7834
				c0.617-0.093,1.2531-0.0894,1.8849,0.0187l9.2128,1.5769c0.678,0.116,1.3208,0.3483,1.9048,0.6758
				c1.0968,0.6156,1.9837,1.5739,2.5104,2.7524l2.64,5.914l4.4107,9.8828c0.7476,1.6731,0.6795,3.5987-0.1849,5.2166l-4.3887,8.2018
				c-0.9784,1.8276-2.8383,3.0119-4.9069,3.1247l-9.6202,0.525c-0.9445,0.0523-1.8886,0.013-2.8207-0.116
				c-1.2423-0.1719-2.4625-0.503-3.6291-0.9879l-8.8963-3.6943c-1.9134-0.7944-3.2751-2.5302-3.5884-4.5788l-1.4111-9.1945
				C59.5856,104.6809,60.1601,102.842,61.4216,101.5128z"/>
			<path fill="#F44956" d="M65.5529,102.6019l3.8702-9.5266l3.9031-4.1149c0.9218-0.9713,2.1293-1.5882,3.4192-1.7834
				c0.617-0.093,1.2531-0.0894,1.8849,0.0187l9.2128,1.5769c0.678,0.116,1.3208,0.3483,1.9048,0.6758
				c1.0968,0.6156,1.9837,1.5739,2.5104,2.7524l2.64,5.914l0.4492,9.5868c0.0597,1.2582-0.3505,2.4546-1.0983,3.3912
				c-0.5771,0.723-1.3565,1.2891-2.2739,1.6092c-5.9932,2.0814-19.9453-0.3067-24.9052-4.2628
				c-0.7586-0.607-1.3054-1.4001-1.6092-2.2738C65.0672,105.0334,65.0782,103.7686,65.5529,102.6019z"/>
			<path fill="#FD6466" d="M71.6992,99.9542l3.0618-9.665l1.9844-3.1122c0.617-0.093,1.2531-0.0894,1.8849,0.0187l9.2128,1.5769
				c0.678,0.116,1.3208,0.3483,1.9048,0.6758l0.9884,4.2543l-0.3046,9.4578c-0.0393,1.2412-0.3752,2.4504-0.9103,3.4234
				c-0.4137,0.7509-0.9474,1.3591-1.5529,1.7326c-3.961,2.4292-12.7334,0.9277-15.6611-2.6806
				c-0.4468-0.5536-0.7479-1.3046-0.8883-2.1505C71.2381,102.3899,71.3234,101.1379,71.6992,99.9542z"/>
		</g>
	</g>
	<path opacity="0.3" fill="#F43A49" d="M104.2272,88.4679l-0.2676-4.634c-0.0575-0.9966-0.6606-1.8934-1.5916-2.364l-4.1778-2.1144
		c-0.2791-0.141-0.5768-0.2344-0.8808-0.2872c0.6055-0.2991,1.093-0.7872,1.3719-1.3918l1.892-4.1089
		c0.4221-0.9152,0.3074-1.9725-0.3008-2.7882l-2.8276-3.7928c-0.3707-0.4975-0.8063-0.9462-1.2947-1.3357
		c-0.3664-0.2922-0.7624-0.551-1.1834-0.7726l-4.2867-2.26c-0.9217-0.486-2.0448-0.4817-2.9632,0.0113l-4.1203,2.2129
		c-0.8122,0.4369-1.3651,1.2039-1.4979,2.0778l-0.7871,5.1606l-0.4241,2.7822c0-0.025,0.002-0.0498,0.0013-0.0749l-0.0763-2.7315
		l-0.1571-5.6003c-0.0243-0.8826-0.4798-1.7048-1.2327-2.2281l-3.82-2.6515c-0.8507-0.5912-1.9663-0.7186-2.9416-0.3374
		l-4.5349,1.7721c-0.5949,0.2323-1.1536,0.5351-1.663,0.8998c-0.3822,0.2736-0.7364,0.5818-1.0578,0.9214l-3.2759,3.4561
		c-0.7045,0.7432-0.9478,1.7803-0.6419,2.7362l1.3734,4.2892c0.2024,0.6308,0.6265,1.1686,1.1907,1.5322
		c-0.2151,0.0454-0.4266,0.1121-0.63,0.2026l-4.2855,1.9119c-0.9549,0.4263-1.6053,1.2923-1.716,2.2849l-0.5148,4.6161
		c-0.051,0.4532-0.0553,0.9084-0.0137,1.36c0.0555,0.602,0.1925,1.1971,0.4091,1.7703l1.6503,4.3705
		c0.3548,0.94,1.2028,1.6376,2.2369,1.8382l4.6411,0.903c0.9153,0.1775,1.8657-0.0542,2.5743-0.6288l4.4985-3.6444l1.5106-1.2242
		l-1.0547,1.2233l-3.743,4.3418c-0.5902,0.684-0.812,1.5882-0.6022,2.4494l1.0669,4.3665c0.2372,0.9729,0.995,1.7578,1.9971,2.0705
		l4.6596,1.4544c0.6111,0.191,1.2434,0.3061,1.881,0.3439c0.4784,0.0284,0.9594,0.0133,1.4372-0.0458l4.8666-0.5988
		c1.0465-0.1287,1.9461-0.7646,2.3734-1.6779l1.917-4.0985c0.3774-0.8084,0.3387-1.736-0.1048-2.5129l-2.6168-4.5891l-1.1062-1.9396
		c0.1503,0.1313,0.3062,0.2596,0.4522,0.3907l2.3938,2.147l4.0003,3.5876c0.677,0.6078,1.6136,0.8853,2.5373,0.7518l4.6834-0.6798
		c1.0437-0.1517,1.9277-0.807,2.3323-1.7288l1.882-4.2869c0.1851-0.4207,0.3261-0.856,0.4221-1.3002
		C104.2149,89.6831,104.2625,89.0757,104.2272,88.4679z"/>
	<g>
		<g>
			<path fill="#FD9B9A" d="M80.6498,62.6129l0.1485,5.6003l0.0722,2.7315c0.0168,0.6449-0.1844,1.2664-0.5573,1.7723
				c-0.1785,0.2419-0.3964,0.4574-0.6485,0.6358l-3.6757,2.6013c-0.2705,0.1914-0.5686,0.3313-0.8792,0.4187
				c-0.5833,0.1639-1.2119,0.1396-1.7928-0.0824l-2.9141-1.1154l-4.8693-1.8642c-0.8247-0.3153-1.4575-0.9945-1.7142-1.8401
				l-1.299-4.2892c-0.2893-0.9559-0.0592-1.993,0.6071-2.7361l3.0985-3.4562c0.3039-0.3396,0.6389-0.6478,1.0004-0.9214
				c0.4818-0.3647,1.0103-0.6675,1.5729-0.8998l4.2892-1.7721c0.9225-0.3812,1.9777-0.2538,2.7823,0.3374l3.6131,2.6515
				C80.196,60.9081,80.6267,61.7304,80.6498,62.6129z"/>
			<path fill="#F45561" d="M78.8713,63.6493l1.927,4.5639l0.0722,2.7315c0.0168,0.6449-0.1844,1.2664-0.5573,1.7723
				c-0.1785,0.2419-0.3964,0.4574-0.6485,0.6358l-3.6757,2.6013c-0.2705,0.1914-0.5686,0.3313-0.8792,0.4187
				c-0.5833,0.1639-1.2119,0.1396-1.7928-0.0824l-2.9141-1.1154l-3.419-3.1129c-0.4489-0.4083-0.7167-0.9556-0.7811-1.5294
				c-0.0497-0.4429,0.023-0.9013,0.2264-1.3229c1.3327-2.7508,6.8993-6.6903,9.9367-7.0322
				c0.4652-0.0517,0.9217,0.0322,1.3228,0.2264C78.2085,62.6555,78.6356,63.0901,78.8713,63.6493z"/>
			<path fill="#FD7174" d="M77.6795,66.6451l2.2495,4.3357l0.3842,1.7362c-0.1785,0.2419-0.3964,0.4574-0.6485,0.6358
				l-3.6757,2.6013c-0.2705,0.1914-0.5686,0.3313-0.8792,0.4187l-1.786-1.1126l-3.1182-3.3258
				c-0.4095-0.4362-0.7069-0.9626-0.8561-1.4763c-0.1149-0.3968-0.1403-0.7858-0.0612-1.1193
				c0.5218-2.1769,4.0218-4.6539,6.2484-4.422c0.3408,0.0363,0.6992,0.1896,1.0352,0.4299
				C77.0068,65.6583,77.4043,66.1139,77.6795,66.6451z"/>
		</g>
		<g>
			<path fill="#FD9B9A" d="M95.783,75.4616l-5.4296,1.3799l-2.6484,0.6728c-0.6253,0.1587-1.2759,0.0994-1.8516-0.1527
				c-0.2753-0.1208-0.5335-0.2858-0.7631-0.4923l-3.3479-3.0116c-0.2464-0.2216-0.4485-0.4815-0.6023-0.7651
				c-0.2885-0.5328-0.4034-1.1514-0.315-1.7669l0.4453-3.0883l0.7444-5.1606c0.1256-0.8739,0.6486-1.6409,1.4168-2.0778
				l3.8971-2.2129c0.8686-0.493,1.9308-0.4972,2.8027-0.0113l4.0543,2.26c0.3983,0.2216,0.7728,0.4804,1.1194,0.7726
				c0.4619,0.3895,0.8739,0.8382,1.2245,1.3357l2.6744,3.7928c0.5753,0.8157,0.6837,1.873,0.2845,2.7882l-1.7894,4.1089
				C97.3457,74.643,96.6387,75.2444,95.783,75.4616z"/>
			<path fill="#F45561" d="M94.3799,73.9554l-4.0265,2.8861l-2.6484,0.6728c-0.6253,0.1587-1.2759,0.0994-1.8516-0.1527
				c-0.2753-0.1208-0.5335-0.2858-0.7631-0.4923l-3.3479-3.0116c-0.2464-0.2216-0.4485-0.4815-0.6023-0.7651
				c-0.2885-0.5328-0.4034-1.1514-0.315-1.7669l0.4453-3.0883l2.2822-4.0213c0.2993-0.528,0.774-0.9099,1.3195-1.0992
				c0.4211-0.1462,0.8842-0.1764,1.3403-0.0709c2.9769,0.6932,8.047,5.2539,9.0504,8.1411
				c0.1531,0.4424,0.1719,0.9061,0.0709,1.3402C95.2031,73.0898,94.8733,73.6022,94.3799,73.9554z"/>
			<path fill="#FD7174" d="M91.195,73.4536l-3.7328,3.1503l-1.6088,0.7577c-0.2753-0.1208-0.5335-0.2858-0.7631-0.4923
				l-3.3479-3.0116c-0.2464-0.2216-0.4485-0.4815-0.6023-0.7651l0.6913-1.9874l2.5562-3.7749
				c0.3352-0.4956,0.783-0.9018,1.2512-1.1607c0.3617-0.1995,0.7355-0.3101,1.0783-0.3065
				c2.2384,0.0289,5.4263,2.8965,5.6911,5.1193c0.0397,0.3405-0.0308,0.7239-0.191,1.1046
				C92.0092,72.5799,91.6525,73.0681,91.195,73.4536z"/>
		</g>
		<g>
			<path fill="#FD9B9A" d="M69.0616,91.6316l4.2547-3.6444l2.075-1.7778c0.4898-0.4199,0.816-0.9859,0.9414-1.6018
				c0.0598-0.2946,0.0736-0.6007,0.0369-0.9073l-0.5343-4.4713c-0.0393-0.3291-0.1354-0.644-0.2787-0.933
				c-0.2695-0.5427-0.709-0.9929-1.2632-1.275l-2.7813-1.4143l-4.6478-2.363c-0.7868-0.4005-1.715-0.4147-2.5145-0.0382
				l-4.0534,1.9119c-0.9032,0.4263-1.5183,1.2923-1.623,2.2849l-0.487,4.6161c-0.0481,0.4532-0.0522,0.9084-0.0129,1.3601
				c0.0525,0.6019,0.1821,1.197,0.387,1.7702l1.5608,4.3706c0.3357,0.94,1.1376,1.6375,2.1157,1.8381l4.3897,0.903
				C67.4924,92.4379,68.3913,92.2063,69.0616,91.6316z"/>
			<path fill="#F45561" d="M68.6381,89.6173l4.6782-1.6301l2.075-1.7778c0.4898-0.4199,0.816-0.9859,0.9414-1.6018
				c0.0598-0.2946,0.0736-0.6007,0.0369-0.9073l-0.5343-4.4713c-0.0393-0.3291-0.1354-0.644-0.2787-0.933
				c-0.2695-0.5427-0.709-0.9929-1.2632-1.275l-2.7813-1.4143l-4.6019-0.4497c-0.6039-0.0594-1.1896,0.1089-1.6585,0.4458
				c-0.3619,0.2601-0.6533,0.6214-0.8296,1.0549c-1.1475,2.8331-0.3384,9.6045,1.4443,12.0874
				c0.2736,0.3798,0.6419,0.6622,1.0549,0.8296C67.4564,89.7918,68.0652,89.8173,68.6381,89.6173z"/>
			<path fill="#FD7174" d="M70.0619,86.7244l4.725-1.2378l1.5458-0.879c0.0598-0.2946,0.0736-0.6007,0.0369-0.9073l-0.5343-4.4713
				c-0.0393-0.3291-0.1354-0.644-0.2787-0.933l-2.023-0.5793l-4.5581-0.0838c-0.5982-0.0113-1.1882,0.1209-1.6694,0.3546
				c-0.3714,0.1808-0.6771,0.4228-0.8715,0.705c-1.2653,1.8467-0.7566,6.1043,0.9083,7.6008
				c0.2554,0.2285,0.6095,0.3917,1.013,0.4799C68.8787,86.8869,69.4832,86.8764,70.0619,86.7244z"/>
		</g>
		<g>
			<path fill="#FD9B9A" d="M94.7214,75.4222l-5.1157,2.2835l-2.495,1.1141c-0.589,0.2632-1.0628,0.713-1.3581,1.2678
				c-0.1412,0.2654-0.2414,0.555-0.2935,0.8594l-0.7597,4.4385c-0.056,0.3267-0.0534,0.6559,0.0018,0.9738
				c0.104,0.5969,0.3973,1.1535,0.8483,1.5816l2.2641,2.1471l3.7836,3.5875c0.6403,0.6078,1.5262,0.8854,2.3997,0.7518
				l4.4298-0.6798c0.9871-0.1517,1.8232-0.807,2.2059-1.7288l1.78-4.2869c0.1751-0.4207,0.3085-0.856,0.3992-1.3002
				c0.121-0.5919,0.1661-1.1994,0.1327-1.8071l-0.2531-4.634c-0.0544-0.9967-0.6248-1.8935-1.5054-2.3641l-3.9515-2.1144
				C96.4551,75.0956,95.5275,75.062,94.7214,75.4222z"/>
			<path fill="#F45561" d="M94.5543,77.4738l-4.9486,0.2319l-2.495,1.1141c-0.589,0.2632-1.0628,0.713-1.3581,1.2678
				c-0.1412,0.2654-0.2414,0.555-0.2935,0.8594l-0.7597,4.4385c-0.056,0.3267-0.0534,0.6559,0.0018,0.9738
				c0.104,0.5969,0.3973,1.1535,0.8483,1.5816l2.2641,2.1471l4.2838,1.7401c0.5621,0.2288,1.1714,0.2341,1.7168,0.0444
				c0.4209-0.1464,0.8031-0.4098,1.0955-0.7753c1.9059-2.3896,3.0564-9.1114,2.0537-11.9988
				c-0.1542-0.442-0.427-0.8175-0.7753-1.0955C95.7369,77.6426,95.1605,77.445,94.5543,77.4738z"/>
			<path fill="#FD7174" d="M92.3665,79.8421l-4.8819-0.1575l-1.732,0.403c-0.1412,0.2654-0.2414,0.555-0.2935,0.8594l-0.7597,4.4385
				c-0.056,0.3267-0.0534,0.6559,0.0018,0.9738l1.7746,1.1307l4.346,1.377c0.5702,0.1811,1.1734,0.2221,1.7012,0.135
				c0.4076-0.0677,0.7694-0.2127,1.0361-0.428c1.7384-1.4105,2.4618-5.6369,1.2914-7.5452
				c-0.1799-0.2917-0.4729-0.5488-0.8347-0.7482C93.547,80.0229,92.9645,79.861,92.3665,79.8421z"/>
		</g>
		<g>
			<path fill="#FD9B9A" d="M70.2072,92.3281l3.5403-4.3418l1.727-2.1175c0.4078-0.4999,0.9657-0.8397,1.5784-0.98
				c0.2931-0.0669,0.5988-0.0881,0.9062-0.0589l4.483,0.4258c0.3299,0.0313,0.647,0.1197,0.9394,0.256
				c0.5491,0.2563,1.0098,0.6847,1.3052,1.2319l1.4814,2.7462l2.475,4.5892c0.4194,0.7768,0.4561,1.7044,0.0991,2.5128
				l-1.8131,4.0985c-0.4042,0.9133-1.2551,1.5492-2.2449,1.678l-4.6029,0.5987c-0.4519,0.0591-0.9068,0.0742-1.3593,0.0458
				c-0.6031-0.0378-1.2012-0.1529-1.7791-0.3439l-4.4072-1.4544c-0.9478-0.3127-1.6646-1.0976-1.8888-2.0705l-1.0092-4.3665
				C69.4393,93.9163,69.6491,93.0121,70.2072,92.3281z"/>
			<path fill="#F45561" d="M72.2313,92.7026l1.5162-4.7163l1.727-2.1175c0.4078-0.4999,0.9657-0.8397,1.5784-0.98
				c0.2931-0.0669,0.5988-0.0881,0.9062-0.0589l4.483,0.4258c0.3299,0.0313,0.647,0.1197,0.9394,0.256
				c0.5491,0.2563,1.0098,0.6847,1.3052,1.2319l1.4814,2.7462l0.5611,4.5896c0.074,0.6023-0.08,1.1919-0.4055,1.6688
				c-0.2512,0.3682-0.6053,0.6682-1.0345,0.855c-2.8043,1.2159-9.5934,0.5711-12.1188-1.1509
				c-0.3863-0.2642-0.6776-0.6256-0.855-1.0344C72.0855,93.8882,72.0452,93.2802,72.2313,92.7026z"/>
			<path fill="#FD7174" d="M75.0888,91.2091l1.1228-4.7536l0.8413-1.5667c0.2931-0.0669,0.5988-0.0881,0.9062-0.0589l4.483,0.4258
				c0.3299,0.0313,0.647,0.1197,0.9394,0.256l0.6281,2.0083l0.1943,4.5548c0.0259,0.5977-0.092,1.1907-0.314,1.6775
				c-0.1717,0.3757-0.4062,0.6871-0.6837,0.8883c-1.8154,1.3097-6.0841,0.9044-7.6206-0.7237
				c-0.2346-0.2499-0.4063-0.5999-0.5042-1.0012C74.955,92.3959,74.9509,91.7913,75.0888,91.2091z"/>
		</g>
	</g>
	<path opacity="0.3" fill="#F43A49" d="M106.1397,80.6943c-0.5105,0-0.6575-0.9845-0.8193-0.5296H81.842
		c-0.0225-0.0708-0.0501,1.1737-0.0839,1.1087l16.4013-16.4013c0.4361,0.2072,0.9719,0.1348,1.3329-0.2262
		c0.4586-0.4586,0.4586-1.2022,0-1.6608c-0.4587-0.4587-1.2023-0.4587-1.6609,0c-0.361,0.3609-0.4334,0.8968-0.2261,1.333
		L81.2041,80.7193c-0.0651-0.0338-0.1327-0.0614-0.2036-0.084V57.44c0.4549-0.1619,0.7826-0.5919,0.7826-1.1024
		c0-0.6486-0.5258-1.1744-1.1745-1.1744c-0.6486,0-1.1744,0.5258-1.1744,1.1744c0,0.5105,0.3278,0.9406,0.7827,1.1024v23.1953
		c-0.0708,0.0225-0.1385,0.0501-0.2035,0.0839L63.612,64.3179c0.2073-0.4361,0.1349-0.9719-0.2261-1.3328
		c-0.4586-0.4587-1.2022-0.4587-1.6609,0c-0.4586,0.4586-0.4586,1.2022,0,1.6608c0.361,0.361,0.8969,0.4334,1.333,0.2261
		l16.4013,16.4013c-0.0338,0.065-0.6099-1.1794-0.6324-1.1086H56.18c-0.1619-0.4549-0.5919,0.5296-1.1024,0.5296
		c-0.6486,0-1.1744,0.5258-1.1744,1.1744c0,0.6486,0.5258,1.1744,1.1744,1.1744c0.5105,0,0.9406-0.3277,1.1024-0.7827h23.1953
		c0.0225,0.0708,0.0502,0.1385,0.0839,0.2036L63.0579,98.8653c-0.4361-0.2072-0.9719-0.1348-1.3329,0.2261
		c-0.4586,0.4587-0.4586,1.2022,0,1.6609c0.4587,0.4586,1.2023,0.4586,1.6609,0c0.361-0.361,0.4334-0.8968,0.2261-1.333
		L80.0132,83.018c0.0651,0.0338,0.1328,0.0615,0.2036,0.084v23.1953c-0.4549,0.1619-0.7826,0.592-0.7826,1.1024
		c0,0.6486,0.5258,1.1744,1.1744,1.1744c0.6487,0,1.1745-0.5258,1.1745-1.1744c0-0.5105-0.3278-0.9406-0.7827-1.1024V83.102
		c0.0708-0.0225,0.1385-0.0501,0.2035-0.0839l16.4014,16.4013c-0.2073,0.4362-0.1349,0.9719,0.2261,1.3329
		c0.4586,0.4586,1.2022,0.4586,1.6609,0c0.4586-0.4587,0.4586-1.2022,0-1.6609c-0.361-0.361-0.8969-0.4333-1.333-0.2261
		L81.758,82.4641c0.0338-0.065,0.0615-0.1327,0.084-0.2036h23.1953c0.1619,0.4549,0.5919,0.7826,1.1024,0.7826
		c0.6486,0,1.1744-0.5258,1.1744-1.1744C107.3141,81.2201,106.7883,80.6943,106.1397,80.6943z"/>
	<path fill="#FFFFFF" d="M106.1397,78.9903c-0.5105,0-0.9406,0.3278-1.1024,0.7827H81.842
		c-0.0225-0.0708-0.0501-0.1385-0.0839-0.2036l16.4013-16.4013c0.4361,0.2072,0.9719,0.1348,1.3329-0.2261
		c0.4586-0.4586,0.4586-1.2022,0-1.6609c-0.4587-0.4586-1.2023-0.4586-1.6609,0c-0.361,0.361-0.4334,0.8969-0.2261,1.333
		L81.2041,79.0154c-0.0651-0.0338-0.1327-0.0615-0.2036-0.084V55.7361c0.4549-0.1619,0.7826-0.5919,0.7826-1.1024
		c0-0.6486-0.5258-1.1744-1.1745-1.1744c-0.6486,0-1.1744,0.5258-1.1744,1.1744c0,0.5105,0.3278,0.9406,0.7827,1.1024v23.1953
		c-0.0708,0.0225-0.1385,0.0501-0.2035,0.0839L63.612,62.614c0.2073-0.4361,0.1349-0.9719-0.2261-1.3329
		c-0.4586-0.4586-1.2022-0.4586-1.6609,0c-0.4586,0.4587-0.4586,1.2023,0,1.6609c0.361,0.361,0.8969,0.4334,1.333,0.2261
		l16.4013,16.4012c-0.0338,0.065-0.0614,0.1327-0.084,0.2036H56.18c-0.1619-0.4549-0.5919-0.7826-1.1024-0.7826
		c-0.6486,0-1.1744,0.5258-1.1744,1.1744c0,0.6487,0.5258,1.1745,1.1744,1.1745c0.5105,0,0.9406-0.3278,1.1024-0.7827h23.1953
		c0.0225,0.0708,0.0502,0.1385,0.0839,0.2035L63.0579,97.1613c-0.4361-0.2072-0.9719-0.1348-1.3329,0.2262
		c-0.4586,0.4586-0.4586,1.2022,0,1.6609c0.4587,0.4586,1.2023,0.4586,1.6609,0c0.361-0.361,0.4334-0.8969,0.2261-1.333
		l16.4012-16.4013c0.0651,0.0338,0.1328,0.0614,0.2036,0.084v23.1953c-0.4549,0.1619-0.7826,0.5919-0.7826,1.1024
		c0,0.6486,0.5258,1.1744,1.1744,1.1744c0.6487,0,1.1745-0.5258,1.1745-1.1744c0-0.5105-0.3278-0.9406-0.7827-1.1024V81.3981
		c0.0708-0.0225,0.1385-0.0501,0.2035-0.0839l16.4014,16.4013c-0.2073,0.4361-0.1349,0.9719,0.2261,1.3329
		c0.4586,0.4586,1.2022,0.4586,1.6609,0c0.4586-0.4587,0.4586-1.2023,0-1.6609c-0.361-0.361-0.8969-0.4334-1.333-0.2261
		L81.758,80.7602c0.0338-0.0651,0.0615-0.1328,0.084-0.2036h23.1953c0.1619,0.4549,0.5919,0.7826,1.1024,0.7826
		c0.6486,0,1.1744-0.5258,1.1744-1.1745C107.3141,79.5161,106.7883,78.9903,106.1397,78.9903z"/>
</g>
</svg>
