<svg xmlns="http://www.w3.org/2000/svg" viewBox="0 0 79.781 106.33"><defs><style>.cls-1{fill:#f2e9e4}</style></defs><g id="Group_73" data-name="Group 73" transform="translate(-961 -1334)"><g id="_051-wedding-invitation" data-name="051-wedding-invitation" transform="translate(897.081 1334)"><g id="Group_61" data-name="Group 61" transform="translate(97.297 31.823)"><g id="Group_60" data-name="Group 60"><path id="Rectangle_620" data-name="Rectangle 620" class="cls-1" d="M0 0h3.153v8.122H0z"/></g></g><g id="Group_63" data-name="Group 63" transform="translate(106.485 34.077)"><g id="Group_62" data-name="Group 62"><path id="Rectangle_621" data-name="Rectangle 621" class="cls-1" transform="rotate(-65.178 5.765 3.686)" d="M0 0h8.121v3.153H0z"/></g></g><g id="Group_65" data-name="Group 65" transform="translate(84.988 34.076)"><g id="Group_64" data-name="Group 64"><path id="Rectangle_622" data-name="Rectangle 622" class="cls-1" transform="rotate(-24.822 3.006 .661)" d="M0 0h3.153v8.121H0z"/></g></g><g id="Group_68" data-name="Group 68" transform="translate(63.919)"><g id="Group_67" data-name="Group 67"><g id="Group_66" data-name="Group 66"><path id="Path_53" data-name="Path 53" class="cls-1" d="M115.086 16.029V0L65.447 15.965a1.629 1.629 0 0 0-.165.064h-1.363v90.3h69.91v-90.3zm-3.153-11.7v11.7H75.545zm18.743 98.851h-63.6v-84h63.6v84z" transform="translate(-63.919)"/></g></g></g><g id="Group_70" data-name="Group 70" transform="translate(73.109 45.988)"><g id="Group_69" data-name="Group 69"><path id="Path_55" data-name="Path 55" class="cls-1" d="M159.7 235.936a14.51 14.51 0 0 0-4.15-10.237 14.146 14.146 0 0 0-10.174-4.255 14.455 14.455 0 0 0-11.44 5.591 14.457 14.457 0 0 0-11.44-5.591 14.146 14.146 0 0 0-10.174 4.255 14.512 14.512 0 0 0-4.15 10.237 15.2 15.2 0 0 0 1.876 7.412l.087.175c3.383 6.853 22 22.331 22.8 22.986l1 .832 1.005-.829c.017-.014 1.526-1.26 3.733-3.164 2.074 1.835 3.655 3.147 3.673 3.162l1 .832 1.005-.829c1.232-1.016 12.1-10.048 14.1-14.265l.054-.114a10.375 10.375 0 0 0 1.2-4.768 9.484 9.484 0 0 0-1.412-5.017 15.041 15.041 0 0 0 1.407-6.413zm-4.044 14.842l-.056.118c-1.307 2.758-8.534 9.206-12.245 12.341-.85-.723-2.16-1.853-3.615-3.161-6.429-5.783-8.179-8.248-8.651-9.2l-.032-.066a6.87 6.87 0 0 1-.887-3.444 6.187 6.187 0 0 1 6.193-6.313 6.3 6.3 0 0 1 5.592 3.382l1.4 2.655 1.4-2.655a6.316 6.316 0 0 1 6.309-3.341 6.122 6.122 0 0 1 4.176 2.366 6.346 6.346 0 0 1 1.315 3.9 7.283 7.283 0 0 1-.898 3.418zm.272-11.028l-.072-.051-.1-.074q-.156-.112-.316-.216l-.085-.056q-.2-.126-.4-.241l-.091-.05q-.166-.093-.336-.178l-.111-.055a9.612 9.612 0 0 0-.426-.195l-.041-.017q-.2-.083-.4-.156l-.121-.043q-.193-.068-.39-.127l-.064-.02a9.217 9.217 0 0 0-.456-.12l-.118-.027q-.186-.042-.373-.075l-.112-.021a9.161 9.161 0 0 0-.47-.067l-.092-.009q-.2-.021-.4-.034l-.133-.008a9.785 9.785 0 0 0-.486-.014 9.44 9.44 0 0 0-6.987 3.077 9.441 9.441 0 0 0-6.987-3.077 9.225 9.225 0 0 0-6.645 2.784 9.447 9.447 0 0 0-2.656 5.741q-.045.466-.045.94a9.913 9.913 0 0 0 1.213 4.84l.032.065c.054.109.115.223.181.34l.021.037c.064.112.134.228.209.346l.036.057q.112.176.241.362l.045.065q.131.189.278.387l.045.059c.1.138.21.278.324.423l.029.036q.177.223.37.458l.014.017c.129.156.265.316.406.479l.051.06c.137.158.28.319.427.483l.071.079q.221.245.457.5l.079.085q.241.259.5.527l.067.07c.179.187.363.377.554.571l.03.031q.29.294.6.6l.039.039q.3.3.622.611l.089.086.638.613.108.1q.327.311.669.632l.11.1q.35.327.715.663l.029.027c-.971.836-1.788 1.528-2.375 2.022-5.854-4.93-18.562-16.225-20.975-21.114l-.088-.178a11.962 11.962 0 0 1-1.549-6.012A11.136 11.136 0 0 1 122.5 224.6a11.32 11.32 0 0 1 10.045 6.073l1.4 2.655 1.4-2.655a11.32 11.32 0 0 1 10.045-6.073 11.137 11.137 0 0 1 11.171 11.34 11.707 11.707 0 0 1-.632 3.811z" transform="translate(-108.173 -221.444)"/></g></g><g id="Group_72" data-name="Group 72" transform="translate(125.583 5.345)"><g id="Group_71" data-name="Group 71"><path id="Path_56" data-name="Path 56" class="cls-1" d="M360.843 25.739v3.153a14.982 14.982 0 0 1 14.965 14.965h3.153a18.138 18.138 0 0 0-18.118-18.118z" transform="translate(-360.843 -25.739)"/></g></g></g></g></svg>