<?xml version="1.0" encoding="iso-8859-1"?>
<!-- Generator: Adobe Illustrator 19.1.1, SVG Export Plug-In . SVG Version: 6.00 Build 0)  -->
<svg xmlns="http://www.w3.org/2000/svg" xmlns:xlink="http://www.w3.org/1999/xlink" version="1.1" id="Layer_1" x="0px" y="0px" viewBox="0 0 48 48" style="enable-background:new 0 0 48 48;" xml:space="preserve" width="48px" height="48px">
<path style="fill:#388E3C;" d="M17.204,19.122l-4.907,2.715C12.113,21.938,12,22.126,12,22.329v5.433  c0,0.203,0.113,0.39,0.297,0.492l4.908,2.717c0.183,0.101,0.41,0.101,0.593,0l4.907-2.717C22.887,28.152,23,27.965,23,27.762v-5.433  c0-0.203-0.113-0.39-0.297-0.492l-4.906-2.715c-0.092-0.051-0.195-0.076-0.297-0.076c-0.103,0-0.205,0.025-0.297,0.076"/>
<path style="fill:#388E3C;" d="M42.451,24.013l-0.818,0.452c-0.031,0.017-0.049,0.048-0.049,0.082v0.906  c0,0.034,0.019,0.065,0.049,0.082l0.818,0.453c0.031,0.017,0.068,0.017,0.099,0l0.818-0.453c0.03-0.017,0.049-0.048,0.049-0.082  v-0.906c0-0.034-0.019-0.065-0.05-0.082l-0.818-0.452C42.534,24.004,42.517,24,42.5,24S42.466,24.004,42.451,24.013"/>
<path style="fill:#37474F;" d="M35.751,13.364l-2.389-1.333c-0.075-0.042-0.167-0.041-0.241,0.003  c-0.074,0.044-0.12,0.123-0.12,0.209L33,20.295l-2.203-1.219C30.705,19.025,30.602,19,30.5,19c-0.102,0-0.205,0.025-0.297,0.076  h0.001l-4.907,2.715C25.113,21.892,25,22.08,25,22.282v5.433c0,0.203,0.113,0.39,0.297,0.492l4.908,2.717  c0.183,0.101,0.41,0.101,0.593,0l4.907-2.717C35.887,28.106,36,27.918,36,27.715V13.788C36,13.612,35.904,13.45,35.751,13.364z   M32.866,26.458l-2.23,1.235c-0.083,0.046-0.186,0.046-0.269,0l-2.231-1.235C28.051,26.412,28,26.326,28,26.234v-2.47  c0-0.092,0.051-0.177,0.135-0.224l2.231-1.234h-0.001c0.042-0.023,0.088-0.034,0.135-0.034c0.047,0,0.093,0.012,0.135,0.034  l2.23,1.234C32.949,23.587,33,23.673,33,23.765v2.47C33,26.326,32.949,26.412,32.866,26.458z"/>
<path style="fill:#2E7D32;" d="M17.204,19.122L12,27.762c0,0.203,0.113,0.39,0.297,0.492l4.908,2.717  c0.183,0.101,0.41,0.101,0.593,0L23,22.329c0-0.203-0.113-0.39-0.297-0.492l-4.906-2.715c-0.092-0.051-0.195-0.076-0.297-0.076  c-0.103,0-0.205,0.025-0.297,0.076"/>
<path style="fill:#4CAF50;" d="M17.204,19.122l-4.907,2.715C12.113,21.938,12,22.126,12,22.329l5.204,8.642  c0.183,0.101,0.41,0.101,0.593,0l4.907-2.717C22.887,28.152,23,27.965,23,27.762l-5.203-8.64c-0.092-0.051-0.195-0.076-0.297-0.076  c-0.103,0-0.205,0.025-0.297,0.076"/>
<path style="fill:#37474F;" d="M47.703,21.791l-4.906-2.715C42.705,19.025,42.602,19,42.5,19c-0.102,0-0.205,0.025-0.297,0.076  h0.001l-4.907,2.715C37.114,21.892,37,22.084,37,22.294v5.411c0,0.209,0.114,0.402,0.297,0.503l4.908,2.717  c0.184,0.102,0.409,0.102,0.593,0l2.263-1.253c0.207-0.115,0.206-0.412-0.002-0.526l-4.924-2.687C40.052,26.412,40,26.325,40,26.231  v-2.466c0-0.092,0.05-0.177,0.13-0.221l2.235-1.236h-0.001c0.042-0.023,0.088-0.034,0.135-0.034c0.047,0,0.093,0.012,0.135,0.034  l2.235,1.237c0.08,0.044,0.13,0.129,0.13,0.221v2.012c0,0.086,0.046,0.166,0.121,0.209c0.075,0.042,0.167,0.042,0.242-0.001  l2.398-1.393c0.148-0.086,0.24-0.245,0.24-0.417v-1.88C48,22.085,47.886,21.892,47.703,21.791z"/>
<path style="fill:#37474F;" d="M10.703,21.791l-4.906-2.715C5.705,19.025,5.602,19,5.5,19c-0.102,0-0.205,0.025-0.297,0.076h0.001  l-4.907,2.715C0.114,21.892,0,22.084,0,22.294v7.465c0,0.086,0.046,0.166,0.121,0.209c0.075,0.042,0.167,0.042,0.242-0.001  l2.398-1.393C2.909,28.488,3,28.329,3,28.157v-4.393c0-0.092,0.05-0.177,0.13-0.221l2.235-1.236H5.365  c0.042-0.023,0.088-0.034,0.135-0.034c0.047,0,0.093,0.012,0.135,0.034l2.235,1.237C7.95,23.588,8,23.673,8,23.765v4.393  c0,0.172,0.091,0.331,0.24,0.417l2.398,1.393c0.075,0.043,0.167,0.043,0.242,0.001C10.954,29.925,11,29.845,11,29.759v-7.464  C11,22.085,10.886,21.892,10.703,21.791z"/>
</svg>
