<?xml version="1.0" encoding="iso-8859-1"?>
<!-- Generator: Adobe Illustrator 19.1.1, SVG Export Plug-In . SVG Version: 6.00 Build 0)  -->
<svg xmlns="http://www.w3.org/2000/svg" xmlns:xlink="http://www.w3.org/1999/xlink" version="1.1" x="0px" y="0px" viewBox="0 0 48 48" style="enable-background:new 0 0 48 48;" xml:space="preserve" width="48px" height="48px">
<path style="fill:#D50000;" d="M0,15h48v17H24v3H13v-3H0V15z"/>
<polygon style="fill:#FFFFFF;" points="3,29 8,29 8,21 11,21 11,29 13,29 13,18 3,18 "/>
<path style="fill:#FFFFFF;" d="M16,18v14h5v-3h5V18H16z M24,26h-3v-5h3V26z"/>
<polygon style="fill:#FFFFFF;" points="29,18 29,29 34,29 34,21 37,21 37,29 40,29 40,21 43,21 43,29 45,29 45,18 "/>
</svg>
