<?xml version="1.0" encoding="UTF-8"?>
<!DOCTYPE svg  PUBLIC '-//W3C//DTD SVG 1.1//EN'  'http://www.w3.org/Graphics/SVG/1.1/DTD/svg11.dtd'>
<svg enable-background="new 0 0 2456 1652.9" version="1.1" viewBox="0 0 2456 1652.9" xml:space="preserve" xmlns="http://www.w3.org/2000/svg">
	<path d="m1493.8 52.9c1.2 0.9 2.2 2.1 2.3 3.6 0.9-0.1 1.8 0 2.7-0.3 1-0.8 1.2-2.8 2.8-2.7 1.4 1.8-0.8 7.2-2 8.5-1.6 1.7-0.1 4.1-1.4 5.9 0.3 0.1 0.8 0.4 1 0.5 0.4-0.2 0.8-0.3 1.2-0.4-0.1 0.3-0.3 1-0.4 1.3 1.7-0.3 3.2-1 5-1 0.5 2-0.2 3.9-1.3 5.4 0.3 0.4 0.7 0.8 1 1.1-0.5 4.3-2.4 3.8-0.8 6.5-0.5 2.2-2.2 4-2.2 6.3 0 2.8-2.7 4.7-2.8 7.5-0.1 1.6-2.1 2.2-2.2 3.8-0.2 2-1.4 3.9-3.4 4.6-0.3 1.5-0.6 3-1.9 3.9-0.1 0.9-0.1 1.7-0.2 2.6-0.5 0.4-0.9 0.9-1.3 1.3-0.1 0.9-0.3 1.9-0.4 2.8-0.5 0.3-1.1 0.7-1.6 1.1-0.1 1.1-0.2 2.5-1.3 3-1.7 0.9-1.5 3.4-3.4 3.9-1 2.4-2.7 4.8-5.1 5.8 0 0.6 0 1.3 0.1 1.9 0.8 0.1 1.7-0.1 2.5-0.4-0.4 0.4-0.8 0.7-1.2 1.1 1.7 0.2 3.2 0.8 4.8 1.2 0-0.3-0.1-0.8-0.1-1 1.1 0.1 2.2 0.1 3.3 0-0.5 0.2-1.1 0.5-1.6 0.7 1.3 0.2 2.5 0.5 3.8 0.8 0 0.4 0 0.8 0.1 1.2 3.5 0.4 6 3.5 9.6 3.3-0.3 0.1-0.9 0.3-1.1 0.4 2.8 3.7 0.8 0.6 1.8 6.7-0.8 0.5-1.5 1.2-1.3 2.2 0.2 3.3-2.3 5.9-3 9.1-0.5 1.6-5.2 3.7-6.2 3.7-1.5 0.1-2.3 1.7-3.5 2.4-0.9 0.3-1.8 0.5-2.7 0.8-1 0.7-2.6 3-6 2.6-2.9-2.4-3.5-6.4-4.6-9.8-0.7-3-2.6-5.5-3.5-8.4-0.7-1.5-0.7-3.6-2.5-4.3-0.9 1.4-2.1 2.7-2.7 4.2-0.7 0.1-1.3 0.2-1.9 0.3-2.7 5.3-4.5 2.7-6 5.6-5.1 0.6-2.5 0.3-6.4 3.7-14.5 6.9-17.5 6.9-22.6 7.2-0.4-0.5-0.8-0.9-1.2-1.4 1.2-1.2 1.9-3.2 0.4-4.4-6.4-2.4-5 2-12.1 3.9-0.2-0.3-0.5-0.9-0.6-1.1 0.9-2 3.2-3.1 3.5-5.4-4.9 0.7-6.9 2.6-7.9 0.9 0.8-2.2 5.7-3.7 8.6-8 1.5-1.1 2.5-2.8 4.2-3.7 1.5-2.2 3.8-3.8 5.2-6.1 2.7-5.8 6.1-8.8 9.4-11.7 1.1-0.4 2.3-0.5 3.4-1.1 0.8-0.4 0.6-1.4 0.8-2.1 0.3 0.2 0.5 0.5 0.8 0.7 0.7-1.1 1.9-2.3 1.5-3.7-0.9-2.2-2.4-4.3-2.3-6.8 0.1-3.9-7.2-9.6-8.2-11.1 1.8 0.1 3.6 0.2 5.2-0.7 2.2-0.1 5-0.5 6.7 1.3 1.1 1.1 2.5 2 4 1.2 0.1 0.1 0.2 0.3 0.3 0.4-0.2 0.2-0.5 0.5-0.7 0.6 1.4 0.5 2.8 1 4 1.9 1 0 2 0 3.1 0.2 2.5-4.2 0.1 2.2 6.9-12 0.9-1.8 1.4-4 2.9-5.5 0.8-0.9 1.6-1.7 2.1-2.8 1.7-1 2.4-3 4.1-4 0-0.5 0.1-1 0.1-1.5 0.4 0.1 0.8 0.1 1.2 0.2 1.4-2.9 18.8-18.2 21.2-28.4z"/>
	<path d="m969.4 74c2.3-0.6 1.8-3.7 4.1-4.4 0 2 0 4-0.6 5.9-0.5 0.7 0.7 1.3 1.3 0.9 1.8-1.5 3.3-3.5 5.2-4.9 0 1.2 0.2 2.5-0.5 3.6-0.8 1.1-0.6 2.7-1.5 3.8 0.8-0.1 1.6-0.3 2.4-0.4 1.1 2.1 0.3 4.4 0 6.6 3.1-0.4 1.1 4.2-0.4 6.8l1.5 0.9c-0.5 2.2-0.5 4.6-2 6.4 0.4 0.3 0.7 0.7 1.1 1 0.1 2.3-1.1 4.3-2.1 6.3 2.2 2.2 0.1 5.6-1.9 7.1 0 0.9 0.2 1.8 0.1 2.6-0.5 1.3-1.6 2.2-2.5 3.3-0.3 1 0.5 2.2-0.1 3.2-1 1.7-2.6 2.9-4.6 3.2-0.2 1.4 0.7 2.7 0.6 4.1-0.7 1.2-1.6 2.3-2.2 3.5-0.6-0.1-1.2-0.3-1.8-0.4-0.8 1.1-0.2 2.4 0.6 3.4-2.1 1.2-2 4.1-4.3 5-0.5 2.6 0.6 2.3-2.7 3.7-0.1 1.6-1.3 2.7-2.9 2.9-0.5 1.3-1.6 2.3-3 2.3-1.6 2.3-2.4 1.7-4.7 1.3 0.4 1.6 1.9 3 3.7 2.6-0.7 0.7 0.5 1.2 1 1.6 3.4 0.4 5.8 3.4 9.1 4.2 1.6 0.2 2.5 1.7 4 2.1 2.3 0.6 4.1 2.4 5.9 3.7 1.6 1.2 1.5 3.5 1.3 5.4-2.7 6.4-1.4 12.8-19.2 18.2-4.6 1.5-5.9-7.7-9.4-13.9-1.2-2.7-3.4-4.8-4.9-7.4-0.7-0.8-1.5-2.6-2.8-1.8-1.2 1.1-1.7 2.6-2.5 3.9-0.9 0.6-1.8 1.2-2.1 2.3-1.4 0.4-2.7 1.2-4.1 1.3-0.1 0.6-0.1 1.3-0.2 2-1-0.2-2-0.6-3-1-0.2 0.6-0.5 1.1-0.7 1.7-2-1.1-4.5-1.1-6.6-0.4-0.8 0.5-1.3 1.2-1.9 1.9-4.7-2.4-5.8 0.9-7.7-1.2-0.8 0.5-1.6 1.2-2.6 1.1-1.2 0.2-1.7-1.1-2.2-1.9-3.4 0.3-6.7-0.6-10.1-0.2-1.1 0-1.9-0.9-2.3-1.9-1.3 0.2-2.4 0.7-3.6 1-0.9-0.3-1.7-0.6-2.5-1 0.1-0.6 0.3-1.3 0.5-1.9-2-0.2-3.8 0.4-5.8 0.5-1.2-0.6-0.3-1.8 0.4-2.4-0.2-0.3-0.5-0.8-0.6-1.1-1.5 0.2-2.9 1.2-4.4 0.6 0.1-2 2.1-3 3.5-4.2v-1.6c-1.8 0.3-3.6 0.6-5.4 0.5 0.4-1.7 2.3-2.5 3.6-3.5 7.4-3.5 18.8-12.5 23-13.4 1.3-0.3 2.2-1.3 3.2-2.2 0.7-0.8 1.9-0.5 2.9-0.6 2 0.1 3.4-1.7 5.4-1.6 1.3 0 2.7-0.1 3.4-1.3 1.3-1.2 1.1-3.1 0.7-4.7-0.9-3.1-0.5-6.6-2.5-9.3-1.8-2.3-2.4-5.3-4.4-7.4-0.3-0.4-0.6-0.8-0.6-1.3 1.1 0 2.3 0.3 3.4 0.4 6.9-1.1 4.6-0.1 8.4 3.4 1.3 1.2 3.3 1 4.8 2.1 1.6 1.1 3.6 1.2 5.5 0.8 1-0.6 1.5-1.8 2.5-2.5 4-2.9 4.8-8.6 5.9-9.8 1.6-1.9 3.5-3.7 4.4-6 1.6-1 7.6-7.6 8.4-8.6-0.1-0.2-0.4-0.6-0.6-0.8 0.7-0.2 1.3-0.5 2-0.7 0.1-0.6 0.2-1.2 0.3-1.7 1.7-0.1 3.4-1.7 2.9-3.5 0.7-0.3 1.5-0.5 2.3-0.8v-1.6c1.2-0.5 0.7 0.4 5-4.3-0.2-0.2-0.7-0.5-0.9-0.7 2.9-0.1 4-3.3 5.5-5.4 0.4-1.7 2.3-3.3 1.6-5.4z"/>
	<path d="m2333.3 106.9c0.3 0.8 0.5 1.7 1.1 2.4 0.6 0.3 1.3 0.3 2 0.5 0.8 2.4-2 3.8-2.7 5.9-0.9 0.3-1.8 0.7-2.1 1.7 0.4-0.1 0.9-0.2 1.4-0.3-0.3 0.5-0.6 1-0.9 1.6 1.2 1.3 2.5 2.5 4.1 3.2-0.4 2.1-1.5 3.8-3.2 5 3.4 1.9-1.8 0.7-1.2 4.9 0.2 1.9-1.4 3.2-2.3 4.8-1.3 1.7-1.2 4.1-2.6 5.7-1.2 1.5-2.1 3.2-3 4.9-0.6 1.3-2.4 1.1-2.9 2.5-0.4 3-7.8 6.1-8.1 8.4-1.1 0.6-2.2 1.1-3.4 1.3-0.7 0.9-0.9 2.4-2.1 2.8-2 0.6-3.1 2.5-5 3.3-0.4 1.1-0.5 2.2-0.8 3.3 0.2 0.1 0.6 0.4 0.8 0.6-0.4 0.4-1.4 0.5-1.2 1.3 1.9 1.3 3.6 3 5 4.9 0.8 1.2 2.2 1.7 3.2 2.7 1 0.9 1.6 2.4 3.1 2.8 0 0.2-0.1 0.6-0.1 0.8 1.5 0.9 2.5 2.3 4.1 3.1 0.7 0.3 0.9 1.1 1.1 1.8 0.2 0 0.5 0.1 0.7 0.2 0 1 1.8 9.5-2.3 10.9-1.6 0.8-1.8 3.3-3.8 3.6-2.6 0.6-1.6 5.7-5.4 7-2.8 1.1-5.5 3.2-8.7 2.5-3.4-0.7-6.4 1.8-9.7 0.8-1-0.7-1.8-1.6-2.8-2.2-1.6-0.2-3.2-0.1-4.7-0.1-5-4.2 3.4-21.4-0.7-33.4-2.2-0.4-3.7 1.6-5.9 1.3-1.8 0.6-3.8-0.5-5.5 0.4-1.4 0.4-2.9 0.3-4.4 0.7-1 0.3-8.6-1.3-10.4-0.6-1.2 0.4-2.4 0-3.6 0-5.1 2.1-2.4 2.3-7.6 0.8-2.6 0.2-4.3 2-7-0.5-1.3-1.4-3.5-0.2-5.1-0.8-1.5-0.8-2.8-2.5-4.6-2.3-1.9 0-3.6-0.8-5.1-1.8-2.5-0.3-4.8-1-6.9-2.4-1.7 0.2-3.5 0.1-5-0.7 1-3.6 5.2-5.9 5.1-7.8-0.5-0.5-1-1-1.5-1.4-13.8 3-6.2 2.7-14.7 1.2v-1.3c2.1-0.8 4.2-1.5 6-2.9-1.5-0.7-3.2-1.2-4.5-2.2 0-0.2-0.2-0.6-0.2-0.9 8.5 0.1 6.8-1.5 15-2.9 0.2-0.5 0.3-0.9 0.6-1.4 0.4 0.1 0.8 0.3 1.3 0.5 1.4-0.4 2.9-0.7 4.4-0.8 0.1-0.3 0.2-0.9 0.3-1.2 6.4 1.4 6.3-2 11.2-1.8 0.6-1.4 6.3-1.3 9.7-2.7 4.5-0.3 9.1 0.2 13.6-0.3 1.8-1 4 0 5.7-1.2-0.7-0.1-1.3-0.2-2-0.2v-0.3c1.3 0.1 2.5 0.5 3.8 0.8 1.4-0.2 2.8-0.6 4.3-0.8 0-0.2-0.1-0.6-0.1-0.8 6.3-0.1 4.7-5 7.5-7.7 2.5-2.3 1-2.7 1.2-14 0.9-0.2 1.8-0.6 2.7-1.1-0.1 0.6-0.4 1.4 0.2 1.8 1.2-0.3 2.4-1.3 3.7-0.8 1.5 1.4 3.5 2.6 3.9 4.8-0.3 0.2-0.9 0.6-1.1 0.8 0.8 2.4 2.3 4.5 3.5 6.8l1.2-0.6c-0.2 0.2-0.5 0.7-0.6 0.9 3.9 2.5 1.7 0.9 7.9-2.2 1.7-0.7 2-2.9 3.8-3.6 1.6-0.8 2.3-2.6 3.7-3.7 0.8-0.6 1.7-1.2 2.4-2 2.1-0.4 3.1-2.6 5-3.4 1.5-1 3.5-0.7 5-1.9 2.2-1.2 15.1-8.4 16.2-9z"/>
	<path d="m2257.9 142.7c0.7-0.2 0.9 0 0.7 0.7-0.7 0.2-0.9 0-0.7-0.7z"/>
	<path d="m1348.1 296.2c2.8-0.4 5.6 0.1 8.4-0.1 1.8-0.2 3.4 0.8 4.9 1.5 0.2 0.8 0.4 1.5 0.6 2.3 2.5 0.7 4.6 2.1 6.5 3.9 2.5 1.1 5.2 0 7.8 0.5 3.4 0.6 5.7 1 15.5 1.9 4.1 1.1 10.2 3.9 12.8 3.8 6.7 4.6 12.5 3.8 11.8 8.6-2.5 2.9-6.5 3.8-9.6 5.7-1.5 1-2.2 3-4.1 3.3-1.5 0.4-2.8 1.5-3.9 2.5-2 6.4 1 9.4 3.9 9.4 2.1 0.3 3.4-1.6 5.3-2.2 0-0.2-0.1-0.6-0.1-0.8 0.5-0.1 1-0.1 1.5-0.2 0 0 12.7-11.4 13.8-12.6v1.8c1.2 0 2.3 0.1 3.5 0.2 0.5 1.9-0.2 3.7-0.3 5.6 0.6 0.1 1.1 0.2 1.7 0.4 0.3 2.3 0.8 4.5 1.5 6.7-0.4 2.1-0.6 4.3-0.5 6.5 0.1 2.5-1.8 4.7-1.1 7.2-0.9 1.4-1.5 2.9-1.6 4.6-0.2 2.3-2.3 4-2.4 6.3-0.1 2.1-2.4 3.3-2.3 5.4-0.1 4.6-3.8 3-4.5 6.7-0.2 0.1-0.7 0.4-1 0.5-0.4 1.8-0.6 4-2.3 5.1-0.5-0.5-1-0.9-1.4-1.4-0.5 1.3-0.3 3-1.7 3.6-1.7 0.7-2.6 2.5-4.2 3.2-1 0.3-1 1.4-1.3 2.2-1.6 0.3-3 1.4-4.5 2 0.1 1 0.3 2 0.6 2.9 0.4 0.1 0.9 0.3 1.3 0.4 1.2 1.8 11.6 7.9 12.4 8.9 0.4-0.1 0.8-0.1 1.2-0.2 0.1 0.5 0.2 1.1 0.4 1.6 1.5 0.3 6.9 4.9 4.9 7-1.6 2.1-1.5 5.1-3.5 6.9-1.2 1.6-3 2.9-2.9 5s-2.3 2.2-3.4 3.5c-0.6-0.1-1.1-0.2-1.7-0.3-0.2 0.7-0.3 1.4-0.4 2.2-1.9-0.3-3.5 1.2-5.4 1.1-1.3 0.2-2.7-0.4-4 0.3-2 1-4.2-0.2-6-1.2-0.3 0.7-0.5 1.4-0.7 2.1-5.8 0.3-4.9-7.8-5.7-12.4-0.4-5.2-2.2-10.2-2.6-15.4-2.3-0.1-2.5 2.9-3.5 4.4-1.1 0.2-2.1 0.8-2.9 1.5-1.6-0.3-3.5 0.4-3.7 2.3-1.4 0.6-2.9 0.8-4.4 0.9-0.9 0.5-1 1.7-1.7 2.3-1.5 0.7-3.1 0.5-4.7 0.6-0.9 0.8-1.6 1.9-2.7 2.4-1-0.3-1.8-0.9-2.8-1.1 0 0.4-0.1 1.1-0.2 1.4-0.5-0.1-0.9-0.2-1.3-0.3-0.9 1.6-2 3.3-3.6 4.2-1.9 0-4.1-0.2-5.6 1.3-1.7 1.6-4.3 0.2-6.2 1.2-1.1 0.5-2.2 1.1-3.4 1.4-1-0.1-2-0.5-3-0.7-2.2 0-4.4 1.4-6.5 0.6-1.6-0.7-3.1 0.7-4.8 0.7-1.6 0.3-2.9-0.5-4.4-0.9-1.7 0.7-3.5 1.2-5.4 1-1.2 0.2-1.7-1.1-2.2-2-2 0.4-4.1 0.7-6.2 0.5 0-1.1 0-2.2 0.1-3.3-1.2 1-2.9 0.9-4.4 1-0.7-0.3-1.6-0.8-1.6-1.6 1-1.6 2.8-2.4 4.5-3 0-0.4-0.1-1.1-0.1-1.5-2.2 0.4-4.6 0.8-6.8 0.6 0.3-0.7 0.3-1.6 0.8-2.1 2.2-1.1 4.3-2.1 6.7-2.7 1.7-1.5 3.9-2.1 6-2.8 0.2-0.6 0.5-1.1 0.8-1.7 2.7 0 4.6-2.2 6.6-3.8 2.1-2.3 8.9-4.9 9.6-7.7 0.8-2.9-0.1-5.9-0.1-8.8 0.4-56.4 13.5-57 23.6-61.8 0.1-0.5 0.2-1.1 0.3-1.6 0.5 0.3 1 0.6 1.6 0.9 0.1-0.6 0.2-1.2 0.4-1.8 2-0.4 4-1.6 5-3.4 1-6.5-6.1-16.8-6.6-17.8-0.7-2-2.9-3.4-4.4-5.3m34.4 55.5c-2.1 1.6-4.2 3.1-6 5 7 6.9 7.8 5 10.4 2.9 5-3.7 0.6-10.5-1.9-11.3-1 1-1.3 2.6-2.5 3.4m-18 10.5c-0.6 0.7-1.2 1.5-1.7 2.3-1.4 0.2-2.8 0.5-4.2 0.6 0.1 6.8-2.6 5.7-4.4 8.8-0.9 1.7-2.9 2.5-3.6 4.3-1.6 1.9-3.2 4-3.3 6.6 2.9 0.7 15.9-9.3 16.9-9.8 4.7-2.1 3.5-9.7 2.3-13.1-0.8 0.2-1.4 0.3-2 0.3z"/>
	<path d="m2046.8 328.4c0.5-0.7 0.8-1.7 1.8-1.9 0.1 1.5-0.6 2.9-1.1 4.2 2 0.5 2.8-1.8 4.5-2.2 0.7 4.1-4.2 5.7-5 9.2 1 0.1 1.9-0.4 2.5-1.3-0.2 0.7-0.4 1.4-0.5 2.1 1.1-0.6 2.1-1.3 3.1-2.1 1.4 2.9-1.7 5.2-2.4 7.9-0.5 1.9-1.8 3.5-2.8 5.1-1.3 2 1.3 1.5-3.9 6.9-0.1 5.4-2 3.5-3.2 6 0.3 0.2 1 0.5 1.3 0.6-0.9 0-1.7 0.1-2.6 0.2 0.6 5.8-3.9 4.9-4.7 8.7-0.8 2.7-4.4 2.9-5.4 5.4-1 2.3-3.5 3.3-5.6 4.2-0.9 2-2.3 3.7-4.4 4.5-0.3 0.8-0.5 1.7-1 2.5-1.5 1.2-3.9 1.4-4.4 3.4-0.6 1.5-2.2 1.8-3.5 2.4-0.7 0.6-1.1 1.6-1.8 2.2-0.8 0.2-1.5 0.1-2.2 0.2-3.1 5.1-3 1.3-4.7 4.8-2.4-0.5-3.8 1.8-6 1.8 0 0.2 0 0.7-0.1 0.9 2 0.9 2.6 3.1 3.8 4.7 0.3 0.8 1.3 0.5 2 0.7-0.2 0.4-0.3 0.8-0.4 1.3 0.9 0.6 1.8 1.2 2.8 1.7 0.5 1 1.2 1.9 1.9 2.8 0.1-0.3 0.4-0.8 0.5-1.1 0.5 0.7 0.2 1.3-0.3 1.9 1.5 0.3 2.2 2.1 3.8 2.2-0.4 0.2-1 0.6-0.7 1.2 0.8 0.7 1.8 1.2 2.7 1.9 0.8 1.2 2.1 2.1 3.3 3 0.5 2 0.2 4 0.1 6-2.1 0.2-1.8 2.8-2.9 4.1-1.3 1.6-2.3 3.4-3.2 5.3-1.3 1.2-3.3 1.4-4.9 2-1.3 0.4-2.5-0.2-3.7-0.6-4.5 5.9-8.5 4.4-10.6 4.5-0.7-1-1.6-1.7-2.7-2.2-7.7 4.3-5.1-6.7-7.3-15.4-0.2-2.5-1.6-12.4-4.9-14.7-1.3 1.8-3.1 3.2-5.3 3.8-1 0.8-6 3.1-8.9 3.3l-1.8 1.8c-6.8 0-1.2 1.8-8.7 1.2-1.5 0.5-1.7 2.6-5.9 0.5-3.1 4-4.7-0.1-6.9 1.9-1.7 1.1-3.8 1.9-5.8 1.6-2-0.5-3.6 1.2-5.5 1.2-6.2-1.5-2.9-0.4-7.9 0.1-1.1-0.1-1.9-1.2-3-1-2 0.2-4.4 1.3-6.2-0.1-2-2-4.8 1.8-9.1-1.9-2 0.1-4.2 0.9-5.9-0.3-2-1.3-4.5-0.2-6.6-0.8-2.7-2.9 4.6-1.7 6.8-6.5-0.9-0.1-1.7-0.2-2.5-0.2-0.3-0.5-0.6-0.9-0.8-1.3-0.6 0.8-1 1.7-1.9 2.2-2.5 0.8-10.9 1.5-9.6-0.6 3.5-0.7 7-1.8 9.9-3.9-3.5 0.7-7.1-0.1-10.2-1.6 8-2.8 6 4.1 47.4-18.4 10.9-7.5 24.1-8 34.4-13.4 3.4-19.9-1.6-14.9-0.5-27.3 0.9 0.3 1.8 0.4 2.8 0.2 1.6-0.4 3.1 0.3 4.7 0.8-0.1 0.4-0.1 0.8-0.1 1.2 0.2 0.1 0.7 0.2 0.9 0.2 0.1 1.9 1.6 3.2 2.8 4.5-0.5 1.8 1.4 2.7 2.5 3.8 1 0.6 6.5 6.4 8.6 6.1 0-0.3-0.1-0.8-0.2-1 2.5 0.2 4.4-1.9 6-3.7 2.1 0.1 3.2-1.8 4.7-2.8 1.1-1 3-1.5 2.9-3.3h1.5c0.4-0.6 0.9-1.2 1.4-1.8 0 0 10.1-6 11.3-6.4 1-0.6 24.8-10.6 33.5-18.7 1.4-1.4 2.8-2.9 4-4.4z"/>
	<path d="m2050.2 344.1c0.2 0.2 0.2 0.2 0 0z"/>
	<path d="m747.8 367.7c3.5-1.1 12.6 0.5 14 0.3 2.6 0.2 5.5-0.6 7.9 0.8-2.6 0.9-5.4 0.9-7.8 2.3v1.2c7.4-1 7.4 2.3 1.9 3.8-0.1 0.7-0.1 1.4-0.1 2.2-1 0.7-7 4.1-9 7.3l-14.1 12.9c-1 0.6-0.9 1.9-1.2 2.9-2.4 8.7-3 5.4-5 11.2-1.4 4.1 17.8 8.3 20 13.7 0.5 2.9-1.9 5-3 7.4 0.2 1.8 3.6 8.6-3.3 8.4-0.7 1.7-1.6 3.3-2.7 4.8-2.4-0.1-4.7 0.9-6.8 2-1.7-0.8-3.3-1.6-5-2.4-1.8 0.1-3.9 0.7-5 2.3-3.6 4.8-6.3-2.1-7.5-8.1-1.2-4.7-2.9-9.2-3.9-13.9-0.4-1.2-0.9-2.8-2.3-3.2 0 1.3 0.1 2.6 0 3.9-1.5 1.1-3.3 1.9-4.6 3.3-1.4 1.5-3.6 1.1-5.2 2.2-2.4-0.1-4.5-1.4-6.8-1.9-4.6-0.1-8.4 2.9-12.8 3.9-1.2-0.6-2.5-1.2-3.8-1.2-0.8 0.4-1.2 1.1-1.8 1.7-0.6 0.3-4.2-1.9-5-4.5-0.5-2.5-1.8-4.7-1.9-7.3-0.8-3.8 1.7-15 1.7-16.1 0.7-1.8 2.5-3.2 4.5-3.2-0.5-0.2-1-0.4-1.4-0.5 1.6-3.6 8.4-2 11.2-4.2 1.4-0.9 3.1-2.1 2.8-4-0.4-6.2-0.5-12.7-3-18.5-0.6-1.6-1.9-2.9-1.9-4.7 2.9 0.5 5.7 0.9 8.5 1.9 5.3 5.3 3.8 6.7 10.7 6.6 11.2-11.9 10.2-6.3 15.5-8.6 1.2-0.4 2.4-1.2 3.7-1.2 3.1 0.1 5.7-2.1 8.8-2.3-0.2-0.1-0.6-0.4-0.8-0.6 2.6 0.4 5.3-0.3 8 0.1 2.2 0.1 4.4-0.1 6.5-0.7z"/>
	<path d="m1822.7 435.5c0.9-1.7 1-4 2.9-5 0.9 0.9 1.1 2.3 0.7 3.5 1.1 2.5-1 4.9-1.1 7.4 3.5 0.2 5.4-6.7 9.4-7 0.3 3.5-2.2 6.4-3.4 9.6 0.4 2.1 0.3 4.1 0 6.2 1.8 0.1 3.5-1 5.3-0.4 0.4 1.7 0.2 3.3-0.4 4.9-0.6 1.3 0.7 2.2 0.9 3.5-0.6 1.7-1.8 3.1-2.2 4.9 0.3 0.7 0.6 1.3 0.9 2-0.2 1.7-1.6 2.9-2.2 4.4-0.1 1.3 1 2.5 0.4 3.7-0.5 1.7-2.3 2.9-2 4.9 0.3 1.8-1.3 2.9-2.3 4.2-1.2 1.1-0.3 3.1-1.6 4.2-1.5 1.3-1.2 3.5-2.2 5.1-0.5 1.6-1.5 2.8-2.5 4.1-0.5 1.4-0.8 3-2.3 3.7 0.1 2.2-2.4 2.8-3.4 4.4-0.6 0.9-1.6 1.2-2.6 1.5l-1.2 2.7c-1.6 0.1-3 0.8-3.8 2.1-1.7 0.4-2.7 1.8-3.9 3 2.5 0.9 11.2 1.9 12.2 2.1 5.1 2.6 9 0.1 12.2 4.6 0.2 7.1-0.7 14-5 19.6-0.2 1.9-0.8 3.6-1.5 5.4-3.9 0.5-3.7 6.5-11.4 4.7-0.5 1.1-0.8 2.6-2.1 2.9-10.3 3.7-3.6-0.1-10.9 2.4-14 1.7-6 1.2-9.9-23.1-2 1-2.3 3.3-3.3 5-0.5 1-7 7.7-12.7 7.1-1.2 0.8-2.6 0.7-3.9 0.7-0.3 0.6-0.6 1.3-0.9 1.9-1 0-2-0.3-2.6-1.2-2.2 0.4-4.6-0.3-6.6 0.9-1.6-0.6-3.3-1.8-5-1.2-1.2 0.4-2.2-0.5-2.7-1.4-1.3 0.6-2.8 0.8-4.1 0 0.4-1.5 0.6-3.2 1.4-4.6-0.5-0.7-0.6-1.8-1.4-2.2-1.6-0.1-3.2-0.1-4.7-0.4-1 0.5-8 5.4-7 0.8 1.4-2.4 4.8-3.5 5-6.5-1.4 0-2.7 0.5-4.1 0.7-1.9-0.1-3.9-0.2-5.8-0.3 1.3-3.6 6-3.2 12.1-7.1 16.2-11.2 14.9-13.6 20.8-15 1.3-3.6 6.1-4.4 4.9-11.5-2-10.9-2.1-5.4-8.3-16.5 0.9 0 1.8 0.2 2.7 0.4 6.3-3.1 8.9 2.2 10.7 2.5 0.7 1.9 2.6 3.1 4.1 4.3 8.5 1.7 7.8-8.1 21.8-22.1 11.3-12.8 19.6-22.4 22.6-30.5z"/>
	<path d="m1827.5 648.2c1.1 0.4 2.4 0.9 3.5 0.1 8.5 3 4.5 7.5 8.4 11.1 1.3 1.6 3.5 2 5 3.4 1.1 0.7 2.2 1.9 3.6 1.6 1.8-0.3 3.9 0.1 5.5-0.9 1.9-1.2 3.4-3 5.5-4 1.2 0 2 0.9 3 1.3 2.8 1 3.8 4.3 6.5 5.7 0 0.7-0.2 1.6 0.5 2.1 1.7 1.1 1.9 3.7 4.1 4-2.5 0.3 1.4 3.7 3.8 8.6 0.1 0.7 5.4 10.8 6.4 11.2 0.6 2.1 1.2 4.7 3.5 5.7-0.1 0.2-0.2 0.6-0.2 0.7 1.8 3.1 3.1 6.6 3.9 10.1-0.8-0.2-1.9-0.1-2.1-1-0.6-1.8-2.6-2.4-3.6-3.9-2.6-0.8-7.2-6.8-8.8-9-0.8-0.5-1.7-0.1-2.4 0.2-3.4 1.5-7.4-0.3-10.6 1.8 1.6 4.5 10.1 14.2 11.8 14.9 1.3 2.6 4.1 4 5.7 6.4 0.6 3.3 1.2 1.2-4 7.9-0.5 3.6-0.8 3-8.7 6.5-3 0.3-5.7-1.7-8.7-1-1.9-0.5-3.8-1.5-5.8-1.5-5-3.1-3.6-23.7-9.7-28.3-1.5-0.5-2.7 0.6-4 1.2-4 2.4-8.6 3.2-13.1 4.1-2.1-0.2-3.6 1.4-5.6 1.6-1.5 1-2.2 2.7-3.7 3.8-1.8 2.1-4.2 3.3-6 5.3-1.7 0.9-2.5 2.9-4.3 3.6-1.4 0.6-1.3 2.6-2.8 3.1-1.7 0.5-2.7 2-3.5 3.5-0.8 0.1-1.6 0.3-2.4 0.4-2.4 5-1.1 0.7-6.2 7.4-3.4-2 5.6-57.9 21.4-63.5 4.4-1.2 9.2 0.1 13.6-1.6 1.5-0.5 0.8-2.3 1-3.5-0.2-3.1 1-6.1 0.3-9.2 0-0.2-0.8-9.3-0.8-9.9z"/>
	<path d="m2346.5 709.3c1.9-0.3 3.3-1.5 4.8-2.6 0.1 0.3 0.4 0.8 0.5 1-0.3 0.5-0.7 1-0.9 1.5 0.6 0.1 1.3 0.1 2 0.2-0.2 2.5-2.5 4.2-2.5 6.7 0.1 1.5-0.7 2.7-1.5 3.9l0.3 1.2c-1.1 0.6-1 2.1-1.5 3.1-0.8 1.3-2.1 2.6-2 4.2l-1.2-0.6c0.1 1.5-0.7 2.8-0.9 4.3-1.3 0.1-2.5 0.9-2.7 2.2-0.3 1.7-1.8 2.7-3 3.7-1.3 1-2 2.7-3.5 3.4-1.8 0.7-1.6 3.2-3.3 4.1-8.3 4.8-15.5 13.4-18.3 13.6-0.7 1.4-2 2.1-3.5 2.5-2 1.4-4.3 2.1-6.3 3.5-0.2 1-0.7 1.9-1.3 2.8 0.6 0 1.3 0 2 0.1-0.8 5 16 10.1 16.6 15.1 0.3 1-0.9 1.3-1.4 1.9-1.5 0.8-1.3 2.8-2.8 3.7-3 8.4-1.4 0.9-7 8.7-1.5 1.1-3.3 1.7-4.6 3.1-1.4 0-2.9-0.3-4.2 0.3-2.6 3.3-8 3.4-10.8 0.5 0.3-1.3 0.5-2.7 0.9-4-0.3 0.1-1 0.2-1.4 0.2-0.1 0.7-0.2 1.4-0.2 2.1-7.6-3-11.4 4.5-7.4-12.7 1.9-12.3 1.2-11.6-0.5-15.2-2-0.2-3.6 1.2-5.6 1.2-1.3 0.5-8.9-0.1-10.6 0.7-1.6 0.6-3-1.2-4.7-0.7-1.5 0.6-2.8-0.7-4.2-1-1-0.5-1.6 0.5-2.3 0.9-0.9 0.8-2.1-0.4-3-0.5-2-1-4.3 0-6.2-1.2-1.8-1.3-4.2 0.5-6-0.9-2.1-1.2-5.1-0.2-6.6-2.3-4.5-0.3-4.1-0.4-6.3-2.9-1.9 0-4-0.6-5.1-2.3-1.1-2.1-4-1.7-5.5-3.4-1.5-2-4-2.5-5.7-4.3l2.7-0.6c-1-1.1-3.1-0.9-3.3-2.7 1.6 0.1 3.6 1.1 4.8-0.4-0.8-0.2-1.5-0.5-2.2-0.7 2.1-1 4.5 0 6.7-0.8 3.2-1.1 13.3-0.3 18.6-2.5 7.9-3.4 28.1 0.6 36.6-2.7 3.7-10.1 2-11.1 2.1-16.1 0.1-0.8 0.4-1.9 1.5-1.6 1.6 0.3 3.4-0.6 4.9 0.5 7.6 10.1 3.7 18.9 29.3-0.8 1-0.8 6-4 12.2-6 2.1-0.6 15-7.2 16-7.6 3.1-1.4 5.8-3.7 8.5-5.7-0.4 0.5-0.8 1.2-1 1.9z"/>
	<path d="m1873 709.3c0.2 0.3 0.2 0.3 0 0z"/>
	<path d="m663.5 782.3c0.6-1.2 1.2-2.4 1.9-3.6 1.3 1 0.9 2.8 1.1 4.2 2.3 0.4 4.5-0.7 6.6-1.4 0.8 6.2-5 6.1-4 12.3 1.1 2.3 4.1 1.3 6 2.6-0.5 5.1-1.3 2.9-2.4 6-0.8 4.8 1.2 1.5-2.6 7.3 1.1 2.1-0.2 4.3-1.2 6.2-1.5 2 2.3 3.9-3.5 8.8-0.3 2-0.9 4-2.6 5.3 0 1.8-0.3 3.9-2.1 4.7-2.6 0.8-2.2 4.3-5 7.8-1.1 1.3-1.4 2.9-2.2 4.3-0.5 0.9-1.3 1.6-1.9 2.5-0.3 0.9-0.3 1.8-0.8 2.7-0.8 1-2.2 0.5-3.3 0.7-0.2 1.1-0.5 2.3-0.8 3.4-0.8-0.1-1.5-0.2-2.2-0.4-0.1 0.3-0.2 0.8-0.2 1-0.9 0.6-1.5 1.6-2.2 2.4-1.1 0.6-2.6 0.5-3.2 1.7-0.6 0.9-1.7 1.1-2.7 1.4 0.2 1.2 0.4 2.4 1.2 3.4 0 0 22.1 12.6 22.4 12.7 0.6 8.4-3.9 12.7-4.2 13.9-1.1 0.6-1.9 1.5-2.2 2.7l-1.8 0.6c-0.1 0.6-0.1 1.3-0.2 1.9-1 0-1.9-0.3-2.8-0.9-0.7 5.7-9.6 6.5-12.7 4.1-3-2.2-3.4-6.1-5.1-9.2-1.6-3.5-7.6-12.5-8.2-13.5-0.3-0.8-1.4-1.4-2.1-0.7-1.2 2.6-3 4.8-5 6.8-1.2 2.1-3.6 2.8-5.7 3.6-1.2 0.3-1.8 1.4-2.8 2.1-1 0.5-2.2 0.6-3.1 1.4-1.8 1.7-4.4 1.7-6.4 2.9-0.2 1.4-0.9 2.6-1.7 3.7-1.1 0.1-2.2 0.2-3.2 0.7-0.7 0.6-1.2 1.4-1.9 2.1-7.3 3.9-2.2 3.8-8.5 3.7-2 0.6-3.6 2.8-5.8 2.1-6.1 4.7-4.5 1.9-7.8 3-0.7 0.5-1.2 1.1-1.9 1.6-1.1 0.4-2.2 0.1-3.3-0.1-1.2 1-2.9 1.5-3.8 2.9-0.6 0.9-1.9 0.3-2.7 0-0.6-1.3 0.2-2.8-0.3-4.2-1.9 1.2-4.1 2.9-6.4 1.6 0.6-2.5 2.3-4.8 2-7.6-2.4 0.5-4.8 1.6-7.3 1.1 0-0.3-0.1-1-0.1-1.3 1.1-0.7 2.4-1.2 3.4-2.1 2.3-3.1 17.8-24.1 18.8-26.5 2-1.8 5.5-8.1 13.1-13 2.1-0.6 13.1-8.1 14-11.7-0.1-1-3.5-13.3-9.6-17.9-0.6-0.5-1.4-0.8-1.3-1.7 2.3-0.8 5 0 7.2-1.3 6.2-0.6 8.1 6 12.2 6.6 12.3 1.1 8.9-2.8 20.4-12 2.5-2.8 3.6-6.8 6.6-9.2 1.7-1.4 2.8-3.5 4.5-4.8 1.7-1.4 3.5-2.8 4.6-4.7 2.5-1.3 14.5-12.8 15.2-13.8 5.4-4.5 6-7.3 9.6-8.9z"/>
	<path d="m1950.9 839.3c4.4 0.5 8.1 3.3 12.3 4.6 1.3 1.4 4.8 2 8 7.2 0.5 0.9 1.6 1.6 1.3 2.8-2 0.2-3.9 0.1-5.9 0.5-0.4 0.9-0.3 2.2-1.3 2.6-1.6 0.9-3.7 1-5.1 2.3-2.1 1.6-4.6 2.8-6.4 4.9-5.5 3.6-6.1 6.5-8.9 7.4-4.6 1.1-2.8 5.8-7.8 7-0.3 1.8-1.7 2.9-2.9 4-0.1 2-0.4 4.1 0.7 5.9 2.6 2.3 18.1 9.5 20.1 9.9 9.2 3.9 7.2 5.2 7.2 9.1-0.1 4.1-6.2 11.1-6.8 13.9-0.8 0.3-1.7 0.6-2.5 1-0.7 2.4 1 0.9-4.2 5.2-0.8 0.8-1.9 0.2-2.8 0.1-0.7 0.2-1.2 0.8-1.7 1.3-0.9 0-1.7 0.1-2.5 0.2-0.6 2.1-2.9 1.1-4.5 1.6-1.5 0.6-3 1.7-4.7 1.3-2.4-0.5-2.5 1.4-6.2-0.5-0.6 0.5-1 1.7-1.9 1.3-4.7-1.1-14.8 1.7-10.1-12.4 1.3-4.1 0.6-13.6 1.8-17 0.5-1.2-0.1-2.3-0.7-3.3-1 0.2-7.1-0.7-10.8 1.7-1.3 0.8-2.8 0.5-4.2 0.6-1.4 2-4.1 1.7-5.9 3.1-0.8 0.8-1.5 1.9-2.4 2.6-1.3 0.4-2.7 0.6-4 0.8-1.2 1.9-3.9 1.5-5.3 3.2-1.1 1.4-3.2 0.7-4.4 2-1.4 1.1-3.2 1.6-4.4 3-1 1.3-2.9 0.8-3.8 2.1-2.3 2-1 3.3-5.4 4-0.8 1.9-1.4 4.1-3.5 4.9-1.8-1.6-0.7-4.1-1.6-6.1-0.9 0.7-1.8 1.3-2.8 1.7-5.4-13.3 9.9-54.8 24.3-52.9 5.1 0.5 10.2-0.6 15.3-0.9 2.1 0 1.9-8.6-3.5-17.1-0.4-0.6-0.4-1.3-0.4-1.9 1.5-0.4 2.8-1.3 3.7-2.5 7.8-0.6 11.6 13.1 17.7 8.2-0.5-1.9 0-1.4 2-11.5 1.6-2 3.8-3.5 5.4-5.5 0.9 0.1 20.3-4.2 29.5-0.4z"/>
	<path d="m1764.7 900.9c1.4-0.1 2.8-0.1 4.3-0.2 0 0.6 0.1 1.2 0.2 1.8 3.8 2.9 1.4 1.5 4.6 7.6 1 6.6-1.1 6.2-1.1 15 0.1 1.4-1.5 2.3-1.4 3.8-0.1 2.1-0.2 4.3-1.7 5.9-1.6 1.7-1.6 4.4-3.5 5.9-1.6 1.8-2 4.4-3.3 6.4-1.1 1.4-0.1 3.2-0.1 4.8-0.4 1.5-1.6 2.7-1.8 4.3-0.3 2.3-3.3 7.2-5 7.8-0.3 2.6-2.9 3.6-4.2 5.7-0.7 1-1.8 1.5-2.8 2.1-0.1 0.5-0.2 1-0.3 1.6-2.3 1.9-5.1 3.1-8.1 3.4-0.3 1.2-0.4 2.5-0.6 3.7 0.4 0.3 11.3 4.9 12.1 5 2.9-9.7 10.6-11.4 20.3-10.8 2.1 0.8 4.3 1.8 6.1 3.2 1.9 2.4 4.2 5.3 1.4 10.7-1.1 3.4-2.1 6.9-3.5 10.2-0.9 1-6.1 9.5-5 15.1 5.5 3 14.7 1.6 15.7 1.6 2.2-0.2 4.7-1.3 6.7 0.2 1.5 2.2 0.5 5-0.2 7.3-0.8 2.2-0.4 4.7-0.9 7-0.9 4.4 1.6 6.2-3.8 8.9-0.6 2.2-1.9 4.4-4 5.4-1 0.4-1 1.7-1.4 2.5-1.8 0.5-3.7 1.5-5.5 0.7-1 1.6-2.6 3.9-4.8 3-2-0.7-3.5 1.7-5.4 1-2.2-0.6-8.1 1.3-11.6-0.8-1.1-1.9 1.7-23 1.9-24-0.7-0.4-1.4-0.8-2.1-1.1-1 0.1-9.9 2.2-13 1.1-0.3 0.6-0.6 1.2-0.9 1.9-0.7-0.1-1.4-0.2-2-0.3-1.2 1.2-2.8 1.7-4.4 2-1 0.7-2 1.4-3.2 1.2-1.6-0.2-3 1.2-4.6 0.8-2.1-0.4-3.8 1.3-5.9 1.3-1 0.1-2-0.3-2.8 0.3-1.6 1-3.7 0.2-5 1.6-0.5-0.4-1.3-0.5-1.5-1.1 0-1.5 0.5-3.1-0.3-4.5-1.1 1-1.9 2.2-2.9 3.3-5-3.1 7.6-21.4 11.2-36.6-1.3 0.1-2.5 0.3-3.7 0.6-0.3 0.6-0.6 1.1-0.9 1.7-2.8 0.1-3.8 3.3-6.4 3.9-1.5 0.3-2.7 1.2-3.9 2-1.2 0.3-2.5 0.1-3.4 1-1.1 0.7-2 2-3.4 1.7-2-0.4-3.3 1.9-5.3 1.4-1.8 0.5-3.4-1.9-5-0.6-2.2 1.7-5.2 1.6-7.2 3.5-4 3.4-10.7-3.5-12.7 4.7-7.8 0-7.8 2.8-11.5 2.1-2.3-0.5-4.7-0.1-7 0.4-1.2 0.3-2.1-0.9-3.3-0.8-1.1 0.1-2.1 0.2-3.2 0v-1.3c-1.6-1.2-3.3-2.2-4.9-3.3 0-1.4 1.4-2.3 2.1-3.4 0.8-0.8 0.8-1.9 1.1-2.9-3 0.9-6.2 1.3-9.3 0.8-0.1-0.2-0.2-0.6-0.3-0.8 2-1.3 4.4-1.7 6.7-2.4 11.7-2.9 37.7-29.3 44.8-32.1 1-0.8 10.6-4.6 17.1-10.5 2.5-1.1 4.7-3.2 5.4-5.9 3.1-11.1 1-5.9-0.3-11.8-0.7-2.5-2.2-4.6-3.5-6.8 0.9 0.3 1.9 0.6 2.9 0.7 8.6-3 8.1 5.6 14.9 7.1 2 0.4 3.9-0.9 4.6-2.7 1.7-0.2 2-1.6 8.5-8.3 0 0 5.9-8 7-9.6 1.6-2.1 4.1-3.1 5.7-5.2 0.1 0.1 18.3-18.7 18.5-18.9z"/>
	<path d="m892.4 977c1.7-1.7 3.2-3.6 4.3-5.7 0.7 1.5 1.2 3 1.7 4.6 2 0 3.6-1.4 5.6-1.5-0.2 3-1.2 2.7 1.7 5.8 0.5-0.1 0.9-0.2 1.4-0.2 0.9 2.2-0.3 4.5 0.6 6.7 1.2 3.2-2.5 12.1-2.4 14.4 0 2.4-0.9 4.5-2.2 6.5-0.7 8.3-3.8 10.8-4.9 15.7-0.5 2-2.2 3.3-4.2 3.8-0.1 2.1 0.3 4.3-0.4 6.3-3.4 1.2-0.5 2.8-3.9 5.5-1.2 0.9-1.2 2.4-1.8 3.7-0.7 0.8-1.7 1.2-2.4 2-0.6 0.9-1 2-1.5 2.9-0.8 0.6-1.8 0.8-2.7 1.2-0.3 0.8-0.7 1.6-1 2.4-1.9 0.4-3.4 1.6-4 3.5-1.1 0.4-2.8 0.3-3.2 1.7-0.5 1.5-2 2.4-3.5 2.2 0.3 0.8 0.4 2 1.5 2.1 4.2 1.8 23.1-3.2 25.6 11.3-0.3 1.3-1.1 2.4-2.2 3 0.2 1.5 0.7 2.9 1.3 4.3-1 1.4-1.4 3.2-3.1 4-1.2 0.4-1 1.1-0.9 6.4-1.1 0.9-2.4 1.6-3.7 2.1 0.1 1.5-0.2 3.1-0.5 4.6-3.7 1.3-2.4 2.9-4.2 3.7-1.3 0.7-2.2 2.1-3.8 2.2-1.8 0.5-3.5-0.3-5.3 0-1 1.3-2.1 2.6-3.4 3.7-1.8 0.7-3.7-0.4-5.4-1-1.3 1.3-3.1 1.8-4.8 2.1-2 0.3-3.3-2.6-5.2-1.3-1.4 0.5-3.1 1.5-4.4 0.3-1.2-0.6-2.2-2.2-3.7-1.6-1.1 0.4-2.2-0.3-3-1-3.8-4.2 1.5-13.3 2.9-24.6-0.6 0.7-1.1 1.5-1.8 2.1-0.9 0.5-1.9 0.6-2.6 1.2-3.3 3.9-3.8 1.2-5.4 5-6.9 1.8-2.1 3.7-8.6 3.6-1.1 2.1-3.7 2-5.7 2.2-2.1 5.1-6.2 0.5-8.3 0.4-2.1 7.8-5.9 3.1-7.8 5.2-1.3 1.2-3.1 1.1-4.8 0.9-1.8 0.3-3.4 1.6-5.3 1.4-1.3-0.1-2.6-0.7-3.8 0-1.9 1.5-4.4 0.4-6.5 0.5-2.1 0.5-4.3 1.6-6.5 0.7-1.7-1-3.2 1-5 0.6-1.4 0.2-2.3-1.2-3.7-1.3-1.5-0.3-3.1-0.2-4.7-0.2-0.5-1.1-0.5-2.3-0.5-3.5-1.9-0.1-3.9 0.1-5.8-0.1-2.3-0.9 2.5-2.5 1.1-5-1.2-0.9-2.6-1.3-3.5-2.4 0.4-1 1.7-0.8 2.5-1.2 1.9-0.9 4.2-1.1 5.8-2.6 1.2-1.2 2.5-2.2 3.9-2.9 0 0 27.9-21 28.1-21.1 6-3.6 12.7-6 18.1-10.4 1.8-1.6 3.2-3.7 5.3-5 1.7-1.4 5.3-2.5 1.8-12.5-0.9-3.7-1.5-7.6-3.2-11.1-0.8-1.8-2.7-2.9-3-4.9 6.9 1.2 5.3-0.7 10.1 0.8 3.9 2.8 6.6 6.9 10.8 9.4 2.3 0.6 4.7 0.7 7-0.1 17.8-13.8 9.4-13.7 28-31.1 1-1.9 2.9-2.9 4.3-4.5 1.3-1.2 2-3.1 3.7-3.8 0.2-0.4 0.4-0.9 0.6-1.3 3-2 5.5-6.2 7.3-6.5 0-2.1 2-2.9 3.2-4.3z"/>
	<path d="m416.6 984.7c3-1.6 6.5-1.2 9.7-1.7 13.4-0.5 8.1 0.8 16.7 2.6 1.6 0.3 2.8 2 4.6 1.8-0.2 0.1-2.9 3.7-7.1 6 0.1 2.9-3.9 8.8-5.7 10-0.1 4.1-7.7 11.4-8.1 17.3 0 2.6-2.8 4.2-2.8 6.7 1.3 4.8 20.7 7.5 24.5 9.9 0.5 1.1 0.7 2.3 0.8 3.5-0.7 1.2-1.8 2.4-1.6 3.9 0.6 1.8 1.9 3.4 1.6 5.4-0.5 1.9-1.9 3.6-3.9 4.1 0.1 0.5 0.2 1.1 0.4 1.7-2.5 3-1.3 4.1-7.1 4.7-1.2 2.6-4.4 2-6.5 3.2-5.3-2.6-3.4-4.4-18.3-18.1-1.9-2-10-0.7-12.6 4.5-0.2 0.7-2.9 4.3-4.2 5.2-0.7 1.6-2.2 2.8-2.7 4.5 0.5 1.9 0.9 3.9 0.2 5.9h-0.8c-2-2.1-3.4-4.5-5-6.8-10.9-10.4-8.4-9.3-13.9-23.1-1.4-3-0.8-6.3-1-9.4 0-2 2.1-2.9 3.7-3.3 0.4-1.3 1.1-2.6 0.8-3.9-9.6-13-10.4-11.9-15.1-15 0-0.2 0.1-0.5 0.2-0.6 1.6-0.5 3.3-0.4 4.8-1 1.8-1.3 4-1.7 6.1-1.6 1.6 1.1 3.3 2 5.3 2.2 2 2.8 5.6 3.1 8.7 3.7 3.3 0.1 6.4-8.6 6.5-11.2 0.2-2.4 2.2-4.1 4.1-5.2 3.9-1.5 7.1-4.8 11.5-5.1 2-0.3 4.3 0.2 6.2-0.8z"/>
	<path d="m110.3 1111c11.9-2.7 39.9 19.1 41.8 23.6-1.2 0.1-2.3-0.4-3.3-1 0.6 1.9 2.2 3.3 3.6 4.6v1.3c-2.6-1.6-5.8-1.3-8.5-2.8-2.7-1.4-5.8-1.8-8.8-2.6-5.6-1.1-4.2 4-9.7 7.5-1 0.5-0.7 2 0.2 2.5 8.4 9.3 23.6 7.7 17.5 15.5 0.6 1.7 0.5 3.6 0.4 5.4-3.3 2.4-2.6 1.2-4.6 5.5-2.5 0.2-5.1 0.2-7.6 0-0.9 2.4-4.5 7.1-8.3-0.2-1.3-2-1.1-4.8-3.3-6.2 0-1.6-0.7-3.1-2.2-3.7-0.1-0.5-0.2-1-0.3-1.4-1.7-0.5-2.4-2.2-3.8-3.2-1.9 0.1-2.9 1.9-4.5 2.8-1.9 1.1-3.8 3-3.6 5.4 0.9 3.8-1.1 7.7-0.3 11.5-0.3 1.8-0.5 3.5-0.3 5.3-1.2 1.6-1 3.5-0.6 5.3-0.5 0.2-1 0.5-1.5 0.8 0.4 1 0.7 2.1 0 3-1.8-1-3.5-2.1-5.4-3.1v3c-0.3 0-1 0-1.3-0.1-12.2-16.3-5.9-9.3-11.3-18.4-2.6-8.4-1.9-6.6-3.3-7.8 0.7-0.9 0-2-0.2-3-2.6-15.5-5.3-16.6 6.1-23.7 0.9-2.6 1.6-5.8-0.5-8.1-1-1.1-0.4-2.6-1-3.8-0.6-1.1-1.2-2.2-1.6-3.4-0.3-0.1-0.8-0.3-1.1-0.4-0.6-2.5-2.9-4.2-5-5.4 0-0.3-0.1-0.9-0.1-1.2 2.8-0.3 5.5-1.9 8.3-1.1 1.4 0.5 2.7 1.3 4.1 1.8 1.2 4.1 9.2 5.8 10.2 6.1 2-1.5 4.5-2.5 5.7-4.8 1.2-2 2.1-4.2 4.1-5.5z"/>
	<path d="m1420.5 1123.7c2.6-0.2 5.3-0.1 7.9-0.3 2.3-0.3 3.8 2 6.1 2.2 0 1.4 0.7 3.1-0.5 4.3-0.9 1.1-2.3 1.7-3.2 2.7-0.5 1.8 0.1 4-1.3 5.6-3.3 3.1-2.9 8.8-7 11.1-0.5 3.3-3 6.6-1.4 10 4.6 5.3 23.6 2.5 21.5 15-0.9 1.3-2.5 2-3.3 3.2 0.5 1.8 1.1 3.7 0.9 5.6-3 2.1-0.2 3-7 4.3-0.6 1.4-2.1 1.7-3.5 2.1-6.1 3.6-7.2-0.4-10.2-2.6-0.6-1-6-16.6-9.7-16.6-3.9 1.4-7.2 4.2-10.7 6.4-0.7 1.3-1.3 2.8-2.9 3-1.9 4.3-7.1 5.6-9.5 11.7-0.4 0.7-0.7 1.7-1.6 1.9-0.7-0.6-1.4-1.2-2.2-1.5-0.5 2.3-0.7 4.7-1.8 6.9-0.6-0.1-1.2-0.2-1.7-0.3-0.6 0.5-1.2 1-2 1.3-0.3-1.2-0.5-2.4-0.7-3.5-0.6 0.5-1.8 1.7-2.3 0.4-0.1-3.8-2.7-20 2.2-33 0.8-2.2 1-4.7 2.2-6.7 4.4-5.1 6.8-2.3 10.2-5.7 0.5-2.6-6.7-15.6-7.7-17 2.2-0.1 8.6-2.4 9.1 3.1 14.9 3.2 6.9 2.3 10.9-4.7 0.5-1.3 2-1 3.1-1.4 0.7-0.5 1.1-1.2 1.6-1.8 1.5 0 2.8-0.6 3.5-1.9 2.3-0.1 3.8-2.3 6.1-2.2 1.7-0.2 3.1-1.5 4.9-1.6z"/>
	<path d="m985 1125.2c0.4 0.8 0.7 1.7 1.5 2.3 1 0.1 1.8-0.4 2.7-0.8 1 6.7 0.8 2 3.1 8.7 0.2 1 1.3 1.3 2 1.9 1.7 2.3-0.4 5.6 1.4 7.8 1.2 2.2-0.5 4.7 0 6.9 0.8 1.3-1.1 17.6-3.2 21.1-1 1.4 0.1 3.3-0.6 4.8-0.3 1-1.2 1.7-1.8 2.6l-1.6 8.2c-2 2.8-2 1.1-2.3 5-1.4 0.9-2.3 2.1-2.8 3.7-2 1.6-2.2 4.5-4.5 5.8-1.3 2-3.7 3-4.7 5.1-0.8 2.1-3.3 2.7-5.2 3.4-1 6.9 19.9 7.2 27.4 15.2 0.8 1.6-0.1 3.4 0.5 5.1-1.1 1.6-1.8 3.4-2 5.3-0.9 1.9-1.4 4-2.7 5.6-2.8 1.3-5.8-0.3-8.7-0.3-1 1.5-2.5 2.3-4.1 2.8 0.8 2.8 0.6 5.8-0.2 8.7-1.8 0.9-4.1 1.2-6.1 0.8-0.9 0.6-1.9 1.2-2.9 0.8-1.9-0.6-4.2 0.4-5.8-1.1-3.1-3.6-7.1-20-7.1-21-0.3-6.3-4.7-5.6-6.6-1.2-2 0.8-2.9 2.9-4.8 3.6-1.6 0.7-2.2 3-4.2 3.2-0.3 0.5-0.6 1-0.9 1.6-1.8 0.2-3.6 0.7-4.6 2.3-30.3 11.3-26.4 11-29.9 10.5-6.1 4.2-5.7 1.3-7.6 1.2-7.3 3-4.4 2.1-7.9 0.6-1.9 0.3-3.7 1.6-5.7 1.4-0.9-0.3-1.5-1.3-2.3-1.8-1.4-0.3-2.8 0-4.1-0.3-1-0.4-1.9-1.2-3-0.8-1.7 0.5-3.4 1.1-5.2 0.9 0.3-1.4 1.9-1.9 3-2.7 0.1-1 0.3-1.9 0.5-2.8-1.4-0.5-2.8-0.5-4.2-0.5-0.1-0.2-0.4-0.6-0.5-0.9 15.7-5 31.3-29.1 44.7-35 4.9-1.8 15.7-10.3 16.5-11.6 2.7-7.2-8.8-20.4-9.3-21.4 5.1 1.1 8.3-3.4 11.4 0.5 2.2 2.4 4.2 5.4 7.5 6.2 1.9 0 4.2 1 5.8-0.5 3.6-3.1 7.9-10 8.6-11 4.9-14.6 28.4-37.9 30.5-49.9z"/>
	<path d="m2290 1135c1.2 0 2.4 0 3.6 0.1 0.8 1.6 2.3 2.7 3.3 4.2 1.1 1.5 2 3.3 3.9 4 2.1 1 3.8 2.6 5.9 3.5 2.5 0.6 4.4-1.6 6.4-2.7 4.2-2.1 5.5-8.6 19.2-5.8 13.1 4.7 20.4 5.7 29.4 16.3 0.8 1 7.8 6.3 9.3 9.5 0.9 1.3 0.3 3 0 4.4 0.7 1.2 2.4 2.9 0.7 4-4.5-7.6-14.8 0-15.9 0-1.7 0-3.5-0.1-4.9 1.1-1.5 1.2-3.7 0.5-5.2 1.7-1.8 1.2-3.7 2.3-5.7 3.1-0.7-0.3-1.3-0.7-2-1-0.6 0.4-1.1 0.9-1.7 1.3-1.7-0.1-3.7-0.3-5.1 0.8-1 0.7-2.2 1.1-2.9 2.1-0.8 2.2 12.1 9.8 17.4 11.3 1.8 0.8 4.3 1.8 4.3 4.2-0.1 0.2-3.7 8.9-4.1 9.5-6.9 6.6-4 5.9-10.4 8.9-4.8 2.1-7.4-4-9-6.5-4 2.6-0.4 4.5-1.6 9.2-3.2 7.6-15.7 4.3-23.7 2.4-0.4-0.8-0.9-1.5-1.2-2.3 0.9-7.7 2.7-13.2 1.8-21.9-0.8-1.4-2.5-0.3-3.5 0.1-1.2 0.7-2.6 0.5-3.9 0.6-1.5 0-2.7 1.2-4.3 1.1-2.3 0.1-4.5 0.7-6.6 1.7-2.8 0-4.8 2.2-7.5 2.3-1.4 1.2-3.3 0.7-5 1-1.8 0.7-3.5 1.3-5.2 2.2-0.5 0.8-0.5 1.7-0.7 2.5-0.9-1.5-2-4.7-4.3-3.4-0.7-1.4-1.1-2.9-1.4-4.4-0.8-0.1-1.5-0.1-2.3-0.2-1-2.8-1.5-1.3-0.5-15 0.5-0.9 1.5-1.6 1.7-2.7 0.5-3 0.4-6.4 2.7-8.6 1.6-1.5 1.1-3.9 2.3-5.5 4.7-6.7 6.1-5.6 5.2-8.2 1.9-0.6 3.4-2.1 5.5-2.4 4-1.4 8.4 0.3 12.4-1.4 0.1-1 2.2-9.5 1-13-0.1-2.6-1.7-5.2-0.3-7.6 0.9 0.2 1.9 0.4 2.9 0.6 0.2-0.3 0-0.9 0-1.1z"/>
	<path d="m2194.3 1168.6c0.4 1.1-0.9 1.3-1.6 1.2 0.7 1.2 1.5 2.3 2.1 3.5-0.6 0.1-1.2 0.2-1.7 0.3-0.1 0.3-0.3 1-0.4 1.3-2.1 0.3-4-0.7-5.9-1.3-2.1-0.7-7.1 2.5-8.6 2.6-8.9 1.1-7.6 2.3-12 7.1-1.1 1.2-1.3 3.2-2.9 4-1.2 0.8-2.9 1.1-3.9 2.1-0.1 6.4 17.1 10.9 13.7 18.1-2.8 5.9-1.6 5.2-5.2 6.1-0.3 0.7-0.6 1.3-0.9 2-13.8 4.7-12.4 2.5-16.2-8.1-0.8-2.2-2.3-9-5-7.1-8.9 4.3-4.7 8.4-12.5 24-0.2 2.5 0.3 5.1 0 7.7-2.1 0.4-2.5 3.1-5.3-0.3-0.6 0.1-1.2 0.2-1.7 0.3-7.6-13.2-8-40.2-7.8-41.2 2-7.1-1.1-5.2 4-7.3 11.4-5.2 7.8-8.4 7.4-12-0.1-3-0.3-6.1-1.7-8.9 0.3-0.7 0.6-1.3 1-2h3.3c3.5 3.4 3.6 7.8 9.8 7.8 1.2-1.4 2.5-2.7 3.1-4.5 1-2.1 1.3-4.7 3.1-6.2 7.8-5 39.8 4.5 45.8 10.8z"/>
	<path d="m449.4 1205.1c9.9 0 42 9.5 43.2 16.5-1.5-0.1-3.1-0.3-4.6-0.5 0.7 2.1 3.1 2.9 4.5 4.6 0.8 0.5 0.9 1.8 0 2.3-6.2-0.9-18-0.1-22.9 2.6l-0.3 2.1c-0.6 0.2-1.3 0.3-1.9 0.6-0.4 2-1.6 3.8-2 5.9-0.2 1.3-0.5 1.3-6.2 6.2 1.4 2.9 17.1 10.8 19.2 11.7 1.6 0.6 2.8 1.9 3.3 3.6-0.1 1.5-0.7 3-1.1 4.5s-0.1 3-0.4 4.6c-1.3 1.7-3.3 2.9-4 5-9.3 1.4-4.8 3.1-11.1 3.1-4.2 0.2-8.2-6.1-8.7-7.1-2.3-5-7.5-8.8-8.1-10-1.2 0.7-2.1 2-3.5 2.2-1.8 0.1-2.4 2.2-3.9 2.8-1.8 0.6-2.5 2.7-4.4 3-0.8 1.9-3.8 6-9.2 29.6-0.7 0-1.3 0.1-2 0.1 0.3 1.9 0.6 3.9 0.8 5.8-0.6 0.5-1.2 1.4-2.1 0.9-1.1-1-1.7-2.7-3.5-2.3l-0.3 1.8c-0.3 0-0.9 0.1-1.2 0.1-10.6-17.7-12.5-37.3-11.8-56.5 4.4-10.4 12-7.2 12.6-12.4-0.3-1-6.1-13.3-12.3-18.2 1.4-0.4 2.8-0.1 4.3-0.1 0.3-0.5 0.5-1 0.8-1.4 8-0.5 8.5 4.7 12.3 5.8 2.1 1.4 4.7 0.5 7.1 0.5 7.2-3.4 2.5-17.1 14.4-16.6 1 0 2-0.4 3-0.8z"/>
	<path d="m1689.6 1209.1c1.8-0.1 2.2-2 3.5-2.8-0.2 1.5-0.4 3.1-0.3 4.6 0.8-0.5 1.5-1.1 2.5-1.3 0 1.7-0.9 3.1-1.3 4.6-0.2 0.7 0.8 1.1 1.1 1.7-0.5 2-1.7 3.7-2.9 5.4-1.8 0.8-1.4 3.1-2 4.7 1.5 1.3 0.8 3.2 0.3 4.8-0.5 1.3 0.4 2.8-0.3 4.1-0.5 1.1-1.1 2-1.5 3.1-0.1 1 0.2 2.1 0 3.1 0 0-5.7 9.1-5.9 9.4-1.4 2.4-1.2 8-16.1 20.8 1.4 6.3 18 12 17.9 15.8-0.4 4.6-3.5 11.6-8.6 11.8-1.4 0-2.8 0.6-4.2 0.4-3.3-2.1-11.1-15.5-15.9-16.6-2.6 1.2-3.9 4.3-6.7 5.1-0.6 2.1-2.7 2.9-4.4 4-2 0.3-3.4 1.8-5.4 2-1.7 1.1-3.8 1.3-5.7 2.2-2.1 0.3-8.3 4.7-10.3 4.4-1.8-0.3-3.4 0.4-5 1-1 0.3-1.7-0.6-2.5-0.9-1.3 0-2.6 0.6-3.8 0.9-1.9-1.3-4.2-1.1-6.3-0.9-2.2 0.9-4.3 2.2-6.8 1.9 0-0.3 0.1-0.8 0.1-1.1-1.6 0-3.2 0.1-4.7 0.1 1.1-2.4-1.6-4.4-0.5-6.7 0.6-0.1 1.3-0.2 1.9-0.3 1.1-1.9 3.4-2.4 5-3.6l16.6-14.5s11.8-6.6 18.7-13c0-9.1-6.9-14.5-7.5-15.5 2.3 0.7 3.6-1.5 5.5-2 1.9 0.7 4.1 1.3 5.3 3.1 2.3 2.9 7.6 5.7 10.8 1 0.9-1.4 2.4-2.2 3.5-3.4 3-3.9 5.2-8.4 8.6-12 1.4-1.7 3.4-2.8 5-4.4 3.6-3.4 17.1-15.4 17.4-16.6 0.7-0.3 1.5-0.5 2.2-0.7 0.6-1.4 0.8-3.6 2.7-3.7z"/>
	<path d="m190.4 1206.9c1.7 0.1-1 8.8-1.5 10.4 4.5-1.8 5.5-5.9 8.8-7.5 0.9 5.4-6.7 10.3-7.1 13.3 7-3 5.5-4.7 9.5-4.9-0.1 1.6-1.5 3-0.7 4.6s-0.4 3-1.3 4.3c0 1.1 0.4 2.2 0.4 3.3-0.3 0.9-0.8 1.6-1.3 2.4 0.5 0.5 1.2 0.9 1.4 1.7-0.2 1.6-1.1 3-2.4 4.1 0.1 1.7-0.4 3.4-1.6 4.8 0.5 1.4 1.1 3.4-0.4 4.4-1.2 0.8-0.9 2.4-1.3 3.6-0.2 1-1.4 1.1-2.2 1.4 0.3 2.1-1.3 3.8-1.4 5.9-0.5 0.1-1 0.3-1.5 0.4-0.4 1.9-1.4 3.7-2.5 5.3-2.4 0.9-4.5 2.8-4.7 5.5-0.8-0.2-1.5-0.5-2.2-0.9-0.2 1.6-0.7 3.3-2.1 4.2-1.3-0.6-2.6-1-3.8-1.6-0.9 1-2.1 1.2-3.4 1.3 0.7 2 2.4 3.3 3.1 5.2 1.9-0.8 3.8 0.6 5.6 1.1 6.8 3.4 16.1 4.8 16.7 7.4-0.4 1.7-0.4 3.5-0.5 5.3-5.8 17.4-10.2 9-12.2 8.1-0.8 0.3-1.1 1.2-1.4 1.9 0.2 2.2 2.8 4.6 0.8 6.7-1.1 1.9-1.2 0.6-11.8 5.6-2.2 0.3-4.6-1-4.9-3.3 0-1.3-1.5-0.6-2.3-0.6-0.8-2.4-2.6-19.5-6-21.9-2.7-0.4 0.9 3.8 1.1 5.5-1.5 0.6-2.8 1.5-4.1 2.5 0.2 0.6 0.4 1.3 0.6 1.9-2.4 0.4-4 2.8-6.5 2.8 0.2 1.2 0.4 2.4 0.5 3.6-1.6 0.4-3.2 1.1-4.8 1.3-0.1 0.6-0.1 1.1-0.2 1.7-1.2 0.5-2.4 0.7-3.7 0.7-0.3 0.6-0.5 1.2-0.8 1.8-0.6 0-1.1 0.1-1.7 0.1-0.8 2-3 2.8-5 2.2-0.9 0.8-1.8 1.7-2.6 2.6-1.6 0.1-3.3-0.3-4.8 0.6-2.3 1.2-4.9 1.2-7 2.8-1.4 1.1-3.2 0.6-4.8 0.3-2.2 0.2-4.5 1.1-6.5 0-2.3-0.1-4.5 1.6-6.9 1-1.5-0.3-2.8 1.1-4.3 0.3 1.1-2.8 4.2-4.4 4.9-7.3-3.7 0.9-4.4 4.4-10.8 5.8v-1.2c4.6-4.4 10-10.3 10-10.3 1.6-2.8 4.4-4.6 6-7.3 1.4-1.9 2.1-4.5 4.4-5.4 0.6-1.6 7.6-7.7 8.5-9.3 1.9-0.7 2.4-2.9 4.1-3.8 5-3 6.2-2.4 11.2-9.5 6.9-7.1 2.3-7.6 2.5-15.1 0-1 0.9-5.2-4.5-11.8 2.3 0.2 4.4-0.5 6.6-0.9 9 2.6 6.4 18.5 17.5 4.1 2-2.2 3.1-5 5-7.2 3.4-3.2 6.7-6.4 10-9.7 14.2-9.8 16.7-19.3 20.3-24.3z"/>
	<path d="m323.9 1250.9c9.8-9.5 58 3.9 60 9.6-1.9 0.1-3.8 0-5.7 0.4 1.6 2.2 4.8 2.8 5.7 5.5-1.2 0.3-2.3 0.5-3.5 0.8 0.4 1.2 1.5 2 2 3.1-8.9 1.6-4.5-2.5-9.6 1-2.5-0.1-4.6 1.4-6.9 1.9-1.7 1.1-3.7 0.4-5.6 0.8-3.2 0.8-6.4 1.6-9.7 2.1-1.7 1.9-2.9 4.3-4.6 6.2-1.3 1.2-1.2 3.1-1.7 4.6-0.7 1.3-3.2 2.2-2.2 4 4.3 5.3 22.2 11.6 19.1 15-1.4-0.5-2.7-1-4.1-1.5 0.3 2.2 3.1 3.3 2.5 5.8 0 2.5-2.3 4.2-2.3 6.6h-3.5c-0.3 1.8-0.4 3.7-2 4.8-0.6-0.2-1.2-0.3-1.8-0.4-0.3 0.5-0.6 1.1-1 1.6-1.9 1.3-4.6-0.1-6.3 1.6-0.6 0.7-1.3-0.3-1.9-0.6-0.7-0.6-1.7-0.7-2.5-0.9-0.3-0.5-0.7-1-1-1.5-3.3-0.6-5.9-7.9-6.3-8.9-1-2.6-3-4.6-3.8-7.3-1.9-0.4-4-0.2-5.4 1.2-1.3 1.3-3.3 1.6-4.3 3.1-0.2 1.8-0.7 3.6-1.9 5-1.9 6.2-1.8 13.2-3.8 17.4-0.5 1 0.1 2.2-0.2 3.3-0.3 0.6-0.7 1.2-1.1 1.8 2.3 8.7 2.2 6.7 1 8.5-0.8-0.7-1.7-1.3-2.8-1.1-0.3 0.8-0.2 2.3-1.4 2.4-1.8 0.4-2.8-2-4.7-1.4-0.1 1.2-0.2 2.3-0.3 3.5-2.5-0.4-6.5-10.3-7.8-13.9-1.3-2-2.4-4.3-3.3-6.5-2.5-14.6-6.1-14.7-5.5-34.9 0.1-11.6 15.4-9.1 15.4-18 0-1-3.4-12.9-4.8-15.3-0.7-1.3-1.9-2.4-1.9-4 1.3-0.2 2.6 0.1 3.8 0.2 0.7-0.3 1.3-0.7 2.1-0.8 5.5 1.6 3.9 2.1 6.7 5.6 1.9 1.2 3.7 2.8 5.8 3.6 1.6 0.6 2.2-1.3 3.4-1.8 2.6-0.9 3.8-8.3 7.7-12.2z"/>
	<path d="m1000.8 1279c16.7 3 24.9 7.6 24.9 7.6v1.4c-0.9 0.3-1.9 0.5-2.8 0.8-0.5 1.3 1.8 1.5 1.8 2.7-0.1 0.7-0.4 1.3-0.6 2-1.6 0.3-3.7-1.2-4.8 0.4-1.2 0.9-1 2.4-1.2 3.7-2.8 0.3-5.4 1.6-8.2 1.2-2.6-0.3-4.5 1.7-6.8 2.5-4.1 1.3-5 8.5-5.7 9.6s-1.3 2.3-1.7 3.6c-0.5 1.4-1.9 2.3-2.5 3.7 0.4 0.1 12.5 5 12.9 5.1 18.8 4.6 6.2 12.4 6.8 17.8 0.2 1.7-0.5 3.5-1.6 4.8-0.9 0.8-2.7 0.5-2.8 2.1-0.4 2-2.3 3.1-4.1 3.9-1 0.1-2-0.6-3-0.1-10.9 5.2-8.1 2.7-13-5 0 0-6.7-12.1-7.2-13.1h-1.6c-0.8 1.7-2.6 2.4-3.9 3.7-1.3 1.4-3.5 0.7-4.9 2-1.1 0.7-1.8 1.8-2.7 2.7-0.7 0.7-1.7 0.9-2.5 1.5-1.2 2.2-1.8 4.7-2.8 7-3.4 2.1-6.7 15.6-10.9 20.6-0.9 0.9-0.6 2.2-0.7 3.3-0.6 0.2-1.2 0.4-1.8 0.5-0.9-0.8-1.6-2-2.9-2.1-0.4 1-0.8 2.2-2 2.6-6.9-15.4-9.9-46.3-2.2-57.7 1.4-0.7 2.6-1.6 3.6-2.7 3.1-0.8 5.8-2.9 7.6-5.6-0.5-2.1-5.2-12.1-6-14-1-2.3-3.3-3.8-4.3-6.1 4.4-0.2 7.3-2.4 9-0.1 1 1.3 2.7 1.9 3.6 3.2 1.2 1.8 3.6 1.7 5.3 2.6 4.6 0.9 4.6 2 7.5-6 0.9-2.7 0.8-6.2 3.4-7.9 5.1-4.4 23.3-3.4 28.8-2.2z"/>
	<path d="m1829.4 1306.6c3.4-0.4 7-0.2 10.1-1.8 0.8 0.5 1.8 0.8 2.4 1.6 0.2 1 0 2.2 0.6 3.2 1 0.6 2.2 0.8 3.3 1.2-0.3 2.3 0.7 4.3 1.5 6.3-0.6 1.8-1.1 3.7-2.3 5.2-0.9 1-0.4 2.6-1.3 3.6-2.4 2.9-3.9 6.4-6.7 9-1.6 2.2-5.4-0.5-6.8 2.1-0.7 2.7-1.4 5.4-2.3 8-5.4 5.1-0.5 1.7-5.1 4.8-0.6 0.8-1 1.7-1.4 2.6-3.9 0.3-1.8 2.9-5.7 3.3-0.2 0.5-0.3 1.1-0.5 1.6-0.6 0.2-1.1 0.5-1.6 0.7 2.3 4.5 21.8 2.1 25.9 8v3.6c-0.7 1.9-1.8 3.8-1.4 5.9-0.9 0.8-1.5 1.8-1.5 3-0.6 0.3-1.2 0.5-1.7 0.8-0.3 3 1.3 5.2-3.6 7.7-1.4 5.7-0.7 3.7-8.2 10-1.2 1.3-3.3 0.2-4.5 1.4-6.1 5.6-5.2 2.2-8.1 3.1-1.9 0.2-3.1 2-4.8 2.5-7.4-0.3-9.9 1.2-11.2-1.2-3.4-5.2-1.5-19.4-3.1-24.2-2.5 0.3-0.6 1.4-4.3 2.9-0.4 1-0.8 2.1-2 2.5-1 0.3-4.7 5-7.2 5.3-1.2 0.1-1.5 1.4-2.4 1.9-0.8 0-1.6-0.2-2.4 0-0.4 0.5-0.7 1-1 1.6-1.6 0-4-1-4.9 0.9-1.2 1.3-0.3 3.5-1.7 4.8-1.4 1.7-3.9 1-5.4 2.5-1.6 1.6-4.2 1.3-5.8 3-3.4 1.1-7.1 1.4-10.5 2.8-0.9-0.4-1.3-1.4-2-1.9-1.2-0.5-2.4-0.1-3.6-0.3-1.3-1.6-0.9-4-2.4-5.5-1.8-1.8-3.2-4.3 0.5-9.7 1.9-2.9 9-26.2 14.9-32.4 1.3-1 3.4-1.3 3.7-3.2 20.1-6.6 10.3-15.1 5.2-29.9 1.5-0.5 2.7-1.8 4.4-1.5 5 0.6 1.8-0.2 9.4 6.3 5.1 3.9 3.5 3.4 8.6 3.4 0-0.2 0.1-0.6 0.1-0.8 1.8-0.3 2.9-1.8 4.3-2.9 5.3-4 5.7-8.5 8.3-10.4 3.4-2.6 7.9-2.8 11.5-4.8 1.8-1 3.9-1 5.8-1.5 1.3-0.3 2.3-1.4 3.7-1.2 2.4 0.4 4-2.1 6.5-1.9 2.4 0 4.3-1.9 6.7-2z"/>
	<path d="m2009.7 1314.2c2.8-1.7 4-4.9 6.4-7 0 2.1-1.1 4-1.1 6.1 1.7-0.4 2-2.8 3.9-2.6 0.1 0.3 0.4 0.8 0.5 1-0.8 1-0.9 2.1-0.8 3.3 0.6 0 1.2-0.1 1.8-0.1 0.5 1.9-0.8 3.5-1.2 5.3-0.1 1.1 0.3 2.1 0.3 3.2-0.5 3.2-1.8 0.7-2.4 9.9-0.5 0.2-1 0.5-1.4 0.7-0.5 8.9-3.2 6.4-5.2 9.4-0.7 1.8-0.7 4.3 1.2 5.5 5.3 2.7 2.1 11 13.4 15.2 5.4 0.5 16.9-2.8 19.9-4.5 18.5-13.2 36.9-17.9 46.5-32.7 4.9-9.4 4.2-11.8 6.4-13-0.1 3.9-0.5 7.8-1.9 11.5-0.7 1-1.7 1.8-2.1 3 4.4-0.6 10.2-10.6 11.9-11.3 1.4 1-0.3 2-1.2 6.1-5 6.2-2.8 5.3-1 5.1 1.4 0.1 2.2-1.2 2.6-2.4l-0.3 1.5c-0.5 0.3-1 0.6-1.5 1 0.3 0.2 0.7 0.5 1.1 0.8h-0.8c0.3 1.9 0.6 3.7 1.1 5.6-0.8 11.2 1.4 6.5-1.1 10.3-1.3 1.8-2.1 4-2.8 6.1-0.9 1.4-2.4 2.7-2.5 4.5 0.3 0.8 0.8 1.5 1.3 2.2-0.8 2-2.3 3.6-4 5-0.9 0.6-0.1 1.5 0.2 2.2 1.7 2.4-3.5 4.4-4.3 5.9-0.1 1.3-0.2 2.7-0.4 4-1.3 0.6-2.7 1-4.1 1.4-1.2 1.4-0.7 3.7 0.9 4.6 5.9 0.7 5.4-1.4 14.3 2.1l-0.6 1.8c1.3 1.1 3 1.2 4.6 1.9 0.7 0.6 0 1.5-0.1 2.3-0.4 0.9-0.2 1.8-0.1 2.8-0.8 0.5-1.7 0.8-2.5 1.1-1 1.2-2.2 2.3-3.2 3.6-0.7 0.1-1.4 0.2-2.1 0.3-1.7 3.2-6.8 1.6-8 5.2-0.9 3.2-6.4 6.9-7.1 8.7-0.8 2.3-3.1 3.6-4.2 5.7-1.7 1.9-1.4 4.6-2.7 6.7-1.1 1.7-1.2 7.8-1.2 9.9 2.3 2 5.5 2.3 8.2 3.7 13.6 6.8 14.1 6.5 15 5.4 2.3-2.4 26.6-23 30.6-30 1.5-2.8 3-5.4 4.4-8.3-0.1 2-1 3.9-1.5 5.9 2.5-1.5 3.8-4.3 5.9-6.3 0.1 0.9 0 1.7 0 2.6 0.5-0.2 1-0.3 1.5-0.4-0.2 1.8-1.4 3.6-0.7 5.4 1 2.3-0.8 4.6-1.3 6.8 2.1 2.4-0.4 5.3-1.5 7.5 0.3 1.6 1 3.4 0 4.8-0.4 0.7-1.2 1.4-0.9 2.4 0.1 0.9 0.5 1.9 0.3 2.9-0.7 1.4-1.8 2.7-2.2 4.2 0 1.5 0.1 3.2-1.1 4.4s-0.9 3.1-1.3 4.6c-0.9 1.4-1.9 2.9-3.4 3.5-0.3 1.7-0.1 4.1-2 4.9-0.2 1.1-0.2 2.3-0.5 3.5-0.3 1.3-1.9 1.7-2.1 3-0.3 1.3-1.4 2-2.1 3-0.6 1.1-0.5 2.6-1.7 3.3-0.8 0.4-5.4 7.1-6 7.8-0.8 0.9-5.9 4.9-5.8 6.2 0.1 1.7 0.7 3.5 2.2 4.3 1.6 0.9 2.1 2.7 3.4 4 8.5 8.7 17.7 14.7 15.3 21.9-0.8 1.3-1.8 2.5-2.8 3.6-8 2.8-10.8-2.7-11.8-3.7-10.3-11.9-6.5-7.9-18-16.5-0.5-0.3-1.7-1.1-1.9-0.1-0.5 2.6-3.2 8.2-5.8 9.9v1.4c-4.2 1.8-6.3 7.4-13.1 10.2-1 1.9 1.3 0.8-5.1 1.8 0 0.5 0.1 1 0.2 1.5-1.8 0.6-4.2 0.8-5.3 2.6-0.8 1.2-2.1 2.2-3.6 2.3-3.1 0.2-3.9 4.5-7.4 1.4-1.4 0.5-2.4 1.6-3.3 2.6-1.5 0.8-3.3 1.1-5 0.6-1.2 1.2-2.7 2-4.4 2.5l-2.1-1.2c-5.6 4.9-6.5 1.3-9.3 2.6-1.8 0.3-4.1 1.9-5.5 0-1-1.4-2.4 0.1-7.4-0.1 0.5-1.6 2.7-2.1 2.8-3.8-2.2 0.8-4.5 1.1-6.9 0.8 1.4-1.8 7.4-2.7 7.8-5.4-2.5 0.4-5 1.6-7.6 1.1 11-5.5 9 1.4 33.8-28.2 6.9-10 23.9-18.2 25.3-24.4-0.2-2.5-2.9-3.3-4.3-5-1.9-2.7-4.9-17.4-5.1-21-0.3-1.6-0.1-3.9-1.9-4.5-6.5 0-15.9 4.8-16.9 5.2-2.1 0.7-2.7 3-3.8 4.6-1.2 0-2.3 0.1-3.4 0.2-0.6 1.5-1.6 3.3-3.3 3.8-2.3 0.4-3.1 3.5-5.7 3.1-2.5 3.9-0.1 3.2-7.2 12.6-0.6-0.1-1.2-0.3-1.8-0.4-0.8 1.3-1.3 2.8-1.7 4.3-1.2 0.1-1.9-0.7-2.7-1.4-0.5 0.9-1.1 1.7-1.9 2.4-1.3-2.3-0.9-5.2-2.1-7.5-1.1 0.8-1.8 2-2.9 2.8-2.9-6.8 0.3-37.2 8.9-51.2 1.8-3 1.8-6.6 3.1-9.8 3.1-7.3-0.7-10.8-2.1-10-0.2 1.4 0.1 3.3-1.5 4.1-1.7 0.6-2.1 3-4.1 2.7-2.1-0.2-4.2 0.8-4.7 2.9-2.2 0.2-4.4-1.3-6.6-0.5-0.1 1.2 0.1 2.5-0.3 3.7-3.7 2.2-4 0.5-7.9 0.8-0.7 0.7-1.1 1.8-2.1 2-2.7 0.8-5.5 1.1-8.3 1-1.2 0-2.1-1.6-3.3-1-0.8 0.6-1.5 1.4-2.2 2-1.8 0.1-3.6-0.9-5.2 0.1-2.5 1.5-5.3 0-7.9 0.5-2.1 0.4-4.2 0.3-6.3-0.1v-1.6c-2.2-0.9-4.4 0.8-6.6 0.3-0.7-0.1-1.5-0.3-2.2-0.3-0.7-1.4-1.7-3.1-3.5-2.7-2.9 0.9-5.8 0.1-8.8-0.1-1.4 1.8-3.7 0.2-5.5 1-1.2 0.6-2.5 0.3-3.6-0.2-1.2 0.8-2.4 2.1-3.9 2-1.7 0.1-3.6-0.3-4.9 1-1.5 1.4-3.7 0.5-5.6 0.9-1.7 0.6-3.5 1.2-5.3 1.1l0.3-2.1c-2.1 0.6-4.1 1.4-6.3 1.5 1.1-1.9 3.4-2.7 4-5-2.6 0.4-4.8 2-7.5 2 1-2.3 8-4.3 9.1-7.9-1 0.1-6.1 2.2-10.1 1.5 2.2-1.7 10.6-2.9 14.4-7.6-0.9-0.3-1.8-0.7-2.7-1.1 1.6-0.1 3.3-0.1 5-0.1 0.8-1.5 2.2-2.5 3.8-3 0-0.2 0-0.6-0.1-0.8 4.2-2.5 13.3-14.2 15.4-15.1 0-0.5-0.1-1-0.1-1.5 1-0.5 10-6.3 18.4-14.6 0.9-4-2.3-12.2-4.8-17.2-0.3-1 1-0.6 1.5-0.7 1.7 0.1 3.5-1.2 5.2-0.1 1.5 1.2 2 3.3 3.6 4.3 1.8 1.1 4.2 1.2 6 2.5 4.7-1.4 12.5-12.1 18.9-18.8 5.6-5.7 22.6-15.1 28.5-31.3 0.4 2 0.3 3.9-0.1 5.9m-6.6 47.9c-0.5 2-2.6 3-3.2 4.9-2.2 0.5-2.4 3.1-4.3 4-1.2 0.6-1.7 1.9-2.7 2.7-8.2 6.6-8.4 6.4-8.2 7.8 3.8 1.9 17.5-6 19.6-8.4-0.1-3.7 0.4-7.4 0.4-11.1-0.6 0-1.1 0-1.6 0.1z"/>
	<path d="m1595.2 1308.3c1 0 11.4-0.6 19.2 0 2 0.2 3.4 1.9 5.5 1.9 2.6-0.1 4.6 2.1 7.2 2.3 0.1 0.8 0.2 1.7 0.3 2.5 0.9 0.6 2.3 1.2 2.4 2.5-2.3 1.5-5.4 0.7-7.7 2.2-0.1 0.9-0.2 1.8-0.2 2.7-1.8 1.1-3.7 2.2-5.6 3.3-4.1 0.6-6.3 4.9-10.1 6.3-0.1 0.5-0.3 1-0.3 1.5-1.7 1-4 1.8-4.4 4-0.7 2.5-2.8 4.3-3.6 6.8-1.4 2.2-2.4 4.6-2.5 7.2-0.4 1.4 16.3 13.3 18.1 15.5 0.9 4-1.9 5.7-2.6 8.9-0.3 0.1-0.8 0.3-1.1 0.4-0.3 0.7-0.7 1.4-1 2.1-2.2 0.3-4.1 1.2-5.9 2.4-3.4 0.6-8.5 4.1-11.9-2.8-8.8-19.3-9.8-18-12.1-18.8-2.6 0-5.1 0.6-7.5 1.5-3.1 2.4-6.4 4.8-9.1 7.6-0.8 2.4-2.3 4.4-3.5 6.6-1-0.1-1.8-0.8-2.5-1.4-1.7 0.4 0.6 6.2-1.8 7.8-1.4-1.4-1.6-3.4-2-5.2-0.6 0.7-1.1 1.4-1.7 2.1-6.6-18.1-4.4-34.6-2.2-38.5 4.3-6.4 8.8-3 13.2-3.5 3-0.2-3.7-11.6-4.8-13.3 1.2 0.1 2.3 0.3 3.5 0.6 0.2-0.5 0.5-1 0.8-1.5 8 1.4 1.9 1.3 10.7 6.6 0.9 0 1.8-0.2 2.7-0.3l1.8-2.7c0.8-1.9 0.5-4.2 2.2-5.6 1.5-1.6-0.1-4.4 1.9-5.6 1.9-1.1 3.4-2.6 4.9-4 1.6-0.5 3.4 0 5.1-0.3 1.2-0.6 2.7-1.9 4.6-1.8z"/>
	<path d="m470.7 1385.2c0.6 0.8 1.1 1.6 1.5 2.6 2.2 0.7 2.2-0.1 2.8 3.9l1.2 0.9c0.2 1.7 0.5 3.5 1.7 4.9-0.2 2-2 3.6-1.5 5.7 0.3 1.7 0.1 3.5 0.7 5.1 0.1 1.8-0.4 3.6 0.2 5.4 0.4 0.9 0.1 1.8-0.2 2.6-0.6 1.3 0.3 2.6 0.1 4-0.4 0.5-0.8 0.9-1.2 1.3-0.2 3.5-1.6 7-0.7 10.5-1.4 1.1-1.6 2.8-2 4.4-2.3 2-0.7 2.4-4 5.2 0.1 0.8 0.1 1.5 0.2 2.4l21.5 1.1c1.6 1.9 3 1.7 1.6 6.8 4.5 6.2 0.1 5.5 0 10.3-0.2 2.2-1.9 3.7-2.7 5.7-0.8 2.5-3.4 3.5-4.6 5.7-1.9 1.3-4.4 1.8-6.7 2-0.4 0.6-0.8 1.3-1.3 1.8-3.6 0.6-5.1-1.3-10.6-9.9-0.9-1.4-2.2-2.5-3-4-1.1-1.6-1.6-3.5-3.2-4.7-2-0.9-0.9 1.9-4.2 3.6 0.5 2.9-0.2 0.6-1.8 4-0.4 1-1.6 1.4-2.5 2 0 1.9-1.8 2.4-3.2 3.1-1.1 1.3-1.9 3-3.8 3.1-2.4 0.2-2.7 3.3-4.9 4-1.4 0.5-2.5 1.4-3.3 2.7-2.6-0.2-3 3-5.4 3.5-1.5 0.2-2.3 1.6-3.6 2.3-0.9 0.1-2-0.5-2.8 0.2-1 0.7-2.1 1.2-3.4 1.1-1.8-0.1-3.1 1.5-4.9 1.4-2.4-0.2-4.8 1.3-7.2 0.3-0.9 1-2.2 1.4-3.5 1.3-0.4-0.7-0.5-1.6-1.1-2-1.3 0.2-2.6 1.3-3.8 0.5 1.3-2.5 2.3-5.2 2.9-8 4.9-13.4 0.9-2.2 10.5-18 2.4-5.8 4.6-5.1 17.9-19.1 0.4-1.1 0.3-2.4-0.4-3.2-3.7-4.8-7.8-14.3-12.4-15 0.7-1.5 2.5-1.6 3.9-1.3 0.1-0.3 0.2-1 0.3-1.4 2 0 4.3-1.3 6 0.3 2 1.1 3.1 3.6 5.6 3.7 8 0.9 7 1.7 9.6-1.4 1-1.2 0.5-2.9 1.2-4.2 0.5-0.4 1.2-0.5 1.8-0.8 0.8-8.7-0.8-9.5 2.7-10.7 0.1-1.1-0.1-2.1-0.3-3.2 0.5-2.4 2.2-4.2 4-5.7 0.9-1.6 1.8-3.1 3.1-4.3 3.4-12.2 6-7.6 7.6-9.1 1.7-1.5 3.7-2.3 5.6-3.4z"/>
	<path d="m669.9 1402c-1.4 2.2-3.1 0.6-7.7 2 1.1 2 4 1.4 5.5 2.9 0 0.5 0.1 1.1 0.1 1.7-7.9 0.9-18.5 8.9-23.7 10.9-1.2 3.1-6.2 12.8-8.3 15.4 0.5 3.9 11.9 3.3 21.8 10.2 0.5 0.4 0 1.1 0.1 1.7-0.5 1.4 1.4 2.3 1.1 3.6-0.2 1.5-0.7 3.1-0.4 4.7 0.5 2.6-1.6 5.2-4.2 5.6-2.1 7.4-4.3 3.7-8.1 4.6-3.4 1-5.2-5.1-8-6-1.6-4.5-7.1-7.5-7.8-8.5-1.2-1.6-2.8-3.3-5-3.1-0.4 0.7-1 1.2-1.6 1.7-3 2.1 0.7 2.1-7.4 5.8 0 0.1-6.5 15.5-7.4 22.2-0.6 1.9 0.4 4-0.7 5.8h-1.3c-0.4-0.7-0.8-1.5-1.3-2.2-0.8 1.6-0.2 3.3-0.3 5-0.3 0-1 0.1-1.3 0.1-4.8-5.9-11.7-22.5-11.4-45.3 0.1-9.1 14-8.4 12.2-13.2-1.8-4.6-3.3-9.9-7.7-12.8 1-0.4 2.1-0.8 3.2-0.8 0.7-0.6 1.3-1.4 2.2-1.7 1.7 0.2 3.5 0.6 4.7 2 1.7 1.6 5.6 7.4 7.9 2.3 3.9-11.2-1.3-11.3 11.7-15.9 7.2-2.7 32.2-3 43.1 1.3z"/>
	<path d="m589.1 1409.7c-0.2 0.9-0.6 1.8-0.6 2.8 2.3 3.2 0.5 1.5-5.2 4.8-9.1 5.7-6.3 3-10.3 5-1.3 1.7-1.6 3.9-1.9 6-0.4 3.5-1.8 6.9-3.2 10.1-0.4 1.1-1.9 0.6-2.8 1.2-0.3 0.8 0.1 1.6 0.1 2.4 2.2-0.3 4.5 0.3 6.4 1.3 4.1 2.8 14.4 1.2 17.8 4.5 0.1 1.6-0.1 3.3-0.9 4.8 1.2 2.6 1.9 2.3 0.8 9.7-1.1 1.6-2.6 3-3 5-2.2 1.2-4.2 2.7-6.7 3.2-1.7 0.3-2.5 2.1-4 2.8-1.2 0.6-2.3 1.3-3.5 1.9-2.5 0-3.8-2.4-4.9-4.3-2.8-5.5-7-10-7.5-10.7-0.7-1-1.1-2.2-1.9-3.1-0.9-0.3-1.8-0.5-2.7-0.6-0.6 0.7-1.4 1.4-1.8 2.3-0.8 3-3.9 4.5-5.2 7.2-0.9 0.7-1.9 1.5-2.3 2.7-1.2 2-1.8 4.2-1.8 6.6 0 2.1-1.8 4-1 6-0.7 0.9-4.5 10.1-4.5 12.4-2.1-0.8-4.3-1.4-6.5-1.4-0.2 1.1-0.2 2.3-1.2 3-7.4-9.2-9.4-27.5-9.7-28.5-0.6-1.7 0-3.7-1.2-5.2-0.9-2.1-1.1-4.4-1.3-6.7-0.3-0.9 0.7-1.4 1.3-1.9-0.2-0.6-0.5-1.1-0.8-1.7 3.5-10.8 13.6-6 4.7-24.6-0.7-2.1-1.8-4.1-3.1-5.8-1-1.3-2.8-1.9-3.4-3.6 1.6-0.3 3.6 0.4 4.9-0.8 1.8-1.2 4.8-0.9 5.9 1.1l1.5 0.3c1 1.3 2.4 2.2 3.4 3.6 1.7 0.3 3.3 0.5 5 0.7 4.8-5.9 1-8.6 3.6-12.8 5.4-8.1 31.2-7.3 47.5 0.3z"/>
	<path d="m1399.1 1440.6c1.9-0.6 3.6-1.8 5.7-1.9-0.5 1.2-1.1 2.3-1.7 3.5 1.6 0 3.2-0.2 4.7 0.5-0.7 0.7-1.4 1.5-1.8 2.4 1.2 0.2 2.6-0.1 3.7 0.7-0.2 1.2-1.9 1.5-2.2 2.7 0.4 0.1 1.2 0.2 1.6 0.3v1.3c-1.3 0.6-2.6 1.3-3.8 2.1 1.2 3.1-1.9 4.4-1.8 7.4 0.2 1.7-1.5 2.7-2.1 4.1-0.7 0.1-1.3 0.2-2 0.3-1.3 2.6-3.5 4.5-5.1 6.9-1 0.4-2.3 0.5-2.9 1.5-0.9 1.1-2.3 1.8-2.6 3.3 1.7 0.5 3.5 1.1 5 2.1 3.9 2.8 9.3 3 12.8 6.6 0.3 8.1-3.8 5.8-3.5 9.5-0.8 1.7-2.3 3-3.3 4.6-0.7 1.1-2.1 0.9-3.3 1.1l-1.8 1.8c-1.1 0.1-2.4-0.2-3.3 0.5-1.9 1.4-4.4 2.3-6.7 1.9-3.4-2.4-3.6-8.7-7.4-16.4-2-1-3.4 1.5-4.9 2.4-0.2 0.8-0.2 1.9-1.2 2.2-3 1.4-5.5 3.6-8.6 4.6-1.5 0.7-3.9 1.6-3.5 3.7 3.4 3.2 11 2.9 15.4 2.3 0.1 0.3 0.2 0.9 0.2 1.1-1.3 0.5-3.2 0.2-4 1.5 1 0.7 2.2 1.1 3.3 1.7 0.4 0.9 0.8 2 1.5 2.8-0.7-0.6-1.5-1-2.4-1.1 0.7 1.2 1.5 2.2 2.2 3.4-2.5 1.5-10.1 5-12.4 7.2-0.6 5.5 24.1 8 16.6 17-2.3 2.5 0.1 2.8-5 4.8-0.1 2.2-2 3.6-3.8 4.4-2.5-0.6-5.3-0.1-7.6-1.4-2.2-3-11.1-15.4-13.4-12.4-4.2 4.3-9.7 11.3-12.7 13-2.2 6.4-1.7 1.5-3.9 7-4.6 2.2-1.4 2.5-4.6 4.2-1.7 0.7-2 2.9-3.5 3.9-1.1 0.7-1.8 1.8-2.7 2.8-2.1 0.1-4.3 0.5-5.6 2.2-0.5 2.1-0.9 4.3-1.8 6.3-1-0.2-2.1-0.5-3.1-0.5-0.8 0.1-1 1.5-1.8 1.2-0.5-2-0.7-4-0.8-6-0.6-0.2-1.2-0.4-1.7-0.6-1 1.4-1.5 3.5-3.2 4.1-0.2-1 1.3-14 9.1-39 2.6-14.4 8-10.8 12-17.9 0-1.3-1.4-1.4-2.3-1.9 0.4-1.3 0.6-2.6 0.7-3.9-1.2 0.6-2.4 1.2-3.6 1.6 0.4-2.2 2.1-3.9 2.5-6-0.2-1.4-2-6.1-4.6-9.4 0.9-0.3 1.9-0.3 2.8-0.1 1.3-2.6 4-0.5 8.5-0.8 1.3-2 2.1-4.4 3.9-6 1-1.2 2.9-1.8 3-3.5 2.8-1.8 4.9-4.3 7-6.8-0.3 0-0.9-0.1-1.2-0.1 0.6-2.3 3.2-3 4.8-4.4 12.5-7 8.9-7.5 8.5-9.6-1.9-4.2-2-9-4.5-12.9 1 0.1 1.9 0.4 2.9 0.4 0.5-0.4 0.9-0.9 1.3-1.4 1.8 0.3 2.9 1.9 4.1 3.2 1.5 2 4 2.5 6.1 3.6 7-0.3 6.5-5.5 9.5-7.5 4.6-2.8 19.1-4.2 24.3-6.2z"/>
	<path d="m1044 1484.8c1.4-0.5 2.6 0.7 3.9 0.9 2.1 0.8 2.2-0.3 5.4 4.2-0.5 2.8-0.7 5.6-1.3 8.3 0.7 8.5-1.2 5.3-1.3 10.5 0.1 1.9-1.9 3.2-1.5 5.2 0.5 2.4-1.7 3.7-3.1 5.2-1.6 1.1-0.8 3.4-2.1 4.8-0.8 0.9-0.7 2.2-1.3 3.2 0.8 1.3 0.8 2.8 0 4.2 0.7 4.9-4.5 14.3-6 16.4-0.4 2.3-3.1 7.1-7.9 11.1 0.2 0.9-0.1 2.3 1.1 2.7 1.4 0.8 2.4 2.2 3.9 3 5 2.1 9.7 5.1 14.9 6.7 6.5 3 7.4 3.1 5.3 9.1-1 1.7-0.6 3.9-2.1 5.3-1.4 1.3-2.7 2.9-4.7 3.2-2.1 0.3-4.5 3.7-10.5-1.2-21.1-24.2-19.1-12.3-25.3-14.3-0.7 0.4-1.3 0.9-2 1.4-0.1 0.7-0.1 1.5-0.1 2.3-18.9 7.6-14.9-0.4-25.4-0.9-3.1-18.7 4.4-20.5 6.7-22.3 0.6-0.9-0.4-1.6-0.9-2.1-6.2-5.8-6-7-13.7-8.7 1.4-1.4 3.2-1.9 5.1-2.1 0.3-0.7 0.5-1.5 1-2 1.2-0.5 2.5-0.9 3.8-1 2.3 0.3 4.6 0.9 6.6 2.1 8.1 3.3 7.9 1.1 11.7-2.2 0.7-0.5 5.4-9.9 6.2-13 1.6-9.5 31.3-38.3 33.6-40z"/>
	<path d="m521.5 1505.1c-0.9 0.6-2.2 0.8-2.5 2 1.8 0.2 4.1 0.2 5.1 2-0.7 0.2-1.3 0.4-2 0.7 0.3 0.7 0.7 1.4 0.9 2.2-1.8 1-4 1-5.8 2.1-0.7 5.4-1.4 2.3-3.7 4.7-1.5 1.5-12.6 9.7-14.8 12.3-1 0.5-2 0.6-3.1 0.8-2.2 3.4-3.7 7.5-9.5 14.7 0.5 3.6 4.5 5.1 6 8.1 2 4.2 8 4.9 7.3 8.4-1.1 0.2-2.2 0.5-3.2 0.8-0.4 1-0.9 2.3-2.2 2.4-2.8 0.1-13-10-19.5-11-1 1.9-2.1 3.8-2.8 5.9-1.4 0.2-1.4-2-2.6-2.3-0.7 0.4-0.2 1.2-0.2 1.9 0.3 1.5 0.6 2.9 0.5 4.5-0.8-0.6-1.4-1.3-1.9-2.1 0 0.9 0 1.9-0.1 2.8-2.2-1.4-2-4.5-3.8-6.3-0.1 0.9-0.1 1.9-0.1 2.8-0.3-0.1-0.8-0.4-1.1-0.5-1.2-4.1-5.2-12.5-5.6-13.1-4-17.4-13.6-25.8-13.6-25.8 1-0.1 2 0 2.9-0.3 1.2-0.7 2.1-2.1 3.6-1.8 2.7 0.1 11.1 10 17 4.3 2.2-2.5-0.7-8 4.7-10.6 0.9-2 2.9-3.1 4.6-4.3 1.6-0.1 3.4 0.4 4.8-0.6 1.5-0.5 2.1-2.5 3.8-2.4 1.1-0.2 27.2-6.9 36.9-2.3z"/>
	<path d="m494.1 1571.2c0.6-1.2 1.2-2.8 2.8-2.7 0.3 7.4-1.2 7.4-1.6 11.1 6.5-5 4.6-6.3 8.6-7.7 0 6.4-1.3 6-3.1 9.6 1.9-0.5 3.6-1.5 5.6-1.7 0 1.6-0.3 3.2-0.5 4.8 0.8 0.3 1.6 0.4 2.3 0.9 1.1 3.8-1.3 4.5 0.3 5.5 2.3 1.5 1 4.4 0.4 6.5 2 0.9 2.3 3.3 1.4 5.1-0.8 1.3 0.1 2.6 0.3 3.9-0.3 1-1 1.9-1.2 3 0.2 1 0.6 1.9 0.8 2.9-0.4 1-1.3 1.8-2.1 2.6 0.1 1.1 0.2 2.1 0.3 3.2-0.8 0.4-1.6 0.9-2.4 1.3-1.9 11-4.1 10.9-6.7 15.4-1.1 1-2.7 2.2-4.3 1.9-1.1-0.7-2.2-1.5-3.5-0.8 0 0.6 0.1 1.2 0.1 1.8 1.2 0.2 2.4 0.5 3.6 1 12 5.1 26.6 3.3 27.9 9-0.6 1.6-1.1 3.2-1.1 4.9h-94.7c3-3.1 5.4-7.1 9.3-9.2 3.1-1.8 14-9.3 11.6-13.8-2.8-5.9-6.4-18.6-13.2-19.8 0.2 1 0.4 2 0.5 3 0 1.3-1 2.6-0.6 4 0.7 2.4-0.6 4.8-0.5 7.3-0.6 1.9-1.5 3.7-1.5 5.8-1.5 2.7-3.2 5.7-2.9 8.9-1.9 1.3-2.2 3.8-3.2 5.8-1.4 3-3.7 5.6-5.8 8.1h-37.1c-0.7-4.5-3.9-11.3-9.8-14.9 5.5-3.2 4.3-4.2 9-2.2 2 0.8 5 5 11.2 3.6 3.6-2.4 5.3-6.6 6.9-10.5 2.2-5.9 18.8-18.8 24.3-26.9 1.6-2 2.7-4.4 4.7-5.9 0.1 2.5-0.6 4.9-1.6 7.2 3.5-0.9 4-5.3 7.4-6.3-0.1 1.3-0.3 2.5-0.5 3.8 0.5 0.4 1.6 0.5 1.5 1.4-0.2 2.1-1.3 4.1-1.1 6.3 7 0 4-1.1 6.6-1.8 1.5-0.2 3.2-0.3 4.5 0.6 8.9 5.5 3.4 5.9 11.8 7.4 1.6 0.1 3.5 0.6 5-0.5 2.5-1.8 4.8-4.4 5.3-7.6 2-11.2 19-21.4 25-35.3z"/>
	<path d="m653.5 1591.7c1-2.4 1.5-5 3.4-6.9 1.1 3 0.5 6.1 0.3 9.1 3.1-1.3 3.8-7.5 7.1-7.1 0.2 1.7 0.2 3.5 0.2 5.3 1-0.4 2.1-0.6 3.2-0.8 0.3 1.8 0.3 3.7 0 5.6-0.3 1.5 0.8 2.7 0.8 4.2 0.1 1.6-0.8 3.3 0 4.8 1.3 2.3-0.5 5 0.6 7.3 0.8 2.1-0.6 4.3-0.4 6.4 0.2 1.6 0.5 3.6-0.8 4.9-1.9 1.6-1.4 4.6-3.4 6.1 0.2 1.2 0.6 2.4 0.4 3.7l-9.5 18.3h-54.7c0.3-0.1 0.8-0.4 1.1-0.6-4.2-11.8-1.7-14.3-13.3-22.6-0.1-1.4 1.6-0.8 2.5-1.1 3.9-0.1 5.8-3.8 10.8-1.2 7.3 4.1 4.5 6.5 13.9 8.5 2.7-0.5 4.3-2.8 6.2-4.5 5.2-4.6 2-8.8 12.9-17.6 3.2-2.5 16.2-14.7 18.7-21.8z"/>
</svg>
