<?xml version="1.0" encoding="UTF-8"?>
<!DOCTYPE svg  PUBLIC '-//W3C//DTD SVG 1.1//EN'  'http://www.w3.org/Graphics/SVG/1.1/DTD/svg11.dtd'>
<svg enable-background="new 0 0 2426.423 1701.753" version="1.1" viewBox="0 0 2426.423 1701.753" xml:space="preserve" xmlns="http://www.w3.org/2000/svg">
	<path d="m1165.9 1097.5c-0.053 9.347 0.198 16.713-1.382 24.003-0.66 3.045-1.545 5.86-4.538 7.114-3.746 1.569-5.795 4.542-8.159 7.627-6.075 7.926-10.996 16.431-15.861 25.145-4.92 8.813-11.786 16.619-18.351 24.401-3.425 4.061-8.536 6.392-13.687 7.806-7.816 2.146-14.689 6.002-21.349 10.436-21.111 14.052-41.505 29.079-61.377 44.827-8.317 6.591-16.722 13.07-25.117 19.562-14.063 10.876-26.146 23.627-37.499 37.323-11.459 13.823-24.051 26.723-36.415 39.772-7.335 7.742-13.636 16.2-19.271 25.185-3.434 5.476-2.752 9.31 2.726 13.914 12.26 10.304 26.221 13.947 41.982 10.215 14.595-3.456 24.049-1.283 33.835 10.827 5.064 6.267 7.984 14.221 7.958 22.135-0.037 11.466 4.77 19.053 13.332 26.286 12.899 10.895 20.576 24.962 23.446 42.267 3.348 20.193 2.92 39.279-7.215 57.481-1.291 2.318-2.486 4.702-4.627 6.408-1.19 0.948-2.522 1.742-4.04 1.25-2.014-0.653-2.364-2.524-2.35-4.312 0.014-1.754 0.04-3.624 0.628-5.236 1.95-5.342 1.838-11.031 3.033-16.494 0.366-1.676 0.731-3.836 3e-3 -5.184-3.19-5.912-3.446-12.402-4.475-18.774-0.32-1.984-0.998-4.263-2.304-5.677-9.544-10.334-18.383-21.564-34.388-22.363-17.383-0.867-34.327-5.365-51.629-7.082-7.904-4.932-17.843-3.303-25.872-8.089-2.429-1.448-5.573-1.888-8.46-2.336-6.697-1.04-13.334-2.143-19.903-3.986-8.621-2.419-11.038-0.723-14.099 8.149-2.533 7.342-3.65 7.411-11.462 8.425-21.708 2.815-43.58 0.517-65.285 2.648-0.586 0.057-1.183 0.167-1.763 0.114-20.635-1.897-41.211 0.864-61.828 0.982-14.979 0.086-29.975-0.097-44.958 0.256-5.592 0.131-10.593-0.788-13.863-5.953-0.469-0.74-0.993-1.682-1.72-1.986-8.16-3.424-15.347-8.182-21.617-14.494-1.683-1.694-4.558-1.137-6.695 0.152-3.019 1.821-5.949 3.799-8.824 5.84-1.186 0.842-2.007 2.211-3.212 3.011-1.992 1.321-4.391 2.539-6.517 0.749-2.485-2.092-1.889-5.027-0.126-7.149 6.134-7.379 10.926-16.324 21.71-18.428 2.65-0.517 6.461-1.751 5.451-5.613-0.94-3.591-4.528-4.265-7.947-4.226-2.444 0.028-4.57 0.975-6.499 2.458-5.069 3.896-11.488 6.211-14.338 12.708-0.566 1.289-2.277 1.909-3.854 1.129-2.052-1.017-2.091-2.774-1.134-4.47 2.051-3.635 3.039-7.661 4.551-11.492 1.779-4.506 5.027-7.689 9.138-10.418 10.201-6.771 20.703-8.752 32.747-5.385 6.673 1.865 13.967 1.603 20.995 2.083 13.448 0.918 25.558 6.535 38.075 10.7 2.799 0.932 5.434 2.102 8.489 2.137 10.943 0.126 14.266-2.153 16.709-12.8 1.403-6.114 3.711-11.767 6.549-17.297 2.248-4.379 1.919-4.996-2.38-6.029-11.671-2.803-12.384-3.165-6.786-14.194 4.995-9.84 3.961-19.242 1.764-29.164-1.22-5.512-4.549-8.624-9.659-10.472-4.52-1.635-9.32-1.286-13.915-2.369-2.138-0.503-3.891 0.89-5.365 2.495-2.394 2.605-4.812 5.196-7.337 7.672-4.321 4.236-9.052 6.678-15.61 6.89-6.404 0.207-12.705 1.314-19.217 0.317-4.262-0.652-7.713 0.848-9.792 5.61-2.546 5.832-7.219 7.772-11.061 5.852-5.472-2.736-7.965-8.153-6.314-13.693 0.504-1.69 1.042-3.375 1.446-5.09 4.718-20.005 17.383-32.195 36.942-37.608 4.813-1.332 9.799-2.09 14.086-5 2.019-1.371 4.475-1.392 6.858-1.099 3.836 0.472 7.633 0.407 11.445-0.328 1.421-0.274 3.243-0.654 4.347-0.034 7.187 4.037 15.727 4.31 22.813 8.953 6.842 4.483 14.39 7.889 21.023 12.807 1.352 1.002 3.251 1.243 4.86 1.924 6.476 2.741 13.459-0.115 20.452 2.949 6.009 2.632 13.806 2.209 20.806 2.748 5.751 0.443 11.653-0.995 17.478-1.691 0.822-0.098 1.874-0.508 2.322-1.131 3.103-4.325 9.106-4.887 12.136-8.497 4.852-5.781 11.134-8.246 17.595-10.939 1.879-0.783 4.148-1.734 5.158-3.303 3.762-5.844 9.478-7.339 15.737-8.331 4.071-0.646 7.337-2.839 10.782-5.389 5.334-3.948 11.28-7.198 16.786-11.031 1.933-1.345 4.249-2.282 5.861-3.924 14.711-14.983 33.178-25.248 48.795-39.143 14.139-12.581 27.899-25.367 38.836-40.923 2.187-3.111 3.01-6.043 0.977-9.787-8.282-15.253-9.943-32.03-9.223-48.844 0.492-11.5 1.784-22.917-0.597-34.287-1.958-9.351-1.178-18.795-1.422-28.199-0.134-5.164-1.785-8.708-6.493-11.49-11.985-7.08-21.767-17.085-32.673-25.609-16.788-13.122-31.43-28.443-46.077-43.806-8.544-8.961-17.485-17.546-26.308-26.238-4.206-4.143-8.388-8.284-11.897-13.067-1.211-1.65-2.581-3.287-4.187-4.53-18.875-14.601-35.633-31.592-53.45-47.384-9.268-8.215-18.535-15.984-29.415-22.294-31.862-18.479-62.615-38.762-93.326-59.137-25.251-16.752-47.12-37.267-69.608-57.176-20.128-17.821-41.527-33.779-64.26-48.218-20.931-13.294-43.433-23.878-63.902-37.79-16.282-11.066-34.165-19.781-48.847-33.237-4.503-4.127-7.144-3.393-8.964 2.398-2.726 8.674-6.998 17.589-6.761 26.297 0.367 13.472-0.395 26.971 0.649 40.447 1.709 22.066 5.571 43.836 8.391 65.747 3.123 24.268 7.851 48.275 12.305 72.312 2.992 16.15 6.879 32.084 11.701 47.906 4.775 15.669 8.412 31.835 12.013 47.911 4.058 18.116 8.068 36.244 12.002 54.387 0.793 3.657 3.141 8.517 0.2 10.872-3.688 2.953-7.609-1.3-11.006-3.244-17.217-9.854-33.277-21.618-47.318-35.408-12.324-12.104-24.223-24.84-34.704-38.833-12.737-17.006-25.382-34.038-36.512-52.138-13.274-21.587-27.02-42.926-39.266-65.088-7.702-13.939-17.944-26.256-24.665-40.743-0.948-2.044-2.857-3.728-4.567-5.314-3.867-3.587-8.169-6.701-9.858-12.148-0.478-1.543-2.077-2.849-3.391-4.002-4.913-4.311-8.897-9.329-12.597-14.725-7.285-10.627-11.031-11.62-23.001-6.884-13.118 5.19-24.742 1.297-35.881-5.697-2.33-1.463-3.954-3.699-4.704-6.26-2.141-7.306-7.352-12.44-13.383-15.886-8.229-4.701-14.053-11.687-20.12-18.381-6.347-7.002-12.554-13.921-20.808-18.756-3.06-1.792-6.26-3.993-6.156-8.049 0.206-8.001-3.62-14.788-6.736-21.575-3.443-7.501-5.871-15.373-9.378-22.815-0.375-0.795-0.979-1.738-0.831-2.484 1.423-7.146-2.591-13.038-4.145-19.507-1.049-4.369-2.291-8.436-4.604-12.289-1.184-1.972-1.796-4.339-2.398-6.599-3.55-13.316-6.276-26.867-11.658-39.652-0.666-1.583-0.802-3.416-1.027-5.153-1.095-8.469-2.283-16.93-3.129-25.424-0.377-3.79-1.124-8.105 0.23-11.385 2.514-6.094 6.265-11.661 5.825-18.65 5.293-4.848 4.018-11.352 4.287-17.419 0.131-2.949-0.613-5.962 4.101-5.86 1.954 0.042 2.588-2.15 2.896-3.949 0.447-2.613 1.077-5.228 1.175-7.86 0.145-3.91 0.627-7.968 2.598-11.097 5.066-8.048 6.207-17.81 11.708-25.579 1.581-2.233 2.005-4.883 3.006-7.321 0.887-2.16 1.568-5.073 3.278-6.116 10.228-6.242 12.785-17.394 15.999-27.186 2.419-7.37 1.548-15.881 6.277-22.931 0.629-0.938 0-2.901-0.383-4.298-0.689-2.515-0.849-4.542 2.159-5.731 2.59-1.024 2.556-3.874 3.161-5.996 1.208-4.236 1.917-8.619 2.739-12.958 0.512-2.703 1.041-5.106 4.45-5.713 4.389-0.78 5.179-6.968 10.154-7.08 2.335-5.019 3.913-3.874 5.664 0.477 0.923 2.295 2.128 1.065 2.716-0.521 1.331-3.592 2.455-7.273 5.122-10.195 2.964-3.247 4.507-3.352 7.503 0.457 1.598 2.032 2.618 3.145 4.562 0.709 0.782-0.98 1.765-1.626 3.009-1.51 3.4 0.318 3.787-1.812 3.896-4.426 0.11-2.642 0.096-5.37 0.776-7.887 1.02-3.778 3.563-4.521 7.394-2.64 4.371 2.146 4.458 2.15 4.695-2.831 0.168-3.532 0.013-7.075 0.905-10.549 0.532-2.072 1.035-4.247 3.805-3.865 2.33 0.321 2.183 2.378 2.278 4.127 0.016 0.293-0.036 0.591-0.014 0.884 0.199 2.756-1.532 6.021 1.492 8.036 1.389 0.925 3.524-4.206 3.674-8.882 0.118-3.695-1.714-6.815-2.593-10.212-0.168-0.648 0.304-1.76 0.85-2.225 0.805-0.686 1.666 0.025 2.16 0.734 0.838 1.202 1.506 2.52 2.297 3.757 0.842 1.317 0.259 4.023 2.848 3.622 1.881-0.291 2.954-2.239 3.203-3.874 1.452-9.541 7.935-15.158 15.128-20.439 2.826-2.075 5.186-4.799 7.681-7.304 2.269-2.279 4.138-5.039 8.137-4.141 1.48 0.332 2.628-1.047 3.645-2.143 2.785-2.998 3.326-2.324 3.618 1.604 0.381 5.129 5.481 6.45 9.097 8.503 3.587 2.037 5.937-0.52 7.751-3.623 1.771-3.03 4.207-5.641 4.727-9.368 0.488-3.502 2.433-6.302 6.186-6.421 6.428-0.204 9.965-4.219 13.265-8.892 2.159-3.057 3.976-6.704 9.024-4.254 1.576 0.765 3.305-0.957 4.495-2.271 1.647-1.819 3.662-2.955 5.953-3.639 1.515-0.452 2.495-0.221 3.435 1.525 2.156 4.002 2.391 3.918 4.18 0.613 0.84-1.553 1.409-3.252 2.241-4.809 2.837-5.308 3.15-5.345 7.653-1.327 3.513 3.134 5.268 3.331 9.315 0.374 4.281-3.129 8.358-6.534 12.537-9.803 1.862-1.457 3.737-3.081 6.217-3.11 2.303-0.027 5.113-1.816 6.786 0.036 2.086 2.31-0.899 4.106-1.92 6.045-0.547 1.038-1.372 2.275-0.468 3.217 1.562 1.628 2.829-0.043 3.507-1.074 3.994-6.075 11.039-7.642 16.589-11.388 2.87-1.937 5.87-1.894 8.817 0.798 3.122 2.851 8.013 2.913 10.876 6.603 1.04 1.341 2.671-0.023 3.666-1.182 1.536-1.79 2.875-3.789 4.6-5.371 4.627-4.243 10.037-6.699 16.116-3.776 3.706 1.782 6.097 1.108 8.432-1.778 1.345-1.663 2.972-2.941 5.204-2.952 6.044-0.029 10.334-3.512 14.886-6.913 9.909-7.404 20.09-14.434 29.7-22.252 5.025-4.088 10.723-7.141 16.448-10.25 6.675-3.625 12.565-8.706 18.753-13.213 8.094-5.897 16.22-11.31 26.092-14.437 7.692-2.436 14.559-7.582 21.646-11.772 3.087-1.825 5.869-3.862 9.781-3.058 2.472 0.508 4.488-1.121 6.62-2.083 2.416-1.09 4.826-2.202 7.298-3.15 1.106-0.424 2.429-0.398 3.257 0.641 1.181 1.482 0.156 2.718-0.737 3.879-0.355 0.463-0.834 0.828-1.232 1.261-3.77 4.107-3.78 4.146 1.58 5.905 1.439 0.472 1.899 1.487 1.465 2.642-0.506 1.346-1.403 2.563-2.238 3.762-0.564 0.81-0.701 1.593-0.093 2.32 0.674 0.807 1.668 0.605 2.439 0.231 9.256-4.492 19.29-6.935 28.585-11.541 9.377-4.646 19.024-9.167 29.554-11.162 4.942-0.937 9.326-3.62 13.745-5.968 11.024-5.856 22.762-9.446 35.054-11.351 0.873-0.135 1.815-0.01 2.633-0.281 16.263-5.39 33.733-4.031 50.105-9.092 6.477-2.002 13.492-1.436 20.22-0.362 4.435 0.708 8.661 0.762 13.111-0.149 6.611-1.355 13.255-2.291 20.158-0.866 3.605 0.744 7.585-0.308 11.395-0.571 14.978-1.035 29.963 0.418 44.939 0.42 14.8 1e-3 30.01 1.182 44.438 5.987 0.836 0.278 1.728 0.603 2.583 0.573 12.528-0.438 23.561 6.373 35.792 7.373 1.14 0.093 2.512 0.413 3.311 1.139 8.429 7.661 20.029 8.067 29.545 13.004 18.302 9.496 37.911 15.874 56.476 24.677 3.985 1.889 8.186 3.707 11.543 6.464 10.048 8.251 22.17 11.578 34.107 15.544 10.555 3.506 19.131 10.561 27.483 17.428 7.368 6.059 15.467 10.772 23.493 15.615 8.908 5.375 16.844 11.623 23.711 19.442 3.062 3.486 6.404 6.446 8.659 10.802 2.466 4.764 8.328 6.351 12.767 9.118 18.339 11.429 35.634 24.164 50.591 39.797 6.355 6.642 14.36 11.303 20.473 18.143 13.942 4.976 22.721 17.361 35.289 24.495 10.743 6.098 22.071 9.798 33.943 11.865 14.013 2.439 27.347 6.348 40.515 11.907 16.516 6.972 33.968 11.692 50.689 18.221 28.245 11.028 57.23 20.273 84.461 33.77 11.051 5.478 21.4 12.335 31.092 20.038 4.874 3.874 9.904 7.407 15.619 9.933 15.625 6.906 30.75 14.907 45.956 22.607 14.926 7.558 30.384 14.279 44.479 23.5 7.404 4.844 15.744 8.163 23.211 12.769 15.511 9.567 31.064 19.26 43.976 32.437 1.849 1.887 3.759 3.745 5.825 5.384 13.184 10.462 24.907 22.316 34.627 36.09 1.013 1.435 1.837 3.021 2.613 4.603 2.978 6.064 5.031 12.55 8.956 18.196 2.046 2.943 0.808 4.953-2.813 5.356-1.742 0.194-3.53-0.02-5.297-0.055-3.538-0.069-7.076-0.193-10.613-0.186-1.417 3e-3 -3.09-0.088-3.598 1.742-0.348 1.254 0.432 2.244 1.287 3.069 2.542 2.452 4.938 5.098 7.705 7.267 9.966 7.812 20.204 15.281 30.047 23.242 5.013 4.055 9.615 8.681 14.03 13.397 12.502 13.352 27.69 23.708 40.543 36.643 7.863 7.913 15.833 15.74 20.781 26.059 2.799 5.837 6.118 11.435 9.394 17.029 2.46 4.2 3.309 8.279-0.207 12.201-2.519 2.81-1.826 5.993-1.708 9.214 0.175 4.802 0.509 9.52-6.49 10.16-3.277 0.3-4.454 3.406-4.62 6.667-0.229 4.477 0.634 8.768 1.579 13.113 1.728 7.947 1.355 8.488-5.628 12.395-7.298 4.084-7.608 5.861-5.873 14.35 1.552 7.594 3.875 15.106-0.164 23.175-3.493 6.978-8.534 10.479-15.701 11.008-6.44 0.476-12.956 0.115-19.43-0.112-9.675-0.339-13.139 2.72-17.195 11.671-3.157 6.968-1.419 10.876 3.874 15.682 15.705 14.26 30.859 29.127 46.25 43.735 2.992 2.84 5.981 5.697 9.139 8.347 9.735 8.169 17.879 17.831 26.561 27.034 12.193 12.926 23.029 26.812 34.009 40.663 2.001 2.524 4.336 4.829 6.75 6.973 15.203 13.504 30.475 26.93 45.716 40.392 1.325 1.171 2.723 2.296 3.865 3.632 9.994 11.688 21.282 21.989 33.121 31.778 15.129 12.509 26.795 28.114 37.964 44.075 4.553 6.507 9.238 12.914 13.465 19.674 2.75 4.398 6.784 8.166 11.166 11.23 16.911 11.822 33.712 23.799 50.677 35.55 24.199 16.762 48.663 33.303 68.733 55.298 5.225 5.726 7.932 12.974 12.737 18.917 3.502 4.332 6.116 9.199 8.297 14.442 2.765 6.647 3.212 12.929 1.012 19.747-2.756 8.543-2.458 8.741 5.314 13.14 2.034 1.151 3.787 2.793 5.811 3.964 6.749 3.906 11.337 11.415 20.049 12.041 6.489 6.328 15.318 8.605 22.719 13.258 3.499 2.2 5.965 6.31 9.498 8.951 1.177 0.88 2.124 2.25 3.425 2.751 11.438 4.404 19.244 13.527 27.272 21.934 12.547 13.139 25.391 26.146 34.345 42.326 4.4 7.952 6.128 16.539 7.549 25.241 0.715 4.378 0.013 8.583-3.147 12.417-4.061 4.926-3.838 6.307-0.25 11.751 3.723 5.651 7.347 11.345 10.849 17.145 5.169 8.563 7.189 18.028 9.631 27.376 1.35 5.169 0.182 10.594-1.5 15.682-2.546 7.697-6.903 9.679-14.273 6.19-11.747-5.561-22.589-12.745-33.724-19.395-50.372-30.079-100.7-60.243-152.79-87.301-47.876-24.869-95.072-51.063-143.61-74.631-25.98-12.615-52.545-24.028-78.853-35.966-5.906-2.68-11.841-5.295-17.766-7.933-1.105-0.492-2.281-0.817-3.315 0.03-1.522 1.245-0.821 2.757-0.01 3.922 5.217 7.5 10.448 14.993 15.824 22.38 9.365 12.868 18.745 25.726 28.301 38.452 5.476 7.292 11.639 14.083 16.92 21.506 12.112 17.025 26.023 32.697 37.249 50.405 4.222 6.66 11.009 11.375 15.69 17.891 11.863 16.511 25.282 31.802 37.933 47.693 9.866 12.393 19.934 24.61 29.845 36.954 6.383 7.949 12.927 15.87 18.492 24.526 3.959 6.157 8.358 12.103 13.784 17.195 7.997 7.504 13.665 16.904 20.458 25.374 7.538 9.399 15.401 18.592 23.058 27.927 3.347 4.081 7.017 7.995 8.905 13.08 1.224 3.296 4.708 4.374 6.67 6.909 9.157 11.833 18.271 23.699 27.366 35.579 0.708 0.926 1.135 2.063 1.731 3.08 0.607 1.035 1.286 2.177 0.056 3.063-0.585 0.421-1.705 0.498-2.429 0.261-3.641-1.191-7.185-2.689-10.853-3.78-2.69-0.8-4.963-1.043-5.571 3.138-0.76 5.236-2.143 5.516-6.898 3.251-4.774-2.274-7.057-7.025-10.769-10.337-1.075-0.96-2.211-2.792-3.57-2.123-1.925 0.949-0.019 2.461 0.294 3.726 0.63 2.548-3.06 12.566-5.192 13.988-1.031 0.687-2.223 0.901-3.361 0.438-1.625-0.662-3.344-1.271-4.741-2.289-15.226-11.095-31.598-20.561-45.428-33.654-9.631-9.118-20.416-16.768-33.527-20.785-12.382-3.793-21.929-12.633-31.86-20.405-16.492-12.907-33.299-25.343-50.561-37.187-7.072-4.852-13.386-10.641-19.63-16.488-12.051-11.286-23.619-23.133-36.163-33.839-22.664-19.344-44.446-39.622-65.98-60.181-11.725-11.194-23.11-22.727-34.228-34.541-23.233-24.688-46.708-49.15-70.092-73.697-11.183-11.739-22.424-23.424-33.555-35.212-3.732-3.952-8.305-6.55-13.056-8.947-19.474-9.825-39.319-18.881-58.513-29.299-29.013-15.749-58.095-31.405-87.594-46.211-34.542-17.337-67.931-36.742-101.86-55.167-3.398-1.845-6.824-3.446-10.829-3.412-9.25 0.078-18.173-1.992-26.914-4.698-27.873-8.628-55.907-16.842-82.814-28.259-25.781-10.94-51.292-22.52-76.217-35.299-6.781-3.476-14.816-4.081-20.723-9.491-1.058-0.969-2.98-0.375-4.024 0.794-2.119 2.374-4.628 2.125-7.277 1.448-5.317-1.358-8.69 2.463-12.667 4.708-0.88 0.497-1.366 1.197-1.122 2.06 1.216 4.305-0.768 7.442-3.652 10.224-2.255 2.175-1.427 4.909-1.619 7.495-0.387 5.222-2.168 6.121-6.634 3.22-1.961-1.274-3.583-3.059-5.472-4.46-5.554-4.122-11.472-6.947-18.742-6.629-5.886 0.258-11.526-1.831-17.168-3.306-9.431-2.467-14.322 1.309-13.682 10.922 0.253 3.817 0.661 7.627 0.824 9.475zm-508.9 248.39c3.335-0.239 6.493-0.778 7.761-4.51 0.378-1.113 0.499-2.274-0.327-3.303-0.867-1.081-2.084-1.17-3.143-0.654-2.095 1.021-4.126 2.196-6.091 3.451-1.209 0.772-2.515 1.789-1.913 3.488 0.614 1.73 2.334 1.347 3.713 1.528zm310.21 76.066c-0.266-0.496-0.422-1.114-0.816-1.468-2.473-2.22-5.352-2.298-8.236-1.119-2.02 0.826-2.38 2.407-1.041 4.221 1.524 2.066 8.443 1.508 9.989-0.816 0.137-0.203 0.074-0.541 0.104-0.818zm-222.95 6.525c1.644-0.313 4.321-0.013 4.425-1.817 0.14-2.435-2.62-2.564-4.534-2.79-1.432-0.169-3.164 0.091-3.373 1.896-0.286 2.465 1.709 2.547 3.482 2.711z"/>
</svg>
