<?xml version="1.0" encoding="utf-8"?>
<!-- Generator: Adobe Illustrator 18.0.0, SVG Export Plug-In . SVG Version: 6.00 Build 0)  -->
<!DOCTYPE svg PUBLIC "-//W3C//DTD SVG 1.1//EN" "http://www.w3.org/Graphics/SVG/1.1/DTD/svg11.dtd">
<svg version="1.1" id="Layer_1" xmlns="http://www.w3.org/2000/svg" xmlns:xlink="http://www.w3.org/1999/xlink" x="0px" y="0px"
	 width="800px" height="600px" viewBox="0 0 800 600" enable-background="new 0 0 800 600" xml:space="preserve">
<g>
	<linearGradient id="SVGID_1_" gradientUnits="userSpaceOnUse" x1="355.8651" y1="450.5618" x2="481.1479" y2="23.172">
		<stop  offset="0" style="stop-color:#F9CBDF"/>
		<stop  offset="0.3978" style="stop-color:#EF5B99"/>
		<stop  offset="0.7419" style="stop-color:#2B3990"/>
		<stop  offset="1" style="stop-color:#1D1752"/>
	</linearGradient>
	<rect fill="url(#SVGID_1_)" width="800" height="600"/>
	<g>
		<linearGradient id="SVGID_2_" gradientUnits="userSpaceOnUse" x1="136.845" y1="345.0695" x2="136.845" y2="258.0146">
			<stop  offset="0" style="stop-color:#1F1955"/>
			<stop  offset="1" style="stop-color:#170F4A"/>
		</linearGradient>
		<path fill="url(#SVGID_2_)" d="M161.4,354.5c-28.1-9-37.6-17.3-41.2-20.9c-3.6-3.6-14.8-9.9-17.9-8.4
			c-15.5,7.8-29.9,26.3-29.9,26.3s-9.6-1.2-28.1,14.9S0,398.3,0,398.3v67.7V600h273.7V411.2C273.7,411.2,189.5,363.5,161.4,354.5z"
			/>
		<linearGradient id="SVGID_3_" gradientUnits="userSpaceOnUse" x1="400" y1="439.5647" x2="400" y2="306.0102">
			<stop  offset="0" style="stop-color:#1F1955"/>
			<stop  offset="1" style="stop-color:#170F4A"/>
		</linearGradient>
		<path fill="url(#SVGID_3_)" d="M0,429.8c0,0,78.4-26.9,102.3-40s53.2-36.4,65.1-40.6c11.9-4.2,49-16.3,62.7-24.6
			c13.7-8.3,51.4-9.5,60.3-9.5s22.7,0,22.7,0s20.9-14.3,33.4-19.1s42.4-20.3,46-20.3c3.6,0,11.3,14.3,11.3,14.3s9.6,6,12.5,10.2
			c3,4.2,8.4,15.5,11.3,19.7s59.7,26.9,143.3,38.8S800,384.4,800,384.4V600H0V429.8z"/>
		<linearGradient id="SVGID_4_" gradientUnits="userSpaceOnUse" x1="533.5604" y1="538.5598" x2="533.5604" y2="395.8697">
			<stop  offset="0" style="stop-color:#1F1955"/>
			<stop  offset="1" style="stop-color:#170F4A"/>
		</linearGradient>
		<path fill="url(#SVGID_4_)" d="M267.1,392.1c0,0,96.7-21.5,121.8-28.1c25.1-6.6,38.8-17.3,50.8-22.1s87.8-39.4,93.8-41.2
			s19.7,18.5,19.7,18.5s64.5,26.3,78.8,32.8c14.3,6.6,49.6,8.4,55.5,6.6s11.9-23.3,17.3-28.1s13.1-13.1,15.5-13.1s10.2,5.4,10.2,5.4
			s17.9-24.5,25.1-33.4c7.2-9,44.4-36.4,44.4-36.4v347H267.1V392.1z"/>
		<linearGradient id="SVGID_5_" gradientUnits="userSpaceOnUse" x1="400" y1="538.5598" x2="400" y2="412.5571">
			<stop  offset="0" style="stop-color:#170F4A"/>
			<stop  offset="1" style="stop-color:#120742"/>
		</linearGradient>
		<path fill="url(#SVGID_5_)" d="M0,443.9c0,0,245.1-73.4,292.1-72S650.9,493.2,800,493.2V600H0V443.9z"/>
		<g>
			<linearGradient id="SVGID_6_" gradientUnits="userSpaceOnUse" x1="400" y1="565.5584" x2="400" y2="466.5634">
				<stop  offset="0" style="stop-color:#120742"/>
				<stop  offset="1" style="stop-color:#080037"/>
			</linearGradient>
			<path fill="url(#SVGID_6_)" d="M0,516.3c0,0,187.3-26.2,277.3-56.5s98.1-25.9,166.6-32.1c68.5-6.2,181.4-45.2,209.6-47.2
				c28.2-2,146.5-8.7,146.5-8.7V600H0V516.3z"/>
			<linearGradient id="SVGID_7_" gradientUnits="userSpaceOnUse" x1="557.5524" y1="565.5584" x2="557.5524" y2="466.5634">
				<stop  offset="0" style="stop-color:#120742"/>
				<stop  offset="1" style="stop-color:#080037"/>
			</linearGradient>
			<polygon fill="url(#SVGID_7_)" points="560.6,400.2 560.5,400.2 559.6,399.4 560.4,399.4 559.2,391.7 558.3,390.8 559.1,390.8 
				557.4,380.5 555.1,395.8 555.9,395.8 555,396.7 553.1,409.5 562,409.5 			"/>
			<linearGradient id="SVGID_8_" gradientUnits="userSpaceOnUse" x1="574.0578" y1="565.5584" x2="574.0578" y2="466.5634">
				<stop  offset="0" style="stop-color:#120742"/>
				<stop  offset="1" style="stop-color:#080037"/>
			</linearGradient>
			<polygon fill="url(#SVGID_8_)" points="576.3,389.3 575.4,388.5 576.1,388.5 573.9,374.7 572.8,382 573.6,382 572.7,382.8 
				572.7,382.8 571.3,391.7 572.1,391.7 571.2,392.5 569.6,403.4 578.5,403.4 			"/>
			<linearGradient id="SVGID_9_" gradientUnits="userSpaceOnUse" x1="624.522" y1="565.5584" x2="624.522" y2="466.5634">
				<stop  offset="0" style="stop-color:#120742"/>
				<stop  offset="1" style="stop-color:#080037"/>
			</linearGradient>
			<polygon fill="url(#SVGID_9_)" points="626.7,377.4 625.9,376.6 626.6,376.6 624.4,362.7 623.3,370.1 624,370.1 623.2,370.9 
				623.2,370.9 621.8,379.8 622.6,379.8 621.7,380.6 620.1,391.5 629,391.5 			"/>
			<linearGradient id="SVGID_10_" gradientUnits="userSpaceOnUse" x1="676.4793" y1="565.5584" x2="676.4793" y2="466.5634">
				<stop  offset="0" style="stop-color:#120742"/>
				<stop  offset="1" style="stop-color:#080037"/>
			</linearGradient>
			<polygon fill="url(#SVGID_10_)" points="678.7,368.7 677.8,367.9 678.6,367.9 676.3,354.1 675.2,361.4 676,361.4 675.1,362.2 
				675.1,362.2 673.8,371.1 674.5,371.1 673.6,371.9 672,382.8 680.9,382.8 			"/>
			<linearGradient id="SVGID_11_" gradientUnits="userSpaceOnUse" x1="690.5138" y1="565.5584" x2="690.5138" y2="466.5634">
				<stop  offset="0" style="stop-color:#120742"/>
				<stop  offset="1" style="stop-color:#080037"/>
			</linearGradient>
			<polygon fill="url(#SVGID_11_)" points="692.7,368.7 691.9,367.9 692.6,367.9 690.4,354.1 689.3,361.4 690,361.4 689.2,362.2 
				689.1,362.2 687.8,371.1 688.5,371.1 687.7,371.9 686,382.8 695,382.8 			"/>
			<linearGradient id="SVGID_12_" gradientUnits="userSpaceOnUse" x1="730.5269" y1="565.5584" x2="730.5269" y2="466.5634">
				<stop  offset="0" style="stop-color:#120742"/>
				<stop  offset="1" style="stop-color:#080037"/>
			</linearGradient>
			<polygon fill="url(#SVGID_12_)" points="732.7,365.1 731.9,364.3 732.6,364.3 730.4,350.5 729.3,357.8 730,357.8 729.2,358.6 
				729.2,358.6 727.8,367.6 728.6,367.6 727.7,368.4 726.1,379.2 735,379.2 			"/>
			<linearGradient id="SVGID_13_" gradientUnits="userSpaceOnUse" x1="525.3851" y1="565.5584" x2="525.3851" y2="466.5634">
				<stop  offset="0" style="stop-color:#120742"/>
				<stop  offset="1" style="stop-color:#080037"/>
			</linearGradient>
			<polygon fill="url(#SVGID_13_)" points="527.6,403.1 526.7,402.3 527.5,402.3 525.2,388.5 524.1,395.8 524.9,395.8 524,396.6 
				524,396.6 522.7,405.6 523.4,405.6 522.6,406.4 520.9,417.2 529.8,417.2 			"/>
			<linearGradient id="SVGID_14_" gradientUnits="userSpaceOnUse" x1="514.0381" y1="565.5584" x2="514.0381" y2="466.5634">
				<stop  offset="0" style="stop-color:#120742"/>
				<stop  offset="1" style="stop-color:#080037"/>
			</linearGradient>
			<polygon fill="url(#SVGID_14_)" points="516.2,406.1 515.4,405.3 516.1,405.3 513.9,391.5 512.8,398.8 513.5,398.8 512.7,399.6 
				512.7,399.6 511.3,408.5 512.1,408.5 511.2,409.3 509.6,420.2 518.5,420.2 			"/>
			<linearGradient id="SVGID_15_" gradientUnits="userSpaceOnUse" x1="479.6986" y1="565.5584" x2="479.6986" y2="466.5634">
				<stop  offset="0" style="stop-color:#120742"/>
				<stop  offset="1" style="stop-color:#080037"/>
			</linearGradient>
			<polygon fill="url(#SVGID_15_)" points="481.9,412.7 481.1,411.9 481.8,411.9 479.6,398 478.4,405.4 479.2,405.4 478.3,406.2 
				478.3,406.2 477,415.1 477.7,415.1 476.9,415.9 475.2,426.8 484.2,426.8 			"/>
		</g>
		<linearGradient id="SVGID_16_" gradientUnits="userSpaceOnUse" x1="483.0472" y1="334.8532" x2="516.0456" y2="360.3519">
			<stop  offset="0" style="stop-color:#120742"/>
			<stop  offset="1" style="stop-color:#080037"/>
		</linearGradient>
		<path fill="url(#SVGID_16_)" d="M509.6,337.8c0.2,7.2,2,15.1,2,16.3c0,1.2-5.8,12.9-7.2,17.8s-2.7,10.2-4,17.2
			c-1.3,7-8.1,28.2-8.1,28.2s22-39.5,26.2-45.4c4.2-5.9,9.5-22.4,11.3-25.6c1.8-3.1,9.5-8.1,13-12.5c3.6-4.5,10.3-14.5,10.3-14.5
			s-13.7-20.3-19.7-18.5C529.4,302.3,509.4,330.6,509.6,337.8z"/>
		<g>
			<g>
				<linearGradient id="SVGID_17_" gradientUnits="userSpaceOnUse" x1="20.522" y1="490.5622" x2="20.522" y2="657.0538">
					<stop  offset="0" style="stop-color:#000025"/>
					<stop  offset="1" style="stop-color:#080037"/>
				</linearGradient>
				<polygon fill="url(#SVGID_17_)" points="25.2,494.3 23.4,492.6 24.9,492.6 20.2,463.1 17.9,478.7 19.5,478.7 17.6,480.5 
					17.6,480.4 14.7,499.5 16.3,499.5 14.5,501.2 11,524.3 30,524.3 				"/>
				<linearGradient id="SVGID_18_" gradientUnits="userSpaceOnUse" x1="62.522" y1="490.5622" x2="62.522" y2="657.0538">
					<stop  offset="0" style="stop-color:#000025"/>
					<stop  offset="1" style="stop-color:#080037"/>
				</linearGradient>
				<polygon fill="url(#SVGID_18_)" points="67.2,490.3 65.4,488.6 66.9,488.6 62.2,459.1 59.9,474.7 61.5,474.7 59.6,476.5 
					59.6,476.4 56.7,495.5 58.3,495.5 56.5,497.2 53,520.3 72,520.3 				"/>
				<linearGradient id="SVGID_19_" gradientUnits="userSpaceOnUse" x1="85.4894" y1="490.5622" x2="85.4894" y2="657.0538">
					<stop  offset="0" style="stop-color:#000025"/>
					<stop  offset="1" style="stop-color:#080037"/>
				</linearGradient>
				<polygon fill="url(#SVGID_19_)" points="90.2,490.3 88.4,488.6 89.9,488.6 85.2,459.1 82.8,474.7 84.4,474.7 82.6,476.5 
					82.6,476.4 79.7,495.5 81.3,495.5 79.5,497.2 76,520.3 95,520.3 				"/>
				<linearGradient id="SVGID_20_" gradientUnits="userSpaceOnUse" x1="150.1561" y1="490.5622" x2="150.1561" y2="657.0538">
					<stop  offset="0" style="stop-color:#000025"/>
					<stop  offset="1" style="stop-color:#080037"/>
				</linearGradient>
				<polygon fill="url(#SVGID_20_)" points="154.8,486.5 153,484.8 154.6,484.8 149.8,455.3 147.5,471 149.1,471 147.3,472.7 
					147.2,472.7 144.4,491.7 146,491.7 144.1,493.4 140.6,516.6 159.7,516.6 				"/>
				<linearGradient id="SVGID_21_" gradientUnits="userSpaceOnUse" x1="174.8228" y1="490.5622" x2="174.8228" y2="657.0538">
					<stop  offset="0" style="stop-color:#000025"/>
					<stop  offset="1" style="stop-color:#080037"/>
				</linearGradient>
				<polygon fill="url(#SVGID_21_)" points="179.5,482.7 177.7,481.1 179.2,481.1 174.5,451.5 172.2,467.2 173.8,467.2 171.9,468.9 
					171.9,468.9 169,487.9 170.6,487.9 168.8,489.6 165.3,512.8 184.3,512.8 				"/>
				<linearGradient id="SVGID_22_" gradientUnits="userSpaceOnUse" x1="231.4894" y1="490.5622" x2="231.4894" y2="657.0538">
					<stop  offset="0" style="stop-color:#000025"/>
					<stop  offset="1" style="stop-color:#080037"/>
				</linearGradient>
				<polygon fill="url(#SVGID_22_)" points="236.2,478.1 234.4,476.4 235.9,476.4 231.2,446.9 228.8,462.5 230.4,462.5 228.6,464.3 
					228.6,464.2 225.7,483.3 227.3,483.3 225.5,485 222,508.1 241,508.1 				"/>
				<linearGradient id="SVGID_23_" gradientUnits="userSpaceOnUse" x1="345.4894" y1="490.5622" x2="345.4894" y2="657.0538">
					<stop  offset="0" style="stop-color:#000025"/>
					<stop  offset="1" style="stop-color:#080037"/>
				</linearGradient>
				<polygon fill="url(#SVGID_23_)" points="350.2,478.1 348.4,476.4 349.9,476.4 345.2,446.9 342.8,462.5 344.4,462.5 342.6,464.3 
					342.6,464.2 339.7,483.3 341.3,483.3 339.5,485 336,508.1 355,508.1 				"/>
				<linearGradient id="SVGID_24_" gradientUnits="userSpaceOnUse" x1="361.4894" y1="490.5622" x2="361.4894" y2="657.0538">
					<stop  offset="0" style="stop-color:#000025"/>
					<stop  offset="1" style="stop-color:#080037"/>
				</linearGradient>
				<polygon fill="url(#SVGID_24_)" points="366.2,480.9 364.4,479.2 365.9,479.2 361.2,449.7 358.8,465.4 360.4,465.4 358.6,467.1 
					358.6,467.1 355.7,486.1 357.3,486.1 355.5,487.8 352,511 371,511 				"/>
				<linearGradient id="SVGID_25_" gradientUnits="userSpaceOnUse" x1="465.7184" y1="490.5622" x2="465.7184" y2="657.0538">
					<stop  offset="0" style="stop-color:#000025"/>
					<stop  offset="1" style="stop-color:#080037"/>
				</linearGradient>
				<polygon fill="url(#SVGID_25_)" points="470.4,490.3 468.6,488.6 470.1,488.6 465.4,459.1 463.1,474.7 464.7,474.7 462.8,476.5 
					462.8,476.4 459.9,495.5 461.5,495.5 459.7,497.2 456.2,520.3 475.2,520.3 				"/>
				<linearGradient id="SVGID_26_" gradientUnits="userSpaceOnUse" x1="484.1624" y1="490.5622" x2="484.1624" y2="657.0538">
					<stop  offset="0" style="stop-color:#000025"/>
					<stop  offset="1" style="stop-color:#080037"/>
				</linearGradient>
				<polygon fill="url(#SVGID_26_)" points="487.9,496.1 486.5,494.8 487.7,494.8 483.9,471 482,483.6 483.3,483.6 481.8,485 
					481.8,485 479.5,500.3 480.8,500.3 479.3,501.7 476.5,520.3 491.8,520.3 				"/>
				<linearGradient id="SVGID_27_" gradientUnits="userSpaceOnUse" x1="553.0552" y1="490.5622" x2="553.0552" y2="657.0538">
					<stop  offset="0" style="stop-color:#000025"/>
					<stop  offset="1" style="stop-color:#080037"/>
				</linearGradient>
				<polygon fill="url(#SVGID_27_)" points="556.8,502.2 555.4,500.9 556.6,500.9 552.8,477.1 550.9,489.7 552.2,489.7 550.7,491.1 
					550.7,491.1 548.4,506.4 549.7,506.4 548.2,507.8 545.4,526.4 560.7,526.4 				"/>
			</g>
			<linearGradient id="SVGID_28_" gradientUnits="userSpaceOnUse" x1="400" y1="490.5622" x2="400" y2="657.0538">
				<stop  offset="0" style="stop-color:#000025"/>
				<stop  offset="1" style="stop-color:#080037"/>
			</linearGradient>
			<path fill="url(#SVGID_28_)" d="M0,517.2c0,0,245.1-24,292.1-23.5s358.8,39.6,507.9,39.6V600H0V517.2z"/>
		</g>
	</g>
	
		<linearGradient id="SVGID_29_" gradientUnits="userSpaceOnUse" x1="766.0602" y1="170.4989" x2="585.6169" y2="59.0148" gradientTransform="matrix(0.9559 0.2938 -0.2938 0.9559 51.6895 -175.9658)">
		<stop  offset="0" style="stop-color:#FFFFFF"/>
		<stop  offset="1" style="stop-color:#1D1752;stop-opacity:0"/>
	</linearGradient>
	<path fill="url(#SVGID_29_)" d="M592.4,52.3c0,0,34.7,38.4,69.5,76.8c8.7,9.6,17.4,19.2,25.5,28.2c4,4.5,8,8.9,11.6,13.1
		c3.7,4.2,7.2,8.1,10.4,11.8c3.2,3.7,6.1,7,8.7,10c2.6,3,4.8,5.6,6.7,7.7c3.7,4.3,5.8,6.8,5.8,6.8l-0.1,0.1c0,0-2.2-2.4-6.1-6.5
		c-1.9-2.1-4.3-4.6-6.9-7.5c-2.7-2.9-5.7-6.2-9-9.8c-3.3-3.6-6.8-7.5-10.6-11.6c-3.8-4.1-7.7-8.5-11.7-13
		c-8.1-9.1-16.6-18.8-25.2-28.5c-34.3-38.8-68.7-77.5-68.7-77.5L592.4,52.3z"/>
	<g>
		<g>
			<path fill="#FFFFFF" d="M30.3,193.1c1.3,0,1.3-2,0-2C29,191.1,29,193.1,30.3,193.1L30.3,193.1z"/>
		</g>
		<g>
			<path fill="#FFFFFF" d="M99.3,238.1c1.3,0,1.3-2,0-2S98,238.1,99.3,238.1L99.3,238.1z"/>
		</g>
		<g>
			<path fill="#FFFFFF" d="M189.3,236.6c1.3,0,1.3-2,0-2C188,234.6,188,236.6,189.3,236.6L189.3,236.6z"/>
		</g>
		<g>
			<path fill="#FFFFFF" d="M141.3,208.1c1.3,0,1.3-2,0-2S140,208.1,141.3,208.1L141.3,208.1z"/>
		</g>
		<g>
			<path fill="#FFFFFF" d="M292.8,169.1c1.3,0,1.3-2,0-2S291.5,169.1,292.8,169.1L292.8,169.1z"/>
		</g>
		<g>
			<path fill="#FFFFFF" d="M345.3,191.6c1.3,0,1.3-2,0-2S344,191.6,345.3,191.6L345.3,191.6z"/>
		</g>
		<g>
			<path fill="#FFFFFF" d="M492.2,163.1c1.3,0,1.3-2,0-2S491,163.1,492.2,163.1L492.2,163.1z"/>
		</g>
		<g>
			<path fill="#FFFFFF" d="M418.7,142.1c1.3,0,1.3-2,0-2S417.5,142.1,418.7,142.1L418.7,142.1z"/>
		</g>
		<g>
			<path fill="#FFFFFF" d="M535.7,116.6c1.3,0,1.3-2,0-2S534.5,116.6,535.7,116.6L535.7,116.6z"/>
		</g>
		<g>
			<path fill="#FFFFFF" d="M568.7,142.1c1.3,0,1.3-2,0-2S567.5,142.1,568.7,142.1L568.7,142.1z"/>
		</g>
		<g>
			<path fill="#FFFFFF" d="M426.2,200.6c1.3,0,1.3-2,0-2S425,200.6,426.2,200.6L426.2,200.6z"/>
		</g>
		<g>
			<path fill="#FFFFFF" d="M526.7,230.6c1.3,0,1.3-2,0-2S525.5,230.6,526.7,230.6L526.7,230.6z"/>
		</g>
		<g>
			<path fill="#FFFFFF" d="M639.2,212.6c1.3,0,1.3-2,0-2S637.9,212.6,639.2,212.6L639.2,212.6z"/>
		</g>
		<g>
			<path fill="#FFFFFF" d="M604.7,187.6c1.9,0,1.9-3,0-3C602.8,184.6,602.8,187.6,604.7,187.6L604.7,187.6z"/>
		</g>
		<g>
			<path fill="#FFFFFF" d="M754.7,130.6c1.9,0,1.9-3,0-3C752.8,127.6,752.8,130.6,754.7,130.6L754.7,130.6z"/>
		</g>
		<g>
			<path fill="#FFFFFF" d="M789.2,163.1c1.3,0,1.3-2,0-2S787.9,163.1,789.2,163.1L789.2,163.1z"/>
		</g>
		<g>
			<path fill="#FFFFFF" d="M702.2,160.1c1.3,0,1.3-2,0-2S700.9,160.1,702.2,160.1L702.2,160.1z"/>
		</g>
		<g>
			<path fill="#FFFFFF" d="M780.2,52.1c1.3,0,1.3-2,0-2C778.9,50.1,778.9,52.1,780.2,52.1L780.2,52.1z"/>
		</g>
		<g>
			<path fill="#FFFFFF" d="M745.7,92.1c2.6,0,2.6-4,0-4S743.2,92.1,745.7,92.1L745.7,92.1z"/>
		</g>
		<g>
			<path fill="#FFFFFF" d="M615.2,113.6c1.3,0,1.3-2,0-2S613.9,113.6,615.2,113.6L615.2,113.6z"/>
		</g>
		<g>
			<path fill="#FFFFFF" d="M532.7,85.1c1.3,0,1.3-2,0-2S531.5,85.1,532.7,85.1L532.7,85.1z"/>
		</g>
		<g>
			<path fill="#FFFFFF" d="M468.2,101.6c1.3,0,1.3-2,0-2S467,101.6,468.2,101.6L468.2,101.6z"/>
		</g>
		<g>
			<path fill="#FFFFFF" d="M459.2,96.1c1.9,0,1.9-3,0-3S457.3,96.1,459.2,96.1L459.2,96.1z"/>
		</g>
		<g>
			<path fill="#FFFFFF" d="M444.2,109.1c1.3,0,1.3-2,0-2C443,107.1,443,109.1,444.2,109.1L444.2,109.1z"/>
		</g>
		<g>
			<path fill="#FFFFFF" d="M390.3,125.6c1.3,0,1.3-2,0-2S389,125.6,390.3,125.6L390.3,125.6z"/>
		</g>
		<g>
			<path fill="#FFFFFF" d="M337.8,109.1c1.3,0,1.3-2,0-2S336.5,109.1,337.8,109.1L337.8,109.1z"/>
		</g>
		<g>
			<path fill="#FFFFFF" d="M310.8,133.6c3.9,0,3.9-6,0-6S306.9,133.6,310.8,133.6L310.8,133.6z"/>
		</g>
		<g>
			<path fill="#FFFFFF" d="M364.8,157.1c1.3,0,1.3-2,0-2S363.5,157.1,364.8,157.1L364.8,157.1z"/>
		</g>
		<g>
			<path fill="#FFFFFF" d="M324.3,160.1c1.3,0,1.3-2,0-2S323,160.1,324.3,160.1L324.3,160.1z"/>
		</g>
		<g>
			<path fill="#FFFFFF" d="M264.3,139.1c1.3,0,1.3-2,0-2S263,139.1,264.3,139.1L264.3,139.1z"/>
		</g>
		<g>
			<path fill="#FFFFFF" d="M244.8,104.6c1.3,0,1.3-2,0-2S243.5,104.6,244.8,104.6L244.8,104.6z"/>
		</g>
		<g>
			<path fill="#FFFFFF" d="M186.3,169.1c1.3,0,1.3-2,0-2C185,167.1,185,169.1,186.3,169.1L186.3,169.1z"/>
		</g>
		<g>
			<path fill="#FFFFFF" d="M249.3,194.6c1.3,0,1.3-2,0-2S248,194.6,249.3,194.6L249.3,194.6z"/>
		</g>
		<g>
			<path fill="#FFFFFF" d="M207.3,203.6c1.3,0,1.3-2,0-2C206,201.6,206,203.6,207.3,203.6L207.3,203.6z"/>
		</g>
		<g>
			<path fill="#FFFFFF" d="M174.3,152.6c1.3,0,1.3-2,0-2S173,152.6,174.3,152.6L174.3,152.6z"/>
		</g>
		<g>
			<path fill="#FFFFFF" d="M114.3,146.6c1.3,0,1.3-2,0-2C113,144.6,113,146.6,114.3,146.6L114.3,146.6z"/>
		</g>
		<g>
			<path fill="#FFFFFF" d="M222.3,143.6c1.3,0,1.3-2,0-2C221,141.6,221,143.6,222.3,143.6L222.3,143.6z"/>
		</g>
		<g>
			<path fill="#FFFFFF" d="M160.8,111.1c1.9,0,1.9-3,0-3S158.8,111.1,160.8,111.1L160.8,111.1z"/>
		</g>
		<g>
			<path fill="#FFFFFF" d="M78.3,118.1c1.3,0,1.3-2,0-2C77,116.1,77,118.1,78.3,118.1L78.3,118.1z"/>
		</g>
		<g>
			<path fill="#FFFFFF" d="M76.8,158.6c1.3,0,1.3-2,0-2C75.5,156.6,75.5,158.6,76.8,158.6L76.8,158.6z"/>
		</g>
		<g>
			<path fill="#FFFFFF" d="M99.3,163.1c1.3,0,1.3-2,0-2S98,163.1,99.3,163.1L99.3,163.1z"/>
		</g>
		<g>
			<path fill="#FFFFFF" d="M31.8,112.1c1.3,0,1.3-2,0-2S30.5,112.1,31.8,112.1L31.8,112.1z"/>
		</g>
		<g>
			<path fill="#FFFFFF" d="M9.3,121.1c1.3,0,1.3-2,0-2S8,121.1,9.3,121.1L9.3,121.1z"/>
		</g>
		<g>
			<path fill="#FFFFFF" d="M15.3,77.6c1.3,0,1.3-2,0-2S14,77.6,15.3,77.6L15.3,77.6z"/>
		</g>
		<g>
			<path fill="#FFFFFF" d="M121.8,104.6c1.3,0,1.3-2,0-2C120.5,102.6,120.5,104.6,121.8,104.6L121.8,104.6z"/>
		</g>
		<g>
			<path fill="#FFFFFF" d="M207.3,82.1c1.3,0,1.3-2,0-2C206,80.1,206,82.1,207.3,82.1L207.3,82.1z"/>
		</g>
		<g>
			<path fill="#FFFFFF" d="M286.8,94.1c1.3,0,1.3-2,0-2C285.5,92.1,285.5,94.1,286.8,94.1L286.8,94.1z"/>
		</g>
		<g>
			<path fill="#FFFFFF" d="M367.8,92.6c1.3,0,1.3-2,0-2S366.5,92.6,367.8,92.6L367.8,92.6z"/>
		</g>
		<g>
			<path fill="#FFFFFF" d="M382.8,86.6c1.3,0,1.3-2,0-2S381.5,86.6,382.8,86.6L382.8,86.6z"/>
		</g>
		<g>
			<path fill="#FFFFFF" d="M420.2,101.6c1.3,0,1.3-2,0-2S419,101.6,420.2,101.6L420.2,101.6z"/>
		</g>
		<g>
			<path fill="#FFFFFF" d="M495.2,73.1c1.3,0,1.3-2,0-2S494,73.1,495.2,73.1L495.2,73.1z"/>
		</g>
		<g>
			<path fill="#FFFFFF" d="M564.2,95.6c1.3,0,1.3-2,0-2S563,95.6,564.2,95.6L564.2,95.6z"/>
		</g>
		<g>
			<path fill="#FFFFFF" d="M633.2,74.6c1.3,0,1.3-2,0-2S631.9,74.6,633.2,74.6L633.2,74.6z"/>
		</g>
		<g>
			<path fill="#FFFFFF" d="M682.7,103.1c1.3,0,1.3-2,0-2S681.4,103.1,682.7,103.1L682.7,103.1z"/>
		</g>
		<g>
			<path fill="#FFFFFF" d="M762.2,103.1c1.3,0,1.3-2,0-2S760.9,103.1,762.2,103.1L762.2,103.1z"/>
		</g>
		<g>
			<path fill="#FFFFFF" d="M768.2,121.1c1.3,0,1.3-2,0-2S766.9,121.1,768.2,121.1L768.2,121.1z"/>
		</g>
		<g>
			<path fill="#FFFFFF" d="M556.7,184.1c1.3,0,1.3-2,0-2S555.5,184.1,556.7,184.1L556.7,184.1z"/>
		</g>
		<g>
			<path fill="#FFFFFF" d="M441.2,161.6c1.3,0,1.3-2,0-2S440,161.6,441.2,161.6L441.2,161.6z"/>
		</g>
		<g>
			<path fill="#FFFFFF" d="M640.7,151.1c1.3,0,1.3-2,0-2S639.4,151.1,640.7,151.1L640.7,151.1z"/>
		</g>
		<g>
			<path fill="#FFFFFF" d="M736.7,169.1c1.3,0,1.3-2,0-2S735.4,169.1,736.7,169.1L736.7,169.1z"/>
		</g>
		<g>
			<path fill="#FFFFFF" d="M780.2,187.1c1.3,0,1.3-2,0-2C778.9,185.1,778.9,187.1,780.2,187.1L780.2,187.1z"/>
		</g>
		<g>
			<path fill="#FFFFFF" d="M69.3,205.6c1.9,0,1.9-3,0-3C67.3,202.6,67.3,205.6,69.3,205.6L69.3,205.6z"/>
		</g>
		<g>
			<path fill="#FFFFFF" d="M7.8,223.1c1.3,0,1.3-2,0-2S6.5,223.1,7.8,223.1L7.8,223.1z"/>
		</g>
		<g>
			<path fill="#FFFFFF" d="M33.3,161.6c1.3,0,1.3-2,0-2C32,159.6,32,161.6,33.3,161.6L33.3,161.6z"/>
		</g>
		<g>
			<path fill="#FFFFFF" d="M84.3,74.6c1.3,0,1.3-2,0-2C83,72.6,83,74.6,84.3,74.6L84.3,74.6z"/>
		</g>
		<g>
			<path fill="#FFFFFF" d="M99.3,23.6c1.3,0,1.3-2,0-2S98,23.6,99.3,23.6L99.3,23.6z"/>
		</g>
		<g>
			<path fill="#FFFFFF" d="M49.8,35.6c1.3,0,1.3-2,0-2C48.5,33.6,48.5,35.6,49.8,35.6L49.8,35.6z"/>
		</g>
		<g>
			<path fill="#FFFFFF" d="M27.3,4.1c1.3,0,1.3-2,0-2S26,4.1,27.3,4.1L27.3,4.1z"/>
		</g>
		<g>
			<path fill="#FFFFFF" d="M180.3,10.1c1.3,0,1.3-2,0-2S179,10.1,180.3,10.1L180.3,10.1z"/>
		</g>
		<g>
			<path fill="#FFFFFF" d="M132.3,53.1c2.6,0,2.6-4,0-4C129.7,49.1,129.7,53.1,132.3,53.1L132.3,53.1z"/>
		</g>
		<g>
			<path fill="#FFFFFF" d="M150.3,55.1c1.3,0,1.3-2,0-2C149,53.1,149,55.1,150.3,55.1L150.3,55.1z"/>
		</g>
		<g>
			<path fill="#FFFFFF" d="M172.8,79.1c1.3,0,1.3-2,0-2C171.5,77.1,171.5,79.1,172.8,79.1L172.8,79.1z"/>
		</g>
		<g>
			<path fill="#FFFFFF" d="M243.3,41.6c1.3,0,1.3-2,0-2C242,39.6,242,41.6,243.3,41.6L243.3,41.6z"/>
		</g>
		<g>
			<path fill="#FFFFFF" d="M201.3,41.6c1.3,0,1.3-2,0-2S200,41.6,201.3,41.6L201.3,41.6z"/>
		</g>
		<g>
			<path fill="#FFFFFF" d="M292.8,17.6c1.3,0,1.3-2,0-2S291.5,17.6,292.8,17.6L292.8,17.6z"/>
		</g>
		<g>
			<path fill="#FFFFFF" d="M306.3,50.6c1.3,0,1.3-2,0-2S305,50.6,306.3,50.6L306.3,50.6z"/>
		</g>
		<g>
			<path fill="#FFFFFF" d="M358.8,65.6c1.3,0,1.3-2,0-2S357.5,65.6,358.8,65.6L358.8,65.6z"/>
		</g>
		<g>
			<path fill="#FFFFFF" d="M345.3,52.1c1.3,0,1.3-2,0-2S344,52.1,345.3,52.1L345.3,52.1z"/>
		</g>
		<g>
			<path fill="#FFFFFF" d="M418.7,19.1c1.3,0,1.3-2,0-2S417.5,19.1,418.7,19.1L418.7,19.1z"/>
		</g>
		<g>
			<path fill="#FFFFFF" d="M397.8,41.6c1.3,0,1.3-2,0-2S396.5,41.6,397.8,41.6L397.8,41.6z"/>
		</g>
		<g>
			<path fill="#FFFFFF" d="M472.7,43.1c1.3,0,1.3-2,0-2S471.5,43.1,472.7,43.1L472.7,43.1z"/>
		</g>
		<g>
			<path fill="#FFFFFF" d="M438.2,58.1c1.3,0,1.3-2,0-2S437,58.1,438.2,58.1L438.2,58.1z"/>
		</g>
		<g>
			<path fill="#FFFFFF" d="M358.8,19.1c1.3,0,1.3-2,0-2S357.5,19.1,358.8,19.1L358.8,19.1z"/>
		</g>
		<g>
			<path fill="#FFFFFF" d="M468.2,5.6c1.3,0,1.3-2,0-2S467,5.6,468.2,5.6L468.2,5.6z"/>
		</g>
		<g>
			<path fill="#FFFFFF" d="M465.2,16.1c1.3,0,1.3-2,0-2S464,16.1,465.2,16.1L465.2,16.1z"/>
		</g>
		<g>
			<path fill="#FFFFFF" d="M516.2,40.1c1.3,0,1.3-2,0-2S515,40.1,516.2,40.1L516.2,40.1z"/>
		</g>
		<g>
			<path fill="#FFFFFF" d="M589.7,10.1c1.3,0,1.3-2,0-2S588.5,10.1,589.7,10.1L589.7,10.1z"/>
		</g>
		<g>
			<path fill="#FFFFFF" d="M558.2,35.6c1.3,0,1.3-2,0-2S557,35.6,558.2,35.6L558.2,35.6z"/>
		</g>
		<g>
			<path fill="#FFFFFF" d="M642.2,41.6c1.3,0,1.3-2,0-2S640.9,41.6,642.2,41.6L642.2,41.6z"/>
		</g>
		<g>
			<path fill="#FFFFFF" d="M744.2,11.6c1.3,0,1.3-2,0-2S742.9,11.6,744.2,11.6L744.2,11.6z"/>
		</g>
		<g>
			<path fill="#FFFFFF" d="M699.2,37.1c1.3,0,1.3-2,0-2S697.9,37.1,699.2,37.1L699.2,37.1z"/>
		</g>
		<g>
			<path fill="#FFFFFF" d="M696.2,53.6c1.3,0,1.3-2,0-2S694.9,53.6,696.2,53.6L696.2,53.6z"/>
		</g>
		<g>
			<path fill="#FFFFFF" d="M745.7,50.6c1.3,0,1.3-2,0-2S744.4,50.6,745.7,50.6L745.7,50.6z"/>
		</g>
		<g>
			<path fill="#FFFFFF" d="M793.7,10.1c1.3,0,1.3-2,0-2S792.4,10.1,793.7,10.1L793.7,10.1z"/>
		</g>
		<g>
			<path fill="#FFFFFF" d="M792.2,91.1c1.3,0,1.3-2,0-2S790.9,91.1,792.2,91.1L792.2,91.1z"/>
		</g>
		<g>
			<path fill="#FFFFFF" d="M39.3,83.6c1.3,0,1.3-2,0-2C38,81.6,38,83.6,39.3,83.6L39.3,83.6z"/>
		</g>
		<g>
			<path fill="#FFFFFF" d="M6.3,43.1c1.3,0,1.3-2,0-2S5,43.1,6.3,43.1L6.3,43.1z"/>
		</g>
		<g>
			<path fill="#FFFFFF" d="M643.7,10.6c1.9,0,1.9-3,0-3C641.8,7.6,641.8,10.6,643.7,10.6L643.7,10.6z"/>
		</g>
	</g>
</g>
</svg>
