<?xml version="1.0" encoding="utf-8"?>
<!-- Generator: Adobe Illustrator 22.0.1, SVG Export Plug-In . SVG Version: 6.00 Build 0)  -->
<svg version="1.1" xmlns="http://www.w3.org/2000/svg" xmlns:xlink="http://www.w3.org/1999/xlink" x="0px" y="0px"
	 viewBox="0 0 2272 1872" style="enable-background:new 0 0 2272 1872;" xml:space="preserve">
<style type="text/css">
	.st0{fill:#FFFFFF;}
	.st1{fill:#596F9B;}
	.st2{fill:#445B7F;}
	.st3{clip-path:url(#SVGID_2_);}
	.st4{fill:#384F63;}
	.st5{fill:#202E3A;}
	.st6{fill:#3A8464;}
	.st7{fill:#AD9164;}
	.st8{fill:#E8BC7E;}
	.st9{fill:#4DA8BB;}
	.st10{fill:#5ECEDD;}
	.st11{fill:#367D87;}
	.st12{fill:#895A4C;}
	.st13{fill:#440136;}
	.st14{fill:#AA7063;}
	.st15{fill:#6D443A;}
	.st16{fill:#2C3E50;}
	.st17{fill:#1B2630;}
	.st18{fill:none;}
	.st19{fill:#FFD6BB;}
	.st20{fill:#AA7B61;}
</style>
<g id="Background">
	<rect class="st0" width="2272" height="1872"/>
</g>
<g id="object">
	<g>
		<path class="st1" d="M150.1,1180.1c15.2-43.1,40.9-82.2,52.9-126.4c24-88.4-10.1-180.5-29-270.1S158.4,585,232.2,530.8
			c58.1-42.7,140-35.6,202.9-70.8c95.4-53.3,128-191.4,232-224.6c72.5-23.1,149.3,15.4,225.4,18.3
			c144.3,5.5,259.8-113.7,394.2-166.5c68.8-27,146-36.5,217.3-16.9c71.3,19.5,135.5,70.3,162.4,139.1
			c26.3,67.2,17.5,147.8,59.6,206.3c39.4,54.7,110.6,73.1,174.1,95.7c55.7,19.8,110.7,46.5,150.8,89.9
			c40.1,43.4,63,106.3,46.6,163.1c-12.9,44.5-48.5,85.2-40.7,130.9c5.4,31.5,30.3,55.2,49.8,80.6c48.5,63,67,148.1,49.2,225.6
			s-71.8,145.9-142.9,181.3c-74.4,37.1-160.8,37.9-243.5,46.7c-247.7,26.5-480.8,130.3-726.4,172.2
			c-215.6,36.7-436.3,24.9-654.4,8.9c-45.2-3.3-98.9-15.3-126.3-54.8c-21.7-31.2-31.2-66.7-55.3-97.8
			C145.7,1378.7,115.7,1277.9,150.1,1180.1z"/>
		<path class="st2" d="M2096.9,980.7c-84.6-7.5-176.9,17.8-228.8,85.1c-6.7,8.6-14.1,18.7-25,19.5c-7.3,0.5-14-3.6-19.7-8.1
			c-36.9-29.8-48.4-87.4-92-106.4c-33.8-14.7-73.4,0.9-103,22.9c-29.6,22-54.6,50.6-87.6,67.1c-50.7,25.3-116.6,15.6-158-23.1
			c-36.1-33.8-57.6-88.8-105.7-100.5c-38.3-9.4-76.4,13.7-115.2,20.8c-49.4,9.1-103-9.8-135.8-47.8c-13.2-15.4-23.1-33.4-36.5-48.5
			c-37.4-42.2-99.5-57.1-155.1-47c-55.6,10.1-105.1,42-146.4,80.4c-57.2,53.2-107.6,123.3-184,139.1
			c-57.8,11.9-118.1-11.6-164.9-47.5c-20.6-15.8-40.1-34.5-64.6-43c-21.6-7.5-44.6-6.2-66.2,1.2c4.5,36.7,4.3,73.2-5.4,109.1
			c-12,44.1-37.7,83.2-52.9,126.4c-34.4,97.8-4.4,198.6,56.9,277.7c24.1,31.1,33.6,66.6,55.3,97.8c27.5,39.5,81.2,51.5,126.3,54.8
			c218.1,16,438.8,27.8,654.4-8.9c245.6-41.8,478.7-145.7,726.4-172.2c82.7-8.8,169.1-9.6,243.5-46.7
			c71.2-35.4,125.1-103.8,142.9-181.3c17.2-74.9,0.5-156.8-44.4-219.1C2106.7,981.7,2101.8,981.1,2096.9,980.7z"/>
		<g>
			<defs>
				<path id="SVGID_1_" d="M150.1,1180.1c15.2-43.1,40.9-82.2,52.9-126.4c24-88.4-10.1-180.5-29-270.1S158.4,585,232.2,530.8
					c58.1-42.7,140-35.6,202.9-70.8c95.4-53.3,128-191.4,232-224.6c72.5-23.1,149.3,15.4,225.4,18.3
					c144.3,5.5,259.8-113.7,394.2-166.5c68.8-27,146-36.5,217.3-16.9c71.3,19.5,135.5,70.3,162.4,139.1
					c26.3,67.2,17.5,147.8,59.6,206.3c39.4,54.7,110.6,73.1,174.1,95.7c55.7,19.8,110.7,46.5,150.8,89.9
					c40.1,43.4,63,106.3,46.6,163.1c-12.9,44.5-48.5,85.2-40.7,130.9c5.4,31.5,30.3,55.2,49.8,80.6c48.5,63,67,148.1,49.2,225.6
					s-71.8,145.9-142.9,181.3c-74.4,37.1-160.8,37.9-243.5,46.7c-247.7,26.5-480.8,130.3-726.4,172.2
					c-215.6,36.7-436.3,24.9-654.4,8.9c-45.2-3.3-98.9-15.3-126.3-54.8c-21.7-31.2-31.2-66.7-55.3-97.8
					C145.7,1378.7,115.7,1277.9,150.1,1180.1z"/>
			</defs>
			<clipPath id="SVGID_2_">
				<use xlink:href="#SVGID_1_"  style="overflow:visible;"/>
			</clipPath>
			<g class="st3">
				<g>
					<path class="st4" d="M932.8,726.6c20.4-13.4,39.9-28,59.4-42.6c24.2-18.1,48.3-36.2,72.5-54.3
						c-51.8,60.4-120.2,104.6-173.8,163.4c3.5-3.8,4.1-19,5.5-24.4c1.3-5,2.4-10.4,4.9-15C908,741.8,921.8,733.8,932.8,726.6z"/>
					<path class="st4" d="M939.9,826.1c23.8-17.1,46.6-35.9,69.4-54.6c28.2-23.2,56.4-46.3,84.6-69.5
						c-60.6,77.4-140.4,134-203,209.4c4-4.9,4.7-24.4,6.4-31.3c1.6-6.4,2.8-13.4,5.8-19.2C910.9,845.7,927,835.4,939.9,826.1z"/>
					<path class="st4" d="M939.9,461.5c23.8-17.1,46.6-35.9,69.4-54.6c28.2-23.2,56.4-46.3,84.6-69.5
						c-60.6,77.4-140.4,134-203,209.4c4-4.9,4.7-24.4,6.4-31.3c1.6-6.4,2.8-13.4,5.8-19.2C910.9,481.1,927,470.8,939.9,461.5z"/>
					<path class="st4" d="M851.9,722.1c-26.9-17.7-52.7-37-78.4-56.3c-31.9-23.9-63.8-47.8-95.7-71.7
						c68.4,79.7,158.7,138.1,229.5,215.8c-4.6-5-5.4-25.1-7.3-32.2c-1.8-6.6-3.1-13.8-6.5-19.8C884.7,742.2,866.4,731.6,851.9,722.1
						z"/>
					<path class="st4" d="M857.4,930.2c-24.2-16.6-47.5-34.8-70.7-52.9c-28.8-22.5-57.5-44.9-86.3-67.4
						c61.7,75,143.1,129.9,206.9,202.9c-4.1-4.7-4.8-23.6-6.5-30.3c-1.6-6.2-2.8-12.9-5.9-18.6C886.9,949.1,870.5,939.2,857.4,930.2
						z"/>
					<rect x="876.5" y="168.7" class="st4" width="45.3" height="1303.2"/>
				</g>
				<g>
					<path class="st4" d="M1843.2,678.4c20.4-13.4,39.9-28,59.4-42.6c24.2-18.1,48.3-36.2,72.5-54.3
						c-51.8,60.4-120.2,104.6-173.8,163.4c3.5-3.8,4.1-19,5.5-24.4c1.3-5,2.4-10.4,4.9-15C1818.3,693.7,1832.2,685.7,1843.2,678.4z"
						/>
					<path class="st4" d="M1850.2,778c23.8-17.1,46.6-35.9,69.4-54.6c28.2-23.2,56.4-46.3,84.6-69.5c-60.6,77.4-140.4,134-203,209.4
						c4-4.9,4.7-24.4,6.4-31.3c1.6-6.4,2.8-13.4,5.8-19.2C1821.2,797.5,1837.4,787.2,1850.2,778z"/>
					<path class="st4" d="M1850.2,413.4c23.8-17.1,46.6-35.9,69.4-54.6c28.2-23.2,56.4-46.3,84.6-69.5
						c-60.6,77.4-140.4,134-203,209.4c4-4.9,4.7-24.4,6.4-31.3c1.6-6.4,2.8-13.4,5.8-19.2C1821.2,432.9,1837.4,422.7,1850.2,413.4z"
						/>
					<path class="st4" d="M1762.3,673.9c-26.9-17.7-52.7-37-78.4-56.3c-31.9-23.9-63.8-47.8-95.7-71.7
						c68.4,79.7,158.7,138.1,229.5,215.8c-4.6-5-5.4-25.1-7.3-32.2c-1.8-6.6-3.1-13.8-6.5-19.8C1795,694,1776.8,683.5,1762.3,673.9z
						"/>
					<path class="st4" d="M1767.7,882.1c-24.2-16.6-47.5-34.8-70.7-52.9c-28.8-22.5-57.5-44.9-86.3-67.4
						c61.7,75,143.1,129.9,206.9,202.9c-4.1-4.7-4.8-23.6-6.5-30.3c-1.6-6.2-2.8-12.9-5.9-18.6C1797.2,901,1780.8,891,1767.7,882.1z
						"/>
					<rect x="1786.9" y="120.5" class="st4" width="45.3" height="1303.2"/>
				</g>
				<g>
					<path class="st4" d="M1246.5,696.9c20.4-13.4,39.9-28,59.4-42.6c24.2-18.1,48.3-36.2,72.5-54.3
						c-51.8,60.4-120.2,104.6-173.8,163.4c3.5-3.8,4.1-19,5.5-24.4c1.3-5,2.4-10.4,4.9-15C1221.7,712.2,1235.5,704.2,1246.5,696.9z"
						/>
					<path class="st4" d="M1253.6,796.5c23.8-17.1,46.6-35.9,69.4-54.6c28.2-23.2,56.4-46.3,84.6-69.5
						c-60.6,77.4-140.4,134-203,209.4c4-4.9,4.7-24.4,6.4-31.3c1.6-6.4,2.8-13.4,5.8-19.2C1224.6,816,1240.7,805.8,1253.6,796.5z"/>
					<path class="st4" d="M1253.6,431.9c23.8-17.1,46.6-35.9,69.4-54.6c28.2-23.2,56.4-46.3,84.6-69.5
						c-60.6,77.4-140.4,134-203,209.4c4-4.9,4.7-24.4,6.4-31.3c1.6-6.4,2.8-13.4,5.8-19.2C1224.6,451.4,1240.7,441.2,1253.6,431.9z"
						/>
					<path class="st4" d="M1165.6,692.4c-26.9-17.7-52.7-37-78.4-56.3c-31.9-23.9-63.8-47.8-95.7-71.7
						c68.4,79.7,158.7,138.1,229.5,215.8c-4.6-5-5.4-25.1-7.3-32.2c-1.8-6.6-3.1-13.8-6.5-19.8
						C1198.4,712.6,1180.1,702,1165.6,692.4z"/>
					<path class="st4" d="M1171.1,900.6c-24.2-16.6-47.5-34.8-70.7-52.9c-28.8-22.5-57.5-44.9-86.3-67.4
						c61.7,75,143.1,129.9,206.9,202.9c-4.1-4.7-4.8-23.6-6.5-30.3c-1.6-6.2-2.8-12.9-5.9-18.6
						C1200.6,919.5,1184.2,909.6,1171.1,900.6z"/>
					<rect x="1190.2" y="139" class="st4" width="45.3" height="1303.2"/>
				</g>
				<g>
					<path class="st5" d="M427.4,356.3c34.9-23,68.4-48,101.9-73.1c41.4-31,82.8-62,124.3-93.1c-88.9,103.6-206.1,179.4-298,280.2
						c5.9-6.5,7-32.7,9.4-41.8c2.3-8.6,4.1-17.9,8.5-25.7C384.9,382.4,408.6,368.7,427.4,356.3z"/>
					<path class="st5" d="M404.5,503.4c23.8-17.1,46.6-35.9,69.4-54.6c28.2-23.2,56.4-46.3,84.6-69.5
						c-60.6,77.4-140.4,134-203,209.4c4-4.9,4.7-24.4,6.4-31.3c1.6-6.4,2.8-13.4,5.8-19.2C375.5,522.9,391.7,512.7,404.5,503.4z"/>
					<path class="st5" d="M316.5,399.3c-26.9-17.7-52.7-37-78.4-56.3c-31.9-23.9-63.8-47.8-95.7-71.7
						c68.4,79.7,158.7,138.1,229.5,215.8c-4.6-5-5.4-25.1-7.3-32.2c-1.8-6.6-3.1-13.8-6.5-19.8C349.3,419.5,331.1,408.9,316.5,399.3
						z"/>
					<path class="st5" d="M322,607.5c-24.2-16.6-47.5-34.8-70.7-52.9c-28.8-22.5-57.5-44.9-86.3-67.4
						c61.7,75,143.1,129.9,206.9,202.9c-4.1-4.7-4.8-23.6-6.5-30.3c-1.6-6.2-2.8-12.9-5.9-18.6C351.5,626.4,335.1,616.5,322,607.5z"
						/>
					<rect x="341.2" y="168.7" class="st5" width="45.3" height="1303.2"/>
				</g>
				<g>
					<path class="st5" d="M689.6,628.2c34.9-23,68.4-48,101.9-73.1c41.4-31,82.8-62,124.3-93.1c-88.9,103.6-206.1,179.4-298,280.2
						c5.9-6.5,7-32.7,9.4-41.8c2.3-8.6,4.1-17.9,8.5-25.7C647,654.4,670.7,640.6,689.6,628.2z"/>
					<path class="st5" d="M674.5,294.2c27.6-18.1,54-37.9,80.5-57.7c32.7-24.5,65.4-49,98.2-73.5
						c-70.2,81.8-162.8,141.7-235.4,221.4c4.7-5.1,5.5-25.8,7.4-33.1c1.8-6.8,3.2-14.1,6.7-20.3C640.9,314.9,659.6,304,674.5,294.2z
						"/>
					<path class="st5" d="M666.7,775.4c23.8-17.1,46.6-35.9,69.4-54.6c28.2-23.2,56.4-46.3,84.6-69.5
						c-60.6,77.4-140.4,134-203,209.4c4-4.9,4.7-24.4,6.4-31.3c1.6-6.4,2.8-13.4,5.8-19.2C637.7,794.9,653.8,784.6,666.7,775.4z"/>
					<path class="st5" d="M578.7,671.3c-26.9-17.7-52.7-37-78.4-56.3c-31.9-23.9-63.8-47.8-95.7-71.7
						c68.4,79.7,158.7,138.1,229.5,215.8c-4.6-5-5.4-25.1-7.3-32.2c-1.8-6.6-3.1-13.8-6.5-19.8C611.5,691.4,593.2,680.8,578.7,671.3
						z"/>
					<path class="st5" d="M601.1,426.8c-16-10.5-31.4-22-46.7-33.5c-19-14.2-38-28.4-57-42.7c40.7,47.5,94.5,82.2,136.6,128.5
						c-2.7-3-3.2-15-4.3-19.2c-1.1-3.9-1.9-8.2-3.9-11.8C620.6,438.8,609.7,432.5,601.1,426.8z"/>
					<path class="st5" d="M584.1,879.4c-24.2-16.6-47.5-34.8-70.7-52.9c-28.8-22.5-57.5-44.9-86.3-67.4
						c61.7,75,143.1,129.9,206.9,202.9c-4.1-4.7-4.8-23.6-6.5-30.3c-1.6-6.2-2.8-12.9-5.9-18.6C613.7,898.4,597.2,888.4,584.1,879.4
						z"/>
					<rect x="603.3" y="141.5" class="st5" width="45.3" height="1303.2"/>
				</g>
				<g>
					<path class="st5" d="M1595.3,525.2c34.9-23,68.4-48,101.9-73.1c41.4-31,82.8-62,124.3-93.1c-88.9,103.6-206.1,179.4-298,280.2
						c5.9-6.5,7-32.7,9.4-41.8c2.3-8.6,4.1-17.9,8.5-25.7C1552.8,551.4,1576.5,537.6,1595.3,525.2z"/>
					<path class="st5" d="M1580.2,191.2c27.6-18.1,54-37.9,80.5-57.7c32.7-24.5,65.4-49,98.2-73.5
						c-70.2,81.8-162.8,141.7-235.4,221.4c4.7-5.1,5.5-25.8,7.4-33.1c1.8-6.8,3.2-14.1,6.7-20.3
						C1546.6,211.9,1565.3,201,1580.2,191.2z"/>
					<path class="st5" d="M1572.4,672.4c23.8-17.1,46.6-35.9,69.4-54.6c28.2-23.2,56.4-46.3,84.6-69.5
						c-60.6,77.4-140.4,134-203,209.4c4-4.9,4.7-24.4,6.4-31.3c1.6-6.4,2.8-13.4,5.8-19.2C1543.4,691.9,1559.6,681.6,1572.4,672.4z"
						/>
					<path class="st5" d="M1484.4,568.3c-26.9-17.7-52.7-37-78.4-56.3c-31.9-23.9-63.8-47.8-95.7-71.7
						c68.4,79.7,158.7,138.1,229.5,215.8c-4.6-5-5.4-25.1-7.3-32.2c-1.8-6.6-3.1-13.8-6.5-19.8
						C1517.2,588.4,1499,577.8,1484.4,568.3z"/>
					<path class="st5" d="M1506.9,323.8c-16-10.5-31.4-22-46.7-33.5c-19-14.2-38-28.4-57-42.7c40.7,47.5,94.5,82.2,136.6,128.5
						c-2.7-3-3.2-15-4.3-19.2c-1.1-3.9-1.9-8.2-3.9-11.8C1526.4,335.8,1515.5,329.5,1506.9,323.8z"/>
					<path class="st5" d="M1489.9,776.4c-24.2-16.6-47.5-34.8-70.7-52.9c-28.8-22.5-57.5-44.9-86.3-67.4
						c61.7,75,143.1,129.9,206.9,202.9c-4.1-4.7-4.8-23.6-6.5-30.3c-1.6-6.2-2.8-12.9-5.9-18.6
						C1519.4,795.4,1503,785.4,1489.9,776.4z"/>
					<rect x="1509.1" y="38.5" class="st5" width="45.3" height="1303.2"/>
				</g>
			</g>
		</g>
		<g>
			<path class="st6" d="M1990.2,1244.1c-80-5.4-161.1,3.9-240.2-9.1c-49.7-8.2-97.5-25-146.7-35.8c-102-22.5-207.8-18.9-312.2-15.2
				c-103.1,3.6-206.3,7.3-309,17.7c-232.2,23.5-459.7,81.3-683,149c-43.8,13.3-88.8,27.9-129.4,48.9c10.4,20.4,23,39.9,37.2,58.3
				c24.1,31.1,33.6,66.6,55.3,97.8c27.5,39.5,81.2,51.5,126.3,54.8c218.1,16,438.8,27.8,654.4-8.9
				c245.6-41.8,478.7-145.7,726.4-172.2c82.7-8.8,169.1-9.6,243.5-46.7c49.5-24.6,90.6-65.2,117-113.6
				C2084.5,1255.7,2037.6,1247.3,1990.2,1244.1z"/>
			<g>
				<path class="st7" d="M78.6,1233.7c-6.8-29.2-11.1-60.4-1.1-88.6s38-52.1,67.7-47.9c28.1,3.9,47.3,29.7,62,53.9
					c55.5,91,95.5,191.4,117.5,295.7c3.3,15.6,12.2,35.7,27.9,32.7c15.8-3,16.5-25.2,13.2-40.9c-8-39-16.1-78-24.1-117
					c-7.8-37.8-15.6-76.7-9-114.7c6.6-38,31.2-75.5,68.4-85.7c16.9-4.6,34.9,6.2,44.2,21c9.3,14.8,11.9,32.7,14.3,50
					c11,80.1,22,160.1,33,240.2c44.4,13.1,96.8-12.4,113.9-55.5c21.1-53.3-0.2-120-48.3-151.2c-21.2-13.7-16.8-45.9-6.7-69.1
					c10.1-23.1,23.6-49.3,12.8-72.1c-5.7-11.9-16.9-20-26.2-29.4c-38.7-39.1-42.4-102.2-27-155.1c9-30.8,24.8-61.3,51.6-78.9
					c26.8-17.7,66.4-18.5,88.6,4.7c26.8,27.9,18,72.8,9.5,110.5c-8.5,37.7-11,85.3,21.3,106.5c44.6,29.2,76.6,92.6,44.6,135.2
					c-29.8,39.7,0.2,95.1,29.8,135c7.9,10.6,26.1,5.9,33.2-5.1s6.8-25.2,6.9-38.3c0.5-91.8,37.4-182.8,100.8-249.1
					c7.4-7.7,16.2-15.6,26.9-15.9c23.9-0.8,31.3,32.1,29.5,56c-6,80.5-22,167.1,17.1,237.8c10.7-95,27.9-201.7,106-256.9
					c12-8.5,30.3-14.8,40.1-3.8c5.2,5.9,5.6,14.6,5.7,22.5c0.6,54.9,1.2,109.9,1.7,164.8c0.3,29,0.3,59.2-12.2,85.3
					c-15.7,32.8-48.3,53.7-80.7,70.1c-161.8,81.9-349.4,91-530.6,98.5C446,1481,393,1492.1,341,1508.9
					c-44.9,14.5-70.5,24.5-109.3-6.8C153.6,1439.1,100.9,1329.4,78.6,1233.7z"/>
				<path class="st8" d="M271.9,1481.4c-4.7-11.5-9.4-23-14.1-34.5c3.3-29,6.6-58.1,9.9-87.1c0.4-3.6-5.2-3.6-5.6,0
					c-2.9,25.4-5.8,50.8-8.7,76.3c-8.5-20.8-16.9-41.7-25.6-62.5c4.6-4.5,1-13.3-0.2-18.6c-2.4-10.6-4.4-21.3-6-32
					c-3.8-25.2-5.2-50.7-4.6-76.2c0.1-3.6-5.6-3.6-5.6,0c-0.9,38.7,3.1,77.3,12,115c0.2,0.9,0.6,1.9,0.7,2.9
					c-4.1-9.7-8.2-19.5-12.4-29.1c-10.1-23.3-21.8-45.5-35.1-67.2c-13.2-21.4-26.6-42.8-36.1-66.2c-10.4-25.8-16-53.5-12.4-81.4
					c0.5-3.6-5.2-3.6-5.6,0c-6.5,49.1,15.3,95.1,40.3,135.9c13.4,21.9,26.7,43.6,37.5,66.9c7,15.3,13.5,30.8,19.9,46.4
					c-1.3-0.4-2.6-1-3.2-1.3c-3.7-1.8-7.1-4.7-10.5-7.1c-7.6-5.4-15-11-22.2-16.9c-13.8-11.1-27.1-23-39.7-35.5
					c-14.3-14.2-27.6-29.2-40.1-44.9c-2.3-2.8-6.2,1.2-4,4c25,31.4,53.6,60,85.3,84.7c7.4,5.8,15,11.5,22.8,16.9
					c3.8,2.6,9.1,6.4,14.1,6c3,7.3,5.9,14.5,8.9,21.8l20.6,50.2c0,0.3-0.1,0.6-0.1,0.9c-22.2-16.9-41.7-37-57.8-59.8
					c-2.1-2.9-7-0.1-4.9,2.8c17.6,24.8,39,46.5,63.5,64.5c1,0.7,2,0.6,2.8,0c3.6,8.8,7.3,17.6,10.9,26.4
					C267.8,1486.2,273.2,1484.7,271.9,1481.4z"/>
				<path class="st8" d="M422.1,1424.7c-6.5-22-5.1-44.8-5.6-67.5c-0.5-22.4-5.1-43.3-11.4-64.7c-6.5-22.1-12.1-44-13-67.1
					c-0.9-22.8,2-45.5,8.4-67.4c1-3.5-4.4-5-5.4-1.5c-9.8,33.7-11.4,69.4-4.3,103.8c3.6,17.6,9.6,34.6,14.1,51.9
					c4.6,18,6,35.8,6.1,54.3c0.1,20-0.1,40.2,5.7,59.5C417.6,1429.7,423.1,1428.2,422.1,1424.7z"/>
				<path class="st8" d="M659.9,1268.8c-6.3-15.3-17.1-26.4-26.5-39.7c-11.3-16-11-33.4-10.1-52.1c1.9-37.4-9.3-71.8-23.6-106
					c-14.2-34-30.8-68.5-33.5-105.9c-2.4-33.4,8.3-70.5,37.2-89.9c3-2,0.2-6.9-2.8-4.9c-24.4,16.5-36.9,44.6-39.7,73.3
					c-3.4,35.4,8.8,70,22.2,102.1c14.7,35.6,32.4,71.5,34.8,110.6c1.1,18.2-3,36.8,1.1,54.8c3.7,16.4,15.9,27.7,25.4,40.9
					c23.3,32.3,21.4,74.7,19.3,112.5c-0.2,3.6,5.4,3.6,5.6,0C670.8,1332.7,672.3,1298.9,659.9,1268.8z"/>
				<path class="st8" d="M893.5,1067.4c-12.9,3.8-18.8,16.3-22.2,28.2c-4.9,17.1-8.7,35.3-9.9,53.1c-2.7,38.1,11.1,74.7,12,112.5
					c0.5,20-2.7,40.1-13.3,57.3c-1.9,3.1,3,5.9,4.9,2.8c16.9-27.5,15.7-60.9,11-91.7c-2.9-18.8-7.1-37.5-8.6-56.5
					c-1.6-19.7,0.8-38.7,5.1-57.9c3.2-14.4,5.9-37.6,22.7-42.6C898.4,1071.8,897,1066.4,893.5,1067.4z"/>
			</g>
			<g>
				<path class="st7" d="M2089.2,1079.1c3-25.9,3.6-53.4-7.8-76.9s-38.1-41.4-63.4-34.8c-23.9,6.2-38,30.4-48.4,52.8
					c-39.1,84.3-63.8,175.3-72.6,267.8c-1.3,13.9-7,32.2-20.9,31.1c-14-1.1-16.8-20.2-15.5-34.1c3.1-34.6,6.2-69.2,9.3-103.8
					c3-33.5,5.9-68-3.6-100.2s-34.5-62.3-67.7-67.5c-15.1-2.4-29.6,8.8-36.2,22.5c-6.6,13.7-7.1,29.5-7.4,44.8
					c-1.6,70.5-3.3,140.9-4.9,211.4c-37.2,15.8-85.1-1.2-104.2-36.8c-23.6-44.1-11.7-104,27-135.7c17-14,10.1-41.5-1-60.5
					c-11-19-25.3-40.3-18.2-61.2c3.7-10.9,12.7-19,19.8-28.1c29.7-37.7,26.7-92.8,8-137c-10.8-25.8-27.5-50.6-52.5-63.3
					c-25-12.7-59.3-9.5-76.3,12.8c-20.4,26.8-8.4,64.9,2.7,96.7c11.1,31.8,18,72.9-8,94.4c-35.8,29.7-57.2,87.8-25.3,121.5
					c29.7,31.4,9.2,82.4-12.5,119.9c-5.8,9.9-22,7.7-29.3-1.1c-7.3-8.9-8.4-21.1-9.7-32.5c-9.5-79.4-50.4-154.7-111.9-205.9
					c-7.2-6-15.6-11.9-24.8-11.2c-20.8,1.7-23.9,30.9-20,51.4c13.2,69.2,35.6,142.6,8.7,207.7c-18.7-81.3-44.1-172-117.2-212.1
					c-11.3-6.2-27.7-9.8-35.1,0.7c-4,5.7-3.4,13.2-2.7,20.1c4.9,47.6,9.8,95.3,14.8,142.9c2.6,25.2,5.6,51.3,19,72.7
					c16.8,26.8,47.2,41.8,76.9,52.8c148.3,55,311.7,44.3,469.5,32.9c47.7-3.4,94.7,0.9,141.4,10.3c40.3,8.1,63.5,14.3,94-16.7
					C2044.5,1264.5,2079.3,1164.2,2089.2,1079.1z"/>
				<path class="st8" d="M1946.2,1312.8c3-10.4,5.9-20.8,8.8-31.2c-5.7-24.8-11.4-49.7-17.2-74.5c-0.7-3.1,4.2-3.6,4.9-0.6
					c5,21.7,10,43.5,15,65.2c5.3-18.9,10.6-37.8,16-56.7c-4.4-3.5-2.2-11.4-1.7-16.1c1-9.4,1.7-18.9,2-28.4
					c0.8-22.2-0.5-44.5-3.5-66.5c-0.4-3.1,4.5-3.7,4.9-0.6c4.6,33.4,4.9,67.3,0.9,100.8c-0.1,0.8-0.4,1.7-0.3,2.5
					c2.6-8.8,5.2-17.7,7.8-26.5c6.4-21.2,14.4-41.6,23.8-61.7c9.3-19.9,18.9-39.7,24.7-60.9c6.4-23.4,8.6-48,2.7-71.7
					c-0.8-3.1,4.1-3.6,4.9-0.6c10.5,41.9-3.9,83.9-21.5,121.8c-9.4,20.3-18.8,40.4-25.8,61.7c-4.6,13.9-8.6,28.1-12.6,42.2
					c1.1-0.4,2.1-1.1,2.6-1.4c3-2,5.7-4.8,8.4-7.2c6-5.4,11.9-11,17.6-16.8c10.9-11,21.2-22.6,30.9-34.7
					c10.9-13.7,21.1-28,30.3-42.8c1.7-2.7,5.5,0.4,3.9,3.1c-18.6,29.7-40.5,57.2-65.5,81.8c-5.9,5.8-11.9,11.4-18.1,16.9
					c-3,2.7-7.2,6.4-11.6,6.6c-1.8,6.6-3.7,13.2-5.5,19.7l-12.9,45.5c0.1,0.3,0.1,0.5,0.2,0.8c17.5-16.8,32.5-36.2,44.2-57.5
					c1.5-2.8,6-0.8,4.5,2c-12.8,23.2-29.2,44.1-48.6,62.2c-0.8,0.7-1.7,0.7-2.4,0.3c-2.3,8-4.5,16-6.8,24
					C1950.2,1316.6,1945.3,1315.9,1946.2,1312.8z"/>
				<path class="st8" d="M1810.4,1278.5c3.4-19.7,0-39.4-1.8-59c-1.8-19.4,0.1-38,3.5-57.2c3.4-19.8,6.1-39.3,4.6-59.4
					c-1.5-19.8-6.2-39.2-13.9-57.5c-1.2-2.9,3.3-4.8,4.6-1.8c11.8,28.2,16.7,59,14,89.5c-1.4,15.6-4.9,30.9-7.1,46.4
					c-2.2,16-1.7,31.6,0,47.7c1.9,17.3,4,34.8,1,52.1C1814.7,1282.4,1809.9,1281.7,1810.4,1278.5z"/>
				<path class="st8" d="M1589,1167c4-13.9,12.2-24.6,19-37c8.2-15,6.3-30,3.6-46.2c-5.3-32.3,1-63.1,10-94.1
					c9-30.9,19.9-62.4,18.6-95.1c-1.2-29.1-14.1-60.2-41.1-74.2c-2.8-1.5-0.8-6,2-4.5c22.8,11.8,36.4,35,41.7,59.6
					c6.5,30.3-0.7,61.5-9.1,90.7c-9.3,32.3-21,65.1-19.2,99.2c0.8,15.9,6.2,31.6,4.5,47.6c-1.6,14.6-11,25.6-17.9,37.9
					c-17,30.3-11.1,66.8-5.6,99.4c0.5,3.1-4.4,3.7-4.9,0.6C1585.8,1223.4,1581.2,1194.3,1589,1167z"/>
				<path class="st8" d="M1366.7,1015.5c11.5,2,17.9,12.2,22.1,22.3c6,14.4,11,29.7,13.8,45c6.1,32.7-2.2,65.8,0.8,98.7
					c1.6,17.4,6.3,34.5,17.2,48.4c2,2.5-2,5.4-3.9,2.9c-17.3-22.2-19.6-51.2-18.6-78.3c0.7-16.6,2.4-33.2,1.9-49.8
					c-0.6-17.2-4.6-33.5-10.1-49.7c-4.2-12.1-8.8-32-23.8-34.6C1362.8,1019.9,1363.6,1015,1366.7,1015.5z"/>
			</g>
			<g>
				<path class="st9" d="M258.4,1452.6c-41.4,14.6-83.2,30.5-117.9,57.4c-34.7,26.9-61.8,66.9-63,110.8c-0.3,12.4,1.7,25.6,9.6,35.2
					c6.2,7.5,15.3,12,24.3,15.6c88.7,35.9,190.1,14.2,283.8,33.4c65.1,13.4,124.6,46.1,188.9,63c52.6,13.9,107.5,16.9,161.8,19.8
					c95.6,5.1,191.2,10.3,286.7,15.4c30.1,1.6,61.4,3,89-9.1c29.8-13.1,55.5-41.8,88-38.8c293.2,27.1,593.6-30.7,855.9-164.4
					c25.6-13.1,54.2-32.1,54.7-60.8c0.4-21.2-15.1-38.7-26.7-56.4c-11.7-17.7-19.6-42.8-5.6-58.7c24.9-28.4-6-72.1-39.2-90.3
					c-106.6-58.6-237.8-32.4-358.5-47.4c-45.5-5.7-91.1-26.4-136.2-29.4c-34.2-2.3-70.5,4.7-105.4,4.4
					c-98.1-0.6-196.1,2.9-293.9,10.5c-195.5,15.2-389.8,46.9-580,94.5C467.9,1384.1,362.3,1415.9,258.4,1452.6z"/>
			</g>
			<g>
				<path class="st10" d="M2093.6,1473.8c-11.7-17.7-19.6-42.8-5.6-58.7c24.9-28.4-6-72.1-39.2-90.3
					c-58.7-32.2-124.8-38.8-192.6-40.7c0.3,6.6-0.5,13.3-2.6,19.8c-8.3,25.3-34.7,47.8-26,72.9c6.4,18.4,29,25.7,48.5,24.8
					c19.5-0.9,38.7-7.4,58.1-5.3c52.5,5.6,79.2,73.6,61,123.2s-65.2,82.2-111.7,107.3c-191.1,103.6-420,135.4-632.1,87.9
					c-41.2-9.2-83.5-21.4-125-13.5c-33.3,6.3-69,25-98.7,8.7c-7.7-4.2-14.1-10.5-21.7-15c-25.7-15.2-59.2-6.7-84.9,8.6
					c-25.7,15.3-47.5,36.9-74.4,49.8c-44.8,21.5-97.9,16.4-145.8,3.3c-47.9-13-93.9-33.5-142.9-41.8c-26.5-4.5-54.3-5.6-78.6-17
					c-18.9-8.9-34.4-23.5-51.7-35.3c-61.8-42.3-145.5-49.4-198.5-102.2c-8.4-8.3-16-18.3-17.7-29.9c-1.8-11.9,2.9-23.8,8-34.7
					c5.8-12.4,12.3-24.4,19.5-36.1c-34.9,12.9-69.2,27.7-98.5,50.3c-34.7,26.9-61.8,66.9-63,110.8c-0.3,12.4,1.7,25.6,9.6,35.2
					c6.2,7.5,15.3,12,24.3,15.6c88.7,35.9,190.1,14.2,283.8,33.4c65.1,13.4,124.6,46.1,188.9,63c52.6,13.9,107.5,16.9,161.8,19.8
					c95.6,5.1,191.2,10.3,286.7,15.4c30.1,1.6,61.4,3,89-9.1c29.8-13.1,55.5-41.8,88-38.8c293.2,27.1,593.6-30.7,855.9-164.4
					c25.6-13.1,54.2-32.1,54.7-60.8C2120.7,1509,2105.3,1491.5,2093.6,1473.8z"/>
			</g>
			<g>
				<path class="st11" d="M539.3,1663.5c7.3,14.3,23,22.5,38.5,26.6c30.4,8,64,3.1,90.9-13.2c8.9-5.4,20.2-12.1,28.7-6.1
					c9.7,6.7,9.3,26.2,21.1,26.2c6.6-27.2,11.9-54.8,15.7-82.5c-3.8-2.5-9,0.6-11.5,4.3c-2.6,3.8-4.1,8.4-7.9,11.1
					c-9.2,6.6-25.1-4.7-34.9-6.1c-13.5-1.9-32.5,0.6-46.1,2C599.7,1629.4,566.4,1642.4,539.3,1663.5z"/>
			</g>
			<g>
				<path class="st11" d="M1466.6,1648.8c7.3,14.3,23,22.5,38.5,26.6c30.4,8,64,3.1,90.9-13.2c8.9-5.4,20.2-12.1,28.7-6.1
					c9.7,6.7,9.3,26.2,21.1,26.2c6.6-27.2,11.9-54.8,15.7-82.5c-3.8-2.5-9,0.6-11.5,4.3c-2.6,3.8-4.1,8.4-7.9,11.1
					c-9.2,6.6-25.1-4.7-34.9-6.1c-13.5-1.9-32.5,0.6-46.1,2C1527,1614.7,1493.8,1627.7,1466.6,1648.8z"/>
			</g>
			<g>
				<path class="st11" d="M357.6,1505.6c5.7,11.2,17.9,17.6,30.1,20.8c23.8,6.2,50,2.4,71-10.3c6.9-4.2,15.7-9.4,22.4-4.8
					c7.6,5.2,7.3,20.5,16.5,20.4c5.2-21.2,9.3-42.7,12.3-64.4c-3-2-7,0.4-9,3.4c-2,2.9-3.2,6.6-6.1,8.7c-7.2,5.1-19.6-3.7-27.2-4.7
					c-10.5-1.5-25.4,0.4-36,1.6C404.8,1479,378.8,1489.2,357.6,1505.6z"/>
			</g>
			<g>
				<path class="st0" d="M799.2,1614.1c-49.8,0-103.6-6.3-153-28.2c-15.7-6.9-29.5-16.7-38.8-27.5c-11.3-13.1-15.7-27.2-12.6-41
					c4.2-19.1,21.6-31.8,38.1-41.7c76-45.6,163.1-70,251.7-70.5c14.9-0.1,30.3,0.5,45.2,1c54.1,1.9,110,3.9,156.2-23.1
					c7.4-4.3,14.4-9.3,21.3-14.2c8.7-6.2,17.8-12.6,27.5-17.6l0,0c48.3-24.2,103.7-16.7,157.3-9.6c12.2,1.6,23.7,3.2,35.1,4.4
					c58.2,6,117.4,12,174.6,17.8c29.1,2.9,58.2,5.9,87.4,8.8c30.1,3.1,64.2,6.5,91.3,24.6c25.7,17.1,44,53.7,28.9,82.9
					c-8.4,16.2-24.8,26.4-40.9,35.4c-36.2,20.3-79.5,42.4-126.5,51.4c-49.3,9.5-100.3,4.5-149.7-0.4c-18.4-1.8-37.3-3.7-55.9-4.8
					c-100.1-5.9-201.2,10.2-298.9,25.7c-54.1,8.6-109.9,17.5-165.2,22.6C849.6,1612.4,824.9,1614.1,799.2,1614.1z M887.5,1406.4
					c-1,0-2,0-3,0c-88.5,0.5-175.3,24.8-251.1,70.4c-16.3,9.8-33.4,22.3-37.6,41c-3,13.4,1.3,27.2,12.4,40
					c9.2,10.6,22.9,20.3,38.4,27.2c74.8,33.1,159.7,30.4,225.4,24.3c55.2-5.1,111.1-14,165.1-22.6c97.8-15.6,198.9-31.7,299.1-25.8
					c18.6,1.1,37.6,3,56,4.8c49.3,4.9,100.3,9.9,149.4,0.4c46.9-9.1,90.1-31,126.2-51.3c16-9,32.3-19.1,40.5-35
					c11.5-22.3,3.9-59.8-28.6-81.4c-26.9-18-60.9-21.4-90.8-24.4c-29.1-3-58.2-5.9-87.3-8.8c-57.2-5.8-116.4-11.8-174.6-17.8
					c-11.5-1.2-23-2.7-35.1-4.4c-53.4-7.2-108.6-14.6-156.6,9.4l0,0c-9.6,4.9-18.6,11.3-27.3,17.5c-6.9,4.9-14,9.9-21.4,14.2
					c-46.5,27.1-102.6,25.1-156.8,23.2C915.7,1406.9,901.4,1406.4,887.5,1406.4z"/>
			</g>
			<g>
				<path class="st11" d="M671.2,1492.9c-5,4.6-9.9,9.9-10.9,16.6c-1.9,12.3,9.9,22.1,20.8,28c71.3,38.3,158,24.8,238,12.6
					c112.8-17.2,226.7-29.7,340.8-28.9c136.9,1,281.6,19.6,404.1-41.5c4.3-2.1,8.6-4.5,11.7-8.1c13-15.4-4.7-37.7-22-47.9
					c-59.5-35.2-131.1-43.7-200.2-43.5c-69.1,0.2-138.4,8.4-207.3,3c-23.6-1.8-47.4-5.2-70.9-1.8c-49.4,7.3-89.5,43.5-136.9,59.3
					c-46.2,15.3-96.3,10.3-144.9,8.9C821.1,1447.5,728.8,1440.1,671.2,1492.9z"/>
			</g>
			<g>
				<path class="st0" d="M639.1,1703.4c-28.9,0-59.2-11-88.3-22.9l-85.1-34.6c-23-9.4-46.1-20.3-54.2-42.4
					c-12.4-33.8,21-67,31.6-76.4l0,0c15.1-13.5,46-37.7,82.5-48.8c35.9-10.9,66.3-5.8,90.3,15.2c19.1,16.8,28.4,43.8,23.6,68.7
					c-0.8,4.3-2.1,8.7-3.3,12.9c-3.1,10.9-6.2,22.1-2.7,32.7c5.2,15.8,22,22.5,38.2,29c4.6,1.8,9.4,3.7,13.7,5.8
					c3.8,1.8,8.6,4.4,11.9,8.5c5.8,7.3,6,18.8,0.4,28c-4.5,7.4-12.2,13.3-23,17.7C663.2,1701.5,651.2,1703.4,639.1,1703.4z
					 M443.8,1528.1c-10.4,9.3-43.4,42.1-31.3,75.1c7.9,21.6,30.8,32.4,53.6,41.7l85.1,34.6c41.2,16.7,84.6,31.8,123.1,16.3
					c10.5-4.2,18.1-10,22.4-17.2c5.3-8.8,5.2-19.8-0.4-26.7c-3.1-3.9-7.8-6.4-11.5-8.2c-4.3-2.1-9.1-4-13.7-5.8
					c-16.5-6.6-33.5-13.4-38.9-29.7c-3.6-10.9-0.4-22.3,2.7-33.3c1.2-4.2,2.4-8.6,3.2-12.8c4.7-24.6-4.4-51.2-23.2-67.7
					c-23.7-20.8-53.7-25.8-89.2-15C489.5,1490.5,458.8,1514.7,443.8,1528.1L443.8,1528.1z"/>
			</g>
			<g>
				<path class="st0" d="M1814.6,1587.6c-14.5,0-29.4-0.8-45-1.8c-9-0.6-20.6-3.5-26.1-9.9c-2.4-2.8-3.5-6.1-3.1-9.8
					c0.5-5.3,4.2-9.6,8-13.4l0,0c17.5-17.4,38.8-30.4,59.4-42.9c16.4-10,33.4-20.3,48.3-32.8c13.2-11.1,24.4-24.6,35.3-37.7
					c11.3-13.6,22.9-27.7,36.7-38.9c13.8-11.2,28.3-15.8,40-12.6c9.9,2.7,17.4,10.6,22.3,23.6c7.3,19.4-8.7,52-21.6,78.1
					c-4.5,9.2-8.8,17.9-11.4,24.7c-11.7,30.7-41.8,55.5-80.6,66.1C1856.7,1585.8,1836.1,1587.6,1814.6,1587.6z M1749.3,1553.4
					c-3.7,3.7-7.2,7.8-7.7,12.7c-0.3,3.3,0.6,6.3,2.9,8.9c5.3,6.2,16.5,9,25.3,9.5c38.5,2.5,73.1,3.8,106.8-5.5
					c38.4-10.6,68.3-35.1,79.8-65.5c2.6-6.8,6.9-15.5,11.4-24.8c12.8-26,28.7-58.3,21.6-77.2c-4.8-12.6-12-20.3-21.6-22.9
					c-11.3-3.1-25.5,1.5-39,12.4c-13.7,11.2-25.3,25.2-36.6,38.8c-10.9,13.2-22.1,26.8-35.4,37.9c-15,12.6-32,22.9-48.4,32.9
					C1787.9,1523.2,1766.7,1536.1,1749.3,1553.4L1749.3,1553.4z"/>
			</g>
		</g>
		<g>
			<path class="st12" d="M600.3,1144.3c12.3,0.5,24.7-2.5,35.3-8.5c-15,14.5-27.5,31.6-36.7,50.3c5.4,0.7,10.3-3,14.5-6.4
				c10.8-9,21.7-17.9,32.5-26.9c-9.5,14.4-16.4,30.5-20.5,47.2c-0.3,1.1-0.5,2.3,0,3.4c1.5,3.2,6.4,0.3,8.4-2.6
				c9.1-13.5,18.3-27,27.4-40.4c-6.1,16.8-12.3,34.3-10.3,52.1c4-0.2,7-3.7,9-7.1c9.8-16,12.2-36.4,25-50.1
				c15.3-16.2,39.9-17.8,61.3-23.8c4.8-1.3,10.6-5.8,7.9-9.9c-1.1-1.6-3.1-2.3-5-2.6c-8.3-1.5-16.9,0.7-25.3,0.7
				c-13.2,0-20.9-6.2-31.8-11.9c-6.3-3.3-6.5-2.1-13.4,1.3c-5.2,2.5-10.6,4.6-16,6.6C641.1,1123.4,617.7,1128.8,600.3,1144.3z"/>
			<path class="st13" d="M754,1121.3c-1.1-1.6-3.1-2.3-5-2.6c-8.3-1.5-16.9,0.7-25.3,0.7c-13.2,0-20.9-6.2-31.8-11.9
				c-3.1-1.6-4.7-2.1-6.4-1.9c-1.3,3.5-1,7.7,1.4,10.6c4.4,5.5,12.6,5.4,19.5,7c2.6,0.6,5.6,2.5,5,5c-0.2,0.8-0.8,1.5-1.3,2.1
				c-5.8,6-14.7,7.4-22.1,11c-9.1,4.5-16.2,12.9-19.2,22.6c-1.5,5-2,10.3-3,15.5c-1.9,10.6-5.8,20.7-10.1,30.7
				c1.7-1.4,3.1-3.2,4.2-5.1c9.8-16,12.2-36.4,25-50.1c15.3-16.2,39.9-17.8,61.3-23.8C750.9,1129.9,756.7,1125.5,754,1121.3z"/>
			<path class="st13" d="M1340.9,22c-3.2-4.3-9.5-4.8-13.3-0.9L338.8,1047.2c-3.2,3.3-3.5,8.5-0.8,12.3v0c3.5,4.7,10.4,5.1,14.4,0.9
				l987.7-1027C1343.1,30.2,1343.4,25.4,1340.9,22z"/>
			<path class="st12" d="M1037.7,278.8c-2.9,0.1-5.9,0.6-8.6,1.9c-2.8,1.4-5.1,3.7-7.2,6c-8.4,8.9-17.1,18.2-20.6,29.9
				c-0.2,0.7-0.6,1.5-0.2,2c18.5,22.3,15,26.3,16.8,26c7-1.4,14.4-15.4,17.9-20.6c3.4-5.2,4.1-2.2,8,2.7c3.9,4.9,3.5,13.4-2,16.3
				c7.4,4,16.5-1.8,21.5-8.6c5.2-7.1,9-13.6,15.8-19.3c6-5,9.8-6,5.3-14.5C1076.7,285.8,1052.9,278,1037.7,278.8z"/>
			<path class="st12" d="M1049.3,991.5c0,0-254.7,253.4-269.3,323.7c-14.7,70.2-28.7,217.1-28.7,217.1s36,11.3,64.4-0.8
				c0,0,90.6-250.7,284.4-351.7l119.1-40.8c0,0,112.7,202.2,153.9,231.2s164.6,89.1,164.6,89.1h50.5l-162.8-177.3l-83.8-193.6
				c0,0,28.8-116.3-37-146.5C1304.7,942.1,1139.1,994.2,1049.3,991.5z"/>
			<path class="st14" d="M1325.7,1085.2c-13.3-2.5-25.3-11.4-31.5-23.5c9.8,25.2,32.4,44.7,58.3,51.9l-10.8-25
				c0,0,28.8-116.3-37-146.5c0,0-2.6,0.8-7.4,2.3c1,4.3,1.8,7.7,1.9,7.7C1322.5,991.8,1332,1039.5,1325.7,1085.2z"/>
			<path class="st13" d="M1431.3,1288.5c-4.9,14.1-12.8,27.1-23.2,37.8c-5.6,5.8-14.2,11.2-21.3,7.3c-3-1.7-5-4.7-6.8-7.6
				c-26.4-42-52.8-83.9-79.3-125.9c-10.7-17-21.5-34.3-27.4-53.5c-5.2-17.1-6.4-35.3-6.8-53.2c-1-44.7,2.2-89.6,9.6-133.7
				c0.5-3.1,1.1-6.4,1.3-9.6c-45.3,13-137.9,37.3-205.1,41c-13,33.3-23.9,67.5-32.4,102.2c-3.7,15.2-7.1,30.7-14.7,44.4
				c-6.9,12.5-17,23-27,33.2c-28.2,29-56.4,58-84.6,87.1c-12.8,13.2-25.9,26.6-42.4,34.8c-16.4,8.2-37.1,10.4-52.8,0.9
				c-8.1-4.9-14-13.5-16.3-22.6c-11.9,18-19.9,33.3-22.2,44.1c-14.7,70.2-28.7,217.1-28.7,217.1s36,11.3,64.4-0.8
				c0,0,90.6-250.7,284.4-351.7l119.1-40.8c0,0,112.7,202.2,153.9,231.2c41.2,29.1,164.6,89.1,164.6,89.1h50.5L1431.3,1288.5z"/>
			<path class="st12" d="M1253.4,541.5c0,0-268.7,92.8-292.2,115.3c-23.4,22.6-281,211.8-288.4,267.8c-7.3,56,2.2,188.4,2.2,188.4
				l21.3-2.5c0,0-9-115.8,92.5-192.1s194.9-129.8,194.9-129.8s70.3,133,65.5,202.8c0,0,134.4,81.9,267.7-44.6
				c0,0,106.3-478.9,57.3-569.2c-49.1-90.3-298.9-80.3-298.9-80.3l-5.3,22.5c0,0,190.3,81.6,191.8,131.6
				C1263.5,501.4,1253.4,541.5,1253.4,541.5z"/>
			<path class="st14" d="M1374.3,377.7c-5.2-9.6-12.7-18.1-22-25.6c-44.5,9.6-86.9,28.7-123.5,55.6c14.3,11.3,25.3,22.5,30.2,32.8
				c42.8-3.6,85.1-13.7,124.9-29.6C1381.9,397.2,1378.7,385.9,1374.3,377.7z"/>
			<path class="st14" d="M1097.4,884.8c-26.2-4.3-53.3-9.7-78.2-19c16.7,41.6,32.6,91.4,30.2,125.8c0,0,134.4,81.9,267.7-44.6
				c0,0,6.7-30.2,16-76.8c-43.5,15.9-89.5,24.8-135.7,24.7C1163.8,894.8,1130.4,890.2,1097.4,884.8z"/>
			<path class="st13" d="M1310.3,621.7c-0.6,88.6-10.3,177-28.8,263.6c17.4-3.9,34.6-9,51.5-15.2c-8.6,43.5-15,72.7-15.9,76.4
				c1.9-8.5,32.9-149.6,53-290.9C1346.7,653.1,1324.2,640.9,1310.3,621.7z"/>
			<path class="st12" d="M1333,870.2c-16.8,6.2-34,11.2-51.5,15.2c-7.7,36.2-17,72-27.8,107.4c20.8-10.7,42-25.6,63.3-45.7
				c0,0,0-0.1,0.1-0.2c0-0.1,0-0.1,0-0.2C1317.9,942.8,1324.4,913.7,1333,870.2z"/>
			<path class="st14" d="M751.3,892.9c-13.3-8.3-29.6-10.7-45.3-9.8c-2.7,0.1-5.4,0.4-8.1,0.7c-14.4,16.7-23.7,30.9-25,40.9
				c-0.1,1.1-0.3,2.3-0.4,3.5c5.8,3.5,11.7,6.8,17.7,9.9c17.7,9.2,37,16.9,56.9,16.2c1.4-0.1,2.8-0.2,4.1-0.3
				c6.6-7.8,14-15.4,22.3-22.8C774.1,915.7,764.4,901,751.3,892.9z"/>
			<path class="st13" d="M927.7,794.9c-49,31.3-96.6,64.8-142.7,100.2c-17.7,13.6-35.2,27.6-49.4,44.8
				c-22.6,27.4-35.5,61.6-42.3,96.5c-4.8,24.9-6.7,50.2-7.7,75.5l10.8-1.3c0,0-9-115.8,92.5-192.1s194.9-129.8,194.9-129.8
				s1.4,2.7,3.8,7.4c-2.2-9.6-4.3-19.1-6.5-28.7C962,773.4,944.7,784,927.7,794.9z"/>
			<path class="st13" d="M1281.9,565.3c7.9-33.3,12-67.5,12.4-101.7c0.1-10.5-0.3-21.4-5.4-30.6c-4.7-8.5-12.9-14.4-20.9-19.9
				c-61.5-42.7-123.3-87.2-193.1-113.5l-4.8,20.3c0,0,190.3,81.6,191.8,131.6c1.3,42.9-6,78.5-8,87.7
				C1264.1,547,1273.5,555.7,1281.9,565.3z"/>
			<path class="st15" d="M1107.6,698.8c41.6-11,76.3-41.2,99.8-77.3c15.2-23.4,26.1-49.3,34.4-76c-49.4,17.2-241.1,84.9-276.5,108.2
				C999.3,693.5,1056.8,712.3,1107.6,698.8z"/>
			<g>
				<path class="st16" d="M967.4,579.9c-1.9-7.3,8.1-12,10.5-19.1c2.6-7.6-4.2-16.5-0.6-23.7c3.9-7.9,16.4-6.7,22.2-13.3
					c2.6-3,3.4-7,4.8-10.7c6.4-16.6,27.2-25.9,43.8-19.6c4.2,1.6,8.2,4.1,12.7,4.3c6.2,0.3,11.6-3.8,17.1-6.6
					c5.5-2.9,13-4.4,17.3,0.1c5.6,5.8,0.8,16,4.2,23.4c3.2,6.8,11.9,8.6,17.6,13.5c6,5.2,8.1,14.3,5,21.6c-1.9,4.5-5.6,9.6-2.8,13.6
					c0.8,1.2,2,2,3.1,2.9c4.8,4.2,6.2,11.5,4.2,17.5c-2.1,6-7.3,10.6-13.3,12.8c-3.5,1.3-7.3,1.7-10.8,2.9c-5.4,1.8-10,5.3-14.9,8.2
					c-9.6,5.7-21.8,10.4-33.1,10.5c-9.1,0.1-18.4-2-27.7-2.1c-8.4-0.1-16.6-1.2-24.4-4.5c-4.8-2.1-8.4-4.4-10.4-9.5
					c-1.7-4.4-0.5-8.1-4.5-11.5C981.8,586,969.6,588.2,967.4,579.9z"/>
				<path class="st17" d="M1122.3,566.2c-1.1-0.9-2.3-1.7-3.1-2.9c-2.7-4,0.9-9.2,2.8-13.6c3.1-7.3,1-16.4-5-21.6
					c-5.7-4.9-14.4-6.7-17.6-13.5c-3.4-7.3,1.4-17.5-4.2-23.4c-4.3-4.5-11.8-3-17.3-0.1c-5.5,2.9-10.9,6.9-17.1,6.6
					c-4.5-0.2-8.5-2.7-12.7-4.3c-4.8-1.8-10-2.4-15.2-1.7c2.9,0.5,5.8,1.5,8.4,2.8c2,1,4,2.4,5.3,4.3c3.5,5.2,0.7,12.7,3.7,18.1
					c2.4,4.2,7.6,6,12.4,6.6c4.8,0.6,9.9,0.5,14.3,2.5c9.6,4.4,11.8,19.5,3.8,26.5c-3.3,2.9-8.4,5.4-7.9,9.8
					c0.2,1.9,1.4,3.4,2.5,4.9c8.1,10.9,12.6,24.5,12.7,38.2c0,0.6,0,1.1,0,1.7c4.6-2.8,9-6,14.1-7.7c3.5-1.2,7.3-1.7,10.8-2.9
					c6-2.1,11.2-6.8,13.3-12.8C1128.5,577.7,1127.1,570.4,1122.3,566.2z"/>
				<path class="st12" d="M1016.5,633.6c2.5,5.8,5.8,11.7,11.3,14.8c5.5,3.1,12.4,2.9,18.5,1.2c1.7-0.5,3.7-1,5.1,0.1
					c0.7,0.6,1,1.5,1.3,2.3c2.5,7.4,4.9,14.8,7.4,22.3c0.6,1.8,1.3,3.7,2.7,5c1.3,1.1,3.1,1.5,4.8,1.6c13.5,1.3,25.6-8,35.4-17.5
					c1.5-1.5,3.1-3.1,3.5-5.2c0.4-2.4-0.9-4.7-2.1-6.9c-5.7-9.8-11.4-19.6-17.1-29.4c11.7,0.3,21.5-10.4,23.8-21.9
					c1.5-7.3,0.4-15.6-4.7-21.1c-5.1-5.5-14.6-7.1-20.2-2c-1.9,1.7-3.6,4.2-6.2,4.1c-2.1-0.1-3.7-2-5.4-3.3c-4.6-3.6-11.2-2.9-17-2
					c-13,2-37.6,0.7-46.1,13.1C1003.1,601.3,1012.4,621.2,1016.5,633.6z"/>
				<path class="st13" d="M1073,627c-7.2,7.1-14.5,14.3-23,19.8c-1.8,1.1-3.6,2.2-5.5,3.2c0.6-0.1,1.2-0.3,1.7-0.4
					c1.7-0.5,3.7-1,5.1,0.1c0.7,0.6,1,1.5,1.3,2.3c1.4,4.3,2.9,8.6,4.3,13c0.5-0.4,0.9-0.7,1.3-1.1
					C1068.6,654.8,1074.2,640.7,1073,627z"/>
				<path class="st13" d="M1089.7,581.1c0.7-4.1,0.8-8.3,0.3-12.4c-21.2,0.6-42.1,4.2-63,7.8c-3.5,0.6-27.6,2.6-27.4,7.1
					c0.3,4.7,15.7,4.8,18.5,4.6C1023.7,587.9,1090,579.6,1089.7,581.1z"/>
				<path class="st13" d="M1089.5,592.4c1.9-2.8,6.2-4,8.9-1.9c1.9,1.5,2.5,4,2.8,6.4c0.5,4,1.4,11.2-1.3,14.7c-2.4,3-2.3,1.3-3-1.3
					c-0.4-1.4-0.3-3.1-1.2-4.4c-1.5-2.4-2.4-1.4-4.5-2.2C1087.2,602.1,1086.8,596.2,1089.5,592.4z"/>
				<path class="st13" d="M1033.6,628.1c-1.3,0.9-2.9,2.2-4.4,2.5c-2.9,0.7-2.9-1.4-3.2-3.8c-0.5-4-0.7-8-0.6-12
					c0.1-2.2-3.3-2.2-3.4,0c-0.1,3.6,0,7.3,0.4,10.9c0.3,2.3,0.3,5.2,1.6,7.1c2.8,3.9,8.4,0.3,11.2-1.8
					C1037.1,629.8,1035.4,626.9,1033.6,628.1z"/>
				<path class="st13" d="M1041.8,588.7c-5.9,2.8-10.7,7-14.3,12.4c-1.2,1.8,1.7,3.5,2.9,1.7c3.3-4.9,7.8-8.7,13.1-11.2
					C1045.5,590.7,1043.8,587.8,1041.8,588.7z"/>
				<path class="st13" d="M1036.8,606.7h-0.3c-0.9,0-1.7,0.8-1.7,1.7c0,0.9,0.7,1.7,1.7,1.7h0.3c0.9,0,1.7-0.8,1.7-1.7
					C1038.5,607.5,1037.8,606.7,1036.8,606.7z"/>
				<path class="st13" d="M1017.6,605.5c-2.7-2.9-5.9-5.2-9.5-6.8c-2-0.9-3.7,2-1.7,2.9c3.4,1.5,6.3,3.6,8.8,6.3
					C1016.6,609.5,1019,607.1,1017.6,605.5z"/>
				<path class="st13" d="M1016.3,609.8c-0.9,0-1.7,0.7-1.7,1.7v0.3c0,0.9,0.8,1.7,1.7,1.7c0.9,0,1.7-0.7,1.7-1.7v-0.3
					C1018,610.6,1017.2,609.7,1016.3,609.8z"/>
				<path class="st13" d="M1050.1,623.5c-6.3,2.7-11,8-13.3,14.4c-0.7,2.1,2.5,2.9,3.3,0.9c2-5.7,6.3-10,11.8-12.4
					C1053.8,625.5,1052.1,622.6,1050.1,623.5z"/>
			</g>
			<path class="st0" d="M1068.9,606.3c-5.4-2.1-11-3.1-16.8-3.3c-2.2-0.1-2.2,3.3,0,3.4c5.5,0.2,10.8,1.2,15.9,3.2
				C1070,610.4,1070.9,607.1,1068.9,606.3z"/>
			<path class="st0" d="M1070.6,614.4c-4.8-1.9-9.7-3.3-14.8-4.2c-2.1-0.4-3,2.9-0.9,3.3c5.1,0.9,10,2.3,14.8,4.2
				C1071.7,618.5,1072.6,615.2,1070.6,614.4z"/>
			<path class="st0" d="M1066.6,619.6c-3.9-2.4-8.3-3.6-12.9-3.4c-2.2,0.1-2.2,3.5,0,3.4c4-0.1,7.7,0.9,11.2,3
				C1066.8,623.6,1068.5,620.7,1066.6,619.6z"/>
			<path class="st0" d="M1060.4,590c-1.3,0.4-2.5,0.7-3.8,1.1c-2.1,0.6-1.2,3.9,0.9,3.3l3.8-1.1
				C1063.4,592.6,1062.5,589.4,1060.4,590z"/>
			<path class="st0" d="M1088.6,651.6c-2.2,0-2.2,3.4,0,3.4C1090.8,655,1090.8,651.6,1088.6,651.6z"/>
			<path class="st0" d="M1242.2,713.4c-11.6,11.5-27.2,18.3-43.5,18.9c-8.7,0.3-16.5-1.6-24.7-3.9c-7.7-2.1-14.5-1.4-20.9,3.5
				c-6.1,4.7-10.7,11.2-16.4,16.4c-6.4,5.9-13.9,11.1-22.2,13.9c-18.4,6.2-36.9-1.7-55.4-3c-15.1-1.1-31.6,2.6-40.4,15.9
				c-2.4,3.6,3.4,7,5.8,3.4c9.1-13.8,28.1-13.9,42.7-11.5c17.2,2.8,34.6,7.5,51.5,0.9c6.9-2.7,13-6.6,18.7-11.3
				c6.4-5.2,11.4-11.8,17.5-17.4c3.7-3.4,7.5-5.7,12.7-5.2c4.6,0.5,9,2.5,13.5,3.4c7.1,1.6,14.5,2,21.8,1.3
				c16.6-1.6,32.3-8.8,44.1-20.6C1250.1,715.1,1245.3,710.3,1242.2,713.4z"/>
			<path class="st0" d="M1254.1,761.4c-17.2,8.1-35.3,16.6-54.7,17.4c-16,0.7-33.7-6.8-48.7,1.7c-12.4,7-17.5,23.9-32,27.4
				c-15.9,3.8-32.3-8.3-47.9-10.1c-17-2-34.2,4.5-46,16.7c-3,3.1,1.7,7.9,4.8,4.8c11.7-12,29-17.7,45.5-13.9
				c14.8,3.3,29.8,12.8,45.4,9.1c13.9-3.3,19.5-16.6,29.5-25.1c14-12,35-2.7,51.4-3.8c19.9-1.4,38.3-9.9,56.1-18.2
				C1261.4,765.4,1258,759.5,1254.1,761.4z"/>
			<path class="st0" d="M1269.6,807.6c-15.2,7.5-32.4,6.9-48.9,8.2c-15.8,1.2-29.5,5.2-43.3,13.1c-14,7.9-27.8,16.7-44.7,14
				c-15.1-2.4-28.7-10.5-44-12c-13.3-1.3-27.9,2.1-35.2,14.2c-2.3,3.7,3.6,7.1,5.8,3.4c9.9-16.3,32.6-11.3,47.3-6.3
				c9.5,3.2,18.9,6.9,28.9,7.8c9,0.8,17.7-1.2,25.9-4.9c8.6-3.8,16.4-9,24.7-13.4c9.4-4.9,19.2-7.6,29.7-8.7c19.3-2,39.1-0.7,57-9.6
				C1276.9,811.5,1273.5,805.7,1269.6,807.6z"/>
			
				<ellipse transform="matrix(0.9543 -0.2988 0.2988 0.9543 -168.3143 406.2551)" class="st13" cx="1244.6" cy="753.6" rx="30.2" ry="7.4"/>
			
				<ellipse transform="matrix(0.9543 -0.2988 0.2988 0.9543 -192.6733 345.3065)" class="st13" cx="1033" cy="802.8" rx="30.2" ry="7.4"/>
			<path class="st18" d="M1059.6,294.2c1.6,0,3.1,0,4.7,0"/>
			<path class="st0" d="M919,759.7c-13.1-11.3-26.9-21.7-41.4-31.1c-3.7-2.4-7.1,3.5-3.4,5.8c14,9.1,27.4,19.2,40.1,30.1
				C917.5,767.3,922.3,762.5,919,759.7z"/>
			<path class="st0" d="M895.1,775.2c-12.5-9.8-25.6-18.7-39.5-26.4c-3.8-2.1-7.2,3.7-3.4,5.8c13.4,7.4,26.2,15.8,38.2,25.3
				C893.7,782.7,898.5,777.9,895.1,775.2z"/>
			<path class="st0" d="M877.4,802c-5.3-2.8-9.5-7.4-13.8-11.5l-14.2-13.2c-3.2-3-8,1.8-4.8,4.8c5.2,4.9,10.5,9.7,15.7,14.6
				c4.3,4,8.4,8.3,13.6,11.1C877.9,809.9,881.3,804,877.4,802z"/>
			<path class="st0" d="M1252.1,354.7c-3.1,6.9-8.7,12-15.9,14.3c-4.1,1.3-2.4,7.8,1.8,6.5c8.8-2.8,16.1-9,20-17.4
				C1259.8,354.2,1253.9,350.7,1252.1,354.7z"/>
			<path class="st0" d="M1240.6,351.4c-7.4,2-14.9,3.9-22.3,5.9c-4.2,1.1-2.4,7.6,1.8,6.5c7.4-2,14.9-3.9,22.3-5.9
				C1246.6,356.8,1244.8,350.3,1240.6,351.4z"/>
			<path class="st19" d="M315.7,1027.2c-41.2,61.2-82.3,122.5-123.5,183.7c50-28.6,100-57.1,149.9-85.7c4.3-2.4,8.7-5,11.4-9.1
				c2-3,2.9-6.6,3.7-10c3.7-15,21.1-54,13.5-68.2C366,1029,319.5,1021.6,315.7,1027.2z"/>
			<g>
				<path class="st20" d="M355.8,1030.1c-4.3,5.6-8.2,11.4-10.9,17.8c-2.7,6.5-4.2,13.6-7.8,19.7c-3.5,6.1-10,11.3-17,10.6
					c-11.8,17.9-25,34.1-39.4,49.9c2.7,2.2,3.6,6.3,2.3,9.5c-6.1,1.8-12.2,3.7-18.2,5.5c-1.4,0.4-2.9,0.9-3.9,1.9
					c-0.8,0.8-1.2,1.9-1.6,3c-2.4,6.4-4.5,12.9-8.5,18.5c-3.9,5.4-9.4,9.5-14.8,13.5c-11.9,8.8-23.9,17.7-35.8,26.5
					c47.4-27.1,94.7-54.1,142.1-81.2c4.3-2.4,8.7-5,11.4-9.1c2-3,2.9-6.6,3.7-10c3.7-15,21.1-54,13.5-68.2
					C369.3,1035,363.3,1032.3,355.8,1030.1z"/>
			</g>
			<path class="st12" d="M375.1,1039.3c-9.5-7.6-18-21.7-32.2-17c-4.1,1.4-2.4,7.9,1.8,6.5c10.9-3.6,18.4,9.5,25.6,15.2
				C373.6,1046.8,378.5,1042,375.1,1039.3z"/>
			<path class="st12" d="M379.7,1028.7c-7-8.5-16.6-14.2-27.3-16.5c-4.3-0.9-6.1,5.6-1.8,6.5c9.8,2.1,18,7.1,24.4,14.7
				C377.7,1036.8,382.4,1032,379.7,1028.7z"/>
			<path class="st12" d="M389.2,1024.3c-4.1-8.3-11-14.3-19.5-17.8c-4-1.7-5.8,4.9-1.8,6.5c6.9,2.8,12.2,8.1,15.4,14.7
				C385.3,1031.6,391.1,1028.2,389.2,1024.3z"/>
			<path class="st12" d="M397.1,1018c-5.2-5.4-10.5-10.8-15.7-16.2c-3-3.1-7.8,1.7-4.8,4.8c5.2,5.4,10.5,10.8,15.7,16.2
				C395.4,1025.9,400.2,1021.2,397.1,1018z"/>
			<path class="st12" d="M401.6,1009.8c-2.8-6.6-7.9-12-14.3-15.2c-3.9-2-7.3,3.9-3.4,5.8c5.5,2.8,9.5,7.2,11.9,12.8
				C397.4,1017.2,403.2,1013.8,401.6,1009.8z"/>
			<path class="st12" d="M410.9,999.4c-4.2-5.4-9.7-9.6-16-12.5c-3.9-1.8-7.4,4.1-3.4,5.8c5.8,2.6,10.6,6.4,14.6,11.4
				C408.8,1007.7,413.5,1002.8,410.9,999.4z"/>
			<path class="st12" d="M417.3,989.3c-4.8-5.9-11.2-9.9-18.5-12c-4.2-1.2-6,5.4-1.8,6.5c6.2,1.7,11.4,5.2,15.5,10.2
				C415.3,997.4,420,992.6,417.3,989.3z"/>
			<path class="st12" d="M425,979.7c-4.2-7-11.2-11.2-19.3-11.8c-4.3-0.4-4.3,6.4,0,6.8c5.6,0.5,10.6,3.7,13.5,8.5
				C421.4,986.8,427.3,983.4,425,979.7z"/>
			<path class="st12" d="M503.3,1338.2c-32.4-91.2-44.1-187.7-50.8-283.7c-1.9-27.1-3.4-54.2-4.9-81.3c-0.2-3.2-4-4.1-5.8-2.5
				c-0.6-0.7-1.3-1.4-2-2.1c0.1-1.6,0.2-3.1,0.3-4.7c0.2-4.1-5.8-4.3-6.7-0.7c-3.7-2.6-7.8-4.8-12.1-6.5c-4.1-1.6-5.8,5-1.8,6.5
				c5,1.9,9.4,4.7,13.4,8.2c-3,54.5-6.8,109-13.6,163.2c-3.4,27.5-8.2,54.9-10.9,82.5c-2.8,28-1.8,55.6,1,83.5
				c3.2,31.2,7.1,62.6,3.7,93.9c-0.5,4.3,6.3,4.3,6.8,0c3-27.7,0.3-55.5-2.6-83.1c-2.9-27.8-5.2-55.5-3.1-83.5
				c2.1-27.6,6.9-54.9,10.5-82.3c3.7-28.3,6.6-56.7,9-85.1c2.3-27.8,4.1-55.6,5.7-83.5c0.6,0.1,1.2-0.1,1.7-0.3
				c5.3,95.3,11,191.4,32.8,284.6c6.2,26.6,13.8,53,23,78.7C498.2,1344.1,504.8,1342.3,503.3,1338.2z"/>
			<g>
				<g>
					<path class="st19" d="M1079.9,999.6l-51.5,316.6l252.8-18.1c0,0-63-218.9-39.7-298.4C1241.5,999.6,1101.5,1018.2,1079.9,999.6z
						"/>
				</g>
				<g>
					<path class="st13" d="M1236.3,1042c0.2-16.3,1.7-30.8,5.1-42.3c0,0-139.9,18.6-161.6,0l-7.2,44
						C1108.8,1054.4,1172.3,1065.9,1236.3,1042z"/>
				</g>
				<g>
					<path class="st19" d="M1325.6,941.2L1325.6,941.2c-2.4-7.5-11.5-10.3-17.8-5.6c-114.8,86.2-212.6,60.6-249.6,45.4
						c-7.5-3.1-15.8,2.5-15.8,10.6v3.8c0,4.4,2.5,8.4,6.4,10.3c146.8,71.7,251.8-28.9,274.2-53.2
						C1325.9,949.5,1326.8,945.1,1325.6,941.2z"/>
				</g>
			</g>
		</g>
	</g>
</g>
</svg>
