<?xml version="1.0" encoding="utf-8"?>
<!-- Generator: Adobe Illustrator 22.1.0, SVG Export Plug-In . SVG Version: 6.00 Build 0)  -->
<svg version="1.1" id="Layer_1" xmlns="http://www.w3.org/2000/svg" xmlns:xlink="http://www.w3.org/1999/xlink" x="0px" y="0px"
	 viewBox="0 0 1067 1993" enable-background="new 0 0 1067 1993" xml:space="preserve">
<g>
	<path fill="#F7941D" d="M374.559,884.458c3.051-0.203,5.421-2.737,5.421-5.794v-46.269c0-3.057-2.37-5.591-5.421-5.794
		l-24.579-1.64c0-32.711-26.518-59.229-59.229-59.229c25.372,0,47.008-15.958,55.444-38.38c17.454-4.992,29.405-20.67,28.89-45.831
		c-0.418-20.489-10.32-31.247-25.105-36.156v-35.323c20.488-19.471,22.778-41.901,23.388-54.252
		c1.843-37.031-7.893-66.368-34.607-60.214c-2.037,0.469-4.176,1.144-6.423,2.045c-24.925,9.967-71.708,71.455-85.241,111.685
		c-0.4,1.19-2.033,1.337-2.643,0.24c-3.35-6.031-10.498-8.439-13.487-7.751c-2.989,0.689-8.363,5.982-8.736,12.87
		c-0.068,1.254-1.601,1.836-2.481,0.941c-29.771-30.254-98.74-65.078-125.513-63.135c-2.415,0.172-4.634,0.502-6.671,0.971
		c-26.715,6.154-22.634,36.794-4.776,69.286c4.112,7.487,11.053,18.948,23.831,28.137v55.637c0,32.711,26.518,59.229,59.229,59.229
		c-32.711,0-59.229,26.518-59.229,59.229v0.005l-0.001-0.005c0,0,0,0,0,0l-24.579,1.64c-3.051,0.203-5.421,2.737-5.421,5.794
		v130.128c0,2.316,1.379,4.409,3.505,5.329c9.732,4.21,18.818,8.665,26.495,10.124l0-0.001v31.689
		c0,10.69,8.666,19.357,19.357,19.357h204.646c10.691,0,19.357-8.666,19.357-19.357l29.861-1.64
		c3.051-0.204,5.421-2.737,5.421-5.794v-73.374c0-3.057-2.37-5.591-5.421-5.794l-29.861-1.64v-35.323L374.559,884.458z"/>
	<path fill="none" stroke="#231F20" d="M174.573,765.732h10.639 M193.936,765.732h10.639 M213.299,765.732h10.639 M232.662,765.732
		h10.639 M252.025,765.732h10.639 M271.388,765.732h10.639 M106.62,834.219v11.284 M106.62,854.755v11.284 M106.62,875.292v11.284
		 M106.62,895.828v11.284 M106.62,916.365v11.284 M106.62,936.901v11.284 M106.62,957.438v11.284 M349.98,836.201v13.708
		 M349.98,861.15v13.708 M349.98,930.354v10.894 M349.98,950.182v10.894 M349.98,970.009v10.894 M349.98,989.836v10.894"/>
</g>
</svg>
